<svg width="76" height="76" viewBox="0 0 76 76" fill="none" xmlns="http://www.w3.org/2000/svg">
<g filter="url(#filter0_d_1718_151320)">
<path d="M38 74C57.8823 74 74 57.8823 74 38C74 18.1177 57.8823 2 38 2C18.1177 2 2 18.1177 2 38C2 57.8823 18.1177 74 38 74Z" fill="black"/>
</g>
<path d="M38 74C57.8823 74 74 57.8823 74 38C74 18.1177 57.8823 2 38 2C18.1177 2 2 18.1177 2 38C2 57.8823 18.1177 74 38 74Z" fill="#E7223C"/>
<path d="M38 68C54.5685 68 68 54.5685 68 38C68 21.4315 54.5685 8 38 8C21.4315 8 8 21.4315 8 38C8 54.5685 21.4315 68 38 68Z" fill="white"/>
<defs>
<filter id="filter0_d_1718_151320" x="0" y="0" width="76" height="76" filterUnits="userSpaceOnUse" color-interpolation-filters="sRGB">
<feFlood flood-opacity="0" result="BackgroundImageFix"/>
<feColorMatrix in="SourceAlpha" type="matrix" values="0 0 0 0 0 0 0 0 0 0 0 0 0 0 0 0 0 0 127 0" result="hardAlpha"/>
<feOffset/>
<feGaussianBlur stdDeviation="1"/>
<feColorMatrix type="matrix" values="0 0 0 0 1 0 0 0 0 1 0 0 0 0 1 0 0 0 0.5 0"/>
<feBlend mode="normal" in2="BackgroundImageFix" result="effect1_dropShadow_1718_151320"/>
<feBlend mode="normal" in="SourceGraphic" in2="effect1_dropShadow_1718_151320" result="shape"/>
</filter>
</defs>
</svg>
