<?xml version="1.0" encoding="UTF-8"?>
<svg width="24px" height="24px" viewBox="0 0 24 24" version="1.1" xmlns="http://www.w3.org/2000/svg" xmlns:xlink="http://www.w3.org/1999/xlink">
    <title>Element/Icon/2.Outline/copy_number_new</title>
    <g id="Element/Icon/2.Outline/copy_number_new" stroke="none" stroke-width="1" fill="none" fill-rule="evenodd">
        <g id="Outline" transform="translate(12.000000, 12.000000) scale(-1, 1) translate(-12.000000, -12.000000) translate(3.000000, 2.000000)" fill="#000000" fill-rule="nonzero">
            <path d="M15.8461538,0 C16.9792642,0 17.9153119,0.823440454 17.9945654,1.85771349 L18,2 L18,14 C18,15.0521739 17.113218,15.9213611 15.9993855,15.9949536 L15.8461538,16 L13,16 L13,16 L13,19 C13,19.4733869 12.6710663,19.8699473 12.2292908,19.9735893 L12.116199,19.9932398 L12,20 L4,20 L3.97724344,19.9791121 C3.83484641,19.9461364 3.69680258,19.8732502 3.57788618,19.7543338 L0.245666228,16.4221138 C0.127028977,16.3034766 0.0542060444,16.1658016 0.0211207415,16.0237593 L0,16.0010024 L0,5 C0,4.88214286 0.0206632653,4.76887755 0.0585459184,4.66364796 C0.182866254,4.31512087 0.494497997,4.05638769 0.871921957,4.00812633 L1,4 L4,4 L4,2 C4,0.947826087 4.88678203,0.0786389414 6.00061452,0.00504643708 L6.15384615,0 L15.8461538,0 Z M8.30769231,16 L8.29429155,15.9892716 C8.04945398,16.0287581 7.78473372,15.9611813 7.57788618,15.7543338 L4.24566623,12.4221138 C4.12619154,12.3026391 4.05318024,12.163857 4.02042605,12.0207507 L4,12 L4,6 L2,6 L2,15 L4.16694501,15 C4.62702858,15 5,15.3729714 5,15.833055 L5,18 L11,18 L11,16 L8.30769231,16 Z M16,2 L6,2 L6,11 L8.16694501,11 C8.62702858,11 9,11.3729714 9,11.833055 L9,14 L16,14 L16,2 Z M13,8 C13.5522847,8 14,8.44771525 14,9 C14,9.55228475 13.5522847,10 13,10 L9,10 C8.44771525,10 8,9.55228475 8,9 C8,8.44771525 8.44771525,8 9,8 L13,8 Z M13,4 C13.5522847,4 14,4.44771525 14,5 C14,5.55228475 13.5522847,6 13,6 L9,6 C8.44771525,6 8,5.55228475 8,5 C8,4.44771525 8.44771525,4 9,4 L13,4 Z" id="Combined-Shape"></path>
        </g>
    </g>
</svg>