<svg width="24" height="24" viewBox="0 0 24 24" fill="none" xmlns="http://www.w3.org/2000/svg">
<path d="M19.0709 4.92903C19.4335 5.29166 19.4594 5.86351 19.1486 6.25602L19.0709 6.34324L6.34295 19.0712C5.95243 19.4617 5.31927 19.4617 4.92874 19.0712C4.56611 18.7085 4.54021 18.1367 4.85103 17.7442L4.92874 17.657L17.6567 4.92903C18.0472 4.53851 18.6804 4.53851 19.0709 4.92903Z" fill="black"/>
<path d="M4.92879 4.92912C5.29142 4.56649 5.86326 4.54059 6.25578 4.85142L6.343 4.92912L19.0709 17.657C19.4614 18.0476 19.4614 18.6807 19.0709 19.0713C18.7083 19.4339 18.1364 19.4598 17.7439 19.149L17.6567 19.0713L4.92879 6.34334C4.53826 5.95281 4.53826 5.31965 4.92879 4.92912Z" fill="black"/>
</svg>
