<svg width="28" height="28" viewBox="0 0 28 28" xmlns="http://www.w3.org/2000/svg">
    <defs>
        <filter color-interpolation-filters="auto" id="a">
            <feColorMatrix in="SourceGraphic" values="0 0 0 0 1.000000 0 0 0 0 1.000000 0 0 0 0 1.000000 0 0 0 1.000000 0"/>
        </filter>
        <filter color-interpolation-filters="auto" id="b">
            <feColorMatrix in="SourceGraphic" values="0 0 0 0 0.000000 0 0 0 0 0.000000 0 0 0 0 0.000000 0 0 0 1.000000 0"/>
        </filter>
    </defs>
    <g transform="translate(-16 -16)" filter="url(#a)" fill="none" fill-rule="evenodd">
        <g transform="translate(16 16)" filter="url(#b)">
            <path d="M23.35 2.333c.538 0 1.006.368 1.134.89l1.778 7.276.071.001a.5.5 0 0 1 .5.5v10.333a2 2 0 0 1-2 2H24.5v3a.5.5 0 0 1-.5.5h-3.667a.5.5 0 0 1-.5-.5v-3H8.167v3a.5.5 0 0 1-.5.5H4a.5.5 0 0 1-.5-.5v-3h-.333a2 2 0 0 1-2-2V11a.5.5 0 0 1 .5-.5h.07l1.779-7.277c.128-.522.596-.89 1.133-.89h18.702zm-18.683 14a2.333 2.333 0 1 0 0 4.667 2.333 2.333 0 0 0 0-4.667zm18.666 0a2.333 2.333 0 1 0 0 4.667 2.333 2.333 0 0 0 0-4.667zm-.9-11.666H5.566L4.138 10.5h19.723l-1.427-5.833z" fill="#111" fill-rule="nonzero"/>
        </g>
    </g>
</svg>
