<svg width="16" height="17" viewBox="0 0 16 17" fill="none" xmlns="http://www.w3.org/2000/svg">
<g clip-path="url(#clip0_1208_189)">
<path d="M9.66675 3.83301V3.5C9.66675 2.57953 8.92023 1.83301 7.99976 1.83301C7.07928 1.83301 6.33276 2.57953 6.33276 3.5V3.83301H9.66675ZM4.99976 5.16699V5.83301C4.99976 6.2012 5.29856 6.5 5.66675 6.5C6.03479 6.49982 6.33276 6.20109 6.33276 5.83301V5.16699H4.99976ZM9.66675 5.16699V5.83301C9.66675 6.20109 9.96472 6.49982 10.3328 6.5C10.701 6.5 10.9998 6.2012 10.9998 5.83301V5.16699H9.66675ZM12.3328 3.83301C13.0691 3.83301 13.6667 4.43061 13.6667 5.16699V13.833C13.6667 14.5694 13.0691 15.167 12.3328 15.167H3.66675C2.93037 15.167 2.33276 14.5694 2.33276 13.833V5.16699C2.33276 4.43061 2.93037 3.83301 3.66675 3.83301H4.99976V3.5C4.99976 1.84315 6.3429 0.5 7.99976 0.5C9.65661 0.5 10.9998 1.84315 10.9998 3.5V3.83301H12.3328Z" fill="#0013C1"/>
</g>
<defs>
<clipPath id="clip0_1208_189">
<rect width="16" height="16" fill="white" transform="translate(0 0.5)"/>
</clipPath>
</defs>
</svg>
