<svg width="24" height="24" viewBox="0 0 24 24" fill="none" xmlns="http://www.w3.org/2000/svg">
<path fill-rule="evenodd" clip-rule="evenodd" d="M4 7L8.99913 3.5L9 5.5H13.5C17.2333 5.5 20 8.2667 20 12V14C20 17.7333 17.2333 20.5 13.5 20.5H5.5V18.5V17.5V15.5H13.5C15.1246 15.5 16.4458 14.4663 16.8626 13C16.4458 11.5337 15.1246 10.5 13.5 10.5H8.99913V12.5L4 9V7Z" fill="#4C0707"/>
<path d="M8.99913 3.50017L9.49913 3.49995L9.49871 2.54004L8.71236 3.09058L8.99913 3.50017ZM4 7.00017L3.71324 6.59058L3.5 6.73987V7.00017H4ZM9 5.50017L8.5 5.50039L8.50022 6.00017H9V5.50017ZM5.5 20.5002H5V21.0002H5.5V20.5002ZM5.5 15.5002V15.0002H5V15.5002H5.5ZM16.8626 13.0002L17.3435 13.1369L17.3824 13.0002L17.3435 12.8635L16.8626 13.0002ZM8.99913 10.5002V10.0002H8.49913V10.5002H8.99913ZM8.99913 12.5002L8.71236 12.9098L9.49913 13.4606V12.5002H8.99913ZM4 9.00017H3.5V9.26047L3.71324 9.40976L4 9.00017ZM8.71236 3.09058L3.71324 6.59058L4.28676 7.40976L9.28589 3.90976L8.71236 3.09058ZM9.5 5.49995L9.49913 3.49995L8.49913 3.50039L8.5 5.50039L9.5 5.49995ZM13.5 5.00017H9V6.00017H13.5V5.00017ZM20.5 12.0002C20.5 7.99073 17.5094 5.00017 13.5 5.00017V6.00017C16.9572 6.00017 19.5 8.54301 19.5 12.0002H20.5ZM20.5 14.0002V12.0002H19.5V14.0002H20.5ZM13.5 21.0002C17.5094 21.0002 20.5 18.0096 20.5 14.0002H19.5C19.5 17.4574 16.9572 20.0002 13.5 20.0002V21.0002ZM5.5 21.0002H13.5V20.0002H5.5V21.0002ZM5 18.5002V20.5002H6V18.5002H5ZM5 17.5002V18.5002H6V17.5002H5ZM5 15.5002V17.5002H6V15.5002H5ZM13.5 15.0002H5.5V16.0002H13.5V15.0002ZM16.3816 12.8635C16.0261 14.1143 14.9016 15.0002 13.5 15.0002V16.0002C15.3476 16.0002 16.8655 14.8187 17.3435 13.1369L16.3816 12.8635ZM13.5 11.0002C14.9016 11.0002 16.0261 11.8861 16.3816 13.1369L17.3435 12.8635C16.8655 11.1817 15.3476 10.0002 13.5 10.0002V11.0002ZM8.99913 11.0002H13.5V10.0002H8.99913V11.0002ZM9.49913 12.5002V10.5002H8.49913V12.5002H9.49913ZM3.71324 9.40976L8.71236 12.9098L9.28589 12.0906L4.28676 8.59058L3.71324 9.40976ZM3.5 7.00017V9.00017H4.5V7.00017H3.5Z" fill="#4C0707"/>
<path fill-rule="evenodd" clip-rule="evenodd" d="M9 7.5L8.99913 3.5L4 7V9L8.99913 12.5V10.5H13.5C15.4739 10.5 17 12.0261 17 14C17 15.9739 15.4739 17.5 13.5 17.5H5.5V20.5H13.5C17.2333 20.5 20 17.7333 20 14C20 13.1573 20 13 20 12C19.1039 9.51825 16.3906 7.5 13.5 7.5H9Z" fill="#781616"/>
<path fill-rule="evenodd" clip-rule="evenodd" d="M9 5.5L8.99913 3.5L4 7L8.99913 10.5V8.5H13.5C15.4739 8.5 17 10.0261 17 12C17 13.9739 15.4739 15.5 13.5 15.5H5.5V18.5H13.5C17.2333 18.5 20 15.7333 20 12C20 8.2667 17.2333 5.5 13.5 5.5H9Z" fill="#EF2828"/>
<mask id="mask0_1533_155819" style="mask-type:alpha" maskUnits="userSpaceOnUse" x="0" y="0" width="24" height="24">
<rect width="24" height="24" fill="#D9D9D9"/>
</mask>
<g mask="url(#mask0_1533_155819)">
</g>
</svg>
