<svg xmlns="http://www.w3.org/2000/svg" width="20" height="20" viewBox="0 0 20 20">
    <defs>
        <filter id="j9cklz0wla">
            <feColorMatrix in="SourceGraphic" values="0 0 0 0 0.905882 0 0 0 0 0.133333 0 0 0 0 0.235294 0 0 0 1.000000 0"/>
        </filter>
    </defs>
    <g fill="none" fill-rule="evenodd">
        <g>
            <g>
                <g filter="url(#j9cklz0wla)" transform="translate(-61 -536) translate(0 536) translate(61)">
                    <g>
                        <path fill="#111" d="M10.501 2.797c.151.088.277.213.364.364L18.298 16c.276.478.113 1.09-.365 1.366-.152.089-.325.135-.5.135H2.567c-.553 0-1-.448-1-1 0-.176.046-.349.134-.501L9.135 3.161c.276-.477.888-.64 1.366-.364zm-.168 11.184h-.666c-.276 0-.5.224-.5.5v.852c0 .276.224.5.5.5h.666c.276 0 .5-.224.5-.5v-.852c0-.276-.224-.5-.5-.5zm0-6.481h-.666c-.276 0-.5.224-.5.5v4.556c0 .276.224.5.5.5h.666c.276 0 .5-.224.5-.5V8c0-.276-.224-.5-.5-.5z"/>
                    </g>
                </g>
            </g>
        </g>
    </g>
</svg>
