<svg width="14" height="14" viewBox="0 0 14 14" fill="none" xmlns="http://www.w3.org/2000/svg">
<path fill-rule="evenodd" clip-rule="evenodd" d="M2.33333 11.0859H11.6667C11.9888 11.0859 12.25 10.8248 12.25 10.5026V5.83594C12.25 2.93644 9.8995 0.585938 7 0.585938C4.1005 0.585938 1.75 2.93644 1.75 5.83594V10.5026C1.75 10.8248 2.01117 11.0859 2.33333 11.0859ZM11.0833 9.91927H2.91667V5.83594C2.91667 3.62776 4.66946 1.82896 6.85962 1.75497L7 1.7526C9.25516 1.7526 11.0833 3.58077 11.0833 5.83594V9.91927Z" fill="white"/>
<path d="M4.41301 5.19192C4.70318 5.33191 5.05188 5.21016 5.19187 4.91999C5.38042 4.52914 5.65334 4.23672 5.95899 4.08274L6.05161 4.04074C6.35033 3.92009 6.49468 3.58011 6.37402 3.2814C6.25336 2.98268 5.91339 2.83833 5.61467 2.95899C4.98825 3.21201 4.46885 3.73367 4.14108 4.41307C4.0011 4.70324 4.12285 5.05194 4.41301 5.19192Z" fill="white"/>
<ellipse cx="4.37435" cy="6.41927" rx="0.583333" ry="0.583333" fill="white"/>
<path fill-rule="evenodd" clip-rule="evenodd" d="M1.74967 9.92188H12.2497C12.894 9.92188 13.4163 10.4442 13.4163 11.0885V12.2552C13.4163 12.8995 12.894 13.4219 12.2497 13.4219H1.74967C1.10534 13.4219 0.583008 12.8995 0.583008 12.2552V11.0885C0.583008 10.4442 1.10534 9.92188 1.74967 9.92188ZM12.2497 11.0885H1.74967V12.2552H12.2497V11.0885Z" fill="white"/>
</svg>
