<svg width="24" height="24" viewBox="0 0 24 24" fill="none" xmlns="http://www.w3.org/2000/svg">
<path fill-rule="evenodd" clip-rule="evenodd" d="M3 4.00006V19.0589C3 19.5398 3.34237 19.9527 3.81501 20.0416L8.81501 20.9828L8.9381 20.9981C9.02055 21.0033 9.10349 20.9981 9.18499 20.9828L9.59695 20.9052L8.47975 18.9702C8.46206 18.9396 8.44705 18.908 8.43466 18.8758L5 18.2301V5.20506L8.81501 5.92398C8.93726 5.94699 9.06274 5.94699 9.18499 5.92398L14 5.01706L18 5.77006V8.66592C18.377 9.04095 19.3336 9.98945 20 10.6238V4.94124C20 4.46029 19.6576 4.04747 19.185 3.9585L14.185 3.01732L14.0619 3.00198C13.9794 2.99687 13.8965 3.00198 13.815 3.01732L9 3.92306L4.18499 3.01732C3.56937 2.90144 3 3.37364 3 4.00006ZM14.3704 18.111C14.8211 18.4594 15.3863 18.6667 16 18.6667C16.2611 18.6667 16.5135 18.6292 16.752 18.5592L14.3704 18.111ZM18 17.7639V14.2362C18.4149 14.7062 18.6667 15.3237 18.6667 16C18.6667 16.6763 18.4149 17.2938 18 17.7639Z" fill="black"/>
<path fill-rule="evenodd" clip-rule="evenodd" d="M20.4778 15.4166C20.5284 15.804 20.5282 16.1946 20.4772 16.5829L21.5547 17.6248C21.7197 17.7842 21.7549 18.0355 21.6402 18.2342L20.7483 19.779C20.6336 19.9777 20.3983 20.0729 20.1777 20.0097L18.7295 19.5955C18.5791 19.7094 18.4214 19.8141 18.2583 19.9082C18.0899 20.0055 17.9146 20.0921 17.7348 20.1671L17.3712 21.6213C17.3156 21.8438 17.1156 22 16.8861 22H15.1024C14.8729 22 14.6729 21.8438 14.6173 21.6213L14.252 20.1599C13.8994 20.0121 13.5694 19.8214 13.266 19.5901L11.8222 20.0031C11.6016 20.0663 11.3664 19.9711 11.2517 19.7724L10.3598 18.2276C10.2451 18.0289 10.2803 17.7776 10.4452 17.6182L11.5248 16.5743C11.4758 16.1928 11.476 15.8085 11.5254 15.4263L10.4452 14.3818C10.2803 14.2224 10.2451 13.9711 10.3598 13.7724L11.2517 12.2276C11.3664 12.0289 11.6017 11.9338 11.8222 11.9969L13.2669 12.4102C13.4196 12.294 13.5798 12.1874 13.7455 12.0918C13.9112 11.9961 14.0836 11.9107 14.2605 11.8365L14.6249 10.3787C14.6806 10.1561 14.8806 10 15.11 10H16.8938C17.1232 10 17.3232 10.1561 17.3788 10.3787L17.7433 11.8364C18.0961 11.9835 18.4265 12.1736 18.7303 12.4043L20.1777 11.9903C20.3983 11.927 20.6335 12.0222 20.7483 12.221L21.6402 13.7658C21.7549 13.9645 21.7197 14.2158 21.5547 14.3752L20.4778 15.4166ZM16 18C17.1046 18 18 17.1046 18 16C18 14.8954 17.1046 14 16 14C14.8954 14 14 14.8954 14 16C14 17.1046 14.8954 18 16 18Z" fill="black"/>
</svg>
