<svg width="24" height="24" viewBox="0 0 24 24" fill="none" xmlns="http://www.w3.org/2000/svg">
<path d="M20.1 9C20.5971 9 21 9.44772 21 10C21 10.5128 20.6526 10.9355 20.205 10.9933L20.1 11H3.9C3.40294 11 3 10.5523 3 10C3 9.48716 3.34744 9.06449 3.79504 9.00673L3.9 9H20.1Z" fill="black"/>
<path d="M20.1 13C20.5971 13 21 13.4477 21 14C21 14.5128 20.6526 14.9355 20.205 14.9933L20.1 15H3.9C3.40294 15 3 14.5523 3 14C3 13.4872 3.34744 13.0645 3.79504 13.0067L3.9 13H20.1Z" fill="black"/>
<path fill-rule="evenodd" clip-rule="evenodd" d="M11.2929 2.29289C11.6834 1.90237 12.3166 1.90237 12.7071 2.29289L15.7071 5.29289C16.0976 5.68342 16.0976 6.31658 15.7071 6.70711C15.3166 7.09763 14.6834 7.09763 14.2929 6.70711L12 4.41421L9.70711 6.70711C9.31658 7.09763 8.68342 7.09763 8.29289 6.70711C7.90237 6.31658 7.90237 5.68342 8.29289 5.29289L11.2929 2.29289Z" fill="black"/>
<path fill-rule="evenodd" clip-rule="evenodd" d="M8.29289 17.2929C8.68342 16.9024 9.31658 16.9024 9.70711 17.2929L12 19.5858L14.2929 17.2929C14.6834 16.9024 15.3166 16.9024 15.7071 17.2929C16.0976 17.6834 16.0976 18.3166 15.7071 18.7071L12.7071 21.7071C12.3166 22.0976 11.6834 22.0976 11.2929 21.7071L8.29289 18.7071C7.90237 18.3166 7.90237 17.6834 8.29289 17.2929Z" fill="black"/>
</svg>
