<svg width="24" height="24" viewBox="0 0 24 24" fill="none" xmlns="http://www.w3.org/2000/svg">
<path fill-rule="evenodd" clip-rule="evenodd" d="M2.77201 2.00533L2.87096 2H21.129C21.8362 2 22.2476 2.79941 21.8365 3.37491L15.4777 12.2768V18.5208C15.4777 18.8136 15.3307 19.084 15.0912 19.2439L14.9971 19.2985L9.78053 21.9071C9.20244 22.1962 8.52227 21.7757 8.52227 21.1294V12.2786L2.16348 3.37491C1.77202 2.82681 2.12648 2.07563 2.77201 2.00533ZM13.9008 11.494L19.4389 3.73903H4.56027L10.0992 11.494C10.1835 11.612 10.2365 11.7487 10.2544 11.8914L10.2611 11.9994V19.7216L13.7389 17.9826V11.9994C13.7389 11.8545 13.7751 11.7124 13.8435 11.5858L13.9008 11.494Z" fill="white"/>
</svg>
