<svg width="14" height="14" viewBox="0 0 14 14" fill="none" xmlns="http://www.w3.org/2000/svg">
<path d="M13 0.333496C13.3419 0.333496 13.6237 0.590856 13.6622 0.922415L13.6667 1.00016V5.00016C13.6667 5.34205 13.4093 5.62383 13.0778 5.66234L13 5.66683H9.00001C8.63182 5.66683 8.33334 5.36835 8.33334 5.00016C8.33334 4.65827 8.5907 4.37649 8.92226 4.33798L9.00001 4.3335L11.8664 4.33352C10.9049 2.63477 9.08376 1.54562 7.06224 1.54562C4.02166 1.54562 1.55678 3.9877 1.55678 7.00016C1.55678 10.0126 4.02166 12.4547 7.06224 12.4547C9.68866 12.4547 11.935 10.6184 12.4556 8.10141C12.5234 7.77351 12.8467 7.56215 13.1776 7.62934C13.5086 7.69652 13.7219 8.0168 13.6541 8.34471C13.0175 11.4229 10.2725 13.6668 7.06224 13.6668C3.34597 13.6668 0.333344 10.6821 0.333344 7.00016C0.333344 3.31826 3.34597 0.333496 7.06224 0.333496C9.16071 0.333496 11.0828 1.29408 12.3341 2.85562L12.3333 1.00016C12.3333 0.658272 12.5907 0.376491 12.9223 0.337981L13 0.333496Z" fill="#2267FF"/>
</svg>
