<svg width="24" height="24" viewBox="0 0 24 24" fill="none" xmlns="http://www.w3.org/2000/svg">
<path fill-rule="evenodd" clip-rule="evenodd" d="M22 12C22 17.5228 17.5228 22 12 22C6.47715 22 2 17.5228 2 12C2 6.47715 6.47715 2 12 2C17.5228 2 22 6.47715 22 12ZM17.7071 8.29289C17.3166 7.90237 16.6834 7.90237 16.2929 8.29289L11 13.585L8.77221 11.4349L8.678 11.3517C8.28571 11.0467 7.71848 11.0744 7.358 11.4349C6.96747 11.8255 6.96747 12.4586 7.358 12.8491C7.358 12.8491 8.03727 13.4972 8.58995 14.0387L10.2929 15.7071L10.3871 15.7903C10.7794 16.0953 11.3466 16.0676 11.7071 15.7071L17.7071 9.70711L17.7903 9.6129C18.0953 9.22061 18.0676 8.65338 17.7071 8.29289Z" fill="#345093"/>
</svg>
