<?xml version="1.0" encoding="UTF-8"?>
<svg xmlns="http://www.w3.org/2000/svg" xmlns:xlink="http://www.w3.org/1999/xlink" width="24" height="24" viewBox="0 0 24 24" version="1.1">
<g id="surface1">
<path style="fill:none;stroke-width:2;stroke-linecap:butt;stroke-linejoin:miter;stroke:rgb(19.999695%,19.999695%,19.999695%);stroke-opacity:1;stroke-miterlimit:10;" d="M 2 0 L 18 0 C 19.105469 0 20 0.894531 20 2 L 20 16 C 20 17.105469 19.105469 18 18 18 L 2 18 C 0.894531 18 0 17.105469 0 16 L 0 2 C 0 0.894531 0.894531 0 2 0 Z M 2 0 " transform="matrix(1,0,0,1,2,3)"/>
<path style="fill:none;stroke-width:2;stroke-linecap:butt;stroke-linejoin:round;stroke:rgb(19.999695%,19.999695%,19.999695%);stroke-opacity:1;stroke-miterlimit:10;" d="M 0 0 L 6 0 L 6 7 L 3 6 L 0 7 Z M 0 0 " transform="matrix(1,0,0,1,9,3)"/>
</g>
</svg>
