<svg width="18" height="18" viewBox="0 0 18 18" fill="none" xmlns="http://www.w3.org/2000/svg">
<g id="icon/&#236;&#132;&#164;&#236;&#185;&#152;&#236;&#164;&#145;">
<circle id="Ellipse 77" cx="9" cy="9" r="7" stroke="#F0F3F5" stroke-width="1.5"/>
<path id="Ellipse 78" d="M16 9C16 12.866 12.866 16 9 16C5.13401 16 2 12.866 2 9C2 5.13401 5.13401 2 9 2" stroke="#00C852" stroke-width="1.5" stroke-linecap="round"/>
<path id="Vector" d="M12.4811 12.8059L13.3059 11.9811C13.4353 11.8518 13.5 11.7143 13.5 11.5687C13.5 11.4232 13.4353 11.2857 13.3059 11.1563L10.1523 8.0027C10.217 7.8248 10.2655 7.65094 10.2978 7.48113C10.3302 7.31132 10.3464 7.13747 10.3464 6.95957C10.3464 6.15094 10.0633 5.45553 9.4973 4.87332C8.93127 4.29111 8.23585 4 7.41105 4C7.28167 4 7.1442 4.00809 6.99865 4.02426C6.8531 4.04043 6.71563 4.07278 6.58625 4.12129C6.45687 4.16981 6.38005 4.25876 6.3558 4.38814C6.33154 4.51752 6.36792 4.63073 6.46496 4.72776L8.13881 6.40162L6.90162 7.63881L5.22776 5.96496C5.13073 5.86792 5.01752 5.83154 4.88814 5.8558C4.75876 5.88005 4.66981 5.95687 4.62129 6.08625C4.58895 6.21563 4.56065 6.3531 4.53639 6.49865C4.51213 6.6442 4.5 6.78167 4.5 6.91105C4.5 7.71968 4.78706 8.41105 5.36119 8.98518C5.93531 9.5593 6.62668 9.84636 7.43531 9.84636C7.61321 9.84636 7.79111 9.83423 7.969 9.80997C8.1469 9.78571 8.3248 9.73315 8.5027 9.65229L11.6563 12.8059C11.7857 12.9353 11.9232 13 12.0687 13C12.2143 13 12.3518 12.9353 12.4811 12.8059Z" fill="#455A64"/>
</g>
</svg>
 