<?xml version="1.0" encoding="UTF-8"?>
<svg width="24px" height="24px" viewBox="0 0 24 24" version="1.1" xmlns="http://www.w3.org/2000/svg" xmlns:xlink="http://www.w3.org/1999/xlink">
    <title>Element/Icon/2.Outline/Photo_new</title>
    <g id="Element/Icon/2.Outline/Photo_new" stroke="none" stroke-width="1" fill="none" fill-rule="evenodd">
        <g id="Outline">
            <polygon id="Path" points="0 0 24 0 24 24 0 24"></polygon>
            <path d="M19.7777778,3 C20.9468599,3 21.9126234,3.82344045 21.9943928,4.85771349 L22,5 L22,19 C22,20.0521739 21.0850662,20.9213611 19.9358739,20.9949536 L19.7777778,21 L4.22222222,21 C3.0531401,21 2.0873766,20.1765595 2.00560715,19.1422865 L2,19 L2,5 C2,3.94782609 2.91493384,3.07863894 4.0641261,3.00504644 L4.22222222,3 L19.7777778,3 Z M7.04561351,10.9940658 L4,14.092 L4,19 L20,19 L20,16.132 L16.9613523,13.0227864 L13.5703757,16.4918377 C13.2774768,16.7913806 12.8147094,16.8143683 12.4957377,16.5608392 L12.419172,16.4916962 L7.04561351,10.9940658 Z M20,5 L4,5 L4,11.758 L6.47057167,9.2434805 C6.76344885,8.94381288 7.22630736,8.9207608 7.54533633,9.17432477 L7.62191553,9.2434786 L12.9948945,14.7407277 L16.3866309,11.2725016 C16.6795304,10.972958 17.1422991,10.949971 17.4612708,11.2035015 L17.5378364,11.2726449 L20,13.792 L20,5 Z M16.5,7 C17.3284271,7 18,7.67157288 18,8.5 C18,9.32842712 17.3284271,10 16.5,10 C15.6715729,10 15,9.32842712 15,8.5 C15,7.67157288 15.6715729,7 16.5,7 Z" id="Shape" fill="#000000" fill-rule="nonzero"></path>
        </g>
    </g>
</svg>