<svg width="18" height="16" viewBox="0 0 18 16" fill="none" xmlns="http://www.w3.org/2000/svg">
<path fill-rule="evenodd" clip-rule="evenodd" d="M2.33341 2.16667H5.66675V0.5H1.50008C1.03984 0.5 0.666748 0.873096 0.666748 1.33333V5.5H2.33341V2.16667ZM2.33341 10.5V13.8333H5.66675V15.5H1.50008C1.07272 15.5 0.720492 15.1783 0.672354 14.7639L0.666748 14.6667V10.5H2.33341ZM17.3334 10.5V14.6667C17.3334 15.1269 16.9603 15.5 16.5001 15.5H12.3334V13.8333H15.6667V10.5H17.3334ZM4.00008 3.83333H5.66675V12.1667H4.00008V3.83333ZM7.33341 3.83333H6.50008V12.1667H7.33341V3.83333ZM8.16675 3.83333H9.83341V12.1667H8.16675V3.83333ZM14.0001 3.83333H12.3334V12.1667H14.0001V3.83333ZM10.6667 3.83333H11.5001V12.1667H10.6667V3.83333ZM17.3278 1.23615C17.2797 0.8217 16.9274 0.5 16.5001 0.5H12.3334V2.16667H15.6667V5.5H17.3334V1.33333L17.3278 1.23615Z" fill="white"/>
</svg>
