<svg width="119" height="41" viewBox="0 0 119 41" fill="none" xmlns="http://www.w3.org/2000/svg">
<g filter="url(#filter0_d_1718_151316)">
<path d="M110.5 6H8.5C6.5 6 4 7.5 4 11V30.5C4 33 6 35 8.5 35H110.5C113 35 115 33 115 30.5V10.5C115 8 113 6 110.5 6Z" fill="black"/>
</g>
<path d="M110.5 6.5H8.5C6.29086 6.5 4.5 8.29086 4.5 10.5V30.5C4.5 32.7091 6.29086 34.5 8.5 34.5H110.5C112.709 34.5 114.5 32.7091 114.5 30.5V10.5C114.5 8.29086 112.709 6.5 110.5 6.5Z" fill="#00A547" stroke="white"/>
<defs>
<filter id="filter0_d_1718_151316" x="0" y="4" width="119" height="37" filterUnits="userSpaceOnUse" color-interpolation-filters="sRGB">
<feFlood flood-opacity="0" result="BackgroundImageFix"/>
<feColorMatrix in="SourceAlpha" type="matrix" values="0 0 0 0 0 0 0 0 0 0 0 0 0 0 0 0 0 0 127 0" result="hardAlpha"/>
<feOffset dy="2"/>
<feGaussianBlur stdDeviation="2"/>
<feColorMatrix type="matrix" values="0 0 0 0 0 0 0 0 0 0 0 0 0 0 0 0 0 0 0.2 0"/>
<feBlend mode="normal" in2="BackgroundImageFix" result="effect1_dropShadow_1718_151316"/>
<feBlend mode="normal" in="SourceGraphic" in2="effect1_dropShadow_1718_151316" result="shape"/>
</filter>
</defs>
</svg>
