<svg width="50" height="24" viewBox="0 0 50 24" fill="none" xmlns="http://www.w3.org/2000/svg">
<rect width="50" height="24" rx="8" fill="#E7EAFF"/>
<path d="M9.532 15.496V7.444H11.92C14.368 7.444 15.724 8.692 15.724 11.26V11.488C15.724 14.02 14.548 15.496 11.932 15.496H9.532ZM10.48 14.68H11.956C13.852 14.68 14.692 13.768 14.692 11.62V11.26C14.692 9.028 13.672 8.26 11.824 8.26H10.48V14.68ZM19.6287 15.604C17.7567 15.604 16.8087 14.464 16.8087 12.604V12.436C16.8087 10.36 18.0327 9.436 19.4007 9.436C21.0327 9.436 21.8007 10.384 21.8007 12.232V12.748H17.7447C17.7927 14.236 18.5007 14.812 19.7727 14.812C20.5647 14.812 21.0927 14.62 21.6327 14.368V15.052C21.2727 15.304 20.5887 15.604 19.6287 15.604ZM19.3767 10.18C18.6327 10.18 17.8407 10.612 17.7447 12.016H20.8407C20.8407 10.72 20.3487 10.18 19.3767 10.18ZM23.2047 15.496V6.904H24.1287V15.496H23.2047ZM28.3474 15.604C26.4754 15.604 25.5274 14.464 25.5274 12.604V12.436C25.5274 10.36 26.7514 9.436 28.1194 9.436C29.7514 9.436 30.5194 10.384 30.5194 12.232V12.748H26.4634C26.5114 14.236 27.2194 14.812 28.4914 14.812C29.2834 14.812 29.8114 14.62 30.3514 14.368V15.052C29.9914 15.304 29.3074 15.604 28.3474 15.604ZM28.0954 10.18C27.3514 10.18 26.5594 10.612 26.4634 12.016H29.5594C29.5594 10.72 29.0674 10.18 28.0954 10.18ZM33.842 15.568C32.906 15.568 32.294 15.16 32.294 14.152V10.312H31.442V9.556H32.294V8.14H33.206V9.556H34.73V10.312H33.206V14.008C33.206 14.584 33.398 14.812 34.082 14.812C34.334 14.812 34.61 14.776 34.85 14.704V15.328C34.61 15.436 34.358 15.568 33.842 15.568ZM38.6013 15.604C36.7293 15.604 35.7813 14.464 35.7813 12.604V12.436C35.7813 10.36 37.0053 9.436 38.3733 9.436C40.0053 9.436 40.7733 10.384 40.7733 12.232V12.748H36.7173C36.7653 14.236 37.4733 14.812 38.7453 14.812C39.5373 14.812 40.0653 14.62 40.6053 14.368V15.052C40.2453 15.304 39.5613 15.604 38.6013 15.604ZM38.3493 10.18C37.6053 10.18 36.8133 10.612 36.7173 12.016H39.8133C39.8133 10.72 39.3213 10.18 38.3493 10.18Z" fill="#2267FF"/>
</svg>
