<svg width="68" height="18" viewBox="0 0 68 18" fill="none" xmlns="http://www.w3.org/2000/svg">
<rect x="0.5" y="0.5" width="67" height="17" rx="8.5" stroke="#4B76D9"/>
<path d="M10.2868 12.67C8.18584 12.67 6.88784 11.438 6.88784 8.897V8.622C6.88784 5.905 8.47184 4.882 10.4298 4.882C11.2658 4.882 11.8598 5.025 12.3218 5.278V6.334C11.7388 6.103 11.2218 5.982 10.5288 5.982C9.21984 5.982 8.35084 6.686 8.35084 8.479V8.864C8.35084 10.591 8.95584 11.57 10.5398 11.57C11.3978 11.57 11.9478 11.35 12.3988 11.163V12.208C11.8818 12.483 11.1888 12.67 10.2868 12.67ZM15.5111 12.681C14.5211 12.681 13.7731 12.472 13.2561 12.197V11.13C13.8611 11.394 14.5761 11.592 15.4011 11.592C16.4131 11.592 16.8421 11.174 16.8421 10.492C16.8421 9.865 16.5671 9.623 15.7421 9.37L15.0271 9.172C13.9601 8.875 13.3111 8.303 13.3111 7.027C13.3111 5.751 14.1361 4.882 15.8411 4.882C16.8311 4.882 17.3701 5.069 17.7881 5.289V6.345C17.3151 6.147 16.6991 5.971 15.8631 5.971C15.0711 5.971 14.6311 6.301 14.6311 6.906C14.6311 7.5 14.8511 7.753 15.5991 7.962L16.3031 8.182C17.4911 8.523 18.2061 9.018 18.2061 10.36C18.2061 11.79 17.3371 12.681 15.5111 12.681ZM22.4623 12.549V5.003H24.9923C26.7303 5.003 27.6213 5.74 27.6213 7.214C27.6213 8.27 27.1043 8.831 26.2573 9.161V9.216L28.1273 12.549H26.6533L24.9703 9.502H23.8153V12.549H22.4623ZM23.8153 8.567H24.8493C25.8283 8.567 26.2243 8.138 26.2243 7.258C26.2243 6.4 25.8063 6.048 24.8383 6.048H23.8153V8.567ZM31.6158 12.648C29.7348 12.648 28.8108 11.581 28.8108 9.788V9.634C28.8108 7.731 29.9658 6.796 31.4068 6.796C33.0788 6.796 33.8048 7.731 33.8048 9.535V10.063H30.1088C30.1858 11.24 30.7908 11.658 31.8688 11.658C32.5948 11.658 33.1228 11.493 33.6178 11.24V12.12C33.2328 12.373 32.5728 12.648 31.6158 12.648ZM31.3848 7.731C30.8018 7.731 30.1968 8.039 30.1088 9.194H32.5178C32.5178 8.127 32.1218 7.731 31.3848 7.731ZM38.5706 14.188V12.208H38.5046C38.2076 12.428 37.7346 12.648 36.9976 12.648C35.8756 12.648 34.6876 11.944 34.6876 9.909V9.755C34.6876 7.5 35.9416 6.785 37.5806 6.785C38.6146 6.785 39.3186 6.961 39.8246 7.181V14.188H38.5706ZM37.4156 11.647C37.9656 11.647 38.3506 11.449 38.5706 11.284V7.896C38.3286 7.83 37.9326 7.731 37.5036 7.731C36.5796 7.731 35.9856 8.215 35.9856 9.623V9.821C35.9856 11.24 36.5466 11.647 37.4156 11.647ZM42.9945 12.648C41.8945 12.648 41.2785 12.109 41.2785 10.998V6.884H42.5435V10.756C42.5435 11.372 42.7635 11.625 43.4675 11.625C43.9625 11.625 44.3695 11.449 44.7325 11.284V6.884H45.9975V12.549H44.8975L44.7875 12.054H44.7325C44.2595 12.395 43.7095 12.648 42.9945 12.648ZM49.9635 12.648C48.0825 12.648 47.1585 11.581 47.1585 9.788V9.634C47.1585 7.731 48.3135 6.796 49.7545 6.796C51.4265 6.796 52.1525 7.731 52.1525 9.535V10.063H48.4565C48.5335 11.24 49.1385 11.658 50.2165 11.658C50.9425 11.658 51.4705 11.493 51.9655 11.24V12.12C51.5805 12.373 50.9205 12.648 49.9635 12.648ZM49.7325 7.731C49.1495 7.731 48.5445 8.039 48.4565 9.194H50.8655C50.8655 8.127 50.4695 7.731 49.7325 7.731ZM54.8722 12.637C54.1352 12.637 53.4752 12.505 53.0022 12.252V11.328C53.4752 11.515 53.8932 11.68 54.6852 11.68C55.4772 11.68 55.8072 11.416 55.8072 10.998C55.8072 10.591 55.5872 10.393 54.9712 10.261L54.4432 10.14C53.5742 9.964 53.0022 9.524 53.0022 8.512C53.0022 7.467 53.6732 6.796 55.1032 6.796C55.8732 6.796 56.3572 6.939 56.7312 7.104V8.061C56.4012 7.918 55.8512 7.753 55.2132 7.753C54.5532 7.753 54.2012 7.973 54.2012 8.413C54.2012 8.809 54.4212 8.952 54.9602 9.084L55.4992 9.205C56.6102 9.458 57.0392 9.898 57.0392 10.877C57.0392 12.054 56.2582 12.637 54.8722 12.637ZM60.1557 12.615C59.1767 12.615 58.5497 12.219 58.5497 11.152V7.874H57.7577V6.884H58.5497V5.553H59.7927V6.884H61.1457V7.874H59.7927V10.976C59.7927 11.449 59.9687 11.625 60.5627 11.625C60.7827 11.625 61.0137 11.592 61.2117 11.537V12.384C60.9917 12.494 60.6837 12.615 60.1557 12.615Z" fill="#4B76D9"/>
</svg>
