<svg width="32" height="19" viewBox="0 0 32 19" fill="none" xmlns="http://www.w3.org/2000/svg">
<rect x="1" y="1" width="30" height="17" rx="8.5" stroke="#E7223C"/>
<path d="M12.193 8.501L12.776 8.875C12.292 9.37 11.61 10.118 10.983 10.701C11.731 10.668 12.457 10.646 13.117 10.602C12.853 10.382 12.6 10.173 12.347 9.986L12.831 9.557C13.436 10.008 14.239 10.668 14.855 11.251L14.338 11.724C14.14 11.515 13.931 11.317 13.711 11.13L11.082 11.295V13.66H10.356V11.339C9.113 11.394 7.881 11.438 6.825 11.449L6.748 10.778H7.87C8.541 10.778 9.267 10.767 9.993 10.745L10.048 10.69C9.531 10.305 8.717 9.832 8.09 9.469L8.497 8.996L9.3 9.447C9.608 9.15 9.894 8.809 10.136 8.523H6.913V4.739H10.598V5.311H9.267V5.828H10.455V7.357H9.267V7.973H10.631V8.523H10.51L10.862 8.721C10.565 9.018 10.224 9.436 9.872 9.799L10.554 10.25C11.126 9.689 11.753 9.029 12.193 8.501ZM14.206 4.739L14.69 5.179C14.338 5.982 13.887 6.62 13.337 7.159C13.788 7.522 14.327 7.819 14.987 8.05L14.602 8.666C13.898 8.369 13.326 8.006 12.853 7.577C12.336 7.984 11.764 8.303 11.093 8.578L10.752 7.973C11.368 7.764 11.929 7.478 12.391 7.126C11.918 6.587 11.577 5.993 11.335 5.311H10.884V4.739H14.206ZM14.8 12.879L14.382 13.495C13.678 13.242 12.622 12.604 11.83 12.021L12.336 11.581C12.941 12.065 14.03 12.637 14.8 12.879ZM9.003 11.57L9.542 11.966C8.959 12.505 7.98 13.165 7.111 13.55L6.693 12.956C7.419 12.703 8.486 12.065 9.003 11.57ZM12.017 5.311C12.226 5.828 12.501 6.301 12.875 6.708C13.315 6.29 13.645 5.828 13.865 5.311H12.017ZM9.751 6.345H7.628V6.862H9.751V6.345ZM7.628 7.357V7.973H8.552V7.357H7.628ZM7.628 5.311V5.828H8.552V5.311H7.628ZM16.5076 7.522L16.1006 6.917C17.3216 6.235 18.3116 5.333 18.9276 4.365L19.6976 4.607C19.5436 4.816 19.3896 5.025 19.2246 5.223H21.4906L22.0076 5.63C21.7106 6.048 21.3806 6.499 21.1166 6.851H23.2506V8.237H24.4276V8.82H23.2506V10.217H17.1896V9.601H22.5026V8.82H16.0786V8.237H22.5026V7.456H17.2116V7.06C16.9806 7.225 16.7496 7.379 16.5076 7.522ZM21.8976 11.636L22.6456 11.878C22.5906 12.307 22.5026 12.802 22.3266 13.044C22.1066 13.308 21.7436 13.407 20.2586 13.407C18.5096 13.407 18.2016 13.286 18.2016 12.549V10.668H18.9606V12.34C18.9606 12.714 19.2026 12.758 20.3246 12.758C21.3696 12.758 21.6446 12.681 21.7546 12.516C21.8426 12.351 21.8866 12.076 21.8976 11.636ZM20.9516 5.839H18.6636C18.3006 6.213 17.9156 6.543 17.5086 6.851H20.1816C20.4896 6.477 20.7866 6.081 20.9516 5.839ZM17.0356 10.855L17.7176 11.108C17.4646 11.878 17.1126 12.648 16.6506 13.275L16.0456 12.868C16.5076 12.208 16.8376 11.46 17.0356 10.855ZM24.4496 12.78L23.8006 13.198C23.4706 12.516 23.0306 11.823 22.6346 11.262L23.2396 10.877C23.6906 11.493 24.0976 12.098 24.4496 12.78ZM21.2486 11.427L20.7536 11.966C20.4126 11.57 19.9066 11.108 19.4886 10.811L19.9286 10.316C20.3356 10.613 20.8416 10.998 21.2486 11.427Z" fill="#E7223C"/>
</svg>
