<svg width="182" height="35" viewBox="0 0 182 35" fill="none" xmlns="http://www.w3.org/2000/svg">
<path d="M27.404 10.32H37.466V12.088H27.404V10.32ZM25.662 16.222H38.064V17.964H25.662V16.222ZM27.378 27.012H36.738V28.78H27.378V27.012ZM26.572 20.226H37.206V29.95H35.308V21.994H28.366V30.002H26.572V20.226ZM31.226 6.16H33.072V17.34H31.226V6.16ZM27.69 7.044L29.51 7.356C29.25 8.812 28.912 10.2333 28.496 11.62C28.08 12.9893 27.612 14.1593 27.092 15.13C26.9707 15.0433 26.806 14.948 26.598 14.844C26.4073 14.7227 26.1993 14.61 25.974 14.506C25.766 14.3847 25.5927 14.298 25.454 14.246C25.9913 13.3447 26.442 12.2527 26.806 10.97C27.1873 9.68733 27.482 8.37867 27.69 7.044ZM14.664 11.932H24.83V29.768H23.166V13.622H16.276V29.976H14.664V11.932ZM15.34 22.384H24.05V23.866H15.34V22.384ZM15.34 26.596H24.05V28.182H15.34V26.596ZM14.222 7.174H25.142V8.838H14.222V7.174ZM17.316 7.642H18.902V13.154H17.316V7.642ZM20.54 7.642H22.152V13.154H20.54V7.642ZM17.836 13.128H18.98V15.702C18.98 16.2393 18.928 16.82 18.824 17.444C18.72 18.0507 18.5207 18.6573 18.226 19.264C17.9487 19.8533 17.5327 20.3993 16.978 20.902C16.874 20.7807 16.7267 20.642 16.536 20.486C16.3453 20.3127 16.1893 20.1827 16.068 20.096C16.5707 19.6627 16.9433 19.1947 17.186 18.692C17.446 18.1893 17.6193 17.678 17.706 17.158C17.7927 16.6207 17.836 16.1267 17.836 15.676V13.128ZM20.436 13.102H21.554V18.484C21.554 18.6573 21.5713 18.77 21.606 18.822C21.6407 18.8567 21.736 18.874 21.892 18.874C21.944 18.874 22.0307 18.874 22.152 18.874C22.2907 18.874 22.4293 18.874 22.568 18.874C22.7067 18.874 22.802 18.874 22.854 18.874C23.0793 18.874 23.2093 18.848 23.244 18.796C23.3653 18.9 23.5213 18.9867 23.712 19.056C23.92 19.1253 24.1193 19.186 24.31 19.238C24.2407 19.5153 24.102 19.7147 23.894 19.836C23.7033 19.9573 23.426 20.018 23.062 20.018C23.01 20.018 22.8887 20.018 22.698 20.018C22.5247 20.018 22.3427 20.018 22.152 20.018C21.9787 20.018 21.8573 20.018 21.788 20.018C21.268 20.018 20.9127 19.9227 20.722 19.732C20.5313 19.5413 20.436 19.134 20.436 18.51V13.102ZM41.08 7.824L42.224 6.446C42.692 6.68867 43.186 6.97467 43.706 7.304C44.226 7.616 44.7027 7.93667 45.136 8.266C45.5867 8.59533 45.9507 8.90733 46.228 9.202L45.058 10.736C44.798 10.424 44.4427 10.0947 43.992 9.748C43.5413 9.40133 43.0647 9.06333 42.562 8.734C42.0593 8.38733 41.5653 8.084 41.08 7.824ZM39.988 14.792L41.106 13.388C41.5913 13.596 42.094 13.8473 42.614 14.142C43.134 14.4367 43.628 14.7487 44.096 15.078C44.564 15.39 44.9453 15.6847 45.24 15.962L44.07 17.522C43.81 17.2447 43.446 16.9413 42.978 16.612C42.5273 16.2827 42.042 15.962 41.522 15.65C41.002 15.3207 40.4907 15.0347 39.988 14.792ZM40.508 28.702C40.872 28.026 41.262 27.2287 41.678 26.31C42.1113 25.3913 42.536 24.4207 42.952 23.398C43.3853 22.358 43.7753 21.3613 44.122 20.408L45.682 21.422C45.37 22.3233 45.0147 23.268 44.616 24.256C44.2347 25.2267 43.8447 26.1887 43.446 27.142C43.0473 28.078 42.6573 28.9447 42.276 29.742L40.508 28.702ZM45.578 27.558C46.462 27.402 47.4933 27.22 48.672 27.012C49.8507 26.7867 51.0987 26.544 52.416 26.284C53.7507 26.0067 55.0853 25.738 56.42 25.478L56.576 27.09C55.328 27.3673 54.08 27.6447 52.832 27.922C51.584 28.182 50.3793 28.4247 49.218 28.65C48.0567 28.8927 47.008 29.118 46.072 29.326L45.578 27.558ZM47.372 22.072L48.932 21.604C49.244 22.2627 49.5127 22.9733 49.738 23.736C49.9807 24.4987 50.1367 25.166 50.206 25.738L48.542 26.284C48.49 25.6947 48.3513 25.01 48.126 24.23C47.918 23.45 47.6667 22.7307 47.372 22.072ZM46.15 8.5H56.082V10.138H46.15V8.5ZM46.566 12.296H55.484V13.882H46.566V12.296ZM50.102 6.212H51.974V13.414H50.102V6.212ZM52.988 21.474L54.86 21.942C54.6347 22.6353 54.392 23.3633 54.132 24.126C53.872 24.8713 53.6293 25.5127 53.404 26.05L51.844 25.608C51.9827 25.2267 52.1213 24.7933 52.26 24.308C52.416 23.8227 52.5547 23.3287 52.676 22.826C52.8147 22.3233 52.9187 21.8727 52.988 21.474ZM48.594 16.872V19.654H53.456V16.872H48.594ZM46.904 15.442H55.224V21.058H46.904V15.442ZM61.386 6.68L63.154 7.304C62.6687 8.17067 62.0967 9.01133 61.438 9.826C60.7793 10.6407 60.0773 11.412 59.332 12.14C58.604 12.8507 57.8587 13.466 57.096 13.986C56.94 13.778 56.732 13.5527 56.472 13.31C56.212 13.0673 55.952 12.8593 55.692 12.686C56.4027 12.218 57.1133 11.6633 57.824 11.022C58.5347 10.3633 59.202 9.66133 59.826 8.916C60.45 8.17067 60.97 7.42533 61.386 6.68ZM61.568 13.986L63.362 14.61C62.8767 15.4593 62.296 16.2827 61.62 17.08C60.944 17.8773 60.2073 18.614 59.41 19.29C58.63 19.966 57.824 20.5553 56.992 21.058C56.836 20.8327 56.628 20.5987 56.368 20.356C56.108 20.096 55.8567 19.8793 55.614 19.706C56.394 19.2727 57.1567 18.7527 57.902 18.146C58.6647 17.5393 59.3667 16.8807 60.008 16.17C60.6493 15.442 61.1693 14.714 61.568 13.986ZM61.958 21.266L63.804 21.812C63.076 23.6147 62.036 25.2267 60.684 26.648C59.3493 28.0693 57.7373 29.2133 55.848 30.08C55.7093 29.8547 55.5187 29.6033 55.276 29.326C55.0507 29.066 54.8253 28.8493 54.6 28.676C56.3333 27.948 57.8327 26.9427 59.098 25.66C60.3633 24.36 61.3167 22.8953 61.958 21.266ZM70.226 11.438L72.176 11.854C72.02 12.8767 71.8033 13.8993 71.526 14.922C71.2487 15.9273 70.8673 16.8633 70.382 17.73C69.914 18.5793 69.29 19.2987 68.51 19.888L66.82 18.744C67.5307 18.224 68.1113 17.574 68.562 16.794C69.0127 16.014 69.368 15.1647 69.628 14.246C69.9053 13.3273 70.1047 12.3913 70.226 11.438ZM86.554 11.386L88.66 12.218C88.244 13.0327 87.7847 13.882 87.282 14.766C86.7967 15.65 86.3027 16.508 85.8 17.34C85.3147 18.1547 84.8467 18.874 84.396 19.498L82.758 18.718C83.1913 18.0767 83.642 17.3313 84.11 16.482C84.5953 15.6327 85.046 14.766 85.462 13.882C85.8953 12.9807 86.2593 12.1487 86.554 11.386ZM77.896 6.524H78.936V14.948C78.936 15.4507 78.9967 16.0573 79.118 16.768C79.2393 17.4613 79.4473 18.224 79.742 19.056C80.0367 19.8707 80.444 20.7113 80.964 21.578C81.5013 22.4273 82.1687 23.268 82.966 24.1C83.7633 24.932 84.7253 25.712 85.852 26.44C86.9787 27.1507 88.296 27.7747 89.804 28.312C89.6653 28.4507 89.5093 28.624 89.336 28.832C89.18 29.0573 89.024 29.2827 88.868 29.508C88.712 29.7333 88.582 29.9327 88.478 30.106C86.97 29.534 85.6527 28.858 84.526 28.078C83.3993 27.298 82.4373 26.4747 81.64 25.608C80.8427 24.7413 80.184 23.8747 79.664 23.008C79.144 22.1413 78.7453 21.3353 78.468 20.59C78.1907 19.8447 77.9913 19.2293 77.87 18.744C77.766 19.2467 77.5753 19.862 77.298 20.59C77.038 21.318 76.6567 22.1067 76.154 22.956C75.6687 23.8053 75.036 24.6633 74.256 25.53C73.4933 26.3967 72.5573 27.22 71.448 28C70.356 28.7973 69.0733 29.4993 67.6 30.106C67.5307 29.9673 67.4093 29.794 67.236 29.586C67.08 29.3953 66.9153 29.196 66.742 28.988C66.5687 28.78 66.4127 28.6067 66.274 28.468C68.0247 27.8093 69.5067 27.0207 70.72 26.102C71.9507 25.166 72.9647 24.1867 73.762 23.164C74.5593 22.124 75.1833 21.0927 75.634 20.07C76.0847 19.0473 76.3967 18.094 76.57 17.21C76.7433 16.326 76.83 15.5807 76.83 14.974V6.524H77.896ZM92.196 14.376H115.882V15.962H92.196V14.376ZM96.408 20.668L97.448 19.862C98.02 20.174 98.618 20.5467 99.242 20.98C99.866 21.396 100.36 21.7687 100.724 22.098L99.658 23.008C99.3113 22.6613 98.826 22.2713 98.202 21.838C97.5953 21.3873 96.9973 20.9973 96.408 20.668ZM96.252 24.204L97.318 23.372C97.9073 23.7013 98.514 24.0913 99.138 24.542C99.7793 24.9927 100.282 25.4087 100.646 25.79L99.528 26.7C99.216 26.336 98.7393 25.92 98.098 25.452C97.474 24.9667 96.8587 24.5507 96.252 24.204ZM94.328 17.548H101.92V19.004H96.148V30.08H94.328V17.548ZM101.14 17.548H103.012V28.052C103.012 28.5373 102.951 28.91 102.83 29.17C102.726 29.4473 102.509 29.6553 102.18 29.794C101.851 29.9327 101.417 30.0193 100.88 30.054C100.36 30.0887 99.7273 30.106 98.982 30.106C98.9647 29.8633 98.8953 29.5773 98.774 29.248C98.67 28.936 98.5573 28.6587 98.436 28.416C98.9733 28.4333 99.45 28.442 99.866 28.442C100.299 28.4593 100.594 28.4593 100.75 28.442C100.906 28.4247 101.01 28.39 101.062 28.338C101.114 28.286 101.14 28.1907 101.14 28.052V17.548ZM96.538 11.984L98.202 11.334C98.618 11.7673 99.0253 12.2527 99.424 12.79C99.8227 13.3273 100.126 13.804 100.334 14.22L98.566 14.948C98.3753 14.532 98.0807 14.0467 97.682 13.492C97.3007 12.9373 96.9193 12.4347 96.538 11.984ZM109.98 11.308L111.904 11.932C111.488 12.504 111.063 13.0587 110.63 13.596C110.197 14.1333 109.789 14.6013 109.408 15L107.822 14.402C108.186 13.9687 108.576 13.466 108.992 12.894C109.408 12.3047 109.737 11.776 109.98 11.308ZM95.264 8.136H103.662V9.748H95.264V8.136ZM105.352 8.136H115.44V9.748H105.352V8.136ZM95.81 6.03L97.63 6.524C97.1447 7.68533 96.5293 8.812 95.784 9.904C95.056 10.9787 94.3107 11.8887 93.548 12.634C93.4267 12.53 93.262 12.4173 93.054 12.296C92.8633 12.1747 92.6553 12.0533 92.43 11.932C92.222 11.8107 92.04 11.7067 91.884 11.62C92.6987 10.9267 93.4527 10.086 94.146 9.098C94.8393 8.11 95.394 7.08733 95.81 6.03ZM106.08 6.03L107.952 6.498C107.467 7.67667 106.834 8.79467 106.054 9.852C105.291 10.9093 104.494 11.7933 103.662 12.504C103.541 12.3827 103.376 12.27 103.168 12.166C102.96 12.0447 102.743 11.9233 102.518 11.802C102.31 11.6807 102.128 11.5853 101.972 11.516C102.839 10.8573 103.636 10.0513 104.364 9.098C105.092 8.12733 105.664 7.10467 106.08 6.03ZM97.084 9.358L98.644 8.734C99.0427 9.16733 99.4327 9.66133 99.814 10.216C100.213 10.7707 100.516 11.2473 100.724 11.646L99.086 12.322C98.8953 11.9233 98.6093 11.4467 98.228 10.892C97.864 10.32 97.4827 9.80867 97.084 9.358ZM107.484 9.358L109.174 8.838C109.573 9.27133 109.971 9.76533 110.37 10.32C110.769 10.8573 111.055 11.3427 111.228 11.776L109.512 12.348C109.321 11.932 109.035 11.4467 108.654 10.892C108.29 10.32 107.9 9.80867 107.484 9.358ZM105.742 17.938H107.614V26.57H105.742V17.938ZM111.93 17.444H113.828V27.87C113.828 28.39 113.75 28.7887 113.594 29.066C113.455 29.3607 113.178 29.5947 112.762 29.768C112.381 29.9067 111.861 29.9933 111.202 30.028C110.561 30.0627 109.772 30.08 108.836 30.08C108.784 29.82 108.68 29.5167 108.524 29.17C108.368 28.8233 108.212 28.5287 108.056 28.286C108.836 28.3033 109.538 28.312 110.162 28.312C110.786 28.3293 111.202 28.3293 111.41 28.312C111.618 28.2947 111.757 28.2513 111.826 28.182C111.895 28.13 111.93 28.0173 111.93 27.844V17.444ZM132.392 15.494H140.192V17.392H132.392V15.494ZM131.482 15.494H133.406V26.804C133.406 27.2893 133.493 27.61 133.666 27.766C133.839 27.9047 134.229 27.974 134.836 27.974C134.975 27.974 135.226 27.974 135.59 27.974C135.954 27.974 136.353 27.974 136.786 27.974C137.219 27.974 137.627 27.974 138.008 27.974C138.407 27.974 138.693 27.974 138.866 27.974C139.265 27.974 139.559 27.8613 139.75 27.636C139.941 27.4107 140.079 26.986 140.166 26.362C140.253 25.738 140.313 24.802 140.348 23.554C140.521 23.658 140.712 23.7707 140.92 23.892C141.128 24.0133 141.345 24.1173 141.57 24.204C141.795 24.2733 141.995 24.334 142.168 24.386C142.081 25.79 141.943 26.8907 141.752 27.688C141.561 28.468 141.249 29.014 140.816 29.326C140.4 29.6553 139.793 29.82 138.996 29.82C138.892 29.82 138.693 29.82 138.398 29.82C138.103 29.82 137.757 29.82 137.358 29.82C136.977 29.82 136.595 29.82 136.214 29.82C135.833 29.82 135.495 29.82 135.2 29.82C134.923 29.82 134.732 29.82 134.628 29.82C133.831 29.82 133.198 29.7333 132.73 29.56C132.279 29.3867 131.959 29.0833 131.768 28.65C131.577 28.2167 131.482 27.6013 131.482 26.804V15.494ZM131.404 7.33H141.18V19.16H139.308V9.202H131.404V7.33ZM119.132 11.932H129.532V29.612H127.92V13.622H120.718V29.976H119.132V11.932ZM119.938 22.436H128.7V23.892H119.938V22.436ZM119.938 26.596H128.7V28.182H119.938V26.596ZM118.482 7.174H130.13V8.916H118.482V7.174ZM122.226 7.642H123.63V13.154H122.226V7.642ZM125.164 7.642H126.594V13.154H125.164V7.642ZM122.486 13.128H123.578V15.702C123.578 16.2393 123.526 16.8113 123.422 17.418C123.318 18.0247 123.119 18.6313 122.824 19.238C122.547 19.8273 122.131 20.3733 121.576 20.876C121.489 20.7547 121.351 20.616 121.16 20.46C120.987 20.304 120.839 20.1827 120.718 20.096C121.221 19.6627 121.593 19.1947 121.836 18.692C122.096 18.172 122.269 17.652 122.356 17.132C122.443 16.612 122.486 16.1267 122.486 15.676V13.128ZM125.034 13.128H126.152V18.51C126.152 18.666 126.169 18.77 126.204 18.822C126.239 18.874 126.334 18.9 126.49 18.9C126.542 18.9 126.629 18.9 126.75 18.9C126.871 18.9 127.001 18.9 127.14 18.9C127.279 18.9 127.383 18.9 127.452 18.9C127.677 18.9 127.807 18.874 127.842 18.822C127.963 18.9087 128.119 18.9953 128.31 19.082C128.501 19.1513 128.683 19.212 128.856 19.264C128.804 19.524 128.683 19.7147 128.492 19.836C128.301 19.9573 128.024 20.018 127.66 20.018C127.591 20.018 127.461 20.018 127.27 20.018C127.097 20.018 126.923 20.018 126.75 20.018C126.577 20.018 126.455 20.018 126.386 20.018C125.866 20.018 125.511 19.9313 125.32 19.758C125.129 19.5673 125.034 19.16 125.034 18.536V13.128ZM151.268 16.482H167.674V18.25H151.268V16.482ZM152.126 11.126H166.894V12.868H152.126V11.126ZM158.262 11.906H160.186V15.806C160.186 16.6207 160.099 17.4873 159.926 18.406C159.77 19.3073 159.441 20.226 158.938 21.162C158.435 22.098 157.69 22.9993 156.702 23.866C155.714 24.7327 154.397 25.5387 152.75 26.284C152.681 26.128 152.568 25.9633 152.412 25.79C152.256 25.6167 152.091 25.4433 151.918 25.27C151.762 25.0967 151.606 24.958 151.45 24.854C153.045 24.2127 154.301 23.5107 155.22 22.748C156.139 21.968 156.806 21.1793 157.222 20.382C157.655 19.5673 157.933 18.77 158.054 17.99C158.193 17.21 158.262 16.4733 158.262 15.78V11.906ZM160.732 17.626C161.235 19.4287 162.058 20.9367 163.202 22.15C164.363 23.346 165.871 24.2127 167.726 24.75C167.587 24.8713 167.44 25.036 167.284 25.244C167.128 25.4347 166.981 25.634 166.842 25.842C166.703 26.0327 166.582 26.2147 166.478 26.388C164.519 25.712 162.933 24.672 161.72 23.268C160.524 21.864 159.631 20.096 159.042 17.964L160.732 17.626ZM149.812 16.43V25.634H147.914V18.25H144.274V16.43H149.812ZM149.812 24.776C150.436 25.7293 151.303 26.44 152.412 26.908C153.521 27.376 154.83 27.636 156.338 27.688C157.049 27.7227 157.907 27.7487 158.912 27.766C159.935 27.766 161.001 27.7573 162.11 27.74C163.237 27.7227 164.32 27.6967 165.36 27.662C166.4 27.6273 167.31 27.584 168.09 27.532C168.003 27.6707 167.917 27.8613 167.83 28.104C167.743 28.3467 167.665 28.5893 167.596 28.832C167.527 29.092 167.475 29.3173 167.44 29.508C166.729 29.5427 165.889 29.5687 164.918 29.586C163.947 29.6033 162.942 29.612 161.902 29.612C160.862 29.6293 159.848 29.6293 158.86 29.612C157.889 29.612 157.049 29.6033 156.338 29.586C154.639 29.5167 153.183 29.2393 151.97 28.754C150.774 28.2687 149.76 27.506 148.928 26.466C148.304 27.0207 147.663 27.5753 147.004 28.13C146.345 28.702 145.661 29.2827 144.95 29.872L143.936 27.87C144.56 27.454 145.227 26.9773 145.938 26.44C146.666 25.8853 147.368 25.3307 148.044 24.776H149.812ZM144.56 7.954L145.99 6.784C146.562 7.148 147.143 7.57267 147.732 8.058C148.321 8.526 148.867 9.00267 149.37 9.488C149.873 9.97333 150.271 10.424 150.566 10.84L149.006 12.14C148.746 11.724 148.365 11.2647 147.862 10.762C147.377 10.2593 146.839 9.76533 146.25 9.28C145.678 8.77733 145.115 8.33533 144.56 7.954ZM163.488 6.16L165.49 6.81C165.039 7.55533 164.563 8.32667 164.06 9.124C163.557 9.904 163.089 10.5713 162.656 11.126L161.07 10.528C161.347 10.1293 161.633 9.67867 161.928 9.176C162.24 8.656 162.535 8.136 162.812 7.616C163.089 7.07867 163.315 6.59333 163.488 6.16ZM153.14 6.914L154.778 6.238C155.298 6.87933 155.783 7.59 156.234 8.37C156.702 9.13267 157.023 9.80867 157.196 10.398L155.428 11.204C155.272 10.6147 154.977 9.92133 154.544 9.124C154.111 8.30933 153.643 7.57267 153.14 6.914Z" fill="#222222"/>
</svg>
