<svg width="18" height="18" viewBox="0 0 18 18" fill="none" xmlns="http://www.w3.org/2000/svg">
<path d="M14.6133 1.5C15.3789 1.5 16 2.12105 16 2.88672V7.52832C14.9385 6.5781 13.5368 6 12 6C8.68629 6 6 8.68629 6 12C6 13.2463 6.37981 14.404 7.03027 15.3633H2.13672C1.37114 15.3633 0.750144 14.7431 0.75 13.9775V2.88672C0.75 2.12105 1.37105 1.5 2.13672 1.5H14.6133Z" fill="#AAB5C0"/>
<path d="M10.4546 12.2443C10.4546 12.4357 10.6098 12.5909 10.8012 12.5909H12.8807C13.0721 12.5909 13.2273 12.4357 13.2273 12.2443V10.8579C13.2273 10.6665 13.0721 10.5114 12.8807 10.5114H10.8012C10.6098 10.5114 10.4546 10.6665 10.4546 10.8579V12.2443Z" fill="#CFD8DC"/>
<path d="M10.8013 6.12012C10.2168 6.23862 9.66316 6.44183 9.15381 6.7168L8.50342 6.45703C8.42098 6.42411 8.32904 6.42417 8.24658 6.45703L6.42432 7.18555C6.19667 7.27661 5.94877 7.10943 5.94873 6.86426V1.5H10.8013V6.12012Z" fill="#CFD8DC"/>
<circle cx="12" cy="12" r="5" fill="#00A547"/>
<path d="M11.1666 14.0834C11.1583 14.0834 11.1666 14.0834 11.1666 14.0834C11.0416 14.0834 10.9332 14.0334 10.8499 13.9417L9.39156 12.275C9.24159 12.1 9.25823 11.8417 9.43323 11.6834C9.60823 11.5334 9.86659 11.55 10.0249 11.725L11.1832 13.0417L13.9916 10.0417C14.1499 9.87504 14.4166 9.86671 14.5832 10.025C14.7499 10.1834 14.7582 10.45 14.5999 10.6167L11.4749 13.95C11.3916 14.0334 11.2833 14.0834 11.1666 14.0834Z" fill="white"/>
</svg>
