<svg width="24" height="24" viewBox="0 0 24 24" fill="none" xmlns="http://www.w3.org/2000/svg">
<path d="M21 2C21.5128 2 21.9355 2.38604 21.9933 2.88338L22 3V9C22 9.51284 21.614 9.93551 21.1166 9.99327L21 10H15C14.4477 10 14 9.55228 14 9C14 8.48716 14.386 8.06449 14.8834 8.00673L15 8L19.2996 8.00003C17.8574 5.4519 15.1256 3.81818 12.0933 3.81818C7.53247 3.81818 3.83515 7.48131 3.83515 12C3.83515 16.5187 7.53247 20.1818 12.0933 20.1818C16.033 20.1818 19.4026 17.4274 20.1833 13.6519C20.2851 13.16 20.77 12.843 21.2664 12.9438C21.7629 13.0445 22.0829 13.525 21.9811 14.0168C21.0263 18.6342 16.9088 22 12.0933 22C6.51895 22 2 17.5228 2 12C2 6.47715 6.51895 2 12.0933 2C15.241 2 18.1242 3.44087 20.0011 5.78319L20 3C20 2.48716 20.386 2.06449 20.8834 2.00673L21 2Z" fill="black"/>
</svg>
