<?xml version="1.0" encoding="UTF-8"?>
<svg xmlns="http://www.w3.org/2000/svg" xmlns:xlink="http://www.w3.org/1999/xlink" width="24" height="24" viewBox="0 0 24 24" version="1.1">
<defs>
<clipPath id="clip1">
  <path d="M 3 1 L 21 1 L 21 24 L 3 24 Z M 3 1 "/>
</clipPath>
<clipPath id="clip2">
  <path d="M 4.207031 14.804688 C 2.214844 11.285156 2.691406 6.707031 5.636719 3.695313 C 9.152344 0.101563 14.847656 0.101563 18.363281 3.695313 C 21.308594 6.707031 21.785156 11.285156 19.796875 14.804688 C 19.097656 15.949219 16.5 19.015625 12.003906 24 C 7.5 19.015625 4.902344 15.953125 4.207031 14.804688 Z M 12 13 C 13.65625 13 15 11.65625 15 10 C 15 8.34375 13.65625 7 12 7 C 10.34375 7 9 8.34375 9 10 C 9 11.65625 10.34375 13 12 13 Z M 12 13 "/>
</clipPath>
</defs>
<g id="surface1">
<g clip-path="url(#clip1)" clip-rule="nonzero">
<g clip-path="url(#clip2)" clip-rule="evenodd">
<rect x="0" y="0" width="24" height="24" style="fill:rgb(20.391846%,41.567993%,100%);fill-opacity:1;stroke:none;"/>
</g>
</g>
</g>
</svg>
