<svg width="50" height="24" viewBox="0 0 50 24" fill="none" xmlns="http://www.w3.org/2000/svg">
<rect width="50" height="24" rx="8" fill="#E7EAFF"/>
<path d="M24.616 10.048H23.02V12.58H22.108V6.352H23.02V9.28H24.616V10.048ZM23.032 16.84H22.108V13.9H16.252V13.132H23.032V16.84ZM20.884 11.176L20.344 11.896C19.336 11.404 18.304 10.504 17.884 9.448C17.572 10.528 16.636 11.464 15.316 12.184L14.752 11.476C16.228 10.816 17.392 9.508 17.392 7.84V6.844H18.316V7.804C18.316 9.484 19.696 10.744 20.884 11.176ZM30.6908 13.696L30.1148 14.368C29.3708 13.84 28.2668 12.616 27.9668 11.512C27.7508 12.676 26.8028 13.924 25.7828 14.644L25.1708 14.008C26.4068 13.216 27.5108 11.56 27.5108 9.52V8.344H25.4228V7.588H30.4268V8.344H28.4108V9.496C28.4108 11.56 29.3948 12.856 30.6908 13.696ZM32.1068 16.312H31.2068V10.96H29.5268V10.204H31.2068V6.604H32.1068V16.312ZM34.1828 16.84H33.2828V6.352H34.1828V16.84Z" fill="#2267FF"/>
</svg>
