<svg width="44" height="18" viewBox="0 0 44 18" fill="none" xmlns="http://www.w3.org/2000/svg">
<g clip-path="url(#clip0_17_10289)">
<path d="M10.2375 12.67C11.1395 12.67 11.8325 12.483 12.3495 12.208V11.163C11.8985 11.35 11.3485 11.57 10.4905 11.57C8.9065 11.57 8.3015 10.591 8.3015 8.86399V8.47899C8.3015 6.68599 9.1705 5.98199 10.4795 5.98199C11.1725 5.98199 11.6895 6.10299 12.2725 6.33399V5.27799C11.8105 5.02499 11.2165 4.88199 10.3805 4.88199C8.4225 4.88199 6.8385 5.90499 6.8385 8.62199V8.89699C6.8385 11.438 8.1365 12.67 10.2375 12.67ZM15.4618 12.681C17.2878 12.681 18.1568 11.79 18.1568 10.36C18.1568 9.01799 17.4418 8.52299 16.2538 8.18199L15.5498 7.96199C14.8018 7.75299 14.5818 7.49999 14.5818 6.90599C14.5818 6.30099 15.0218 5.97099 15.8138 5.97099C16.6498 5.97099 17.2658 6.14699 17.7388 6.34499V5.28899C17.3208 5.06899 16.7818 4.88199 15.7918 4.88199C14.0868 4.88199 13.2618 5.75099 13.2618 7.02699C13.2618 8.30299 13.9108 8.87499 14.9778 9.17199L15.6928 9.36999C16.5178 9.62299 16.7928 9.86499 16.7928 10.492C16.7928 11.174 16.3638 11.592 15.3518 11.592C14.5268 11.592 13.8118 11.394 13.2068 11.13V12.197C13.7238 12.472 14.4718 12.681 15.4618 12.681ZM26.9703 7.24699C26.9703 5.73999 25.5513 4.63999 23.3953 4.63999C21.2503 4.63999 19.8313 5.73999 19.8313 7.24699C19.8313 8.74299 21.2503 9.82099 23.3953 9.82099C25.5513 9.82099 26.9703 8.74299 26.9703 7.24699ZM27.8173 12.648V11.614H25.8153V9.98599L24.5283 10.041V11.614H22.2293V10.041L20.9423 9.98599V11.614H18.9623V12.648H27.8173ZM25.6503 7.24699C25.6503 8.12699 24.7483 8.76499 23.3953 8.76499C22.0313 8.76499 21.1513 8.12699 21.1513 7.24699C21.1513 6.35599 22.0313 5.71799 23.3953 5.71799C24.7593 5.71799 25.6503 6.35599 25.6503 7.24699ZM36.6639 11.988C36.6639 10.844 35.4209 10.118 33.2319 10.118C31.0649 10.118 29.8109 10.844 29.8109 11.988C29.8109 13.143 31.0649 13.858 33.2319 13.858C35.4209 13.858 36.6639 13.143 36.6639 11.988ZM34.2109 8.89699C33.2209 8.61099 32.2859 8.01699 32.0879 6.86199H33.9579V5.84999H28.8099V6.86199H30.6909C30.5149 8.03899 29.6239 8.80899 28.3919 9.23799C28.6229 9.55699 28.8539 9.89799 29.0959 10.217C30.0529 9.91999 31.0539 9.03999 31.3949 8.15999C31.8019 8.98499 32.8139 9.64499 33.5729 9.88699C33.7819 9.55699 33.9909 9.22699 34.2109 8.89699ZM36.5869 4.06799H35.2999V7.13699H33.8039V8.17099H35.2999V10.019H36.5869V4.06799ZM35.2999 11.988C35.2999 12.505 34.5739 12.846 33.2319 12.846C31.9119 12.846 31.1639 12.505 31.1639 11.988C31.1639 11.482 31.9119 11.119 33.2319 11.119C34.5739 11.119 35.2999 11.482 35.2999 11.988ZM29.9649 5.34399H32.8139V4.33199H29.9649V5.34399Z" fill="#4B76D9"/>
<path d="M35 0.5H9C4.30558 0.5 0.5 4.30558 0.5 9C0.5 13.6944 4.30558 17.5 9 17.5H35C39.6944 17.5 43.5 13.6944 43.5 9C43.5 4.30558 39.6944 0.5 35 0.5Z" stroke="#4B76D9"/>
</g>
<defs>
<clipPath id="clip0_17_10289">
<rect width="44" height="18" fill="white"/>
</clipPath>
</defs>
</svg>
