<svg xmlns="http://www.w3.org/2000/svg" width="24" height="24" viewBox="0 0 24 24">
    <defs>
        <filter id="hxre4f6eza">
            <feColorMatrix in="SourceGraphic" values="0 0 0 0 1.000000 0 0 0 0 1.000000 0 0 0 0 1.000000 0 0 0 1.000000 0"/>
        </filter>
    </defs>
    <g fill="none" fill-rule="evenodd">
        <g>
            <g>
                <g filter="url(#hxre4f6eza)" transform="translate(-395 -331) translate(171 321) translate(224 10)">
                    <g>
                        <g fill="#000" fill-rule="nonzero">
                            <path d="M19 0c.513 0 .936.386.993.883L20 1v6c0 .513-.386.936-.883.993L19 8h-6c-.552 0-1-.448-1-1 0-.513.386-.936.883-.993L13 6h4.3c-1.443-2.548-4.174-4.182-7.207-4.182-4.56 0-8.258 3.663-8.258 8.182s3.697 8.182 8.258 8.182c3.94 0 7.31-2.755 8.09-6.53.102-.492.587-.809 1.083-.708.497.1.817.581.715 1.073C19.026 16.634 14.91 20 10.093 20 4.52 20 0 15.523 0 10S4.519 0 10.093 0c3.148 0 6.031 1.44 7.908 3.783L18 1c0-.513.386-.936.883-.993L19 0z" transform="translate(2 2)"/>
                        </g>
                    </g>
                </g>
            </g>
        </g>
    </g>
</svg>
