<svg width="50" height="25" viewBox="0 0 50 25" fill="none" xmlns="http://www.w3.org/2000/svg">
<rect x="1" y="1" width="48" height="23" rx="8" fill="white"/>
<rect x="1" y="1" width="48" height="23" rx="8" stroke="#2267FF"/>
<path d="M12.032 15.996V7.944H14.372C16.148 7.944 17.036 8.748 17.036 10.2C17.036 11.352 16.46 12 15.464 12.312V12.372L17.6 15.996H16.52L14.516 12.54H12.98V15.996H12.032ZM12.98 11.796H14.312C15.572 11.796 16.028 11.256 16.028 10.212C16.028 9.216 15.536 8.748 14.3 8.748H12.98V11.796ZM21.2615 16.104C19.3895 16.104 18.4415 14.964 18.4415 13.104V12.936C18.4415 10.86 19.6655 9.936 21.0335 9.936C22.6655 9.936 23.4335 10.884 23.4335 12.732V13.248H19.3775C19.4255 14.736 20.1335 15.312 21.4055 15.312C22.1975 15.312 22.7255 15.12 23.2655 14.868V15.552C22.9055 15.804 22.2215 16.104 21.2615 16.104ZM21.0095 10.68C20.2655 10.68 19.4735 11.112 19.3775 12.516H22.4735C22.4735 11.22 21.9815 10.68 21.0095 10.68ZM26.7561 16.068C25.8201 16.068 25.2081 15.66 25.2081 14.652V10.812H24.3561V10.056H25.2081V8.64H26.1201V10.056H27.6441V10.812H26.1201V14.508C26.1201 15.084 26.3121 15.312 26.9961 15.312C27.2481 15.312 27.5241 15.276 27.7641 15.204V15.828C27.5241 15.936 27.2721 16.068 26.7561 16.068ZM29.0674 15.996V10.044H29.9434V10.716H30.0034C30.3394 10.332 30.9874 9.984 31.6594 9.984C31.7914 9.984 31.9594 9.996 32.0194 10.008V10.836C31.8634 10.812 31.6834 10.8 31.5874 10.8C30.9874 10.8 30.4114 11.016 29.9914 11.316V15.996H29.0674ZM33.6718 17.784C33.3958 17.784 33.0958 17.7 32.9278 17.616V16.932C33.0718 16.956 33.2878 17.016 33.5038 17.016C34.0798 17.016 34.4398 16.92 34.6918 16.272L34.8718 15.78L32.5918 10.044H33.5758L35.3278 14.568H35.3518L36.9598 10.044H37.8838L35.5438 16.368C35.1478 17.424 34.6558 17.784 33.6718 17.784Z" fill="#2267FF"/>
</svg>
