<svg width="24" height="24" viewBox="0 0 24 24" fill="none" xmlns="http://www.w3.org/2000/svg">
<path fill-rule="evenodd" clip-rule="evenodd" d="M12 1C18.0751 1 23 5.92487 23 12C23 18.0751 18.0751 23 12 23C5.92487 23 1 18.0751 1 12C1 5.92487 5.92487 1 12 1ZM12 3C7.02944 3 3 7.02944 3 12C3 16.9706 7.02944 21 12 21C16.9706 21 21 16.9706 21 12C21 7.02944 16.9706 3 12 3ZM17.4916 11.8749L17.5 12C17.5 12.5063 17.0822 12.9167 16.5811 12.9167L12.9164 12.9164L12.9167 16.5811C12.9167 17.0405 12.5718 17.4298 12.1244 17.4915L12 17.5C11.5327 17.5 11.1519 17.1543 11.0916 16.7058L11.0833 16.5811L11.0836 12.9164L7.41893 12.9167C6.91142 12.9167 6.5 12.5098 6.5 12C6.5 11.4937 6.91778 11.0833 7.41893 11.0833L11.0836 11.0836L11.0833 7.41893C11.0833 6.95954 11.4282 6.57021 11.8756 6.50851L12 6.5L12.1251 6.50839C12.5339 6.56371 12.8536 6.88648 12.9084 7.29424L12.9167 7.41893L12.9164 11.0836L16.5811 11.0833C17.004 11.0833 17.3602 11.3659 17.4672 11.7551L17.4916 11.8749Z" fill="white"/>
</svg>
