<svg width="16" height="16" viewBox="0 0 16 16" fill="none" xmlns="http://www.w3.org/2000/svg">
<path fill-rule="evenodd" clip-rule="evenodd" d="M0 8C0 3.58172 3.58172 0 8 0C12.4183 0 16 3.58172 16 8C16 12.4183 12.4183 16 8 16C3.58172 16 0 12.4183 0 8ZM14.6667 8C14.6667 4.3181 11.6819 1.33333 8 1.33333C4.3181 1.33333 1.33333 4.3181 1.33333 8C1.33333 11.6819 4.3181 14.6667 8 14.6667C11.6819 14.6667 14.6667 11.6819 14.6667 8Z" fill="#222222"/>
<circle cx="8" cy="11.6666" r="1" fill="#222222"/>
<path d="M8.00004 3.33337C8.34193 3.33337 8.62371 3.59073 8.66222 3.92229L8.66671 4.00004V8.66671C8.66671 9.0349 8.36823 9.33337 8.00004 9.33337C7.65815 9.33337 7.37637 9.07601 7.33786 8.74445L7.33337 8.66671V4.00004C7.33337 3.63185 7.63185 3.33337 8.00004 3.33337Z" fill="#222222"/>
</svg>
