<svg xmlns="http://www.w3.org/2000/svg" width="20" height="20" viewBox="0 0 20 20">
    <defs>
        <filter id="tlsbrgacia">
            <feColorMatrix in="SourceGraphic" values="0 0 0 0 0.200000 0 0 0 0 0.200000 0 0 0 0 0.200000 0 0 0 1.000000 0"/>
        </filter>
    </defs>
    <g fill="none" fill-rule="evenodd">
        <g>
            <g>
                <g>
                    <g filter="url(#tlsbrgacia)" transform="translate(-324 -1182) translate(0 68) translate(0 1099) translate(16 5)">
                        <g>
                            <g fill="#000" fill-rule="nonzero">
                                <path d="M2.744-3.923c.3-.3.773-.323 1.1-.069l.079.07 6.666 6.667c.3.3.324.773.07 1.1l-.07.078-6.665 6.666c-.325.326-.853.326-1.178 0-.3-.3-.324-.773-.07-1.1l.07-.078L8.82 3.334 2.744-2.744c-.3-.3-.323-.773-.07-1.1l.07-.079z" transform="translate(308 10) translate(3.333 5.833) matrix(0 -1 -1 0 10 10)"/>
                            </g>
                        </g>
                    </g>
                </g>
            </g>
        </g>
    </g>
</svg>
