<svg width="24" height="24" viewBox="0 0 24 24" fill="none" xmlns="http://www.w3.org/2000/svg">
<path fill-rule="evenodd" clip-rule="evenodd" d="M12 0C15.2053 0 18.2188 1.2482 20.4853 3.5147C22.7518 5.7812 24 8.7947 24 12C24 15.2053 22.7518 18.2188 20.4853 20.4853C18.2188 22.7518 15.2053 24 12 24C8.79465 24 5.7812 22.7518 3.51475 20.4853C1.2482 18.2188 0 15.2053 0 12C0 8.7947 1.2482 5.7812 3.51475 3.5147C5.7812 1.2482 8.79465 0 12 0ZM12.025 5C12.5378 5 12.9605 5.38604 13.0183 5.88338L13.025 6V14C13.025 14.5523 12.5773 15 12.025 15C11.5122 15 11.0895 14.614 11.0317 14.1166L11.025 14V6C11.025 5.44772 11.4727 5 12.025 5ZM13.25 17.75C13.25 18.4404 12.6903 19 12 19C11.3096 19 10.75 18.4404 10.75 17.75C10.75 17.0597 11.3096 16.5 12 16.5C12.6903 16.5 13.25 17.0597 13.25 17.75Z" fill="#212B36"/>
</svg>
