<svg width="45" height="45" viewBox="0 0 45 45" fill="none" xmlns="http://www.w3.org/2000/svg">
<rect width="45" height="45" rx="4" fill="#37474F"/>
<path fill-rule="evenodd" clip-rule="evenodd" d="M32.9944 15.8577C32.9126 14.8234 31.9469 14 30.7778 14H15.2222L15.0641 14.005C13.9149 14.0786 13 14.9478 13 16V30L13.0056 30.1423C13.0874 31.1766 14.0531 32 15.2222 32H30.7778L30.9359 31.995C32.0851 31.9214 33 31.0522 33 30V16L32.9944 15.8577ZM15 25.092L18.0456 21.9941L23.4192 27.4917L23.4957 27.5608C23.8147 27.8144 24.2775 27.7914 24.5704 27.4918L27.9614 24.0228L31 27.132V30H15V25.092ZM31 16H15V22.758L17.4706 20.2435C17.7634 19.9438 18.2263 19.9208 18.5453 20.1743L18.6219 20.2435L23.9949 25.7407L27.3866 22.2725C27.6795 21.973 28.1423 21.95 28.4613 22.2035L28.5378 22.2726L31 24.792V16ZM29 19.5C29 18.6716 28.3284 18 27.5 18C26.6716 18 26 18.6716 26 19.5C26 20.3284 26.6716 21 27.5 21C28.3284 21 29 20.3284 29 19.5Z" fill="white"/>
</svg>
