<svg width="20" height="10" viewBox="0 0 20 10" fill="none" xmlns="http://www.w3.org/2000/svg">
<path d="M5.83301 10C4.44412 10 3.26356 9.51389 2.29134 8.54167C1.31912 7.56944 0.833008 6.38889 0.833008 5C0.833008 3.61111 1.31912 2.43056 2.29134 1.45833C3.26356 0.486111 4.44412 0 5.83301 0C6.74967 0 7.58995 0.229166 8.35384 0.6875C9.11773 1.14583 9.7219 1.75 10.1663 2.5H19.1663V7.5H17.4997V10H12.4997V7.5H10.1663C9.7219 8.25 9.11773 8.85417 8.35384 9.3125C7.58995 9.77083 6.74967 10 5.83301 10ZM5.83301 8.33333C6.74967 8.33333 7.48579 8.05222 8.04134 7.49C8.5969 6.92722 8.93023 6.375 9.04134 5.83333H14.1663V8.33333H15.833V5.83333H17.4997V4.16667H9.04134C8.93023 3.625 8.5969 3.07278 8.04134 2.51C7.48579 1.94778 6.74967 1.66667 5.83301 1.66667C4.91634 1.66667 4.13162 1.99306 3.47884 2.64583C2.82606 3.29861 2.49967 4.08333 2.49967 5C2.49967 5.91667 2.82606 6.70139 3.47884 7.35417C4.13162 8.00694 4.91634 8.33333 5.83301 8.33333ZM5.83301 6.66667C6.29134 6.66667 6.68356 6.50333 7.00967 6.17667C7.33634 5.85055 7.49967 5.45833 7.49967 5C7.49967 4.54167 7.33634 4.14917 7.00967 3.8225C6.68356 3.49639 6.29134 3.33333 5.83301 3.33333C5.37467 3.33333 4.98245 3.49639 4.65634 3.8225C4.32967 4.14917 4.16634 4.54167 4.16634 5C4.16634 5.45833 4.32967 5.85055 4.65634 6.17667C4.98245 6.50333 5.37467 6.66667 5.83301 6.66667Z" fill="#263238"/>
</svg>
