<svg width="22" height="22" viewBox="0 0 22 22" fill="none" xmlns="http://www.w3.org/2000/svg">
<path fill-rule="evenodd" clip-rule="evenodd" d="M21.3481 10.3558C21.317 10.3603 21.286 10.3647 21.255 10.3647C20.9934 10.3647 20.7629 10.1787 20.7185 9.91299C20.3505 7.75638 19.3308 5.79019 17.7658 4.22697C16.2008 2.66376 14.2323 1.64524 12.0732 1.27769C11.7805 1.22898 11.581 0.949991 11.6298 0.653291C11.6786 0.361019 11.9579 0.161743 12.2549 0.210455C14.6402 0.613436 16.8082 1.73824 18.5372 3.46087C20.2619 5.1835 21.388 7.34897 21.7914 9.73142C21.8446 10.0237 21.6451 10.3071 21.3481 10.3558L21.3481 10.3558ZM15.5049 21.7937L15.5171 21.7943C15.6102 21.7985 15.6996 21.8026 15.793 21.8026C16.8349 21.8026 17.7039 21.4262 18.3867 20.6866L18.4044 20.6689C18.6482 20.3767 18.9231 20.111 19.2157 19.832C19.4152 19.6416 19.6192 19.4467 19.8098 19.243C20.7187 18.2953 20.7143 17.0953 19.801 16.183L17.2738 13.6588C16.8394 13.2072 16.3206 12.968 15.7709 12.968C15.2256 12.968 14.7024 13.2027 14.2546 13.65L12.7605 15.1423C12.6496 15.0796 12.5356 15.0229 12.4237 14.9674L12.3571 14.9342C12.1886 14.8501 12.0334 14.7704 11.896 14.6862C10.526 13.8183 9.28463 12.6846 8.09644 11.2277C7.49791 10.4749 7.10333 9.84603 6.82402 9.19949C7.21417 8.84522 7.57772 8.47767 7.92797 8.11897C7.9917 8.05531 8.05543 7.99056 8.11971 7.92527L8.11974 7.92524C8.18511 7.85882 8.25105 7.79183 8.31812 7.72485C9.26689 6.77718 9.26689 5.60366 8.31812 4.66042L7.06343 3.4072C6.98971 3.33357 6.91712 3.25994 6.84509 3.18687L6.84492 3.18671C6.77405 3.11482 6.70371 3.04347 6.63338 2.97322L6.53151 2.86973C6.28425 2.61838 6.03098 2.36092 5.77771 2.1274C5.34322 1.69342 4.82893 1.46758 4.28361 1.46758C3.74272 1.46758 3.21956 1.69342 2.76734 2.1274L1.19344 3.69504C0.61708 4.27073 0.288999 4.97041 0.218062 5.7808C0.138259 6.79046 0.324467 7.86213 0.803288 9.15521C1.54369 11.1524 2.6565 13.0079 4.30577 14.9918C6.31416 17.3831 8.726 19.274 11.4837 20.6069C12.5344 21.1073 13.9398 21.6919 15.5049 21.7937ZM12.0733 4.15616C11.7762 4.10745 11.4969 4.30672 11.4482 4.59899C11.3994 4.89569 11.5989 5.17468 11.8915 5.22339C13.1107 5.43153 14.2191 6.00721 15.1058 6.88845C15.9881 7.7697 16.5644 8.88122 16.7728 10.099C16.8172 10.3647 17.0477 10.5507 17.3093 10.5507C17.3403 10.5507 17.3713 10.5463 17.4024 10.5419L17.4024 10.5419C17.6994 10.4931 17.8989 10.2097 17.8457 9.91745C17.6019 8.47824 16.9191 7.16301 15.8773 6.12235C14.8265 5.07726 13.5142 4.39972 12.0733 4.15616Z" fill="#2267FF"/>
</svg>
