<?xml version="1.0" encoding="UTF-8"?>
<svg height="24px" version="1.1" viewBox="0 0 24 24" width="24px"
    xmlns="http://www.w3.org/2000/svg">
    <title>48E998E1-55BE-4C83-B0E3-B2CC269F88BA</title>
    <defs>
        <filter color-interpolation-filters="auto" id="filter-1">
            <feColorMatrix in="SourceGraphic" type="matrix"
                values="0 0 0 0 1.000000 0 0 0 0 1.000000 0 0 0 0 1.000000 0 0 0 1.000000 0"></feColorMatrix>
        </filter>
    </defs>
    <g fill="none" fill-rule="evenodd" id="RCA_Flutter" stroke="none" stroke-width="1">
        <g id="00.반품/반송목록_목록있음-copy-12" transform="translate(-272.000000, -34.000000)">
            <g filter="url(#filter-1)" id="Element/Icon/2.Outline/Scan_-barcode"
                transform="translate(0.000000, 24.000000)">
                <g transform="translate(272.000000, 10.000000)">
                    <g fill="#000000" id="Outline" transform="translate(2.000000, 3.000000)">
                        <path
                            d="M2,12 L2,16 L6,16 L6,18 L1,18 C0.487164161,18 0.0644928393,17.6139598 0.00672773133,17.1166211 L0,17 L0,12 L2,12 Z M20,12 L20,17 C20,17.5522847 19.5522847,18 19,18 L14,18 L14,16 L18,16 L18,12 L20,12 Z M6,0 L6,2 L2,2 L2,6 L0,6 L0,1 C0,0.44771525 0.44771525,0 1,0 L6,0 Z M4,4 L6,4 L6,14 L4,14 L4,4 Z M7,4 L8,4 L8,14 L7,14 L7,4 Z M9,4 L11,4 L11,14 L9,14 L9,4 Z M14,4 L16,4 L16,14 L14,14 L14,4 Z M12,4 L13,4 L13,14 L12,14 L12,4 Z M19,0 C19.5128358,0 19.9355072,0.38604019 19.9932723,0.883378875 L20,1 L20,6 L18,6 L18,2 L14,2 L14,0 L19,0 Z"
                            id="Shape"></path>
                    </g>
                </g>
            </g>
        </g>
    </g>
</svg>