<svg width="28" height="28" viewBox="0 0 28 28" xmlns="http://www.w3.org/2000/svg">
    <defs>
        <filter color-interpolation-filters="auto" id="a">
            <feColorMatrix in="SourceGraphic" values="0 0 0 0 1.000000 0 0 0 0 1.000000 0 0 0 0 1.000000 0 0 0 1.000000 0"/>
        </filter>
    </defs>
    <g transform="translate(-16 -16)" filter="url(#a)" fill="none" fill-rule="evenodd">
        <g fill-rule="nonzero">
            <path d="M36.8 26.5c.392 0 .732.262.825.635l1.293 5.2.067.005a.419.419 0 0 1 .348.41v7.083c0 .92-.76 1.667-1.697 1.667v2.083a.42.42 0 0 1-.424.417h-2.545a.42.42 0 0 1-.425-.417V41.5h-8.484v2.083a.42.42 0 0 1-.425.417h-2.545a.42.42 0 0 1-.424-.417V41.5c-.938 0-1.697-.746-1.697-1.667V32.75a.42.42 0 0 1 .414-.417l1.294-5.198a.846.846 0 0 1 .824-.635h13.602zm-13.588 10c-.937 0-1.697.746-1.697 1.667 0 .92.76 1.666 1.697 1.666s1.697-.746 1.697-1.666c0-.92-.76-1.667-1.697-1.667zm13.576 0c-.937 0-1.697.746-1.697 1.667 0 .92.76 1.666 1.697 1.666s1.697-.746 1.697-1.666c0-.92-.76-1.667-1.697-1.667zm-.654-8.333H23.865l-1.037 4.166H37.17l-1.037-4.166z" fill="#111"/>
            <path d="M41.667 17.167c1.23 0 2.238.952 2.327 2.159L44 19.5V44h-2.333V19.5H18.333V44H16V19.5c0-1.23.952-2.238 2.16-2.327l.173-.006h23.334z" fill="#000"/>
            <path fill="#000" d="M42.833 20.667V23H17.167v-2.333z"/>
        </g>
    </g>
</svg>
