<?xml version="1.0" encoding="UTF-8"?>
<svg width="24px" height="24px" viewBox="0 0 24 24" version="1.1" xmlns="http://www.w3.org/2000/svg" xmlns:xlink="http://www.w3.org/1999/xlink">
    <title>2E0E4EFB-2211-41E4-ACB9-E0601124629B</title>
    <defs>
        <filter color-interpolation-filters="auto" id="filter-1">
            <feColorMatrix in="SourceGraphic" type="matrix" values="0 0 0 0 0.690196 0 0 0 0 0.745098 0 0 0 0 0.772549 0 0 0 1.000000 0"></feColorMatrix>
        </filter>
    </defs>
    <g id="[RDA]-Easy-Peasy-Delivery_건물팁" stroke="none" stroke-width="1" fill="none" fill-rule="evenodd">
        <g id="[FDA]-Easy-Peasy-Delivery_건물팁" transform="translate(-689.000000, -3433.000000)">
            <g id="@Guide" transform="translate(82.000000, 2999.000000)">
                <g id="Preview-Images" transform="translate(493.000000, 195.000000)">
                    <g id="Element/Icon/2.Outline/Tip_None_building" transform="translate(94.000000, 223.000000)" filter="url(#filter-1)">
                        <g transform="translate(20.000000, 16.000000)">
                            <path d="M15,0 C15.5522847,-2.12475365e-16 16,0.44771525 16,1 L16,4 L20,4 C20.5522847,4 21,4.44771525 21,5 L21.0010432,10.2901893 C20.3670274,10.1013887 19.695354,10 19,10 C15.1340068,10 12,13.1340068 12,17 C12,19.1760025 12.9003964,21.1757059 14.6198884,23.0006922 L1,23 C0.44771525,23 6.76353751e-17,22.5522847 0,22 C-6.76353751e-17,21.4477153 0.44771525,21 1,21 L2,21 L2,1 C2,0.44771525 2.44771525,-9.5692398e-18 3,0 L15,0 Z M10,16 L8,16 C7.48716416,16 7.06449284,16.3860402 7.00672773,16.8833789 L7,17 L7,21 L11,21 L11,17 C11,16.4477153 10.5522847,16 10,16 Z M7.5,10 L5.5,10 C5.25454011,10 5.05039163,10.1768752 5.00805567,10.4101244 L5,10.5 L5,11.5 C5,11.7454599 5.17687516,11.9496084 5.41012437,11.9919443 L5.5,12 L7.5,12 C7.74545989,12 7.94960837,11.8231248 7.99194433,11.5898756 L8,11.5 L8,10.5 C8,10.2238576 7.77614237,10 7.5,10 Z M12.5,10 L10.5,10 C10.2545401,10 10.0503916,10.1768752 10.0080557,10.4101244 L10,10.5 L10,11.5 C10,11.7454599 10.1768752,11.9496084 10.4101244,11.9919443 L10.5,12 L12.5,12 C12.7454599,12 12.9496084,11.8231248 12.9919443,11.5898756 L13,11.5 L13,10.5 C13,10.2238576 12.7761424,10 12.5,10 Z M7.5,6 L5.5,6 C5.25454011,6 5.05039163,6.17687516 5.00805567,6.41012437 L5,6.5 L5,7.5 C5,7.74545989 5.17687516,7.94960837 5.41012437,7.99194433 L5.5,8 L7.5,8 C7.74545989,8 7.94960837,7.82312484 7.99194433,7.58987563 L8,7.5 L8,6.5 C8,6.22385763 7.77614237,6 7.5,6 Z M12.5,6 L10.5,6 C10.2545401,6 10.0503916,6.17687516 10.0080557,6.41012437 L10,6.5 L10,7.5 C10,7.74545989 10.1768752,7.94960837 10.4101244,7.99194433 L10.5,8 L12.5,8 C12.7454599,8 12.9496084,7.82312484 12.9919443,7.58987563 L13,7.5 L13,6.5 C13,6.22385763 12.7761424,6 12.5,6 Z M7.5,2 L5.5,2 C5.25454011,2 5.05039163,2.17687516 5.00805567,2.41012437 L5,2.5 L5,3.5 C5,3.74545989 5.17687516,3.94960837 5.41012437,3.99194433 L5.5,4 L7.5,4 C7.74545989,4 7.94960837,3.82312484 7.99194433,3.58987563 L8,3.5 L8,2.5 C8,2.22385763 7.77614237,2 7.5,2 Z M12.5,2 L10.5,2 C10.2545401,2 10.0503916,2.17687516 10.0080557,2.41012437 L10,2.5 L10,3.5 C10,3.74545989 10.1768752,3.94960837 10.4101244,3.99194433 L10.5,4 L12.5,4 C12.7454599,4 12.9496084,3.82312484 12.9919443,3.58987563 L13,3.5 L13,2.5 C13,2.22385763 12.7761424,2 12.5,2 Z" id="Element/Icon/2.Outline/Tip_Blieding" fill="#305385"></path>
                            <path d="M19,12 C21.7614237,12 24,14.2385763 24,17 C24,19.5076158 22.3333333,21.8409492 19,24 C15.6666667,21.8409492 14,19.5076158 14,17 C14,14.2385763 16.2385763,12 19,12 Z M19,15 C17.8954305,15 17,15.8954305 17,17 C17,18.1045695 17.8954305,19 19,19 C20.1045695,19 21,18.1045695 21,17 C21,15.8954305 20.1045695,15 19,15 Z" id="Combined-Shape" fill="#305385"></path>
                        </g>
                    </g>
                </g>
            </g>
        </g>
    </g>
</svg>