<svg width="28" height="28" viewBox="0 0 28 28" xmlns="http://www.w3.org/2000/svg">
    <defs>
        <filter color-interpolation-filters="auto" id="a">
            <feColorMatrix in="SourceGraphic" values="0 0 0 0 1.000000 0 0 0 0 1.000000 0 0 0 0 1.000000 0 0 0 1.000000 0"/>
        </filter>
    </defs>
    <g transform="translate(-16 -16)" filter="url(#a)" fill="none" fill-rule="evenodd">
        <g fill="#000">
            <path d="m36.702 19.745.11.097 4.683 4.683c.104.103.202.211.295.323a2.909 2.909 0 0 1 1.038 2.418c.012.097.021.196.027.294l.007.265v7.623a3.617 3.617 0 0 1-7.228.205l-.006-.205v-.551c0-.957-.733-1.743-1.668-1.827l-.167-.008H33.5V30.73h.293a4.168 4.168 0 0 1 4.162 3.947l.006.22v.552a1.284 1.284 0 0 0 2.56.14l.008-.14v-5.512a2.917 2.917 0 0 1-2.213-5.29l-3.154-3.154a1.167 1.167 0 0 1 1.54-1.747z" fill-rule="nonzero"/>
            <path d="M31.333 19.5a1 1 0 0 1 1 1v21.333a1 1 0 0 1-1 1h-12a1 1 0 0 1-1-1V20.5a1 1 0 0 1 1-1h12zm-3.5 14h-5a1 1 0 0 0-1 1v.333a1 1 0 0 0 1 1h5a1 1 0 0 0 1-1V34.5a1 1 0 0 0-1-1zM30 24.167h-9.333V30H30v-5.833z"/>
            <path d="M42.833 40.5a1.167 1.167 0 0 1 .136 2.325l-.136.008H17.167a1.167 1.167 0 0 1-.136-2.325l.136-.008h25.666z" fill-rule="nonzero"/>
        </g>
    </g>
</svg>
