<svg width="24" height="24" viewBox="0 0 24 24" fill="none" xmlns="http://www.w3.org/2000/svg">
<path fill-rule="evenodd" clip-rule="evenodd" d="M12 2C14.6711 2 17.1823 3.04017 19.0711 4.92892C20.9598 6.81767 22 9.32892 22 12C22 14.6711 20.9598 17.1823 19.0711 19.0711C17.1823 20.9598 14.6711 22 12 22C9.32888 22 6.81767 20.9598 4.92896 19.0711C3.04017 17.1823 2 14.6711 2 12C2 9.32892 3.04017 6.81767 4.92896 4.92892C6.81767 3.04017 9.32888 2 12 2ZM12 15.75C11.4247 15.75 10.9583 16.2164 10.9583 16.7917C10.9583 17.367 11.4247 17.8333 12 17.8333C12.5753 17.8333 13.0417 17.367 13.0417 16.7917C13.0417 16.2164 12.5753 15.75 12 15.75ZM11.194 6.89547C11.2454 6.48458 11.596 6.16667 12.0208 6.16667C12.4482 6.16667 12.8004 6.48837 12.8486 6.90282L12.8542 7V13.6667L12.8477 13.7712C12.7962 14.1821 12.4457 14.5 12.0208 14.5C11.5935 14.5 11.2412 14.1783 11.1931 13.7639L11.1875 13.6667V7L11.194 6.89547Z" fill="#E7223C"/>
</svg>
