<svg width="17" height="16" viewBox="0 0 17 16" fill="none" xmlns="http://www.w3.org/2000/svg">
<path fill-rule="evenodd" clip-rule="evenodd" d="M12.5003 12.923H15.3669C15.6247 12.923 15.8336 12.7221 15.8336 12.4743V11.5768L15.8309 11.4982C15.7286 10.1917 13.6594 9.33325 11.1669 9.33325C10.9887 9.33325 10.8125 9.33764 10.6392 9.34627C11.7188 9.91087 12.4383 10.7412 12.4975 11.4982L12.5003 11.5768V12.923Z" fill="white"/>
<path d="M6.5 4C5.39543 4 4.5 4.89543 4.5 6C4.5 7.10457 5.39543 8 6.5 8C7.60457 8 8.5 7.10457 8.5 6C8.5 4.89543 7.60457 4 6.5 4Z" fill="white"/>
<path d="M11.167 4C10.0624 4 9.16699 4.89543 9.16699 6C9.16699 7.10457 10.0624 8 11.167 8C12.2716 8 13.167 7.10457 13.167 6C13.167 4.89543 12.2716 4 11.167 4Z" fill="white"/>
<path d="M6.50016 9.33325C4.00772 9.33325 1.93846 10.1917 1.83724 11.4814L1.83383 11.5599L1.8335 12.4743C1.8335 12.7221 2.04243 12.923 2.30016 12.923H10.7002C10.9579 12.923 11.1668 12.7221 11.1668 12.4743V11.5768L11.1641 11.4982C11.0619 10.1917 8.99261 9.33325 6.50016 9.33325Z" fill="white"/>
</svg>
