<svg width="24" height="24" viewBox="0 0 24 24" fill="none" xmlns="http://www.w3.org/2000/svg">
<path fill-rule="evenodd" clip-rule="evenodd" d="M14 11.5C14 8.46243 11.5376 6 8.5 6C5.46243 6 3 8.46243 3 11.5C3 14.5376 5.46243 17 8.5 17C11.5376 17 14 14.5376 14 11.5ZM6 11.5C6 10.1193 7.11929 9 8.5 9C9.88071 9 11 10.1193 11 11.5C11 12.8807 9.88071 14 8.5 14C7.11929 14 6 12.8807 6 11.5Z" fill="black"/>
<rect x="11" y="10" width="10" height="3" rx="0.5" fill="black"/>
<rect x="15.5" y="12" width="3" height="4" rx="0.5" fill="black"/>
</svg>
