<svg width="16" height="16" viewBox="0 0 16 16" fill="none" xmlns="http://www.w3.org/2000/svg">
<path d="M9.96331 1.31486C10.2866 1.20355 10.6368 1.35515 10.7812 1.65611L10.8107 1.72816L11.6789 4.24954C11.7902 4.5728 11.6386 4.92302 11.3376 5.06738L11.2656 5.09693L8.7442 5.96511C8.39607 6.08498 8.01668 5.89994 7.89681 5.55181C7.7855 5.22855 7.9371 4.87833 8.23806 4.73398L8.31011 4.70442L10.2005 4.05279L9.55001 2.16225C9.4387 1.83899 9.5903 1.48877 9.89126 1.34441L9.96331 1.31486Z" fill="#2267FF"/>
<path d="M8.00002 2.66669C9.29652 2.66669 10.5228 3.1318 11.4843 3.96205C11.7629 4.20269 11.7938 4.62367 11.5531 4.90234C11.3125 5.18101 10.8915 5.21183 10.6128 4.97119C9.89133 4.34813 8.97349 4.00002 8.00002 4.00002C5.79088 4.00002 4.00002 5.79088 4.00002 8.00002C4.00002 8.53348 4.10414 9.05127 4.30384 9.53235C4.44501 9.87241 4.28377 10.2625 3.94372 10.4037C3.60366 10.5448 3.21356 10.3836 3.0724 10.0435C2.80572 9.40113 2.66669 8.7097 2.66669 8.00002C2.66669 5.0545 5.0545 2.66669 8.00002 2.66669Z" fill="#2267FF"/>
<path d="M6.03669 14.6585C5.71342 14.7698 5.36321 14.6182 5.21885 14.3172L5.1893 14.2452L4.32111 11.7238C4.20981 11.4005 4.3614 11.0503 4.66236 10.9059L4.73441 10.8764L7.2558 10.0082C7.60393 9.88834 7.98332 10.0734 8.10319 10.4215C8.2145 10.7448 8.0629 11.095 7.76194 11.2394L7.68989 11.2689L5.79908 11.92L6.44999 13.8111C6.5613 14.1343 6.4097 14.4846 6.10874 14.6289L6.03669 14.6585Z" fill="#2267FF"/>
<path d="M8.00004 13.3069C6.70354 13.3069 5.47723 12.8418 4.51578 12.0115C4.23712 11.7709 4.20629 11.3499 4.44693 11.0712C4.68758 10.7926 5.10856 10.7617 5.38723 11.0024C6.10874 11.6254 7.02657 11.9736 8.00004 11.9736C10.2092 11.9736 12 10.1827 12 7.97355C12 7.44009 11.8959 6.9223 11.6962 6.44122C11.5551 6.10116 11.7163 5.71106 12.0563 5.5699C12.3964 5.42874 12.7865 5.58997 12.9277 5.93002C13.1943 6.57244 13.3334 7.26388 13.3334 7.97355C13.3334 10.9191 10.9456 13.3069 8.00004 13.3069Z" fill="#2267FF"/>
</svg>
