<svg width="14" height="16" viewBox="0 0 14 16" fill="none" xmlns="http://www.w3.org/2000/svg">
<g opacity="0.01">
<rect opacity="0.01" width="8" height="8" fill="white"/>
</g>
<path fill-rule="evenodd" clip-rule="evenodd" d="M0 9C0 5.13401 3.13401 2 7 2C10.866 2 14 5.13401 14 9C14 12.866 10.866 16 7 16C3.13401 16 0 12.866 0 9ZM12.8333 9C12.8333 5.77834 10.2217 3.16667 7 3.16667C3.77834 3.16667 1.16667 5.77834 1.16667 9C1.16667 12.2217 3.77834 14.8333 7 14.8333C10.2217 14.8333 12.8333 12.2217 12.8333 9Z" fill="white"/>
<circle cx="7" cy="12.2084" r="0.875" fill="white"/>
<path d="M7.00033 4.91663C7.29948 4.91663 7.54604 5.14182 7.57973 5.43193L7.58366 5.49996V9.58329C7.58366 9.90546 7.32249 10.1666 7.00033 10.1666C6.70117 10.1666 6.45461 9.94144 6.42092 9.65132L6.41699 9.58329V5.49996C6.41699 5.17779 6.67816 4.91663 7.00033 4.91663Z" fill="white"/>
</svg>
