<?xml version="1.0" encoding="UTF-8"?>
<svg width="98px" height="71px" viewBox="0 0 98 71" version="1.1" xmlns="http://www.w3.org/2000/svg" xmlns:xlink="http://www.w3.org/1999/xlink">
    <title>9131764A-7512-425F-88B3-0552E281487A</title>
    <g id="[RDA]-Easy-Peasy-Delivery_건물팁" stroke="none" stroke-width="1" fill="none" fill-rule="evenodd">
        <g id="Bottom-Sheet-B2" transform="translate(-238.000000, -486.000000)">
            <g id="Hand-Icon" transform="translate(238.000000, 418.000000)">
                <g id="Icon_DeliveryTips_ActionGuide" transform="translate(-0.000000, 68.000000)">
                    <path d="M49.5,0 C58.8694851,0 66.6121534,6.96523072 67.8325485,16.0002357 L94.587,16 L88.2949135,9.70706113 L88.211731,9.61284842 C87.9067314,9.22053752 87.9344976,8.65330825 88.2950048,8.29284757 C88.6855543,7.90234849 89.3187193,7.90238937 89.7092184,8.29293887 L89.7092184,8.29293887 L97.7071524,16.2919057 L97.7903281,16.3861097 C98.0953054,16.7783834 98.0675802,17.3455537 97.7071524,17.706028 L97.7071524,17.706028 L89.7071524,25.7070611 L89.6129505,25.7902558 C89.220679,26.095306 88.6534461,26.0676131 88.2929389,25.7071524 L88.2929389,25.7071524 L88.2097442,25.6129505 C87.904694,25.220679 87.9323869,24.6534461 88.2928476,24.2929389 L88.2928476,24.2929389 L94.583,18 L67.9933837,18.000364 C67.9977853,18.1663735 68,18.3329281 68,18.5 C68,26.0469952 63.4808974,32.5384974 57.0010909,35.4161079 L57.0010367,33.2003412 C62.342987,30.4690858 66,24.9116135 66,18.5 C66,9.38730163 58.6126984,2 49.5,2 C40.3873016,2 33,9.38730163 33,18.5 C33,26.7630125 39.0739144,33.6073864 47.0005345,34.8119128 L47.0002357,36.8325485 C37.9652307,35.6121534 31,27.8694851 31,18.5 C31,18.3329281 31.0022147,18.1663735 31.0066163,18.000364 L3.416,18 L9.70715243,24.2929389 C10.0676131,24.6534461 10.095306,25.220679 9.79025581,25.6129505 L9.70706112,25.7071524 C9.34655389,26.0676131 8.77932104,26.095306 8.38704953,25.7902558 L8.29284757,25.7070611 L0.292847565,17.706028 C-0.0675802078,17.3455537 -0.0953054206,16.7783834 0.209671926,16.3861097 L0.292847566,16.2919057 L8.29078161,8.29293887 C8.68128069,7.90238937 9.31444566,7.90234849 9.70499517,8.29284757 C10.0655024,8.65330825 10.0932686,9.22053752 9.788269,9.61284842 L9.70508648,9.70706113 L3.412,16 L31.1674515,16.0002357 C32.3878466,6.96523072 40.1305149,0 49.5,0 Z" id="Combined-Shape" fill="#FDC22C"></path>
                    <circle id="Oval" fill="#96A7FE" cx="49.5" cy="18.5" r="16.5"></circle>
                    <circle id="Oval" fill="#6085FF" opacity="0.813686553" cx="49.5" cy="18.5" r="9.5"></circle>
                    <g id="Hand" transform="translate(36.000000, 17.000000)" fill="#FFFFFF" stroke="#263238" stroke-linecap="round" stroke-linejoin="round" stroke-width="2">
                        <path d="M30.4836145,46.64 C30.2214205,44.5976582 31.35144,42.0126741 32.8452078,39.3682223 C34.5420836,36.363248 35,31.5547316 35,29.2494313 L35,19.1213484 C35,17.4720505 33.8099712,15.9927929 32.1795671,15.8264694 C30.3091262,15.6359871 28.7156509,17.1263949 28.7156509,18.9726793 L28.7156509,22.1337562 L28.7156509,15.1686086 C28.7156509,13.5193107 27.5265453,12.0400531 25.8970645,11.8737295 C24.0257004,11.6841764 22.432225,13.173655 22.432225,15.0199395 L22.432225,19.7624839 L22.432225,13.5880701 C22.432225,11.9387722 21.2431195,10.4595146 19.6136386,10.2931911 C17.7422745,10.1027088 16.1497224,11.5931166 16.1497224,13.439401 L16.1497224,19.7624839 L16.1497224,3.16171986 C16.1497224,1.31636458 14.5562471,-0.174043208 12.6848829,0.0164390842 C11.0554021,0.181833465 9.86537329,1.66202025 9.86537329,3.31131815 L9.86537329,27.3892091 C8.07802205,25.0448831 6.44577155,22.9616573 6.00908914,22.5825511 C4.93261624,21.6487232 3.61702972,20.8236097 1.726278,21.7481457 C0.115261526,22.5342336 -0.68609223,24.7651994 0.741203745,27.0296157 C0.741203745,27.0296157 3.74628033,32.3882078 6.32575313,36.4840417 C7.48623892,38.3275386 8.84798638,40.0242248 10.2642037,41.6763102 C11.9767743,43.6759097 12.4586944,45.5705116 12.0257048,46.64 L30.4836145,46.64 Z" id="Stroke-1"></path>
                        <polygon id="Stroke-3" points="9 53 33 53 33 46 9 46"></polygon>
                    </g>
                </g>
            </g>
        </g>
    </g>
</svg>