<svg width="112" height="112" viewBox="0 0 112 112" fill="none" xmlns="http://www.w3.org/2000/svg">
<path fill-rule="evenodd" clip-rule="evenodd" d="M66.0824 45.254C66.0824 45.254 29.3824 41.0002 22.289 48.1618C15.1598 55.292 9.04385 69.4982 10.1244 70.601C11.223 71.6903 12.196 70.637 13.2093 69.5882C14.2092 68.5934 23.4907 61.5893 25.5801 61.6658C27.6786 61.7559 42.7397 68.6969 42.7397 68.6969C42.7397 68.6969 49.3264 83.4838 49.3981 85.5814C49.4833 87.6836 42.363 96.8348 41.3363 97.8521C40.3364 98.8829 39.341 99.9407 40.444 101.017C41.5246 102.101 55.7652 96.0425 62.8586 88.8944C69.9699 81.7823 66.0824 45.254 66.0824 45.254Z" fill="#459DBF"/>
<path fill-rule="evenodd" clip-rule="evenodd" d="M77.551 44.1235C72.303 44.1235 68.0368 39.8519 68.0368 34.6227C68.0368 29.3979 72.303 25.1218 77.551 25.1218C82.8124 25.1218 87.0653 29.3979 87.0653 34.6227C87.0653 39.8519 82.8124 44.1235 77.551 44.1235ZM54.7963 30.4491C39.3468 45.8963 29.547 62.4882 24 74.6438L37.4681 88.0821C49.6331 82.5366 66.3633 72.6661 81.8396 57.2411C107.776 31.3533 110.244 2 110.244 2C110.244 2 80.7373 4.55672 54.7963 30.4491Z" fill="#5ECCE5"/>
<path fill-rule="evenodd" clip-rule="evenodd" d="M26.1634 92.8545C23.2376 94.3951 17.1714 97.3437 15.6536 95.7848C14.0674 94.2488 17.0296 88.1871 18.5656 85.2614C19.0776 84.3837 18.7256 83.7711 17.8068 84.0819C15.9645 84.7174 12.7874 86.2077 9.44107 89.5722C1.41364 97.5677 0.983927 106.285 3.05021 108.37C5.14393 110.427 13.8525 109.997 21.8662 101.997C25.2125 98.6282 26.6982 95.4648 27.3428 93.6179C27.6536 92.7082 27.0274 92.3608 26.1634 92.8545Z" fill="#FF9900"/>
<path fill-rule="evenodd" clip-rule="evenodd" d="M23.0565 87.6663L22.0464 86.6521C21.0801 85.651 35.5081 70.2571 38.4904 67.2714C41.477 64.2945 49.4135 56.3034 51.3944 58.3231C53.4016 60.3033 45.4255 68.2462 42.4433 71.2318C39.4522 74.2131 24.0623 88.6499 23.0565 87.6663Z" fill="#459DBF"/>
</svg>
