<svg width="16" height="16" viewBox="0 0 16 16" fill="none" xmlns="http://www.w3.org/2000/svg">
<path d="M5.0626 8.00064L7.76777 10.716C7.85999 10.8083 7.90888 10.9226 7.91444 11.059C7.91999 11.1953 7.8711 11.3152 7.76777 11.4186C7.6711 11.5152 7.55399 11.5635 7.41644 11.5635C7.27888 11.5635 7.16177 11.5152 7.0651 11.4186L4.0691 8.42247C4.00666 8.36003 3.9626 8.29419 3.93694 8.22497C3.91127 8.15575 3.89844 8.08097 3.89844 8.00064C3.89844 7.92031 3.91127 7.84553 3.93694 7.77631C3.9626 7.70708 4.00666 7.64125 4.0691 7.57881L7.0651 4.58264C7.15744 4.49042 7.27177 4.44153 7.4081 4.43597C7.54444 4.43042 7.66433 4.47931 7.76777 4.58264C7.86433 4.67931 7.9126 4.79642 7.9126 4.93397C7.9126 5.07153 7.86433 5.18864 7.76777 5.28531L5.0626 8.00064ZM9.29594 8.00064L12.0011 10.716C12.0933 10.8083 12.1422 10.9226 12.1478 11.059C12.1533 11.1953 12.1044 11.3152 12.0011 11.4186C11.9044 11.5152 11.7873 11.5635 11.6498 11.5635C11.5122 11.5635 11.3951 11.5152 11.2984 11.4186L8.30227 8.42247C8.23994 8.36003 8.19594 8.29419 8.17027 8.22497C8.1446 8.15575 8.13177 8.08097 8.13177 8.00064C8.13177 7.92031 8.1446 7.84553 8.17027 7.77631C8.19594 7.70708 8.23994 7.64125 8.30227 7.57881L11.2984 4.58264C11.3908 4.49042 11.5051 4.44153 11.6414 4.43597C11.7778 4.43042 11.8977 4.47931 12.0011 4.58264C12.0977 4.67931 12.1459 4.79642 12.1459 4.93397C12.1459 5.07153 12.0977 5.18864 12.0011 5.28531L9.29594 8.00064Z" fill="#2267FF"/>
</svg>
