<svg width="15" height="15" viewBox="0 0 15 15" fill="none" xmlns="http://www.w3.org/2000/svg">
<g id="Element/Icon/2.Outline/Download">
<g id="Outline">
<path id="Oval" fill-rule="evenodd" clip-rule="evenodd" d="M0.235352 7.11865C0.235352 3.25414 3.36815 0.121338 7.23266 0.121338C11.0972 0.121338 14.23 3.25414 14.23 7.11865C14.23 10.9832 11.0972 14.116 7.23266 14.116C3.36815 14.116 0.235352 10.9832 0.235352 7.11865ZM13.0636 7.11873C13.0636 3.89831 10.4529 1.28764 7.2325 1.28764C4.01208 1.28764 1.40141 3.89831 1.40141 7.11873C1.40141 10.3392 4.01208 12.9498 7.2325 12.9498C10.4529 12.9498 13.0636 10.3392 13.0636 7.11873Z" fill="#37474F"/>
<circle id="Oval_2" cx="7.23291" cy="10.3259" r="0.875" fill="#37474F"/>
<path id="Path" d="M7.23252 3.03687C7.53156 3.03687 7.77803 3.26197 7.81171 3.55197L7.81563 3.61997V7.70174C7.81563 8.02378 7.55457 8.28485 7.23252 8.28485C6.93348 8.28485 6.68702 8.05974 6.65334 7.76974L6.64941 7.70174V3.61997C6.64941 3.29793 6.91048 3.03687 7.23252 3.03687Z" fill="#37474F"/>
</g>
</g>
</svg>
