<svg width="24" height="24" viewBox="0 0 24 24" fill="none" xmlns="http://www.w3.org/2000/svg">
<path d="M11.7071 20.7072C11.3466 21.0676 10.7793 21.0953 10.387 20.7903L10.2928 20.7071L2.29285 12.706C1.93242 12.3456 1.90469 11.7784 2.20967 11.3861L2.29285 11.2919L10.2908 3.29294C10.6813 2.90239 11.3144 2.90235 11.705 3.29285C12.0655 3.65331 12.0933 4.22054 11.7883 4.61285L11.7051 4.70706L4.415 11.999L11.7072 19.2929C12.0676 19.6534 12.0953 20.2207 11.7903 20.613L11.7071 20.7072Z" fill="white"/>
<path d="M21 11C21.5523 11 22 11.4477 22 12C22 12.5128 21.614 12.9355 21.1166 12.9933L21 13H3C2.44772 13 2 12.5523 2 12C2 11.4872 2.38604 11.0645 2.88338 11.0067L3 11H21Z" fill="white"/>
</svg>
