<svg width="24" height="24" viewBox="0 0 24 24" fill="none" xmlns="http://www.w3.org/2000/svg">
<path d="M19.071 4.92903C19.4336 5.29166 19.4595 5.86351 19.1487 6.25602L19.071 6.34324L6.34308 19.0712C5.95255 19.4617 5.31939 19.4617 4.92886 19.0712C4.56623 18.7085 4.54033 18.1367 4.85116 17.7442L4.92886 17.657L17.6568 4.92903C18.0473 4.53851 18.6805 4.53851 19.071 4.92903Z" fill="black"/>
<path d="M4.92891 4.92912C5.29154 4.56649 5.86338 4.54059 6.2559 4.85142L6.34312 4.92912L19.071 17.657C19.4616 18.0476 19.4616 18.6807 19.071 19.0713C18.7084 19.4339 18.1366 19.4598 17.7441 19.149L17.6568 19.0713L4.92891 6.34334C4.53838 5.95281 4.53838 5.31965 4.92891 4.92912Z" fill="black"/>
</svg>
