<svg xmlns="http://www.w3.org/2000/svg" width="16" height="16" viewBox="0 0 16 16">
    <defs>
        <filter id="0a37eah3da">
            <feColorMatrix in="SourceGraphic" values="0 0 0 0 0.133333 0 0 0 0 0.403922 0 0 0 0 1.000000 0 0 0 1.000000 0"/>
        </filter>
    </defs>
    <g fill="none" fill-rule="evenodd">
        <g>
            <g>
                <g filter="url(#0a37eah3da)" transform="translate(-220.000000, -569.000000) translate(16.000000, 557.000000) translate(109.000000, 12.000000)">
                    <g>
                        <g fill="#000" fill-rule="nonzero">
                            <path d="M.195.195c.24-.24.619-.259.88-.055l.063.055L6.471 5.53c.24.24.26.619.056.88l-.056.063-5.332 5.333c-.26.26-.682.26-.942 0-.24-.24-.26-.619-.056-.88l.056-.063 4.86-4.861L.195 1.138C-.045.898-.064.52.14.258L.195.195z" transform="translate(95.000000, 0.000000) translate(5.333333, 2.000000) translate(3.333333, 6.000000) scale(-1, 1) rotate(-180.000000) translate(-3.333333, -6.000000)"/>
                        </g>
                    </g>
                </g>
            </g>
        </g>
    </g>
</svg>
