<svg width="28" height="28" viewBox="0 0 28 28" xmlns="http://www.w3.org/2000/svg">
    <defs>
        <filter color-interpolation-filters="auto" id="a">
            <feColorMatrix in="SourceGraphic" values="0 0 0 0 1.000000 0 0 0 0 1.000000 0 0 0 0 1.000000 0 0 0 1.000000 0"/>
        </filter>
    </defs>
    <g transform="translate(-16 -16)" filter="url(#a)" fill="none" fill-rule="evenodd">
        <g fill-rule="nonzero">
            <path d="M32.134 26.5c.39 0 .731.262.824.635l1.294 5.2.067.005a.419.419 0 0 1 .348.41v7.083c0 .92-.76 1.667-1.697 1.667v2.083a.42.42 0 0 1-.425.417H30a.42.42 0 0 1-.424-.417V41.5H21.09v2.083a.42.42 0 0 1-.424.417H18.12a.42.42 0 0 1-.424-.417V41.5c-.937 0-1.697-.746-1.697-1.667V32.75a.42.42 0 0 1 .414-.417l1.295-5.198a.846.846 0 0 1 .824-.635h13.6zm-13.589 10c-.937 0-1.697.746-1.697 1.667 0 .92.76 1.666 1.697 1.666.938 0 1.697-.746 1.697-1.666 0-.92-.76-1.667-1.697-1.667zm13.576 0c-.937 0-1.697.746-1.697 1.667 0 .92.76 1.666 1.697 1.666s1.697-.746 1.697-1.666c0-.92-.76-1.667-1.697-1.667zm-.654-8.333H19.199l-1.038 4.166h14.344l-1.038-4.166z" fill="#111"/>
            <path d="M28.113 18.378c-.072-.872.789-1.477 1.556-1.196l.12.051.118.067 4.698 3.02 5.15-2.158c.853-.358 1.744.369 1.605 1.251l-.026.121-1.421 5.4 3.645 4.233c.571.663.23 1.658-.555 1.882l-.128.03-.134.014-5.576.318-1.332 2.192V33.5l-.578-1.968-.26-1.044.494-.812c.15-.246.383-.425.652-.508l.137-.034.142-.017 3.827-.219-2.501-2.905a1.167 1.167 0 0 1-.283-.777l.01-.14.029-.14.975-3.71-3.537 1.483c-.31.13-.658.119-.957-.025l-.124-.07-3.226-2.073.317 3.821c.024.287-.06.569-.228.795l-.092.107-.075.069h-3.683l1.702-1.39-.46-5.565z" fill="#000"/>
        </g>
    </g>
</svg>
