<svg xmlns="http://www.w3.org/2000/svg" width="36" height="36" viewBox="0 0 36 36">
    <defs>
        <filter id="38wgd9xy2a">
            <feColorMatrix in="SourceGraphic" values="0 0 0 0 0.800000 0 0 0 0 0.800000 0 0 0 0 0.800000 0 0 0 1.000000 0"/>
        </filter>
    </defs>
    <g fill="none" fill-rule="evenodd">
        <g>
            <g>
                <g>
                    <g filter="url(#38wgd9xy2a)" transform="translate(-59 -358) translate(16 84) translate(0 236) translate(16 11)">
                        <g>
                            <path d="M0 0L36 0 36 36 0 36z" transform="translate(27 27)"/>
                            <path fill="#000" fill-rule="nonzero" d="M29.667 4.5c1.753 0 3.202 1.235 3.325 2.787L33 7.5v21c0 1.578-1.372 2.882-3.096 2.992l-.237.008H6.333c-1.753 0-3.202-1.235-3.325-2.787L3 28.5v-21c0-1.578 1.372-2.882 3.096-2.992l.237-.008h23.334zM10.568 16.491L6 21.138V28.5h24v-4.302l-4.558-4.664-5.086 5.204c-.44.45-1.134.484-1.612.103l-.115-.103-8.06-8.247zM30 7.5H6v10.137l3.706-3.772c.44-.45 1.133-.484 1.612-.104l.115.104 8.06 8.246 5.087-5.202c.44-.45 1.133-.484 1.612-.104l.115.104L30 20.688V7.5zm-5.25 3c1.243 0 2.25 1.007 2.25 2.25S25.993 15 24.75 15s-2.25-1.007-2.25-2.25 1.007-2.25 2.25-2.25z" transform="translate(27 27)"/>
                        </g>
                    </g>
                </g>
            </g>
        </g>
    </g>
</svg>
