<svg width="16" height="21" viewBox="0 0 16 21" fill="none" xmlns="http://www.w3.org/2000/svg">
<path fill-rule="evenodd" clip-rule="evenodd" d="M14.19 11.44L10.95 9.82C12.24 8.82 13.07 7.26 13.07 5.5C13.07 2.47 10.6 0 7.57 0C4.54 0 2.07 2.47 2.07 5.5C2.07 7.63 3.29 9.48 5.07 10.39V13.65C4.78438 13.5889 4.539 13.5363 4.32764 13.4909C3.1695 13.2425 3.03297 13.2132 2.89587 13.2102C2.87755 13.2098 2.85922 13.2099 2.83845 13.2099C2.82948 13.21 2.82007 13.21 2.81 13.21C2.28 13.21 1.78 13.42 1.4 13.8L0 15.22L5.09 20.31C5.52 20.75 6.12 21 6.74 21H13.04C14.02 21 14.85 20.3 15.01 19.33L15.81 14.62C16.03 13.32 15.38 12.04 14.19 11.44ZM13.84 14.29L13.04 19H6.74C6.65 19 6.57 18.96 6.5 18.9L2.82 15.22L7.07 16.11V5.5C7.07 5.22 7.29 5 7.57 5C7.85 5 8.07 5.22 8.07 5.5V11.5H9.83L13.29 13.23C13.69 13.43 13.91 13.86 13.84 14.29ZM7.57 2C5.64 2 4.07 3.57 4.07 5.5C4.07 6.45 4.45 7.31 5.07 7.94V5.5C5.07 4.12 6.19 3 7.57 3C8.95 3 10.07 4.12 10.07 5.5V7.94C10.69 7.31 11.07 6.45 11.07 5.5C11.07 3.57 9.5 2 7.57 2Z" fill="white"/>
</svg>
