<svg width="24" height="24" viewBox="0 0 24 24" fill="none" xmlns="http://www.w3.org/2000/svg">
<path d="M21 11C21.5523 11 22 11.4477 22 12C22 12.5128 21.614 12.9355 21.1166 12.9933L21 13H3C2.44772 13 2 12.5523 2 12C2 11.4872 2.38604 11.0645 2.88338 11.0067L3 11H21Z" fill="white"/>
<path d="M21 4C21.5523 4 22 4.44772 22 5C22 5.51284 21.614 5.93551 21.1166 5.99327L21 6H3C2.44772 6 2 5.55228 2 5C2 4.48716 2.38604 4.06449 2.88338 4.00673L3 4H21Z" fill="white"/>
<path d="M21 18C21.5523 18 22 18.4477 22 19C22 19.5128 21.614 19.9355 21.1166 19.9933L21 20H3C2.44772 20 2 19.5523 2 19C2 18.4872 2.38604 18.0645 2.88338 18.0067L3 18H21Z" fill="white"/>
</svg>
