<svg width="20" height="20" viewBox="0 0 20 20" fill="none" xmlns="http://www.w3.org/2000/svg">
<g id="&#240;&#159;&#154;&#128; Arrow_Up_Tail">
<path id="icon" fill-rule="evenodd" clip-rule="evenodd" d="M10.5112 1.8414C10.1843 1.5872 9.71164 1.61029 9.41123 1.91068L3.9941 7.32735L3.92478 7.40585C3.67057 7.73275 3.69366 8.20544 3.99405 8.50586L4.07256 8.57518C4.39945 8.82939 4.87215 8.8063 5.17256 8.50591L9.18813 4.4902V17.5L9.19374 17.5972C9.24187 18.0116 9.5941 18.3333 10.0215 18.3333C10.4817 18.3333 10.8548 17.9602 10.8548 17.5V4.5331L14.8274 8.50586L14.9059 8.57518C15.2328 8.82939 15.7055 8.8063 16.0059 8.50591C16.3313 8.18048 16.3314 7.65285 16.0059 7.32739L10.5897 1.91073L10.5112 1.8414Z" fill="#444444"/>
</g>
</svg>
