<svg width="16" height="17" viewBox="0 0 16 17" fill="none" xmlns="http://www.w3.org/2000/svg">
<path fill-rule="evenodd" clip-rule="evenodd" d="M0.666626 8.49984C0.666626 4.44975 3.94987 1.1665 7.99996 1.1665C12.05 1.1665 15.3333 4.44975 15.3333 8.49984C15.3333 12.5499 12.05 15.8332 7.99996 15.8332C3.94987 15.8332 0.666626 12.5499 0.666626 8.49984ZM14 8.5C14 5.18629 11.3137 2.5 8 2.5C4.68629 2.5 2 5.18629 2 8.5C2 11.8137 4.68629 14.5 8 14.5C11.3137 14.5 14 11.8137 14 8.5Z" fill="#7E7E7E"/>
<path d="M12.7141 3.78586C12.9558 4.02761 12.9731 4.40884 12.7659 4.67052L12.7141 4.72867L4.2288 13.2139C3.96845 13.4743 3.54634 13.4743 3.28599 13.2139C3.04424 12.9722 3.02697 12.591 3.23419 12.3293L3.28599 12.2711L11.7713 3.78586C12.0316 3.52551 12.4537 3.52551 12.7141 3.78586Z" fill="#7E7E7E"/>
</svg>
