<svg width="24" height="24" viewBox="0 0 24 24" fill="none" xmlns="http://www.w3.org/2000/svg">
<path fill-rule="evenodd" clip-rule="evenodd" d="M8.43433 14.222C9.46028 13.3148 10.3003 13.188 11.4784 13.188H15.3984V10.7216C15.3984 10.4492 15.6211 10.2283 15.8958 10.2283C16.0004 10.2283 16.1023 10.261 16.187 10.3217L21.7938 14.7697C22.0165 14.9292 22.0666 15.2375 21.9058 15.4584C21.8747 15.5011 21.8369 15.5386 21.7938 15.5695L16.187 19.0174C15.9643 19.1769 15.6534 19.1272 15.4925 18.9063C15.4313 18.8223 15.3984 18.7212 15.3984 18.6175V16.1209H11.3941C10.5451 16.1209 9.3913 16.2988 8.43433 17.7579V24H5.46001V8.52993H2.49743C2.22271 8.52993 2 8.30908 2 8.03665C2 7.93295 2.03295 7.83189 2.09417 7.74783L6.58793 1.20451C6.74878 0.983651 7.05971 0.933918 7.28243 1.09343C7.32551 1.12428 7.36333 1.16178 7.39444 1.20451L11.8882 7.74783C12.049 7.96869 11.9989 8.27703 11.7762 8.43654C11.6914 8.49725 11.5895 8.52993 11.4849 8.52993H8.43433V14.222Z" fill="black"/>
</svg>
