<svg width="20" height="20" viewBox="0 0 20 20" fill="none" xmlns="http://www.w3.org/2000/svg">
<path fill-rule="evenodd" clip-rule="evenodd" d="M16.2192 9.18967C16.2895 9.72783 16.2893 10.2703 16.2184 10.8096L17.7149 12.2567C17.944 12.4781 17.9929 12.8271 17.8336 13.1031L16.5948 15.2487C16.4355 15.5246 16.1088 15.6568 15.8024 15.5691L13.791 14.9937C13.5821 15.1519 13.3631 15.2974 13.1366 15.4281C12.9027 15.5631 12.6593 15.6835 12.4094 15.7876L11.9045 17.8073C11.8272 18.1164 11.5495 18.3334 11.2308 18.3334H8.75332C8.43467 18.3334 8.15689 18.1164 8.0796 17.8073L7.57221 15.7777C7.08255 15.5724 6.62415 15.3075 6.20287 14.9863L4.19755 15.5599C3.89116 15.6477 3.5645 15.5154 3.40516 15.2395L2.16641 13.0939C2.00707 12.8179 2.05603 12.4689 2.28509 12.2475L3.78453 10.7976C3.71641 10.2678 3.71669 9.73405 3.78533 9.20322L2.28509 7.75259C2.05603 7.5311 2.00707 7.18207 2.16641 6.90613L3.40516 4.76058C3.56446 4.48464 3.89134 4.35259 4.19755 4.44016L6.20408 5.01412C6.41613 4.85283 6.63863 4.70481 6.86873 4.57193C7.09887 4.43905 7.33835 4.3204 7.58405 4.21742L8.09023 2.19269C8.16752 1.88356 8.44526 1.66669 8.76394 1.66669H11.2414C11.5601 1.66669 11.8378 1.88356 11.9151 2.19269L12.4213 4.21728C12.9113 4.42155 13.3702 4.68558 13.7922 5.00599L15.8024 4.43096C16.1087 4.34315 16.4355 4.47537 16.5948 4.75137L17.8336 6.89693C17.9929 7.1729 17.944 7.5219 17.7149 7.74339L16.2192 9.18967ZM10 12.7778C11.5341 12.7778 12.7778 11.5341 12.7778 10C12.7778 8.46587 11.5341 7.22223 10 7.22223C8.46587 7.22223 7.22223 8.46587 7.22223 10C7.22223 11.5341 8.46587 12.7778 10 12.7778Z" fill="#37474F"/>
</svg>
