<svg width="16" height="16" viewBox="0 0 16 16" fill="none" xmlns="http://www.w3.org/2000/svg">
<path fill-rule="evenodd" clip-rule="evenodd" d="M8.36328 6.23619L10.9438 1.10869C10.9861 1.02436 10.9766 0.930691 10.9189 0.854997C10.8629 0.779649 10.7653 0.733333 10.6617 0.731605L6.30037 0.666626C6.17097 0.676304 6.04255 0.738864 5.99734 0.849812L2.68169 9.24459C2.65089 9.32858 2.66563 9.41983 2.7246 9.49068C2.78455 9.56119 2.87857 9.60163 2.97849 9.60163H2.98144L6.92053 9.57744L5.30184 14.9956C5.26319 15.1238 5.33723 15.2552 5.47678 15.3105C5.51741 15.325 5.56196 15.3333 5.6052 15.3333C5.70676 15.3333 5.80766 15.2908 5.86466 15.2134L12.6133 6.54657C12.6781 6.46292 12.6844 6.35301 12.6254 6.26522C12.5681 6.17674 12.4583 6.11763 12.3417 6.12662L8.36328 6.23619Z" fill="#FFB457"/>
</svg>
