<?xml version="1.0" encoding="UTF-8"?>
<svg xmlns="http://www.w3.org/2000/svg" xmlns:xlink="http://www.w3.org/1999/xlink" width="24" height="24" viewBox="0 0 24 24" version="1.1">
<defs>
<clipPath id="clip1">
  <path d="M 1 9 L 23 9 L 23 15 L 1 15 Z M 1 9 "/>
</clipPath>
<clipPath id="clip2">
  <path d="M 3.5 14.5 C 2.121094 14.5 1 13.378906 1 12 C 1 10.621094 2.121094 9.5 3.5 9.5 C 4.878906 9.5 6 10.621094 6 12 C 6 13.378906 4.878906 14.5 3.5 14.5 Z M 12 14.5 C 10.621094 14.5 9.5 13.378906 9.5 12 C 9.5 10.621094 10.621094 9.5 12 9.5 C 13.378906 9.5 14.5 10.621094 14.5 12 C 14.5 13.378906 13.378906 14.5 12 14.5 Z M 20.5 14.5 C 19.121094 14.5 18 13.378906 18 12 C 18 10.621094 19.121094 9.5 20.5 9.5 C 21.878906 9.5 23 10.621094 23 12 C 23 13.378906 21.878906 14.5 20.5 14.5 Z M 20.5 14.5 "/>
</clipPath>
</defs>
<g id="surface1">
<g clip-path="url(#clip1)" clip-rule="nonzero">
<g clip-path="url(#clip2)" clip-rule="evenodd">
<path style=" stroke:none;fill-rule:nonzero;fill:rgb(19.999695%,19.999695%,19.999695%);fill-opacity:1;" d="M -4 19.5 L 28 19.5 L 28 4.5 L -4 4.5 Z M -4 19.5 "/>
</g>
</g>
</g>
</svg>
