<svg xmlns="http://www.w3.org/2000/svg" width="28" height="28" viewBox="0 0 28 28">
    <g fill="none" fill-rule="evenodd">
        <path fill="#EEE" d="M-318-469H57v667h-375z"/>
        <path fill="#FFF" d="M-318-19H57v231h-375z"/>
        <path fill="#346AFF" d="M10.434 15.222c1.026-.907 1.866-1.034 3.044-1.034h3.92v-2.466a.495.495 0 0 1 .789-.4l5.607 4.448a.49.49 0 0 1 0 .8l-5.607 3.447a.5.5 0 0 1-.694-.11.49.49 0 0 1-.095-.29v-2.496h-4.004c-.849 0-2.003.178-2.96 1.637V25H7.46V9.53H4.497a.495.495 0 0 1-.403-.782l4.494-6.543a.5.5 0 0 1 .806 0l4.494 6.543c.161.22.11.529-.112.689a.5.5 0 0 1-.291.093h-3.05v5.692z"/>
    </g>
</svg>
