<?xml version="1.0" encoding="UTF-8"?>
<svg xmlns="http://www.w3.org/2000/svg" xmlns:xlink="http://www.w3.org/1999/xlink" width="24" height="24" viewBox="0 0 24 24" version="1.1">
<defs>
<clipPath id="clip1">
  <path d="M 2 0 L 22 0 L 22 24 L 2 24 Z M 2 0 "/>
</clipPath>
<clipPath id="clip2">
  <path d="M 3.339844 14.40625 C 1.125 10.734375 1.65625 5.953125 4.929688 2.8125 C 8.835938 -0.9375 15.164063 -0.9375 19.070313 2.8125 C 22.34375 5.953125 22.875 10.730469 20.660156 14.402344 C 19.886719 15.601563 17 18.800781 12.003906 24 C 7 18.800781 4.113281 15.601563 3.339844 14.40625 Z M 5.070313 13.597656 C 5.691406 14.558594 8 17.195313 12.003906 21.5 C 16 17.195313 18.308594 14.558594 18.929688 13.59375 C 20.699219 10.640625 20.273438 6.792969 17.65625 4.261719 C 14.53125 1.246094 9.46875 1.246094 6.34375 4.261719 C 3.722656 6.792969 3.300781 10.640625 5.070313 13.597656 Z M 12 13.5 C 9.789063 13.5 8 11.710938 8 9.5 C 8 7.289063 9.789063 5.5 12 5.5 C 14.210938 5.5 16 7.289063 16 9.5 C 16 11.710938 14.210938 13.5 12 13.5 Z M 12 11.5 C 13.105469 11.5 14 10.605469 14 9.5 C 14 8.394531 13.105469 7.5 12 7.5 C 10.894531 7.5 10 8.394531 10 9.5 C 10 10.605469 10.894531 11.5 12 11.5 Z M 12 11.5 "/>
</clipPath>
</defs>
<g id="surface1">
<g clip-path="url(#clip1)" clip-rule="nonzero">
<g clip-path="url(#clip2)" clip-rule="evenodd">
<rect x="0" y="0" width="24" height="24" style="fill:rgb(19.999695%,19.999695%,19.999695%);fill-opacity:1;stroke:none;"/>
</g>
</g>
</g>
</svg>
