<svg xmlns="http://www.w3.org/2000/svg" width="16" height="16" viewBox="0 0 16 16">
    <defs>
        <filter id="f9pgxz5h6a">
            <feColorMatrix in="SourceGraphic" values="0 0 0 0 0.494118 0 0 0 0 0.494118 0 0 0 0 0.494118 0 0 0 1.000000 0"/>
        </filter>
    </defs>
    <g fill="none" fill-rule="evenodd">
        <g>
            <g>
                <g filter="url(#f9pgxz5h6a)" transform="translate(-16.000000, -912.000000) translate(0.000000, 68.000000) translate(16.000000, 844.000000)">
                    <g fill="#000">
                        <path fill-rule="nonzero" d="M8 0C3.582 0 0 3.582 0 8s3.582 8 8 8 8-3.582 8-8-3.582-8-8-8zm0 1.333c3.682 0 6.667 2.985 6.667 6.667S11.682 14.667 8 14.667 1.333 11.682 1.333 8 4.318 1.333 8 1.333z"/>
                        <circle cx="8" cy="11.667" r="1"/>
                        <path fill-rule="nonzero" d="M8 3.333c.342 0 .624.258.662.59L8.667 4v4.667c0 .368-.299.666-.667.666-.342 0-.624-.257-.662-.589l-.005-.077V4c0-.368.299-.667.667-.667z"/>
                    </g>
                </g>
            </g>
        </g>
    </g>
</svg>
