<svg width="25" height="24" viewBox="0 0 25 24" fill="none" xmlns="http://www.w3.org/2000/svg">
<path fill-rule="evenodd" clip-rule="evenodd" d="M2.99854 11.9998C2.99854 6.47691 7.47569 1.99976 12.9985 1.99976C18.5214 1.99976 22.9985 6.47691 22.9985 11.9998C22.9985 17.5226 18.5214 21.9998 12.9985 21.9998C7.47569 21.9998 2.99854 17.5226 2.99854 11.9998ZM12.9985 -0.000244141C6.37112 -0.000244141 0.998535 5.37234 0.998535 11.9998C0.998535 18.6272 6.37112 23.9998 12.9985 23.9998C19.626 23.9998 24.9985 18.6272 24.9985 11.9998C24.9985 5.37234 19.626 -0.000244141 12.9985 -0.000244141ZM17.3424 9.06355C16.82 8.86978 16.238 9.13227 16.0424 9.64983L14.835 12.8432L13.9051 9.71765L13.844 9.55873C13.4631 8.76413 12.2357 8.81711 11.9676 9.71766L11.0628 12.7546L9.96089 9.66687L9.90078 9.5311C9.67031 9.10005 9.14989 8.88975 8.67186 9.05735C8.14602 9.24171 7.87059 9.8135 8.05666 10.3345L8.65141 11.9998H8.01849L7.86777 12.0106C7.37593 12.082 6.99854 12.4977 6.99854 12.9998C6.99854 13.552 7.45518 13.9998 8.01849 13.9998H9.36572L10.199 16.3329L10.2665 16.4844C10.677 17.2402 11.8592 17.1579 12.1198 16.2821L12.9353 13.5381L13.753 16.2821L13.8116 16.4356C14.1769 17.2059 15.3475 17.1969 15.6675 16.3499L16.5556 13.9998H17.9786L18.1293 13.9889C18.6211 13.9175 18.9985 13.5018 18.9985 12.9998C18.9985 12.4475 18.5419 11.9998 17.9786 11.9998H17.3113L17.9341 10.3515L17.9762 10.2092C18.0794 9.73229 17.8173 9.23971 17.3424 9.06355Z" fill="#2267FF"/>
</svg>
