<svg xmlns="http://www.w3.org/2000/svg" width="220" height="184" viewBox="0 0 220 184">
    <g fill="none" fill-rule="evenodd">
        <path fill="#FFF" d="M40 22h140v140H40z"/>
        <path fill="#555" d="M40 22h39v39H40V22zm5 5v29h29V27H45zm6 6h17v17H51V33zm90-11h39v39h-39V22zm5 5v29h29V27h-29zm6 6h17v17h-17V33zM85 22h11v5H85v-5zm5 17h5v17h-5v-6h-5V33h5v6zm-5 17h5v5h-5v-5zm5 5h5v5h-5v-5zm5-5h5v5h-5v-5zm-5 22h-5V66h5v7h5v5h-5zm10-17h5v5h-5v-5zm10-7h14v-5h-14v5zm9 18h5V54h-5v18zm16-5h-11v5h6v11h5v-5h5V67h-5zm-30-6h5V49h-5v12zm25-6h5v5h-5v-5zm-22-17v11H95v-5h8V33h16v5h-11zm11-10h5v5h-5v-5zm11-6h5v5h-5v-5zm0 34h5v5h-5v-5zm-15 18h5v5h-5v-5zm4-41h16v16h-16V33zM62 72v6h-5v-6H40v-5h22v5zm68-16h5v5h-5v-5zM52 83h-7v12h-5V78h17v11h-5v-6zm20-15h5v5h-5v-5zm-5 5h5v5h-5v-5zm6 17h5v5h-5v-5zm-6-6h6v21h-6V84zm-5-6h5v11h-5V78zm-12 22h7v5H45V95h5v5zm28 0h-5v5h10V95h-5v5zm5-10h13v5H83v-5zm0-6H72v-6h13v6h5v6h-7v-6zm8 11h15v5H91v-5zm5 5h5v5h-5v-5zm10 0h5v5h-5v-5zm-5-16h5v11h-5V84zm5 0h5v5h-5v-5zm14-5h5v5h-5v-5zm-9 5h19v11h-19V84zm64-18h5v5h-5v-5zm-5 5h5v5h-5v-5zm5 23h5v5h-5v-5zm-23-5h5v5h-5v-5zm-10 0h5v5h-5v-5zm10-10h5v5h-5v-5zm13 20h10v5h-10v-5zm-30-5h22v13h-22V94zm30-5h15v5h-15v-5zm-13-23h18v5h-18v-5zm0 18h18v5h-18v-5z"/>
        <path fill="#555" d="M180 162h-39v-39h39v39zm-5-5v-29h-29v29h29zm-6-6h-17v-17h17v17zm-90 11H40v-39h39v39zm-5-5v-29H45v29h29zm-6-6H51v-17h17v17zm67 11h-11v-5h11v5zm-5-17h-5v-17h5v6h5v17h-5v-6zm5-17h-5v-5h5v5zm-5-5h-5v-5h5v5zm-5 5h-5v-5h5v5zm5-22h5v12h-5v-7h-5v-5h5zm-10 17h-5v-5h5v5zm-10 7H96v5h14v-5zm-9-18h-5v18h5v-18zm-16 5h11v-5h-6v-11h-5v5h-5v11h5zm30 6h-5v12h5v-12zm-25 6h-5v-5h5v5zm22 17v-11h13v5h-8v11h-16v-5h11zm-11 10h-5v-5h5v5zm-11 6h-5v-5h5v5zm0-34h-5v-5h5v5zm15-18h-5v-5h5v5zm-4 41H85v-16h16v16zm57-39v-6h5v6h17v5h-22v-5zm-68 16h-5v-5h5v5zm58-12h-5v-5h5v5zm5-6h-5v-5h5v5zm-108 8h-5v-5h5v5zm5-5h-5v-5h5v5zm18 5H50v-5h18v5z"/>
        <path fill="#ECECEC" fill-opacity=".9" d="M40 105h140v57H40z"/>
        <path fill="#979797" d="M21 3v26.5a.5.5 0 1 1-1 0v-27a.5.5 0 0 1 .5-.5h27a.5.5 0 1 1 0 1H21zM199 3v26.5a.5.5 0 0 0 1 0v-27a.5.5 0 0 0-.5-.5h-27a.5.5 0 0 0 0 1H199zM21 181v-26.5a.5.5 0 0 0-1 0v27a.5.5 0 0 0 .5.5h27a.5.5 0 0 0 0-1H21zM199 181v-26.5a.5.5 0 0 1 1 0v27a.5.5 0 0 1-.5.5h-27a.5.5 0 0 1 0-1H199z" opacity=".5"/>
        <rect width="220" height="3" y="105" fill="#333" rx="1.5"/>
    </g>
</svg>
