<svg width="24" height="24" viewBox="0 0 24 24" fill="none" xmlns="http://www.w3.org/2000/svg">
<circle cx="12" cy="12" r="9.5" fill="#FFDA34" stroke="#FBA924"/>
<path d="M17.8585 10.0524C17.8363 9.69776 17.5929 9.36492 17.1891 9.28307L14.6001 8.75925C14.3623 8.71014 14.1576 8.56282 14.0359 8.35547L12.7303 6.08558C12.4095 5.52356 11.5907 5.52356 11.2699 6.08558L9.96433 8.35547C9.84263 8.56282 9.63794 8.71014 9.40007 8.75925L6.8111 9.28307C6.40727 9.36492 6.15833 9.69776 6.14173 10.0524C6.14173 10.0524 6.14173 10.0579 6.14173 10.0633C6.14173 10.0633 6.14173 10.0688 6.14173 10.0743C6.14173 10.0743 6.14173 10.0797 6.14173 10.0852C6.14173 10.0852 6.14173 10.0906 6.14173 10.0961C6.14173 10.0961 6.14173 10.1015 6.14173 10.107C6.14173 10.107 6.14173 10.1125 6.14173 10.1179C6.14173 10.1179 6.14173 10.1234 6.14173 10.1288C6.14173 10.1288 6.14173 10.1343 6.14173 10.1397C6.14173 10.1397 6.14173 10.1452 6.14173 10.1507C6.14173 10.1507 6.14173 10.1561 6.14173 10.1616C6.14173 10.1616 6.14173 10.167 6.14173 10.1725C6.14173 10.1725 6.14173 10.1779 6.14173 10.1834C6.14173 10.1834 6.14173 10.1888 6.14173 10.1943C6.14173 10.1943 6.14173 10.1998 6.14173 10.2052C6.14173 10.2052 6.14173 10.2107 6.14173 10.2161C6.14173 10.2161 6.14173 10.2216 6.14173 10.227C6.14173 10.227 6.14173 10.2325 6.14173 10.238C6.14173 10.238 6.14173 10.2434 6.14173 10.2489C6.14173 10.2489 6.14173 10.2543 6.14173 10.2598C6.14173 10.2598 6.14173 10.2652 6.14173 10.2707C6.14173 10.2707 6.14173 10.2761 6.14173 10.2816C6.14173 10.2816 6.14173 10.2871 6.14173 10.2925C6.14173 10.2925 6.14173 10.298 6.14173 10.3034C6.14173 10.3034 6.14173 10.3089 6.14173 10.3143C6.14173 10.3143 6.14173 10.3198 6.14173 10.3253C6.14173 10.3253 6.14173 10.3307 6.14173 10.3362C6.14173 10.3362 6.14173 10.3416 6.14173 10.3471C6.14173 10.3471 6.14173 10.3525 6.14173 10.358C6.14173 10.358 6.14173 10.3635 6.14173 10.3689C6.14173 10.3689 6.14173 10.3744 6.14173 10.3798C6.14173 10.3798 6.14173 10.3853 6.14173 10.3907C6.14173 10.3907 6.14173 10.3962 6.14173 10.4016C6.14173 10.4016 6.14173 10.4071 6.14173 10.4126C6.14173 10.4126 6.14173 10.418 6.14173 10.4235C6.14173 10.4235 6.14173 10.4289 6.14173 10.4344C6.14173 10.4344 6.14173 10.4398 6.14173 10.4453C6.14173 10.4453 6.14173 10.4508 6.14173 10.4562C6.14173 10.4562 6.14173 10.4617 6.14173 10.4671C6.14173 10.4671 6.14173 10.4726 6.14173 10.478C6.14173 10.478 6.14173 10.4835 6.14173 10.489C6.14173 10.489 6.14173 10.4944 6.14173 10.4999C6.14173 10.4999 6.14173 10.5053 6.14173 10.5108C6.14173 10.5108 6.14173 10.5162 6.14173 10.5217C6.14173 10.5217 6.14173 10.5271 6.14173 10.5326C6.14173 10.5326 6.14173 10.5381 6.14173 10.5435C6.14173 10.5435 6.14173 10.549 6.14173 10.5544C6.14173 10.5544 6.14173 10.5599 6.14173 10.5653C6.14173 10.5653 6.14173 10.5708 6.14173 10.5763C6.14173 10.5763 6.14173 10.5817 6.14173 10.5872C6.14173 10.5872 6.14173 10.5926 6.14173 10.5981C6.14173 10.5981 6.14173 10.6035 6.14173 10.609C6.14173 10.609 6.14173 10.6145 6.14173 10.6199C6.14173 10.6199 6.14173 10.6254 6.14173 10.6308C6.14173 10.6308 6.14173 10.6363 6.14173 10.6417C6.14173 10.6417 6.14173 10.6472 6.14173 10.6526C6.14173 10.6526 6.14173 10.6581 6.14173 10.6636C6.14173 10.6636 6.14173 10.669 6.14173 10.6745C6.14173 10.6745 6.14173 10.6799 6.14173 10.6854C6.14173 10.6854 6.14173 10.6908 6.14173 10.6963C6.14173 10.6963 6.14173 10.7018 6.14173 10.7072C6.14173 10.7072 6.14173 10.7127 6.14173 10.7181C6.14173 10.7181 6.14173 10.7236 6.14173 10.729C6.14173 10.729 6.14173 10.7345 6.14173 10.7399C6.14173 10.7399 6.14173 10.7454 6.14173 10.7509C6.14173 10.7509 6.14173 10.7563 6.14173 10.7618C6.14173 10.7618 6.14173 10.7672 6.14173 10.7727C6.14173 10.7727 6.14173 10.7781 6.14173 10.7836C6.14173 10.7836 6.14173 10.7891 6.14173 10.7945C6.14173 10.7945 6.14173 10.8 6.14173 10.8054C6.14173 10.8054 6.14173 10.8109 6.14173 10.8163C6.14173 10.8163 6.14173 10.8218 6.14173 10.8273C6.14173 10.8273 6.14173 10.8327 6.14173 10.8382C6.14173 10.8382 6.14173 10.8436 6.14173 10.8491C6.14173 10.8491 6.14173 10.8545 6.14173 10.86C6.14173 10.86 6.14173 10.8654 6.14173 10.8709C6.14173 10.8709 6.14173 10.8764 6.14173 10.8818C6.14173 10.8818 6.14173 10.8873 6.14173 10.8927C6.14173 10.8927 6.14173 10.8982 6.14173 10.9036C6.14173 10.9036 6.14173 10.9091 6.14173 10.9146C6.14173 10.9146 6.14173 10.92 6.14173 10.9255C6.14173 10.9255 6.14173 10.9309 6.14173 10.9364C6.14173 10.9364 6.14173 10.9418 6.14173 10.9473C6.14173 10.9473 6.14173 10.9528 6.14173 10.9582C6.14173 10.9582 6.14173 10.9637 6.14173 10.9691C6.14173 10.9691 6.14173 10.9746 6.14173 10.98C6.14173 10.98 6.14173 10.9855 6.14173 10.9909C6.14173 10.9909 6.14173 10.9964 6.14173 11.0019C6.14173 11.0019 6.14173 11.0073 6.14173 11.0128C6.14173 11.0128 6.14173 11.0182 6.14173 11.0237C6.14173 11.0237 6.14173 11.0291 6.14173 11.0346C6.14173 11.0346 6.14173 11.0401 6.14173 11.0455C6.14173 11.0455 6.14173 11.051 6.14173 11.0564C6.14173 11.0564 6.14173 11.0619 6.14173 11.0673C6.14173 11.0673 6.14173 11.0728 6.14173 11.0783C6.14173 11.0783 6.14173 11.0837 6.14173 11.0892C6.14173 11.0892 6.14173 11.0946 6.14173 11.1001C6.14173 11.1001 6.14173 11.1055 6.14173 11.111C6.14173 11.111 6.14173 11.1164 6.14173 11.1219C6.14173 11.1219 6.14173 11.1274 6.14173 11.1328C6.14173 11.1328 6.14173 11.1383 6.14173 11.1437C6.12514 11.3565 6.19705 11.5748 6.36301 11.7549L8.14431 13.6755C8.20516 13.741 8.24942 13.8119 8.28261 13.8938L8.06133 15.8308C8.06133 15.8308 8.06133 15.8363 8.06133 15.8418C8.06133 15.8418 8.06133 15.8472 8.06133 15.8527C8.06133 15.8527 8.06133 15.8581 8.06133 15.8636C8.06133 15.8636 8.06133 15.869 8.06133 15.8745C8.06133 15.8745 8.06133 15.88 8.06133 15.8854C8.06133 15.8854 8.06133 15.8909 8.06133 15.8963C8.06133 15.8963 8.06133 15.9018 8.06133 15.9072C8.06133 15.9072 8.06133 15.9127 8.06133 15.9181C8.06133 15.9181 8.06133 15.9236 8.06133 15.9291C8.06133 15.9291 8.06133 15.9345 8.06133 15.94C8.06133 15.94 8.06133 15.9454 8.06133 15.9509C8.06133 15.9509 8.06133 15.9563 8.06133 15.9618C8.06133 15.9618 8.06133 15.9673 8.06133 15.9727C8.06133 15.9727 8.06133 15.9782 8.06133 15.9836C8.06133 15.9836 8.06133 15.9891 8.06133 15.9945C8.06133 15.9945 8.06133 16 8.06133 16.0055C8.06133 16.0055 8.06133 16.0109 8.06133 16.0164C8.06133 16.0164 8.06133 16.0218 8.06133 16.0273C8.06133 16.0273 8.06133 16.0327 8.06133 16.0382C8.06133 16.0382 8.06133 16.0436 8.06133 16.0491C8.06133 16.0491 8.06133 16.0546 8.06133 16.06C8.06133 16.06 8.06133 16.0655 8.06133 16.0709C8.06133 16.0709 8.06133 16.0764 8.06133 16.0818C8.06133 16.0818 8.06133 16.0873 8.06133 16.0928C8.06133 16.0928 8.06133 16.0982 8.06133 16.1037C8.06133 16.1037 8.06133 16.1091 8.06133 16.1146C8.06133 16.1146 8.06133 16.12 8.06133 16.1255C8.06133 16.1255 8.06133 16.1309 8.06133 16.1364C8.06133 16.1364 8.06133 16.1419 8.06133 16.1473C8.06133 16.1473 8.06133 16.1528 8.06133 16.1582C8.06133 16.1582 8.06133 16.1637 8.06133 16.1691C8.06133 16.1691 8.06133 16.1746 8.06133 16.1801C8.06133 16.1801 8.06133 16.1855 8.06133 16.191C8.06133 16.191 8.06133 16.1964 8.06133 16.2019C8.06133 16.2019 8.06133 16.2073 8.06133 16.2128C8.06133 16.2128 8.06133 16.2183 8.06133 16.2237C8.06133 16.2237 8.06133 16.2292 8.06133 16.2346C8.06133 16.2346 8.06133 16.2401 8.06133 16.2455C8.06133 16.2455 8.06133 16.251 8.06133 16.2564C8.06133 16.2564 8.06133 16.2619 8.06133 16.2674C8.06133 16.2674 8.06133 16.2728 8.06133 16.2783C8.06133 16.2783 8.06133 16.2837 8.06133 16.2892C8.06133 16.2892 8.06133 16.2946 8.06133 16.3001C8.06133 16.3001 8.06133 16.3056 8.06133 16.311C8.06133 16.311 8.06133 16.3165 8.06133 16.3219C8.06133 16.3219 8.06133 16.3274 8.06133 16.3328C8.06133 16.3328 8.06133 16.3383 8.06133 16.3438C8.06133 16.3438 8.06133 16.3492 8.06133 16.3547C8.06133 16.3547 8.06133 16.3601 8.06133 16.3656C8.06133 16.3656 8.06133 16.371 8.06133 16.3765C8.06133 16.3765 8.06133 16.3819 8.06133 16.3874C8.06133 16.3874 8.06133 16.3929 8.06133 16.3983C8.06133 16.3983 8.06133 16.4038 8.06133 16.4092C8.06133 16.4092 8.06133 16.4147 8.06133 16.4201C8.06133 16.4201 8.06133 16.4256 8.06133 16.4311C8.06133 16.4311 8.06133 16.4365 8.06133 16.442C8.06133 16.442 8.06133 16.4474 8.06133 16.4529C8.06133 16.4529 8.06133 16.4583 8.06133 16.4638C8.06133 16.4638 8.06133 16.4693 8.06133 16.4747C8.06133 16.4747 8.06133 16.4802 8.06133 16.4856C8.06133 16.4856 8.06133 16.4911 8.06133 16.4965C8.06133 16.4965 8.06133 16.502 8.06133 16.5074C8.06133 16.5074 8.06133 16.5129 8.06133 16.5184C8.06133 16.5184 8.06133 16.5238 8.06133 16.5293C8.06133 16.5293 8.06133 16.5347 8.06133 16.5402C8.06133 16.5402 8.06133 16.5456 8.06133 16.5511C8.06133 16.5511 8.06133 16.5566 8.06133 16.562C8.06133 16.562 8.06133 16.5675 8.06133 16.5729C8.06133 16.5729 8.06133 16.5784 8.06133 16.5838C8.06133 16.5838 8.06133 16.5893 8.06133 16.5948C8.06133 16.5948 8.06133 16.6002 8.06133 16.6057C8.06133 16.6057 8.06133 16.6111 8.06133 16.6166C8.06133 16.6166 8.06133 16.622 8.06133 16.6275C8.06133 16.6275 8.06133 16.6329 8.06133 16.6384C8.06133 16.6384 8.06133 16.6439 8.06133 16.6493C8.06133 16.6493 8.06133 16.6548 8.06133 16.6602C8.06133 16.6602 8.06133 16.6657 8.06133 16.6711C8.06133 16.6711 8.06133 16.6766 8.06133 16.6821C8.06133 16.6821 8.06133 16.6875 8.06133 16.693C8.06133 16.693 8.06133 16.6984 8.06133 16.7039C8.06133 16.7039 8.06133 16.7093 8.06133 16.7148C8.06133 16.7148 8.06133 16.7202 8.06133 16.7257C8.06133 16.7257 8.06133 16.7312 8.06133 16.7366C8.06133 16.7366 8.06133 16.7421 8.06133 16.7475C8.06133 16.7475 8.06133 16.753 8.06133 16.7584C8.06133 16.7584 8.06133 16.7639 8.06133 16.7694C8.06133 16.7694 8.06133 16.7748 8.06133 16.7803C8.06133 16.7803 8.06133 16.7857 8.06133 16.7912C8.06133 16.7912 8.06133 16.7966 8.06133 16.8021C8.06133 16.8021 8.06133 16.8076 8.06133 16.813C8.06133 16.813 8.06133 16.8185 8.06133 16.8239C8.06133 16.8239 8.06133 16.8294 8.06133 16.8348C8.06133 16.8348 8.06133 16.8403 8.06133 16.8457C8.06133 16.8457 8.06133 16.8512 8.06133 16.8567C8.06133 16.8567 8.06133 16.8621 8.06133 16.8676C8.06133 16.8676 8.06133 16.873 8.06133 16.8785C8.06133 16.8785 8.06133 16.8839 8.06133 16.8894C8.06133 16.8894 8.06133 16.8949 8.06133 16.9003C8.06133 16.9003 8.06133 16.9058 8.06133 16.9112C8.06133 16.9112 8.06133 16.9167 8.06133 16.9221C8.06133 16.9221 8.06133 16.9276 8.06133 16.9331C7.98941 17.5769 8.64772 18.0462 9.24517 17.7843L11.6516 16.7039C11.8729 16.6057 12.1273 16.6057 12.3486 16.7039L14.755 17.7843C15.3469 18.0516 16.0108 17.5769 15.9389 16.9385C15.9389 16.9385 15.9389 16.9331 15.9389 16.9276C15.9389 16.9276 15.9389 16.9221 15.9389 16.9167C15.9389 16.9167 15.9389 16.9112 15.9389 16.9058C15.9389 16.9058 15.9389 16.9003 15.9389 16.8949C15.9389 16.8949 15.9389 16.8894 15.9389 16.8839C15.9389 16.8839 15.9389 16.8785 15.9389 16.873C15.9389 16.873 15.9389 16.8676 15.9389 16.8621C15.9389 16.8621 15.9389 16.8567 15.9389 16.8512C15.9389 16.8512 15.9389 16.8457 15.9389 16.8403C15.9389 16.8403 15.9389 16.8348 15.9389 16.8294C15.9389 16.8294 15.9389 16.8239 15.9389 16.8185C15.9389 16.8185 15.9389 16.813 15.9389 16.8076C15.9389 16.8076 15.9389 16.8021 15.9389 16.7966C15.9389 16.7966 15.9389 16.7912 15.9389 16.7857C15.9389 16.7857 15.9389 16.7803 15.9389 16.7748C15.9389 16.7748 15.9389 16.7694 15.9389 16.7639C15.9389 16.7639 15.9389 16.7584 15.9389 16.753C15.9389 16.753 15.9389 16.7475 15.9389 16.7421C15.9389 16.7421 15.9389 16.7366 15.9389 16.7312C15.9389 16.7312 15.9389 16.7257 15.9389 16.7202C15.9389 16.7202 15.9389 16.7148 15.9389 16.7093C15.9389 16.7093 15.9389 16.7039 15.9389 16.6984C15.9389 16.6984 15.9389 16.693 15.9389 16.6875C15.9389 16.6875 15.9389 16.6821 15.9389 16.6766C15.9389 16.6766 15.9389 16.6711 15.9389 16.6657C15.9389 16.6657 15.9389 16.6602 15.9389 16.6548C15.9389 16.6548 15.9389 16.6493 15.9389 16.6439C15.9389 16.6439 15.9389 16.6384 15.9389 16.6329C15.9389 16.6329 15.9389 16.6275 15.9389 16.622C15.9389 16.622 15.9389 16.6166 15.9389 16.6111C15.9389 16.6111 15.9389 16.6057 15.9389 16.6002C15.9389 16.6002 15.9389 16.5948 15.9389 16.5893C15.9389 16.5893 15.9389 16.5838 15.9389 16.5784C15.9389 16.5784 15.9389 16.5729 15.9389 16.5675C15.9389 16.5675 15.9389 16.562 15.9389 16.5566C15.9389 16.5566 15.9389 16.5511 15.9389 16.5456C15.9389 16.5456 15.9389 16.5402 15.9389 16.5347C15.9389 16.5347 15.9389 16.5293 15.9389 16.5238C15.9389 16.5238 15.9389 16.5184 15.9389 16.5129C15.9389 16.5129 15.9389 16.5074 15.9389 16.502C15.9389 16.502 15.9389 16.4965 15.9389 16.4911C15.9389 16.4911 15.9389 16.4856 15.9389 16.4802C15.9389 16.4802 15.9389 16.4747 15.9389 16.4693C15.9389 16.4693 15.9389 16.4638 15.9389 16.4583C15.9389 16.4583 15.9389 16.4529 15.9389 16.4474C15.9389 16.4474 15.9389 16.442 15.9389 16.4365C15.9389 16.4365 15.9389 16.4311 15.9389 16.4256C15.9389 16.4256 15.9389 16.4201 15.9389 16.4147C15.9389 16.4147 15.9389 16.4092 15.9389 16.4038C15.9389 16.4038 15.9389 16.3983 15.9389 16.3929C15.9389 16.3929 15.9389 16.3874 15.9389 16.3819C15.9389 16.3819 15.9389 16.3765 15.9389 16.371C15.9389 16.371 15.9389 16.3656 15.9389 16.3601C15.9389 16.3601 15.9389 16.3547 15.9389 16.3492C15.9389 16.3492 15.9389 16.3438 15.9389 16.3383C15.9389 16.3383 15.9389 16.3328 15.9389 16.3274C15.9389 16.3274 15.9389 16.3219 15.9389 16.3165C15.9389 16.3165 15.9389 16.311 15.9389 16.3056C15.9389 16.3056 15.9389 16.3001 15.9389 16.2946C15.9389 16.2946 15.9389 16.2892 15.9389 16.2837C15.9389 16.2837 15.9389 16.2783 15.9389 16.2728C15.9389 16.2728 15.9389 16.2674 15.9389 16.2619C15.9389 16.2619 15.9389 16.2564 15.9389 16.251C15.9389 16.251 15.9389 16.2455 15.9389 16.2401C15.9389 16.2401 15.9389 16.2346 15.9389 16.2292C15.9389 16.2292 15.9389 16.2237 15.9389 16.2183C15.9389 16.2183 15.9389 16.2128 15.9389 16.2073C15.9389 16.2073 15.9389 16.2019 15.9389 16.1964C15.9389 16.1964 15.9389 16.191 15.9389 16.1855C15.9389 16.1855 15.9389 16.1801 15.9389 16.1746C15.9389 16.1746 15.9389 16.1691 15.9389 16.1637C15.9389 16.1637 15.9389 16.1582 15.9389 16.1528C15.9389 16.1528 15.9389 16.1473 15.9389 16.1419C15.9389 16.1419 15.9389 16.1364 15.9389 16.1309C15.9389 16.1309 15.9389 16.1255 15.9389 16.12C15.9389 16.12 15.9389 16.1146 15.9389 16.1091C15.9389 16.1091 15.9389 16.1037 15.9389 16.0982C15.9389 16.0982 15.9389 16.0928 15.9389 16.0873C15.9389 16.0873 15.9389 16.0818 15.9389 16.0764C15.9389 16.0764 15.9389 16.0709 15.9389 16.0655C15.9389 16.0655 15.9389 16.06 15.9389 16.0546C15.9389 16.0546 15.9389 16.0491 15.9389 16.0436C15.9389 16.0436 15.9389 16.0382 15.9389 16.0327C15.9389 16.0327 15.9389 16.0273 15.9389 16.0218C15.9389 16.0218 15.9389 16.0164 15.9389 16.0109C15.9389 16.0109 15.9389 16.0055 15.9389 16C15.9389 16 15.9389 15.9945 15.9389 15.9891C15.9389 15.9891 15.9389 15.9836 15.9389 15.9782C15.9389 15.9782 15.9389 15.9727 15.9389 15.9673C15.9389 15.9673 15.9389 15.9618 15.9389 15.9563C15.9389 15.9563 15.9389 15.9509 15.9389 15.9454C15.9389 15.9454 15.9389 15.94 15.9389 15.9345C15.9389 15.9345 15.9389 15.9291 15.9389 15.9236C15.9389 15.9236 15.9389 15.9181 15.9389 15.9127C15.9389 15.9127 15.9389 15.9072 15.9389 15.9018C15.9389 15.9018 15.9389 15.8963 15.9389 15.8909C15.9389 15.8909 15.9389 15.8854 15.9389 15.88C15.9389 15.88 15.9389 15.8745 15.9389 15.869C15.9389 15.869 15.9389 15.8636 15.9389 15.8581C15.9389 15.8581 15.9389 15.8527 15.9389 15.8472C15.9389 15.8472 15.9389 15.8418 15.9389 15.8363L15.7176 13.8993C15.7563 13.8229 15.795 13.7465 15.8559 13.681L17.6372 11.7603C17.8031 11.5802 17.8695 11.362 17.8585 11.1492C17.8585 11.1492 17.8585 11.1437 17.8585 11.1383C17.8585 11.1383 17.8585 11.1328 17.8585 11.1274C17.8585 11.1274 17.8585 11.1219 17.8585 11.1164C17.8585 11.1164 17.8585 11.111 17.8585 11.1055C17.8585 11.1055 17.8585 11.1001 17.8585 11.0946C17.8585 11.0946 17.8585 11.0892 17.8585 11.0837C17.8585 11.0837 17.8585 11.0783 17.8585 11.0728C17.8585 11.0728 17.8585 11.0673 17.8585 11.0619C17.8585 11.0619 17.8585 11.0564 17.8585 11.051C17.8585 11.051 17.8585 11.0455 17.8585 11.0401C17.8585 11.0401 17.8585 11.0346 17.8585 11.0291C17.8585 11.0291 17.8585 11.0237 17.8585 11.0182C17.8585 11.0182 17.8585 11.0128 17.8585 11.0073C17.8585 11.0073 17.8585 11.0019 17.8585 10.9964C17.8585 10.9964 17.8585 10.9909 17.8585 10.9855C17.8585 10.9855 17.8585 10.98 17.8585 10.9746C17.8585 10.9746 17.8585 10.9691 17.8585 10.9637C17.8585 10.9637 17.8585 10.9582 17.8585 10.9528C17.8585 10.9528 17.8585 10.9473 17.8585 10.9418C17.8585 10.9418 17.8585 10.9364 17.8585 10.9309C17.8585 10.9309 17.8585 10.9255 17.8585 10.92C17.8585 10.92 17.8585 10.9146 17.8585 10.9091C17.8585 10.9091 17.8585 10.9036 17.8585 10.8982C17.8585 10.8982 17.8585 10.8927 17.8585 10.8873C17.8585 10.8873 17.8585 10.8818 17.8585 10.8764C17.8585 10.8764 17.8585 10.8709 17.8585 10.8654C17.8585 10.8654 17.8585 10.86 17.8585 10.8545C17.8585 10.8545 17.8585 10.8491 17.8585 10.8436C17.8585 10.8436 17.8585 10.8382 17.8585 10.8327C17.8585 10.8327 17.8585 10.8273 17.8585 10.8218C17.8585 10.8218 17.8585 10.8163 17.8585 10.8109C17.8585 10.8109 17.8585 10.8054 17.8585 10.8C17.8585 10.8 17.8585 10.7945 17.8585 10.7891C17.8585 10.7891 17.8585 10.7836 17.8585 10.7781C17.8585 10.7781 17.8585 10.7727 17.8585 10.7672C17.8585 10.7672 17.8585 10.7618 17.8585 10.7563C17.8585 10.7563 17.8585 10.7509 17.8585 10.7454C17.8585 10.7454 17.8585 10.7399 17.8585 10.7345C17.8585 10.7345 17.8585 10.729 17.8585 10.7236C17.8585 10.7236 17.8585 10.7181 17.8585 10.7127C17.8585 10.7127 17.8585 10.7072 17.8585 10.7018C17.8585 10.7018 17.8585 10.6963 17.8585 10.6908C17.8585 10.6908 17.8585 10.6854 17.8585 10.6799C17.8585 10.6799 17.8585 10.6745 17.8585 10.669C17.8585 10.669 17.8585 10.6636 17.8585 10.6581C17.8585 10.6581 17.8585 10.6526 17.8585 10.6472C17.8585 10.6472 17.8585 10.6417 17.8585 10.6363C17.8585 10.6363 17.8585 10.6308 17.8585 10.6254C17.8585 10.6254 17.8585 10.6199 17.8585 10.6145C17.8585 10.6145 17.8585 10.609 17.8585 10.6035C17.8585 10.6035 17.8585 10.5981 17.8585 10.5926C17.8585 10.5926 17.8585 10.5872 17.8585 10.5817C17.8585 10.5817 17.8585 10.5763 17.8585 10.5708C17.8585 10.5708 17.8585 10.5653 17.8585 10.5599C17.8585 10.5599 17.8585 10.5544 17.8585 10.549C17.8585 10.549 17.8585 10.5435 17.8585 10.5381C17.8585 10.5381 17.8585 10.5326 17.8585 10.5271C17.8585 10.5271 17.8585 10.5217 17.8585 10.5162C17.8585 10.5162 17.8585 10.5108 17.8585 10.5053C17.8585 10.5053 17.8585 10.4999 17.8585 10.4944C17.8585 10.4944 17.8585 10.489 17.8585 10.4835C17.8585 10.4835 17.8585 10.478 17.8585 10.4726C17.8585 10.4726 17.8585 10.4671 17.8585 10.4617C17.8585 10.4617 17.8585 10.4562 17.8585 10.4508C17.8585 10.4508 17.8585 10.4453 17.8585 10.4398C17.8585 10.4398 17.8585 10.4344 17.8585 10.4289C17.8585 10.4289 17.8585 10.4235 17.8585 10.418C17.8585 10.418 17.8585 10.4126 17.8585 10.4071C17.8585 10.4071 17.8585 10.4016 17.8585 10.3962C17.8585 10.3962 17.8585 10.3907 17.8585 10.3853C17.8585 10.3853 17.8585 10.3798 17.8585 10.3744C17.8585 10.3744 17.8585 10.3689 17.8585 10.3635C17.8585 10.3635 17.8585 10.358 17.8585 10.3525C17.8585 10.3525 17.8585 10.3471 17.8585 10.3416C17.8585 10.3416 17.8585 10.3362 17.8585 10.3307C17.8585 10.3307 17.8585 10.3253 17.8585 10.3198C17.8585 10.3198 17.8585 10.3143 17.8585 10.3089C17.8585 10.3089 17.8585 10.3034 17.8585 10.298C17.8585 10.298 17.8585 10.2925 17.8585 10.2871C17.8585 10.2871 17.8585 10.2816 17.8585 10.2761C17.8585 10.2761 17.8585 10.2707 17.8585 10.2652C17.8585 10.2652 17.8585 10.2598 17.8585 10.2543C17.8585 10.2543 17.8585 10.2489 17.8585 10.2434C17.8585 10.2434 17.8585 10.238 17.8585 10.2325C17.8585 10.2325 17.8585 10.227 17.8585 10.2216C17.8585 10.2216 17.8585 10.2161 17.8585 10.2107C17.8585 10.2107 17.8585 10.2052 17.8585 10.1998C17.8585 10.1998 17.8585 10.1943 17.8585 10.1888C17.8585 10.1888 17.8585 10.1834 17.8585 10.1779C17.8585 10.1779 17.8585 10.1725 17.8585 10.167C17.8585 10.167 17.8585 10.1616 17.8585 10.1561C17.8585 10.1561 17.8585 10.1507 17.8585 10.1452C17.8585 10.1452 17.8585 10.1397 17.8585 10.1343C17.8585 10.1343 17.8585 10.1288 17.8585 10.1234C17.8585 10.1234 17.8585 10.1179 17.8585 10.1125C17.8585 10.1125 17.8585 10.107 17.8585 10.1015C17.8585 10.1015 17.8585 10.0961 17.8585 10.0906C17.8585 10.0906 17.8585 10.0852 17.8585 10.0797C17.8585 10.0797 17.8585 10.0743 17.8585 10.0688C17.8585 10.0688 17.8585 10.0633 17.8585 10.0579V10.0524Z" fill="#7D3F0C" stroke="#7D3F0C" stroke-width="1.02249"/>
<path d="M12.7321 6.09143L14.0376 8.36133C14.1593 8.56868 14.364 8.716 14.6019 8.76511L17.1909 9.28893C17.8326 9.41989 18.0815 10.1838 17.6445 10.6585L15.8632 12.5792C15.6972 12.7538 15.6198 12.9939 15.6474 13.234L15.9462 15.8258C16.0181 16.4642 15.3598 16.9389 14.7623 16.6715L12.3559 15.5912C12.1346 15.4929 11.8802 15.4929 11.6589 15.5912L9.25248 16.6715C8.66056 16.9389 7.99672 16.4642 8.06863 15.8258L8.36736 13.234C8.39502 12.9939 8.31757 12.7592 8.15161 12.5792L6.37032 10.6585C5.92776 10.1838 6.18223 9.41443 6.82394 9.28893L9.4129 8.76511C9.65078 8.716 9.85546 8.56868 9.97717 8.36133L11.2827 6.09143C11.6036 5.52942 12.4223 5.52942 12.7432 6.09143H12.7321Z" fill="#FF7B05"/>
</svg>
