<svg width="16" height="16" viewBox="0 0 16 16" fill="none" xmlns="http://www.w3.org/2000/svg">
<path fill-rule="evenodd" clip-rule="evenodd" d="M0 8C0 3.58172 3.58172 0 8 0C12.4183 0 16 3.58172 16 8C16 12.4183 12.4183 16 8 16C3.58172 16 0 12.4183 0 8ZM14.6667 8C14.6667 4.3181 11.6819 1.33333 8 1.33333C4.3181 1.33333 1.33333 4.3181 1.33333 8C1.33333 11.6819 4.3181 14.6667 8 14.6667C11.6819 14.6667 14.6667 11.6819 14.6667 8Z" fill="#7E7E7E"/>
<circle cx="8" cy="11.6665" r="1" fill="#7E7E7E"/>
<path d="M8.00004 3.3335C8.34193 3.3335 8.62371 3.59086 8.66222 3.92242L8.66671 4.00016V8.66683C8.66671 9.03502 8.36823 9.3335 8.00004 9.3335C7.65815 9.3335 7.37637 9.07614 7.33786 8.74458L7.33337 8.66683V4.00016C7.33337 3.63197 7.63185 3.3335 8.00004 3.3335Z" fill="#7E7E7E"/>
</svg>
