<svg width="10" height="10" viewBox="0 0 10 10" fill="none" xmlns="http://www.w3.org/2000/svg">
<g id="Outline">
<path id="Path" d="M9.5 0C9.75642 0 9.96775 0.19302 9.99664 0.441689L10 0.5V3.5C10 3.75642 9.80698 3.96775 9.55831 3.99664L9.5 4H6.5C6.22386 4 6 3.77614 6 3.5C6 3.24358 6.19302 3.03225 6.44169 3.00336L6.5 3L8.64978 3.00002C7.92869 1.72595 6.56281 0.909091 5.04667 0.909091C2.76624 0.909091 0.917577 2.74065 0.917577 5C0.917577 7.25935 2.76624 9.09091 5.04667 9.09091C7.01649 9.09091 8.70128 7.71369 9.09167 5.82594C9.14253 5.58001 9.38498 5.42149 9.63321 5.47188C9.88143 5.52227 10.0414 5.76248 9.99057 6.00841C9.51313 8.31709 7.45438 10 5.04667 10C2.25947 10 0 7.76142 0 5C0 2.23858 2.25947 0 5.04667 0C6.62052 0 8.06208 0.720436 9.00055 1.8916L9 0.5C9 0.243582 9.19302 0.0322464 9.44169 0.00336387L9.5 0Z" fill="#2267FF"/>
</g>
</svg>
