<svg width="24" height="24" viewBox="0 0 24 24" fill="none" xmlns="http://www.w3.org/2000/svg">
<path fill-rule="evenodd" clip-rule="evenodd" d="M12 1C14.422 1 16.6611 1.78274 18.4782 3.10904C20.7978 4.80208 22.4298 7.38084 22.8768 10.3479C22.9579 10.8868 23 11.4385 23 12C23 18.0751 18.0751 23 12 23C5.92487 23 1 18.0751 1 12C1 5.92487 5.92487 1 12 1ZM12 3C7.02944 3 3 7.02944 3 12C3 16.9706 7.02944 21 12 21C16.9706 21 21 16.9706 21 12C21 11.5427 20.9661 11.0904 20.899 10.6454C20.5402 8.26297 19.2342 6.13685 17.299 4.72437C15.7712 3.60927 13.9345 3 12 3ZM17.7903 9.6129C18.0953 9.22061 18.0676 8.65338 17.7071 8.29289C17.3166 7.90237 16.6834 7.90237 16.2929 8.29289L11 13.585L8.77221 11.4349L8.678 11.3517C8.28571 11.0467 7.71848 11.0744 7.358 11.4349C6.96747 11.8254 6.96747 12.4586 7.358 12.8491L8.36381 13.8178L10.2929 15.7071L10.3871 15.7903C10.7794 16.0953 11.3466 16.0676 11.7071 15.7071L17.7071 9.70711L17.7903 9.6129Z" fill="white"/>
</svg>
