<svg width="24" height="24" viewBox="0 0 24 24" fill="none" xmlns="http://www.w3.org/2000/svg">
<path d="M17.0251 17.0251C17.3877 16.6624 17.9596 16.6365 18.3521 16.9474L18.4393 17.0251L21.9748 20.5606C22.3654 20.9511 22.3654 21.5843 21.9748 21.9748C21.6122 22.3374 21.0404 22.3634 20.6479 22.0525L20.5606 21.9748L17.0251 18.4393C16.6346 18.0488 16.6346 17.4156 17.0251 17.0251Z" fill="white"/>
<path fill-rule="evenodd" clip-rule="evenodd" d="M2 10.5C2 5.25329 6.25329 1 11.5 1C16.7467 1 21 5.25329 21 10.5C21 15.7467 16.7467 20 11.5 20C6.25329 20 2 15.7467 2 10.5ZM19 10.5C19 6.35786 15.6421 3 11.5 3C7.35786 3 4 6.35786 4 10.5C4 14.6421 7.35786 18 11.5 18C15.6421 18 19 14.6421 19 10.5Z" fill="white"/>
</svg>
