<svg width="16" height="16" viewBox="0 0 16 16" fill="none" xmlns="http://www.w3.org/2000/svg">
<path d="M15.0714 0.928786C15.434 1.29142 15.4599 1.86326 15.1491 2.25578L15.0714 2.343L2.34344 15.0709C1.95292 15.4614 1.31975 15.4614 0.929229 15.0709C0.566599 14.7083 0.540697 14.1364 0.851523 13.7439L0.929229 13.6567L13.6572 0.928786C14.0477 0.538262 14.6808 0.538262 15.0714 0.928786Z" fill="white"/>
<path d="M0.928786 0.928635C1.29142 0.566006 1.86326 0.540104 2.25578 0.850929L2.343 0.928635L15.0709 13.6566C15.4614 14.0471 15.4614 14.6802 15.0709 15.0708C14.7083 15.4334 14.1364 15.4593 13.7439 15.1485L13.6567 15.0708L0.928786 2.34285C0.538262 1.95232 0.538262 1.31916 0.928786 0.928635Z" fill="white"/>
</svg>
