<svg width="50" height="24" viewBox="0 0 50 24" fill="none" xmlns="http://www.w3.org/2000/svg">
<rect width="50" height="24" rx="8" fill="#E7EAFF"/>
<path d="M19.096 15.484H18.412V11.716H17.692V15.628H16.996V11.716H16.312V16.708H15.544V11.716H15.028V10.996H15.544V7.024H20.608V10.996H21.16V11.716H20.608V15.748C20.608 16.384 20.368 16.624 19.864 16.624C19.696 16.624 19.3 16.612 18.964 16.576L18.808 15.844C19.096 15.88 19.384 15.916 19.612 15.916C19.78 15.916 19.852 15.832 19.852 15.616V11.716H19.096V15.484ZM23.884 6.616V15.628C23.884 16.384 23.572 16.612 22.744 16.612C22.408 16.612 22.3 16.588 21.94 16.552L21.736 15.736C22.144 15.796 22.3 15.832 22.612 15.832C22.96 15.832 23.104 15.736 23.104 15.472V6.616H23.884ZM22.18 14.212H21.436V7.228H22.18V14.212ZM19.852 7.72H19.096V10.996H19.852V7.72ZM17.692 7.72V10.996H18.412V7.72H17.692ZM16.312 7.72V10.996H16.996V7.72H16.312ZM34.3148 12.544H31.9508V15.568C31.9508 16.264 31.8308 16.552 30.9308 16.552C30.6788 16.552 30.4388 16.528 30.1748 16.48L29.9708 15.688C30.3068 15.736 30.5588 15.76 30.7748 15.76C31.0988 15.76 31.1468 15.676 31.1468 15.412V12.544H28.9508V11.812H31.1468V10.624H29.6828V10.06C29.4068 10.348 29.1068 10.6 28.7828 10.804L28.3028 10.132C29.5268 9.304 30.4148 8.02 30.9428 6.652H31.9628C32.6588 8.02 33.6188 9.16 34.8668 9.916L34.3268 10.624C34.0388 10.432 33.7628 10.204 33.4988 9.964V10.624H31.9508V11.812H34.3148V12.544ZM28.3988 7L28.9028 7.408C28.4348 8.62 28.1228 9.484 27.6548 10.456C28.4228 11.404 28.8068 12.184 28.8068 13.18C28.8068 14.068 28.3388 14.536 27.5108 14.536C27.3068 14.536 27.0428 14.464 26.8508 14.404L26.6948 13.624C26.9468 13.696 27.1988 13.732 27.4028 13.732C27.7868 13.744 28.0388 13.492 28.0388 13.12C28.0388 12.28 27.5948 11.38 26.8388 10.54C27.2828 9.64 27.6188 8.68 27.9428 7.732H26.4668V10.444L26.4788 10.648V16.708H25.6748V7H28.3988ZM31.5068 7.324C31.1228 8.224 30.5468 9.148 29.8508 9.892H33.4268C32.6348 9.16 31.9388 8.272 31.5068 7.324ZM29.6948 13.192L30.4028 13.468C30.0068 14.428 29.5028 15.196 28.9028 15.976L28.2668 15.532C28.8548 14.896 29.4188 13.996 29.6948 13.192ZM34.6868 15.412L34.0388 15.88C33.5348 15.196 33.0548 14.356 32.6468 13.492L33.2828 13.156C33.4508 13.552 33.6908 13.924 33.9188 14.284C34.1708 14.692 34.4348 15.076 34.6868 15.412Z" fill="#2267FF"/>
</svg>
