<svg width="165" height="151" viewBox="0 0 165 151" fill="none" xmlns="http://www.w3.org/2000/svg">
<g clip-path="url(#clip0_17_13610)">
<rect x="3.22485" y="1.63477" width="155.959" height="113.631" fill="#DCC6A6"/>
<path fill-rule="evenodd" clip-rule="evenodd" d="M121.57 11.3203C123.149 11.3203 123.892 12.1293 124.264 12.8449C124.575 13.4708 124.647 14.1404 124.681 14.4506C124.687 14.5105 124.692 14.557 124.697 14.5872V16.9829C124.697 17.1385 124.666 17.9163 124.295 18.6631C123.923 19.3787 123.18 20.1876 121.601 20.1876C120.641 20.1876 119.991 19.8142 119.527 19.4098V23.4234C119.527 23.4545 119.496 23.5167 119.434 23.5167H117.917C117.886 23.5167 117.824 23.4856 117.824 23.4234V11.6003C117.824 11.5692 117.855 11.507 117.917 11.507H119.31C119.341 11.507 119.403 11.5381 119.403 11.6003V12.1915C119.836 11.7559 120.549 11.3203 121.57 11.3203ZM121.196 18.6631C122.651 18.6631 122.899 17.4185 122.899 17.0452V14.4939C122.899 14.1516 122.682 12.876 121.196 12.876C119.741 12.876 119.493 14.1205 119.493 14.4939V17.0452C119.493 17.3874 119.71 18.6631 121.196 18.6631Z" fill="#222222"/>
<path fill-rule="evenodd" clip-rule="evenodd" d="M101.905 12.8742C101.503 13.6209 101.472 14.3987 101.472 14.5543V16.95C101.472 17.1056 101.472 17.8834 101.905 18.6301C102.308 19.3457 103.175 20.1547 104.909 20.1547C106.673 20.1547 107.509 19.3457 107.912 18.6301C108.314 17.8834 108.345 17.1056 108.345 16.95V14.5543C108.345 14.3987 108.345 13.6209 107.912 12.8742C107.509 12.1586 106.642 11.3496 104.909 11.3496C103.175 11.3496 102.308 12.1586 101.905 12.8742ZM104.906 18.6289C103.451 18.6289 103.203 17.3843 103.203 17.011V14.4597C103.203 14.1174 103.42 12.8418 104.906 12.8418C106.392 12.8418 106.64 14.0863 106.64 14.4597V17.011C106.64 17.3532 106.392 18.6289 104.906 18.6289Z" fill="#222222"/>
<path d="M116.428 11.6002C116.428 11.5379 116.397 11.5068 116.335 11.5068H114.818C114.756 11.5068 114.725 11.5691 114.725 11.6002V17.0139C114.725 17.3873 114.478 18.6318 113.022 18.6318C111.536 18.6318 111.289 17.3561 111.289 17.0139V11.6002C111.289 11.5379 111.227 11.5068 111.196 11.5068H109.679C109.617 11.5068 109.586 11.5691 109.586 11.6002V16.9517C109.586 17.1072 109.586 17.8851 109.988 18.6318C110.36 19.3474 111.103 20.1563 112.682 20.1563C113.208 20.1563 113.642 20.063 113.982 19.8763C114.323 19.7207 114.632 19.503 114.849 19.2852V19.8763C114.849 19.9385 114.911 19.9697 114.942 19.9697H116.335C116.397 19.9697 116.428 19.9074 116.428 19.8763V11.6002Z" fill="#222222"/>
<path fill-rule="evenodd" clip-rule="evenodd" d="M130.36 11.5687C131.877 12.191 132.218 13.7778 132.218 14.4623C132.218 14.4779 132.218 14.4856 132.214 14.4895C132.21 14.4934 132.202 14.4934 132.187 14.4934V19.876C132.187 19.9071 132.156 19.9693 132.094 19.9693H130.763C130.732 19.9693 130.67 19.9382 130.67 19.876V19.4715C130.205 19.8138 129.586 20.156 128.657 20.156C127.078 20.156 126.335 19.4093 125.964 18.7248C125.592 18.0403 125.561 17.2936 125.561 17.138C125.561 17.0136 125.592 16.2668 125.964 15.5512C126.335 14.8979 127.078 14.12 128.657 14.12C129.555 14.1511 130.175 14.4623 130.608 14.7734V14.5245C130.608 14.5169 130.608 14.5061 130.609 14.4924C130.616 14.2837 130.644 13.4088 129.772 12.9999C128.843 12.5644 127.326 13.0622 126.738 13.3733C126.722 13.3733 126.715 13.3811 126.707 13.3889C126.699 13.3966 126.691 13.4044 126.676 13.4044C126.614 13.4355 126.583 13.4044 126.552 13.3422L126.119 12.0977C126.088 12.0354 126.119 11.9732 126.181 11.9421L126.304 11.8799C126.924 11.631 128.874 10.9465 130.36 11.5687ZM128.933 18.6931C130.357 18.6931 130.605 17.5108 130.605 17.1685V17.0441C130.605 16.7018 130.357 15.5195 128.933 15.5195C127.508 15.5195 127.261 16.7018 127.261 17.0441V17.1685C127.261 17.5108 127.508 18.6931 128.933 18.6931Z" fill="#222222"/>
<path fill-rule="evenodd" clip-rule="evenodd" d="M147.517 12.1274C147.888 11.723 148.446 11.3496 149.343 11.3807C149.405 11.3807 149.467 11.4429 149.467 11.5363V12.7497C149.467 12.7808 149.405 12.843 149.343 12.843C148.817 12.8119 148.446 12.9675 148.229 13.1231C148.507 13.7142 148.507 14.2743 148.507 14.3987V14.5543C148.507 14.7098 148.507 15.4566 148.074 16.1722C147.671 16.8567 146.805 17.6345 145.071 17.6345H144.885C144.881 17.6345 144.877 17.6345 144.872 17.6345C144.673 17.6336 143.518 17.6288 143.337 18.6612H146.774C148.012 18.6612 149.003 19.3457 149.251 20.528C149.436 21.3992 149.281 22.4882 148.415 23.2971C148.322 23.3905 148.229 23.4838 148.105 23.546C147.981 23.6083 147.641 23.826 147.641 23.826C147.579 23.8572 147.517 23.8572 147.486 23.7949L146.805 22.5815C146.774 22.5193 146.774 22.4571 146.836 22.4259L146.897 22.3948C147.702 21.9592 147.857 21.337 147.764 20.8703C147.671 20.4969 147.362 20.0925 146.774 20.0925H141.789C141.758 20.0925 141.696 20.0302 141.696 19.968V19.3146C141.696 18.1012 142.284 17.4167 142.934 17.0433C142.532 16.7633 142.253 16.4522 142.067 16.1411C141.665 15.4255 141.634 14.6787 141.634 14.5232V14.4298C141.634 14.2743 141.634 13.5275 142.067 12.8119C142.47 12.1274 143.337 11.3496 145.071 11.3496C146.247 11.3496 147.021 11.6919 147.517 12.1274ZM145.068 16.0465C146.524 16.0154 146.771 14.833 146.771 14.4908V14.3975C146.771 14.0552 146.554 12.8418 145.068 12.8418C143.613 12.8729 143.365 14.0552 143.365 14.3975V14.4908C143.365 14.833 143.582 16.0465 145.068 16.0465Z" fill="#222222"/>
<path d="M100.916 18.3523L99.5848 17.6678C99.5229 17.6367 99.461 17.6678 99.43 17.7301V17.7612C99.2133 18.1968 98.7799 18.6635 97.882 18.6946C96.3958 18.6946 96.1791 17.4189 96.1791 17.0767V14.5254C96.1791 14.152 96.4268 12.9075 97.882 12.9075C98.7799 12.9075 99.2443 13.4053 99.43 13.8409C99.461 13.872 99.492 13.9342 99.5539 13.9342C99.5848 13.9342 99.5848 13.9342 99.6158 13.9342L100.916 13.2497C100.978 13.2186 100.978 13.1564 100.947 13.0942C100.916 13.032 100.885 13.0008 100.885 12.9386C100.483 12.223 99.6468 11.4141 97.882 11.4141C96.1481 11.4141 95.2812 12.223 94.8787 12.9386C94.4453 13.592 94.4143 14.4009 94.4143 14.5565V16.9522C94.4143 17.1078 94.4453 17.8856 94.8478 18.6323C95.2503 19.348 96.0862 20.1569 97.851 20.1569H97.882C99.6158 20.1569 100.483 19.348 100.885 18.6323L100.978 18.4768C100.978 18.4457 100.947 18.3834 100.916 18.3523Z" fill="#222222"/>
<path d="M140.048 12.8449C139.677 12.1293 138.903 11.3203 137.355 11.3203C136.333 11.3203 135.652 11.7559 135.187 12.1915V11.6003C135.187 11.5381 135.126 11.507 135.095 11.507H133.701C133.639 11.507 133.608 11.5692 133.608 11.6003V19.9076C133.608 19.9698 133.67 20.0009 133.701 20.0009H135.218C135.28 20.0009 135.311 19.9387 135.311 19.9076V14.4005C135.342 13.9649 135.652 12.876 137.014 12.8449C138.5 12.8449 138.748 14.1205 138.748 14.4628V19.9076C138.748 19.9698 138.81 20.0009 138.841 20.0009H140.358C140.42 20.0009 140.451 19.9387 140.451 19.9076V14.5561C140.451 14.4005 140.451 13.5916 140.048 12.8449Z" fill="#222222"/>
<rect x="3.22485" y="57.3135" width="155.959" height="2.27262" fill="#BFA183"/>
<rect x="3.22485" y="57.3135" width="155.959" height="2.27262" fill="#BFA183"/>
<rect x="3.22485" y="48.5078" width="155.959" height="20.1695" fill="#BFA183" fill-opacity="0.3"/>
<rect x="10.7783" y="21.7368" width="38.125" height="16.625" rx="8.3125" transform="rotate(-14.5551 10.7783 21.7368)" stroke="#695543" stroke-width="1.525"/>
<path d="M31.5663 28.7948L31.5751 30.0908C30.5775 30.375 29.834 30.6185 28.8333 30.8909L28.5145 30.9737C27.307 31.2746 26.2525 31.4854 25.4503 31.4541C24.7815 31.4513 24.2583 31.1838 23.844 30.8503C23.7395 31.079 23.6233 31.3109 23.4834 31.5489C23.271 31.9444 23.0498 32.3547 22.8164 32.7178L21.9604 31.6544C22.2761 31.2195 22.6031 30.7313 22.9121 30.2225L22.4522 28.4512L21.354 28.7364L21.0597 27.6028L23.3387 27.011L24.0286 29.6679C24.2706 29.9202 24.5326 30.1043 24.7999 30.2113L24.2703 29.2396L24.9661 28.9581L23.1848 22.0974L28.4868 20.7208L29.6273 25.1135C29.6535 25.0689 29.6885 25.0094 29.7178 24.9766L30.6829 25.684C30.1998 26.2505 29.7779 26.713 29.3617 27.1488C29.9347 27.3656 30.5546 27.5197 31.2207 27.561L30.8477 28.8427C29.7633 28.6957 28.7983 28.3287 27.9264 27.7862L28.3396 28.6494C27.067 29.2824 26.2099 29.7192 24.9898 30.2629C25.135 30.2882 25.2653 30.3048 25.4044 30.3065C26.0644 30.3241 26.9449 30.1712 27.925 29.9167L28.1847 29.8493C29.2326 29.5646 30.3889 29.1635 31.5663 28.7948ZM23.1112 25.4063L22.6396 26.6001C21.8671 26.2461 21.2345 25.9944 20.5285 25.7996L20.9414 24.6714C21.7485 24.9156 22.3806 25.117 23.1112 25.4063ZM22.9065 23.0646L22.3991 24.2173C22.0185 24.0136 21.7184 23.8773 21.3829 23.7501C21.0679 23.605 20.7236 23.4927 20.3553 23.3363L20.8369 22.2785C21.2258 22.417 21.5819 22.5262 21.9174 22.6534C22.2381 22.7718 22.55 22.9051 22.9065 23.0646ZM27.7715 27.6751C27.1196 27.252 26.5346 26.698 26.0288 26.0605L25.5446 26.1862L26.1333 28.4534C26.652 28.2179 27.1824 27.9793 27.7715 27.6751ZM25.0878 24.4267L25.2687 25.1234L28.1382 24.3784L27.9573 23.6817L25.0878 24.4267ZM24.6831 22.868L24.8548 23.5293L27.7243 22.7842L27.5526 22.123L24.6831 22.868ZM28.327 26.6108C28.7407 26.2135 29.2063 25.6766 29.6068 25.1315L27.2687 25.7385C27.5973 26.0818 27.9491 26.3686 28.327 26.6108ZM41.9086 26.5758L41.5582 27.7508C40.2636 27.9105 38.8749 27.8047 37.8779 27.5089L38.4808 26.7726L35.1981 27.6249L36.1508 27.9448C35.2912 28.7604 34.0554 29.535 32.9827 30.0152L32.1968 29.1731C32.9429 28.8911 34.0922 28.3658 34.9029 27.7016L33.1434 28.1584L31.9385 23.5177L39.366 21.5892L40.5709 26.2299L38.717 26.7113C39.7064 26.8325 40.7387 26.7788 41.9086 26.5758ZM38.5577 19.2529L39.8188 19.3037C39.9178 19.7821 40.0107 20.237 39.8752 20.6377C39.7223 21.0681 39.1087 21.2779 37.2666 21.7562C35.5307 22.2069 34.8275 22.3138 34.5944 21.4164L33.9169 18.8067L35.0977 18.5001L35.3644 19.5275C36.18 19.0762 37.4364 18.2836 37.9261 17.791L38.8964 18.4213C38.0827 19.0738 36.6225 19.9067 35.5975 20.4249L35.6649 20.6847C35.7385 20.9681 35.8667 21.0735 37.1538 20.7393C38.3347 20.4327 38.632 20.2672 38.6626 20.045C38.6931 19.8228 38.6743 19.7017 38.6344 19.5481L38.5577 19.2529ZM33.3891 22.9394L32.2083 23.246L31.9998 22.443C31.9599 22.2895 31.9201 22.136 31.8889 21.9676L31.8797 21.9322C31.6048 22.2809 31.3175 22.5823 31.1063 22.7884L30.3143 21.9227C31.0655 21.2235 31.9491 20.1117 32.3839 19.1165L33.6017 19.2919C33.384 19.7644 33.1073 20.2521 32.8096 20.7076L33.3891 22.9394ZM33.6764 25.2596L33.8083 25.7674L38.8151 24.4674L38.6832 23.9597L33.6764 25.2596ZM34.0106 26.5468L34.1363 27.0309L39.1431 25.7309L39.0174 25.2468L34.0106 26.5468ZM33.3545 24.0197L33.4771 24.4921L38.4839 23.1921L38.3613 22.7198L33.3545 24.0197Z" fill="#695543"/>
</g>
<path fill-rule="evenodd" clip-rule="evenodd" d="M149.625 107.622H84.8125V42.0469H149.625V107.622Z" fill="white"/>
<path fill-rule="evenodd" clip-rule="evenodd" d="M97.0287 101.314H90.9204V74.8447H97.0287V101.314ZM101.103 101.314H99.0667V74.8447H101.103V101.314ZM143.859 101.314H141.824H141.823H135.716V74.8447H141.823H141.824H143.859V101.314ZM131.643 101.314H133.679V74.8447H131.643V101.314ZM125.533 101.314H123.497V74.8447H125.533V101.314ZM127.571 101.314H129.607V74.8447H127.571V101.314ZM109.245 101.314H107.209V74.8447H109.245V101.314ZM103.137 101.314H105.173V74.8447H103.137V101.314ZM121.461 101.314H115.353H115.353H113.317V74.8447H115.353H115.353H121.461V101.314Z" fill="#363636"/>
<path opacity="0.8" d="M164.875 87.7969L164.875 98.4719L70.325 98.4719L70.325 87.7969L164.875 87.7969Z" fill="url(#paint0_linear_17_13610)"/>
<path d="M119.25 109.374C118.646 108.469 117.316 108.469 116.713 109.374L103.17 129.674C102.493 130.687 103.22 132.045 104.438 132.045H108.895C109.737 132.045 110.42 132.728 110.42 133.57V147.885C110.42 148.727 111.102 149.41 111.945 149.41H124.018C124.86 149.41 125.543 148.727 125.543 147.885V133.57C125.543 132.728 126.226 132.045 127.068 132.045H131.524C132.743 132.045 133.469 130.687 132.793 129.674L119.25 109.374Z" fill="#E7223C"/>
<defs>
<linearGradient id="paint0_linear_17_13610" x1="111.101" y1="88.8254" x2="111.101" y2="92.8765" gradientUnits="userSpaceOnUse">
<stop stop-color="#FF0000"/>
<stop offset="1" stop-color="#FF0000" stop-opacity="0.01"/>
<stop offset="1" stop-color="white" stop-opacity="0"/>
</linearGradient>
<clipPath id="clip0_17_13610">
<rect x="3.22485" y="1.63477" width="155.959" height="113.631" rx="2.94635" fill="white"/>
</clipPath>
</defs>
</svg>
