<svg width="44" height="18" viewBox="0 0 44 18" fill="none" xmlns="http://www.w3.org/2000/svg">
<rect x="0.5" y="0.5" width="43" height="17" rx="8.5" stroke="#4B76D9"/>
<path d="M10.2375 12.67C8.13652 12.67 6.83852 11.438 6.83852 8.897V8.622C6.83852 5.905 8.42252 4.882 10.3805 4.882C11.2165 4.882 11.8105 5.025 12.2725 5.278V6.334C11.6895 6.103 11.1725 5.982 10.4795 5.982C9.17052 5.982 8.30152 6.686 8.30152 8.479V8.864C8.30152 10.591 8.90652 11.57 10.4905 11.57C11.3485 11.57 11.8985 11.35 12.3495 11.163V12.208C11.8325 12.483 11.1395 12.67 10.2375 12.67ZM15.4618 12.681C14.4718 12.681 13.7238 12.472 13.2068 12.197V11.13C13.8118 11.394 14.5268 11.592 15.3518 11.592C16.3638 11.592 16.7928 11.174 16.7928 10.492C16.7928 9.865 16.5178 9.623 15.6928 9.37L14.9778 9.172C13.9108 8.875 13.2618 8.303 13.2618 7.027C13.2618 5.751 14.0868 4.882 15.7918 4.882C16.7818 4.882 17.3208 5.069 17.7388 5.289V6.345C17.2658 6.147 16.6498 5.971 15.8138 5.971C15.0218 5.971 14.5818 6.301 14.5818 6.906C14.5818 7.5 14.8018 7.753 15.5498 7.962L16.2538 8.182C17.4418 8.523 18.1568 9.018 18.1568 10.36C18.1568 11.79 17.2878 12.681 15.4618 12.681ZM27.2893 8.853V12.615C27.2893 13.22 27.1903 13.638 26.3323 13.638C26.0463 13.638 25.7053 13.627 25.3973 13.594L25.1333 12.571C25.3973 12.626 25.6393 12.637 25.8373 12.637C26.1123 12.637 26.1453 12.582 26.1453 12.395V11.68H23.7363V13.726H22.6253V8.853H27.2893ZM27.7953 8.413H22.2073V7.522H24.3743V7.038H22.5923V6.202H24.3743V5.696H22.3833V4.838H24.3743V4.167H25.5073V4.838H27.5643V5.696H25.5073V6.202H27.2123V7.038H25.5073V7.522H27.7953V8.413ZM22.0313 13.66H21.0413V13.209H20.2493V13.715H19.2483V10.228H22.0313V13.66ZM22.2293 6.862H18.9733V5.883H22.2293V6.862ZM22.0203 9.722H19.2703V8.776H22.0203V9.722ZM22.0203 8.292H19.2703V7.357H22.0203V8.292ZM22.0753 5.399H19.2703V4.497H22.0753V5.399ZM20.2493 11.163V12.285H21.0413V11.163H20.2493ZM23.7363 9.755V10.811H24.4513V9.755H23.7363ZM26.1453 9.755H25.4413V10.811H26.1453V9.755ZM33.3199 4.178V5.894H35.1239C34.6069 5.531 34.0019 5.168 33.6829 4.97L34.2879 4.211C34.7059 4.42 35.3769 4.816 35.9929 5.223L35.4539 5.894H37.0269V6.884H33.3639C33.5839 7.61 33.8919 8.27 34.2659 8.853C34.8159 8.391 35.3109 7.896 35.8279 7.181L36.6749 7.896C36.0919 8.512 35.4319 9.117 34.8269 9.634C35.5639 10.536 36.4549 11.24 37.3679 11.746L36.6639 12.78C35.1019 11.713 34.0019 10.547 33.3199 9.106V12.45C33.3199 13.374 32.9569 13.638 31.8899 13.638C31.5049 13.638 31.2849 13.605 30.9989 13.583L30.7679 12.483C31.1199 12.549 31.4389 12.571 31.7359 12.571C32.1539 12.571 32.2089 12.505 32.2089 12.252V10.492C31.4719 11.163 30.2619 11.977 28.8759 12.736L28.4469 11.669C29.7669 11.053 31.2629 10.118 32.2089 9.227V6.884H28.6669V5.894H32.2089V4.178H33.3199ZM31.4719 9.007L30.5809 9.689C30.2069 9.106 29.5909 8.248 29.1179 7.764L29.9319 7.137C30.4489 7.687 30.9329 8.292 31.4719 9.007Z" fill="#4B76D9"/>
</svg>
