<svg width="16" height="16" viewBox="0 0 16 16" fill="none" xmlns="http://www.w3.org/2000/svg">
<path fill-rule="evenodd" clip-rule="evenodd" d="M3.66634 2.66659C3.11406 2.66659 2.66634 3.1143 2.66634 3.66659C2.66634 4.21887 3.11406 4.66659 3.66634 4.66659C4.21863 4.66659 4.66634 4.21887 4.66634 3.66659C4.66634 3.1143 4.21863 2.66659 3.66634 2.66659ZM3.66634 1.33325C4.72335 1.33325 5.6162 2.03609 5.90305 2.99992H11.9163C13.4351 2.99992 14.6663 4.23114 14.6663 5.74992C14.6663 7.2687 13.4351 8.49992 11.9163 8.49992H4.08301C3.3006 8.49992 2.66634 9.13418 2.66634 9.91659C2.66634 10.699 3.3006 11.3333 4.08301 11.3333H12.1975L11.2325 10.5061C10.9529 10.2665 10.9206 9.84562 11.1602 9.56607C11.3998 9.28652 11.8207 9.25414 12.1002 9.49376L14.4335 11.4938C14.5813 11.6204 14.6664 11.8053 14.6664 11.9999C14.6664 12.1945 14.5813 12.3794 14.4335 12.5061L12.1002 14.5061C11.8207 14.7457 11.3998 14.7133 11.1602 14.4338C10.9206 14.1542 10.9529 13.7334 11.2325 13.4938L12.1975 12.6666H4.08301C2.56422 12.6666 1.33301 11.4354 1.33301 9.91659C1.33301 8.3978 2.56422 7.16659 4.08301 7.16659H11.9163C12.6987 7.16659 13.333 6.53232 13.333 5.74992C13.333 4.96752 12.6987 4.33325 11.9163 4.33325H5.90305C5.6162 5.29708 4.72335 5.99992 3.66634 5.99992C2.37768 5.99992 1.33301 4.95525 1.33301 3.66659C1.33301 2.37792 2.37768 1.33325 3.66634 1.33325Z" fill="#2267FF"/>
</svg>
