<svg width="18" height="18" viewBox="0 0 18 18" fill="none" xmlns="http://www.w3.org/2000/svg">
<path d="M14.6133 1.5C15.3789 1.5 16 2.12105 16 2.88672V7.52832C14.9385 6.5781 13.5368 6 12 6C8.68629 6 6 8.68629 6 12C6 13.2463 6.37981 14.404 7.03027 15.3633H2.13672C1.37114 15.3633 0.750144 14.7431 0.75 13.9775V2.88672C0.75 2.12105 1.37105 1.5 2.13672 1.5H14.6133Z" fill="#AAB5C0"/>
<path d="M10.4546 12.2443C10.4546 12.4357 10.6098 12.5909 10.8012 12.5909H12.8807C13.0721 12.5909 13.2273 12.4357 13.2273 12.2443V10.8579C13.2273 10.6665 13.0721 10.5114 12.8807 10.5114H10.8012C10.6098 10.5114 10.4546 10.6665 10.4546 10.8579V12.2443Z" fill="#CFD8DC"/>
<path d="M10.8013 6.12012C10.2168 6.23862 9.66316 6.44183 9.15381 6.7168L8.50342 6.45703C8.42098 6.42411 8.32904 6.42417 8.24658 6.45703L6.42432 7.18555C6.19667 7.27661 5.94877 7.10943 5.94873 6.86426V1.5H10.8013V6.12012Z" fill="#CFD8DC"/>
<path d="M15.608 8.53965C14.664 7.59563 13.4088 7.07574 12.0738 7.07574C10.7387 7.07574 9.4836 7.59563 8.53961 8.53965C7.59557 9.48367 7.07568 10.7388 7.07568 12.0739C7.07568 13.4089 7.59557 14.664 8.53961 15.6081C9.4836 16.552 10.7387 17.072 12.0738 17.072C13.4088 17.072 14.664 16.552 15.608 15.6081C16.552 14.664 17.0719 13.4089 17.0719 12.0739C17.0719 10.7388 16.552 9.48367 15.608 8.53965Z" fill="#D51536"/>
<path d="M13.3425 10.162C13.5199 9.98465 13.8077 9.9848 13.9851 10.162C14.1488 10.3257 14.1615 10.5834 14.0232 10.7616L13.9851 10.8046L12.7156 12.0731L13.9851 13.3427C14.1626 13.5201 14.1626 13.8078 13.9851 13.9852C13.8213 14.149 13.5637 14.1619 13.3855 14.0233L13.3425 13.9852L12.073 12.7157L10.8044 13.9852C10.627 14.1626 10.3393 14.1627 10.1619 13.9852C9.9983 13.8214 9.98623 13.5638 10.1248 13.3856L10.1619 13.3427L11.4304 12.0731L10.1619 10.8046C9.98469 10.6271 9.98451 10.3393 10.1619 10.162C10.3256 9.99821 10.5832 9.98634 10.7615 10.1249L10.8044 10.162L12.073 11.4305L13.3425 10.162Z" fill="white"/>
</svg>
