 <svg xmlns="http://www.w3.org/2000/svg" width="24" height="24" viewBox="0 0 24 24">
    <g fill="none" fill-rule="evenodd">
        <g fill="#333">
            <g>
                <g>
                    <g>
                        <path d="M14 6.5c.944 0 1.78 1.95 2.2 4 .469 2.292.468 4.717.583 4.815.008.041.913.103 1.717.185l.5 2h-5.585c.055.156.085.325.085.5 0 .828-.672 1.5-1.5 1.5s-1.5-.672-1.5-1.5c0-.175.03-.344.085-.5H5l.5-2c.667 0 1.574-.062 1.723-.187.117-.098.116-2.532.577-4.813.417-2.063 1.25-4 2.2-4 .333-.216.5-.383.5-.5 0-.828.672-1.5 1.5-1.5s1.5.672 1.5 1.5c0 .117.167.284.5.5z" transform="translate(-238 -361) translate(0 302) translate(0 45) translate(238 14)"/>
                    </g>
                </g>
            </g>
        </g>
    </g>
</svg>
