<svg xmlns="http://www.w3.org/2000/svg" width="14" height="14" viewBox="0 0 14 14">
    <defs>
        <filter id="43zxxn00ya">
            <feColorMatrix in="SourceGraphic" values="0 0 0 0 1.000000 0 0 0 0 1.000000 0 0 0 0 1.000000 0 0 0 1.000000 0"/>
        </filter>
    </defs>
    <g fill="none" fill-rule="evenodd">
        <g>
            <g>
                <g filter="url(#43zxxn00ya)" transform="translate(-1002.000000, -466.000000) translate(970.000000, 441.000000) translate(16.000000, 12.000000)">
                    <g>
                        <g fill="#000" transform="translate(16.000000, 13.000000) translate(1.166667, 1.166667)">
                            <path fill-rule="nonzero" d="M10.5-.583H1.167c-.322 0-.584.26-.584.583v4.667c0 2.9 2.35 5.25 5.25 5.25s5.25-2.35 5.25-5.25V0c0-.322-.26-.583-.583-.583zM1.75.583h8.167v4.084c0 2.255-1.829 4.083-4.084 4.083l-.14-.002C3.503 8.674 1.75 6.875 1.75 4.667V.583z" transform="translate(5.833333, 4.666667) scale(1, -1) translate(-5.833333, -4.666667)"/>
                            <path fill-rule="nonzero" d="M3.247 1.808c.29-.14.638-.018.778.272.189.39.462.683.768.837l.092.042c.299.12.443.46.323.76-.121.298-.461.443-.76.322-.626-.253-1.146-.775-1.473-1.454-.14-.29-.019-.64.272-.78z" transform="translate(4.083344, 2.916677) scale(1, -1) translate(-4.083344, -2.916677)"/>
                            <circle cx="3.208" cy="5.25" r="1"/>
                            <path fill-rule="nonzero" d="M11.083 8.75H.583c-.644 0-1.166.522-1.166 1.167v1.166c0 .645.522 1.167 1.166 1.167h10.5c.645 0 1.167-.522 1.167-1.167V9.917c0-.645-.522-1.167-1.167-1.167zM.583 9.917h10.5v1.166H.583V9.917z"/>
                        </g>
                    </g>
                </g>
            </g>
        </g>
    </g>
</svg>
