<svg xmlns="http://www.w3.org/2000/svg" width="14" height="14" viewBox="0 0 14 14">
    <g fill="none" fill-rule="evenodd">
        <g>
            <g>
                <g>
                    <g>
                        <g>
                            <path fill="#F04656" fill-rule="nonzero" d="M7 .583C3.456.583.583 3.456.583 7c0 3.544 2.873 6.417 6.417 6.417 3.544 0 6.417-2.873 6.417-6.417C13.417 3.456 10.544.583 7 .583z" transform="translate(-1002 -230) translate(970 207) translate(16 12) translate(16 9) translate(0 2)"/>
                            <g fill="#FFF">
                                <path d="M4.559.422v1.467c0 .221.179.4.4.4l1.468.001c.221 0 .4.18.4.4V4.16c0 .22-.179.4-.4.4L4.96 4.557c-.221 0-.4.179-.4.4v1.47c0 .22-.18.4-.4.4H2.69c-.22 0-.4-.18-.4-.4v-1.47c0-.221-.179-.4-.4-.4H.422c-.221 0-.4-.178-.4-.4V2.69c0-.22.179-.4.4-.4H1.89c.221 0 .4-.18.4-.4V.421c0-.221.18-.4.4-.4H4.16c.22 0 .4.179.4.4z" transform="translate(-1002 -230) translate(970 207) translate(16 12) translate(16 9) translate(0 2) translate(3.5 3.5)"/>
                            </g>
                        </g>
                    </g>
                </g>
            </g>
        </g>
    </g>
</svg>
