<svg width="26" height="26" viewBox="0 0 26 26" fill="none" xmlns="http://www.w3.org/2000/svg">
<rect width="24" height="24" rx="8" fill="#662800"/>
<path fill-rule="evenodd" clip-rule="evenodd" d="M4.22244 3.05664C3.60879 3.05664 3.11133 3.5541 3.11133 4.16775V9.83442H3.50739C3.74626 9.83442 3.96599 9.94348 4.11075 10.1213L4.68862 7.88928C4.81553 7.39904 5.25786 7.05664 5.76426 7.05664H18.2375C18.7439 7.05664 19.1862 7.39905 19.3132 7.88928L19.891 10.1213C20.0357 9.94348 20.2555 9.83442 20.4944 9.83442H20.8891V4.16775C20.8891 3.5541 20.3916 3.05664 19.778 3.05664H4.22244Z" fill="#ED6B1F"/>
<path d="M2.22222 13.1688C2.09949 13.1688 2 13.0693 2 12.9466V10.6133C2 10.4906 2.09949 10.3911 2.22222 10.3911H3.5065C3.60215 10.3911 3.68707 10.4523 3.71732 10.543L4.2 11.9911L5.22555 8.0296C5.28901 7.78448 5.51018 7.61328 5.76338 7.61328H18.2366C18.4898 7.61328 18.711 7.78448 18.7744 8.0296L19.8 11.9911L20.2827 10.543C20.3129 10.4523 20.3979 10.3911 20.4935 10.3911H21.7778C21.9005 10.3911 22 10.4906 22 10.6133V12.9466C22 13.0693 21.9005 13.1688 21.7778 13.1688H20.1624L20.3333 13.7244V19.2799C20.3333 19.5868 20.0846 19.8355 19.7778 19.8355V20.9466C19.7778 21.2534 19.529 21.5022 19.2222 21.5022H17.5556C17.2487 21.5022 17 21.2534 17 20.9466V19.8355H7V20.9466C7 21.2534 6.75127 21.5022 6.44444 21.5022H4.77778C4.47095 21.5022 4.22222 21.2534 4.22222 20.9466V19.8355C3.9154 19.8355 3.66667 19.5868 3.66667 19.2799V13.7244L3.83761 13.1688H2.22222Z" fill="#FFF3E1"/>
<path fill-rule="evenodd" clip-rule="evenodd" d="M11.939 15.2417C12.168 15.2417 12.2758 15.3586 12.3297 15.462C12.3749 15.5525 12.3854 15.6493 12.3902 15.6941C12.3912 15.7027 12.3919 15.7095 12.3926 15.7138V16.0601C12.3926 16.0825 12.3881 16.195 12.3342 16.3029C12.2803 16.4063 12.1725 16.5232 11.9435 16.5232C11.8042 16.5232 11.7099 16.4692 11.6425 16.4108V16.9908C11.6425 16.9953 11.638 17.0043 11.6291 17.0043H11.409C11.4045 17.0043 11.3955 16.9998 11.3955 16.9908V15.2822C11.3955 15.2777 11.4 15.2687 11.409 15.2687H11.6111C11.6156 15.2687 11.6246 15.2732 11.6246 15.2822V15.3676C11.6875 15.3047 11.7908 15.2417 11.939 15.2417ZM11.8851 16.3028C12.0962 16.3028 12.1321 16.123 12.1321 16.069V15.7003C12.1321 15.6508 12.1007 15.4665 11.8851 15.4665C11.674 15.4665 11.6381 15.6464 11.6381 15.7003V16.069C11.6381 16.1185 11.6695 16.3028 11.8851 16.3028Z" fill="#F7552F"/>
<path fill-rule="evenodd" clip-rule="evenodd" d="M9.08681 15.4652C9.02842 15.5731 9.02393 15.6855 9.02393 15.708V16.0542C9.02393 16.0767 9.02393 16.1891 9.08681 16.2971C9.14519 16.4005 9.27096 16.5174 9.52248 16.5174C9.77849 16.5174 9.89976 16.4005 9.95815 16.2971C10.0165 16.1891 10.021 16.0767 10.021 16.0542V15.708C10.021 15.6855 10.021 15.5731 9.95815 15.4652C9.89976 15.3618 9.774 15.2449 9.52248 15.2449C9.27096 15.2449 9.14519 15.3618 9.08681 15.4652ZM9.52247 16.297C9.31137 16.297 9.27544 16.1172 9.27544 16.0632V15.6945C9.27544 15.645 9.30688 15.4607 9.52247 15.4607C9.73806 15.4607 9.77399 15.6405 9.77399 15.6945V16.0632C9.77399 16.1127 9.73806 16.297 9.52247 16.297Z" fill="#935227"/>
<path d="M11.1933 15.2816C11.1933 15.2726 11.1888 15.2681 11.1798 15.2681H10.9597C10.9508 15.2681 10.9463 15.2771 10.9463 15.2816V16.0639C10.9463 16.1179 10.9103 16.2978 10.6992 16.2978C10.4836 16.2978 10.4477 16.1134 10.4477 16.0639V15.2816C10.4477 15.2726 10.4387 15.2681 10.4342 15.2681H10.2142C10.2052 15.2681 10.2007 15.2771 10.2007 15.2816V16.055C10.2007 16.0774 10.2007 16.1898 10.2591 16.2978C10.313 16.4012 10.4208 16.5181 10.6498 16.5181C10.7262 16.5181 10.7891 16.5046 10.8385 16.4776C10.8879 16.4551 10.9328 16.4237 10.9642 16.3922V16.4776C10.9642 16.4866 10.9732 16.4911 10.9777 16.4911H11.1798C11.1888 16.4911 11.1933 16.4821 11.1933 16.4776V15.2816Z" fill="#935227"/>
<path fill-rule="evenodd" clip-rule="evenodd" d="M13.2147 15.277C13.4348 15.3669 13.4842 15.5962 13.4842 15.6952C13.4842 15.6974 13.4842 15.6985 13.4837 15.6991C13.4831 15.6997 13.482 15.6997 13.4797 15.6997V16.4775C13.4797 16.482 13.4752 16.491 13.4662 16.491H13.2731C13.2686 16.491 13.2596 16.4865 13.2596 16.4775V16.4191C13.1923 16.4686 13.1024 16.518 12.9677 16.518C12.7386 16.518 12.6308 16.4101 12.5769 16.3112C12.523 16.2123 12.5186 16.1043 12.5186 16.0819C12.5186 16.0639 12.523 15.956 12.5769 15.8525C12.6308 15.7581 12.7386 15.6457 12.9677 15.6457C13.098 15.6502 13.1878 15.6952 13.2507 15.7401V15.7042C13.2507 15.703 13.2507 15.7015 13.2508 15.6995C13.2518 15.6693 13.2559 15.5429 13.1294 15.4838C12.9946 15.4209 12.7746 15.4928 12.6892 15.5378C12.687 15.5378 12.6859 15.5389 12.6847 15.54C12.6836 15.5412 12.6825 15.5423 12.6802 15.5423C12.6713 15.5468 12.6668 15.5423 12.6623 15.5333L12.5994 15.3534C12.5949 15.3444 12.5994 15.3354 12.6084 15.3309L12.6263 15.3219C12.7162 15.286 12.9991 15.1871 13.2147 15.277ZM13.0079 16.3066C13.2145 16.3066 13.2505 16.1358 13.2505 16.0863V16.0683C13.2505 16.0189 13.2145 15.848 13.0079 15.848C12.8013 15.848 12.7654 16.0189 12.7654 16.0683V16.0863C12.7654 16.1358 12.8013 16.3066 13.0079 16.3066Z" fill="#FFC400"/>
<path fill-rule="evenodd" clip-rule="evenodd" d="M15.7025 15.3573C15.7564 15.2988 15.8372 15.2449 15.9675 15.2494C15.9765 15.2494 15.9855 15.2584 15.9855 15.2719V15.4472C15.9855 15.4517 15.9765 15.4607 15.9675 15.4607C15.8911 15.4562 15.8372 15.4787 15.8058 15.5012C15.8462 15.5866 15.8462 15.6675 15.8462 15.6855V15.708C15.8462 15.7305 15.8462 15.8384 15.7833 15.9418C15.725 16.0408 15.5992 16.1532 15.3477 16.1532H15.3207C15.3202 16.1532 15.3196 16.1532 15.3188 16.1532C15.2899 16.153 15.1225 16.1523 15.0962 16.3015H15.5947C15.7744 16.3015 15.9181 16.4005 15.954 16.5713C15.981 16.6972 15.9585 16.8546 15.8327 16.9715C15.8193 16.985 15.8058 16.9985 15.7878 17.0075C15.7699 17.0165 15.7205 17.048 15.7205 17.048C15.7115 17.0525 15.7025 17.0525 15.698 17.0435L15.5992 16.8681C15.5947 16.8591 15.5947 16.8501 15.6037 16.8456L15.6127 16.8411C15.7294 16.7782 15.7519 16.6882 15.7384 16.6208C15.725 16.5668 15.68 16.5084 15.5947 16.5084H14.8716C14.8671 16.5084 14.8581 16.4994 14.8581 16.4904V16.396C14.8581 16.2206 14.9434 16.1217 15.0378 16.0677C14.9794 16.0273 14.9389 15.9823 14.912 15.9373C14.8536 15.8339 14.8491 15.726 14.8491 15.7035V15.69C14.8491 15.6675 14.8491 15.5596 14.912 15.4562C14.9704 15.3573 15.0962 15.2449 15.3477 15.2449C15.5183 15.2449 15.6306 15.2943 15.7025 15.3573ZM15.3477 15.9238C15.5588 15.9193 15.5947 15.7485 15.5947 15.699V15.6855C15.5947 15.636 15.5633 15.4607 15.3477 15.4607C15.1366 15.4652 15.1007 15.636 15.1007 15.6855V15.699C15.1007 15.7485 15.1321 15.9238 15.3477 15.9238Z" fill="#31B4DD"/>
<path d="M8.9432 16.2574L8.75007 16.1584C8.74109 16.1539 8.73211 16.1584 8.72761 16.1674V16.1719C8.69617 16.2349 8.63329 16.3023 8.50304 16.3068C8.28745 16.3068 8.25601 16.1225 8.25601 16.073V15.7043C8.25601 15.6503 8.29194 15.4705 8.50304 15.4705C8.63329 15.4705 8.70066 15.5424 8.72761 15.6054C8.73211 15.6099 8.7366 15.6189 8.74558 15.6189C8.75007 15.6189 8.75007 15.6189 8.75456 15.6189L8.9432 15.5199C8.95219 15.5154 8.95219 15.5064 8.94769 15.4974C8.9432 15.4885 8.93871 15.484 8.93871 15.475C8.88032 15.3715 8.75905 15.2546 8.50304 15.2546C8.25152 15.2546 8.12576 15.3715 8.06737 15.475C8.00449 15.5694 8 15.6863 8 15.7088V16.055C8 16.0775 8.00449 16.1899 8.06288 16.2978C8.12127 16.4012 8.24254 16.5182 8.49855 16.5182H8.50304C8.75456 16.5182 8.88032 16.4012 8.93871 16.2978L8.95219 16.2753C8.95219 16.2708 8.94769 16.2619 8.9432 16.2574Z" fill="#935227"/>
<path d="M14.6203 15.4613C14.5664 15.3579 14.4541 15.241 14.2295 15.241C14.0813 15.241 13.9825 15.3039 13.9151 15.3669V15.2814C13.9151 15.2724 13.9061 15.2679 13.9016 15.2679H13.6995C13.6905 15.2679 13.686 15.2769 13.686 15.2814V16.482C13.686 16.491 13.695 16.4955 13.6995 16.4955H13.9196C13.9286 16.4955 13.9331 16.4865 13.9331 16.482V15.6861C13.9376 15.6232 13.9825 15.4658 14.1801 15.4613C14.3957 15.4613 14.4316 15.6457 14.4316 15.6951V16.482C14.4316 16.491 14.4406 16.4955 14.4451 16.4955H14.6652C14.6742 16.4955 14.6786 16.4865 14.6786 16.482V15.7086C14.6786 15.6861 14.6786 15.5692 14.6203 15.4613Z" fill="#88CC2F"/>
<path d="M5.75139 14.2776H3.6665V16.4998H6.64027C6.80547 16.4998 6.91291 16.326 6.83904 16.1782L5.95015 14.4004C5.9125 14.3251 5.83556 14.2776 5.75139 14.2776Z" fill="#ED6B1F"/>
<path d="M18.2486 14.2776H20.3335V16.4998H17.3597C17.1945 16.4998 17.0871 16.326 17.161 16.1782L18.0499 14.4004C18.0875 14.3251 18.1644 14.2776 18.2486 14.2776Z" fill="#ED6B1F"/>
<path d="M17.3817 8.72266H6.61762C6.51565 8.72266 6.42677 8.79206 6.40204 8.89098L5.40204 12.891C5.36697 13.0312 5.47305 13.1671 5.61762 13.1671H18.3817C18.5263 13.1671 18.6324 13.0312 18.5973 12.891L17.5973 8.89098C17.5726 8.79206 17.4837 8.72266 17.3817 8.72266Z" fill="#662800"/>
<path d="M6.44434 13.1671L10.5069 8.72266H15.8888L11.9999 13.1671H6.44434Z" fill="url(#paint0_linear_392_173361)" fill-opacity="0.9"/>
<circle cx="21" cy="21" r="4" fill="#00A547" stroke="white" stroke-width="2"/>
<defs>
<linearGradient id="paint0_linear_392_173361" x1="11.2558" y1="10.2261" x2="12.1972" y2="13.7525" gradientUnits="userSpaceOnUse">
<stop stop-color="white" stop-opacity="0.6"/>
<stop offset="1" stop-color="white" stop-opacity="0"/>
</linearGradient>
</defs>
</svg>
