<svg width="20" height="20" viewBox="0 0 20 20" fill="none" xmlns="http://www.w3.org/2000/svg">
<path fill-rule="evenodd" clip-rule="evenodd" d="M6.85508 8.74933C6.77017 8.58178 6.79662 8.37937 6.92317 8.24053L8.15192 6.69116C8.69875 6.09116 8.78696 5.20337 8.36896 4.50749L6.26883 1.30795C5.79858 0.525118 4.82471 0.206493 3.98267 0.559952L1.55975 1.57708C0.93129 1.84091 0.497999 2.43053 0.440624 3.10966C0.30704 4.69062 0.645332 7.85883 3.9515 12.478C4.93754 13.8556 6.14454 15.0626 7.52217 16.0486C12.1413 19.3548 15.3095 19.6931 16.8905 19.5595C17.5696 19.5021 18.1592 19.0689 18.423 18.4404L19.4402 16.0175C19.7937 15.1755 19.475 14.2016 18.6922 13.7313L15.4927 11.6312C14.7967 11.2132 13.909 11.3014 13.309 11.8482L11.7596 13.077C11.6207 13.2035 11.4184 13.23 11.2508 13.1451C9.23467 12.0882 7.96358 10.9012 6.85508 8.74933" fill="#00C852"/>
</svg>
