<svg width="24" height="24" viewBox="0 0 24 24" fill="none" xmlns="http://www.w3.org/2000/svg">
<rect x="1" y="2" width="22" height="20" rx="2" fill="#DEBF99"/>
<path fill-rule="evenodd" clip-rule="evenodd" d="M8.5 2H15.5V9.73852C15.5 10.0922 15.1427 10.3341 14.8143 10.2028L12.1857 9.15131C12.0665 9.10363 11.9335 9.10363 11.8143 9.15131L9.1857 10.2028C8.85726 10.3341 8.5 10.0922 8.5 9.73852V2Z" fill="#A08469"/>
<path d="M15 17.5C15 17.7761 15.2239 18 15.5 18H18.5C18.7761 18 19 17.7761 19 17.5V15.5C19 15.2239 18.7761 15 18.5 15H15.5C15.2239 15 15 15.2239 15 15.5V17.5Z" fill="#A08469"/>
</svg>
