<svg width="14" height="15" viewBox="0 0 14 15" fill="none" xmlns="http://www.w3.org/2000/svg">
<path fill-rule="evenodd" clip-rule="evenodd" d="M3.77337 1.66675C2.97808 1.66675 2.33337 2.31146 2.33337 3.10675V13.3334H11.6667V3.10675C11.6667 2.31146 11.022 1.66675 10.2267 1.66675H3.77337ZM10.5 2.83341H3.50004V12.7501H10.5V2.83341Z" fill="#455A64"/>
<path fill-rule="evenodd" clip-rule="evenodd" d="M5.16669 4C4.89054 4 4.66669 4.22386 4.66669 4.5V5.25C4.66669 5.52614 4.89054 5.75 5.16669 5.75H5.91669C6.19283 5.75 6.41669 5.52614 6.41669 5.25V4.5C6.41669 4.22386 6.19283 4 5.91669 4H5.16669ZM5.16669 6.33333C4.89054 6.33333 4.66669 6.55719 4.66669 6.83333V7.58333C4.66669 7.85948 4.89054 8.08333 5.16669 8.08333H5.91669C6.19283 8.08333 6.41669 7.85948 6.41669 7.58333V6.83333C6.41669 6.55719 6.19283 6.33333 5.91669 6.33333H5.16669ZM7.58335 4.5C7.58335 4.22386 7.80721 4 8.08335 4H8.83335C9.1095 4 9.33335 4.22386 9.33335 4.5V5.25C9.33335 5.52614 9.1095 5.75 8.83335 5.75H8.08335C7.80721 5.75 7.58335 5.52614 7.58335 5.25V4.5ZM8.08335 6.33333C7.80721 6.33333 7.58335 6.55719 7.58335 6.83333V7.58333C7.58335 7.85948 7.80721 8.08333 8.08335 8.08333H8.83335C9.1095 8.08333 9.33335 7.85948 9.33335 7.58333V6.83333C9.33335 6.55719 9.1095 6.33333 8.83335 6.33333H8.08335ZM4.66669 9.97C4.66669 9.57235 4.98904 9.25 5.38669 9.25H8.61335C9.011 9.25 9.33335 9.57236 9.33335 9.97V12.6133C9.33335 13.011 9.011 13.3333 8.61335 13.3333H8.16669V10.2708H5.83335V13.3333H5.38669C4.98904 13.3333 4.66669 13.011 4.66669 12.6133V9.97Z" fill="#455A64"/>
<path fill-rule="evenodd" clip-rule="evenodd" d="M1.16669 13.3333C1.16669 13.0112 1.42785 12.75 1.75002 12.75H12.25C12.5722 12.75 12.8334 13.0112 12.8334 13.3333C12.8334 13.6555 12.5722 13.9167 12.25 13.9167H1.75002C1.42785 13.9167 1.16669 13.6555 1.16669 13.3333Z" fill="#455A64"/>
</svg>
