<?xml version="1.0" encoding="UTF-8"?>
<svg width="16px" height="16px" viewBox="0 0 16 16" version="1.1" xmlns="http://www.w3.org/2000/svg" xmlns:xlink="http://www.w3.org/1999/xlink">
    <title>15A12AED-3409-4AC7-83B6-35950C7C361E</title>
    <defs>
        <filter id="filter-1">
            <feColorMatrix in="SourceGraphic" type="matrix" values="0 0 0 0 0.000000 0 0 0 0 0.647059 0 0 0 0 0.278431 0 0 0 1.000000 0"></feColorMatrix>
        </filter>
    </defs>
    <g id="Page-1" stroke="none" stroke-width="1" fill="none" fill-rule="evenodd">
        <g id="2.배송목록_Full-Screen-Copy" transform="translate(-284.000000, -182.000000)">
            <g id="Group" transform="translate(0.000000, 164.000000)">
                <g id="Group-2" transform="translate(0.000000, 0.000000)">
                    <g id="배송대기" transform="translate(0.000000, 0.000000)">
                        <g id="addrs_unit_freshbag_medium" transform="translate(212.000000, 18.000000)">
                            <g id="Element/Icon/1.Fill/ic_Freshbag_Scan" transform="translate(72.000000, 0.000000)" filter="url(#filter-1)">
                                <g transform="translate(-0.000000, -0.000000)">
                                    <g id="Fill" transform="translate(1.333333, 0.666667)" fill="#000000">
                                        <path d="M12.6666667,8.66666667 L12.6666667,12 C12.6666667,12.7363797 12.069713,13.3333333 11.3333333,13.3333333 L2,13.3333333 C1.26362033,13.3333333 0.666666667,12.7363797 0.666666667,12 L0.666666667,8.66666667 L12.6666667,8.66666667 Z M10,10 L7.33333333,10 L7.33333333,11.3333333 L10,11.3333333 L10,10 Z M8,2.66666667 L8,2 C8,1.65810944 7.74263987,1.37632856 7.41108075,1.33781849 L7.33333333,1.33333333 L6,1.33333333 C5.65810944,1.33333333 5.37632856,1.59069346 5.33781849,1.92225258 L5.33333333,2 L5.33333333,2.66666667 L8,2.66666667 Z M4,2 C4,0.8954305 4.8954305,0 6,0 L7.33333333,0 C8.43790283,0 9.33333333,0.8954305 9.33333333,2 L9.33333333,2.66666667 L11.8275146,2.66666667 C12.4128309,2.66666667 12.9297076,3.04840433 13.1018658,3.60782972 C13.2561775,4.10926305 13.3333333,4.68443092 13.3333333,5.33333333 C13.3333333,5.81933789 13.2286695,6.31614217 13.0827617,6.81218232 L12.9892406,7.11161239 C12.9374074,7.26931671 12.8779652,7.43900495 12.8109141,7.62067711 L12.6666667,8 L12.6666667,8 L0.666666667,8 L0.250571641,6.81218232 C0.106214315,6.29955135 0,5.81933789 0,5.33333333 C0,4.68443092 0.0771558295,4.10926305 0.231467489,3.60782972 C0.392865799,3.08336842 0.857239368,2.71508098 1.3969414,2.6710909 L1.50581873,2.66666667 L4,2.66666667 L4,2 Z" id="Shape"></path>
                                    </g>
                                </g>
                            </g>
                        </g>
                    </g>
                </g>
            </g>
        </g>
    </g>
</svg>