<svg width="14" height="14" viewBox="0 0 14 14" fill="none" xmlns="http://www.w3.org/2000/svg">
<path fill-rule="evenodd" clip-rule="evenodd" d="M0 7C0 3.13401 3.13401 0 7 0C10.866 0 14 3.13401 14 7C14 10.866 10.866 14 7 14C3.13401 14 0 10.866 0 7ZM12.8333 7C12.8333 3.77834 10.2217 1.16667 7 1.16667C3.77834 1.16667 1.16667 3.77834 1.16667 7C1.16667 10.2217 3.77834 12.8333 7 12.8333C10.2217 12.8333 12.8333 10.2217 12.8333 7Z" fill="white"/>
<circle cx="7" cy="10.2083" r="0.875" fill="white"/>
<path d="M7.0013 2.91675C7.30046 2.91675 7.54701 3.14194 7.58071 3.43205L7.58464 3.50008V7.58341C7.58464 7.90558 7.32347 8.16675 7.0013 8.16675C6.70215 8.16675 6.45559 7.94156 6.42189 7.65144L6.41797 7.58341V3.50008C6.41797 3.17792 6.67914 2.91675 7.0013 2.91675Z" fill="white"/>
</svg>
