<svg width="24" height="24" viewBox="0 0 24 24" fill="none" xmlns="http://www.w3.org/2000/svg">
<path d="M19.0711 4.92891C19.4337 5.29154 19.4596 5.86338 19.1488 6.2559L19.0711 6.34312L6.34315 19.071C5.95263 19.4616 5.31946 19.4616 4.92894 19.071C4.56631 18.7084 4.54041 18.1366 4.85123 17.7441L4.92894 17.6568L17.6569 4.92891C18.0474 4.53838 18.6806 4.53838 19.0711 4.92891Z" fill="black"/>
<path d="M4.92894 4.92888C5.29157 4.56625 5.86341 4.54035 6.25593 4.85117L6.34315 4.92888L19.0711 17.6568C19.4616 18.0473 19.4616 18.6805 19.0711 19.071C18.7084 19.4336 18.1366 19.4595 17.7441 19.1487L17.6569 19.071L4.92894 6.34309C4.53841 5.95257 4.53841 5.3194 4.92894 4.92888Z" fill="black"/>
</svg>
