<svg width="32" height="32" viewBox="0 0 32 32" fill="none" xmlns="http://www.w3.org/2000/svg">
<path d="M0 16C0 10.3995 0 7.59921 1.08993 5.46009C2.04867 3.57847 3.57847 2.04867 5.46009 1.08993C7.59921 0 10.3995 0 16 0C21.6005 0 24.4008 0 26.5399 1.08993C28.4215 2.04867 29.9513 3.57847 30.9101 5.46009C32 7.59921 32 10.3995 32 16C32 21.6005 32 24.4008 30.9101 26.5399C29.9513 28.4215 28.4215 29.9513 26.5399 30.9101C24.4008 32 21.6005 32 16 32C10.3995 32 7.59921 32 5.46009 30.9101C3.57847 29.9513 2.04867 28.4215 1.08993 26.5399C0 24.4008 0 21.6005 0 16Z" fill="#662800"/>
<path fill-rule="evenodd" clip-rule="evenodd" d="M5.62992 4.07544C4.81172 4.07544 4.14844 4.73872 4.14844 5.55692V13.1126H4.67651C4.99501 13.1126 5.28799 13.258 5.481 13.4951L6.25149 10.519C6.42071 9.86539 7.01048 9.40885 7.68568 9.40885H24.3167C24.9919 9.40885 25.5816 9.86539 25.7509 10.519L26.5213 13.4951C26.7143 13.258 27.0073 13.1126 27.3258 13.1126H27.8521V5.55692C27.8521 4.73872 27.1889 4.07544 26.3707 4.07544H5.62992Z" fill="#ED6B1F"/>
<path d="M2.9628 17.5585C2.79916 17.5585 2.6665 17.4259 2.6665 17.2622V14.1511C2.6665 13.9875 2.79916 13.8548 2.9628 13.8548H4.67517C4.8027 13.8548 4.91593 13.9364 4.95626 14.0574L5.59984 15.9882L6.96724 10.7062C7.05185 10.3794 7.34674 10.1511 7.68434 10.1511H24.3153C24.6529 10.1511 24.9478 10.3794 25.0324 10.7062L26.3998 15.9882L27.0434 14.0574C27.0837 13.9364 27.197 13.8548 27.3245 13.8548H29.0369C29.2005 13.8548 29.3332 13.9875 29.3332 14.1511V17.2622C29.3332 17.4259 29.2005 17.5585 29.0369 17.5585H26.883L27.111 18.2993V25.7067C27.111 26.1158 26.7793 26.4474 26.3702 26.4474V27.9289C26.3702 28.338 26.0386 28.6696 25.6295 28.6696H23.4072C22.9981 28.6696 22.6665 28.338 22.6665 27.9289V26.4474H9.33317V27.9289C9.33317 28.338 9.00153 28.6696 8.59243 28.6696H6.37021C5.96111 28.6696 5.62947 28.338 5.62947 27.9289V26.4474C5.22037 26.4474 4.88873 26.1158 4.88873 25.7067V18.2993L5.11665 17.5585H2.9628Z" fill="#FFF3E1"/>
<path fill-rule="evenodd" clip-rule="evenodd" d="M15.9185 20.3213C16.2239 20.3213 16.3676 20.4772 16.4395 20.6151C16.4997 20.7357 16.5137 20.8647 16.5201 20.9245C16.5214 20.936 16.5223 20.945 16.5233 20.9508V21.4124C16.5233 21.4424 16.5173 21.5923 16.4455 21.7362C16.3736 21.8741 16.2299 22.03 15.9245 22.03C15.7388 22.03 15.613 21.958 15.5232 21.8801V22.6535C15.5232 22.6595 15.5172 22.6715 15.5053 22.6715H15.2118C15.2058 22.6715 15.1938 22.6655 15.1938 22.6535V20.3752C15.1938 20.3693 15.1998 20.3573 15.2118 20.3573H15.4813C15.4873 20.3573 15.4993 20.3633 15.4993 20.3752V20.4892C15.5831 20.4052 15.7208 20.3213 15.9185 20.3213ZM15.8467 21.7362C16.1281 21.7362 16.176 21.4964 16.176 21.4245V20.9329C16.176 20.8669 16.1341 20.6211 15.8467 20.6211C15.5652 20.6211 15.5173 20.8609 15.5173 20.9329V21.4245C15.5173 21.4904 15.5592 21.7362 15.8467 21.7362Z" fill="#F7552F"/>
<path fill-rule="evenodd" clip-rule="evenodd" d="M12.1156 20.6212C12.0377 20.7651 12.0317 20.9149 12.0317 20.9449V21.4066C12.0317 21.4365 12.0317 21.5864 12.1156 21.7303C12.1934 21.8682 12.3611 22.0241 12.6965 22.0241C13.0378 22.0241 13.1995 21.8682 13.2774 21.7303C13.3552 21.5864 13.3612 21.4365 13.3612 21.4066V20.9449C13.3612 20.9149 13.3612 20.7651 13.2774 20.6212C13.1995 20.4833 13.0318 20.3274 12.6965 20.3274C12.3611 20.3274 12.1934 20.4833 12.1156 20.6212ZM12.6966 21.7303C12.4151 21.7303 12.3672 21.4904 12.3672 21.4185V20.9269C12.3672 20.8609 12.4091 20.6151 12.6966 20.6151C12.984 20.6151 13.032 20.8549 13.032 20.9269V21.4185C13.032 21.4844 12.984 21.7303 12.6966 21.7303Z" fill="#935227"/>
<path d="M14.9246 20.3754C14.9246 20.3634 14.9186 20.3574 14.9066 20.3574H14.6131C14.6012 20.3574 14.5952 20.3694 14.5952 20.3754V21.4186C14.5952 21.4905 14.5473 21.7304 14.2658 21.7304C13.9784 21.7304 13.9304 21.4845 13.9304 21.4186V20.3754C13.9304 20.3634 13.9185 20.3574 13.9125 20.3574H13.619C13.6071 20.3574 13.6011 20.3694 13.6011 20.3754V21.4066C13.6011 21.4366 13.6011 21.5865 13.6789 21.7304C13.7508 21.8682 13.8945 22.0241 14.1999 22.0241C14.3017 22.0241 14.3856 22.0061 14.4515 21.9702C14.5173 21.9402 14.5772 21.8982 14.6191 21.8563V21.9702C14.6191 21.9822 14.6311 21.9882 14.6371 21.9882H14.9066C14.9186 21.9882 14.9246 21.9762 14.9246 21.9702V20.3754Z" fill="#935227"/>
<path fill-rule="evenodd" clip-rule="evenodd" d="M17.6191 20.3693C17.9126 20.4892 17.9785 20.795 17.9785 20.9269C17.9785 20.9299 17.9785 20.9314 17.9777 20.9321C17.977 20.9329 17.9755 20.9329 17.9725 20.9329V21.9701C17.9725 21.9761 17.9665 21.988 17.9545 21.988H17.697C17.691 21.988 17.679 21.9821 17.679 21.9701V21.8921C17.5892 21.9581 17.4694 22.024 17.2898 22.024C16.9844 22.024 16.8406 21.8801 16.7688 21.7482C16.6969 21.6163 16.6909 21.4725 16.6909 21.4425C16.6909 21.4185 16.6969 21.2746 16.7688 21.1367C16.8406 21.0108 16.9844 20.8609 17.2898 20.8609C17.4634 20.8669 17.5832 20.9269 17.6671 20.9868V20.9389C17.6671 20.9374 17.6671 20.9353 17.6672 20.9327C17.6685 20.8925 17.674 20.7239 17.5054 20.6451C17.3257 20.5612 17.0323 20.6571 16.9185 20.717C16.9155 20.717 16.914 20.7185 16.9125 20.72C16.911 20.7215 16.9095 20.723 16.9065 20.723C16.8945 20.729 16.8885 20.723 16.8826 20.711L16.7987 20.4712C16.7927 20.4592 16.7987 20.4473 16.8107 20.4413L16.8346 20.4293C16.9544 20.3813 17.3317 20.2494 17.6191 20.3693ZM17.3438 21.7422C17.6192 21.7422 17.6671 21.5144 17.6671 21.4485V21.4245C17.6671 21.3585 17.6192 21.1307 17.3438 21.1307C17.0683 21.1307 17.0204 21.3585 17.0204 21.4245V21.4485C17.0204 21.5144 17.0683 21.7422 17.3438 21.7422Z" fill="#FFC400"/>
<path fill-rule="evenodd" clip-rule="evenodd" d="M20.9371 20.4773C21.009 20.3993 21.1168 20.3274 21.2905 20.3334C21.3025 20.3334 21.3144 20.3454 21.3144 20.3634V20.5972C21.3144 20.6032 21.3025 20.6152 21.2905 20.6152C21.1887 20.6092 21.1168 20.6391 21.0749 20.6691C21.1288 20.783 21.1288 20.891 21.1288 20.9149V20.9449C21.1288 20.9749 21.1288 21.1188 21.0449 21.2567C20.9671 21.3886 20.7994 21.5384 20.464 21.5384H20.4281C20.4274 21.5384 20.4266 21.5384 20.4256 21.5384C20.3871 21.5383 20.1638 21.5374 20.1287 21.7363H20.7934C21.033 21.7363 21.2246 21.8682 21.2725 22.096C21.3084 22.2639 21.2785 22.4737 21.1108 22.6296C21.0929 22.6476 21.0749 22.6656 21.0509 22.6776C21.027 22.6896 20.9611 22.7315 20.9611 22.7315C20.9491 22.7375 20.9371 22.7375 20.9312 22.7255L20.7994 22.4917C20.7934 22.4797 20.7934 22.4677 20.8054 22.4617L20.8174 22.4557C20.9731 22.3718 21.003 22.2519 20.9851 22.162C20.9671 22.09 20.9072 22.0121 20.7934 22.0121H19.8293C19.8233 22.0121 19.8113 22.0001 19.8113 21.9881V21.8622C19.8113 21.6284 19.9251 21.4965 20.0508 21.4245C19.973 21.3706 19.9191 21.3106 19.8832 21.2507C19.8053 21.1128 19.7993 20.9689 19.7993 20.9389V20.9209C19.7993 20.891 19.7993 20.7471 19.8832 20.6092C19.961 20.4773 20.1287 20.3274 20.464 20.3274C20.6916 20.3274 20.8413 20.3933 20.9371 20.4773ZM20.4639 21.2326C20.7454 21.2266 20.7933 20.9988 20.7933 20.9329V20.9149C20.7933 20.8489 20.7513 20.6151 20.4639 20.6151C20.1824 20.6211 20.1345 20.8489 20.1345 20.9149V20.9329C20.1345 20.9988 20.1764 21.2326 20.4639 21.2326Z" fill="#31B4DD"/>
<path d="M11.9241 21.6763L11.6666 21.5444C11.6546 21.5384 11.6426 21.5444 11.6367 21.5564V21.5624C11.5947 21.6463 11.5109 21.7363 11.3372 21.7423C11.0498 21.7423 11.0079 21.4965 11.0079 21.4305V20.9389C11.0079 20.8669 11.0558 20.6271 11.3372 20.6271C11.5109 20.6271 11.6007 20.7231 11.6367 20.807C11.6426 20.813 11.6486 20.825 11.6606 20.825C11.6666 20.825 11.6666 20.825 11.6726 20.825L11.9241 20.6931C11.9361 20.6871 11.9361 20.6751 11.9301 20.6631C11.9241 20.6511 11.9181 20.6451 11.9181 20.6331C11.8403 20.4952 11.6786 20.3394 11.3372 20.3394C11.0019 20.3394 10.8342 20.4952 10.7563 20.6331C10.6725 20.759 10.6665 20.9149 10.6665 20.9449V21.4065C10.6665 21.4365 10.6725 21.5864 10.7503 21.7303C10.8282 21.8682 10.9899 22.024 11.3312 22.024H11.3372C11.6726 22.024 11.8403 21.8682 11.9181 21.7303L11.9361 21.7003C11.9361 21.6943 11.9301 21.6823 11.9241 21.6763Z" fill="#935227"/>
<path d="M19.4937 20.6151C19.4218 20.4772 19.2721 20.3213 18.9727 20.3213C18.775 20.3213 18.6433 20.4052 18.5535 20.4892V20.3752C18.5535 20.3633 18.5415 20.3573 18.5355 20.3573H18.266C18.254 20.3573 18.248 20.3693 18.248 20.3752V21.976C18.248 21.988 18.26 21.994 18.266 21.994H18.5595C18.5714 21.994 18.5774 21.982 18.5774 21.976V20.9148C18.5834 20.8309 18.6433 20.6211 18.9068 20.6151C19.1942 20.6151 19.2422 20.8609 19.2422 20.9268V21.976C19.2422 21.988 19.2541 21.994 19.2601 21.994H19.5536C19.5655 21.994 19.5715 21.982 19.5715 21.976V20.9448C19.5715 20.9148 19.5715 20.7589 19.4937 20.6151Z" fill="#88CC2F"/>
<path d="M7.66851 19.0369H4.88867V21.9998H8.8537C9.07396 21.9998 9.21722 21.768 9.11871 21.571L7.93353 19.2007C7.88334 19.1003 7.78074 19.0369 7.66851 19.0369Z" fill="#ED6B1F"/>
<path d="M24.3315 19.0369H27.1113V21.9998H23.1463C22.926 21.9998 22.7828 21.768 22.8813 21.571L24.0665 19.2007C24.1167 19.1003 24.2193 19.0369 24.3315 19.0369Z" fill="#ED6B1F"/>
<path d="M23.1758 11.6301H8.82366C8.6877 11.6301 8.56919 11.7227 8.53621 11.8546L7.20288 17.1879C7.15613 17.3749 7.29757 17.5561 7.49033 17.5561H24.5091C24.7019 17.5561 24.8433 17.3749 24.7966 17.1879L23.4632 11.8546C23.4303 11.7227 23.3118 11.6301 23.1758 11.6301Z" fill="#662800"/>
<path d="M8.59229 17.5561L14.0091 11.6301H21.1849L15.9997 17.5561H8.59229Z" fill="url(#paint0_linear_454_105627)" fill-opacity="0.9"/>
<defs>
<linearGradient id="paint0_linear_454_105627" x1="15.0075" y1="13.6347" x2="16.2628" y2="18.3367" gradientUnits="userSpaceOnUse">
<stop stop-color="white" stop-opacity="0.6"/>
<stop offset="1" stop-color="white" stop-opacity="0"/>
</linearGradient>
</defs>
</svg>
