<svg width="32" height="32" viewBox="0 0 32 32" fill="none" xmlns="http://www.w3.org/2000/svg">
<rect width="32" height="32" rx="10" fill="#004262"/>
<path fill-rule="evenodd" clip-rule="evenodd" d="M5.62992 4.07544C4.81172 4.07544 4.14844 4.73872 4.14844 5.55692V13.1126H4.67651C4.99501 13.1126 5.28799 13.258 5.481 13.4951L6.25149 10.519C6.42071 9.86539 7.01048 9.40885 7.68568 9.40885H24.3167C24.9919 9.40885 25.5816 9.86539 25.7509 10.519L26.5213 13.4951C26.7143 13.258 27.0073 13.1126 27.3258 13.1126H27.8521V5.55692C27.8521 4.73872 27.1889 4.07544 26.3707 4.07544H5.62992Z" fill="#00A7F6"/>
<path d="M2.9628 17.5585C2.79916 17.5585 2.6665 17.4259 2.6665 17.2622V14.1511C2.6665 13.9875 2.79916 13.8548 2.9628 13.8548H4.67517C4.8027 13.8548 4.91593 13.9364 4.95626 14.0574L5.59984 15.9882L6.96724 10.7062C7.05185 10.3794 7.34674 10.1511 7.68434 10.1511H24.3153C24.6529 10.1511 24.9478 10.3794 25.0324 10.7062L26.3998 15.9882L27.0434 14.0574C27.0837 13.9364 27.197 13.8548 27.3245 13.8548H29.0369C29.2005 13.8548 29.3332 13.9875 29.3332 14.1511V17.2622C29.3332 17.4259 29.2005 17.5585 29.0369 17.5585H26.883L27.111 18.2993V25.7067C27.111 26.1158 26.7793 26.4474 26.3702 26.4474V27.9289C26.3702 28.338 26.0386 28.6696 25.6295 28.6696H23.4072C22.9981 28.6696 22.6665 28.338 22.6665 27.9289V26.4474H9.33317V27.9289C9.33317 28.338 9.00153 28.6696 8.59243 28.6696H6.37021C5.96111 28.6696 5.62947 28.338 5.62947 27.9289V26.4474C5.22037 26.4474 4.88873 26.1158 4.88873 25.7067V18.2993L5.11665 17.5585H2.9628Z" fill="#E5F6FE"/>
<path fill-rule="evenodd" clip-rule="evenodd" d="M15.9185 20.3223C16.2239 20.3223 16.3676 20.4781 16.4395 20.616C16.4997 20.7366 16.5137 20.8657 16.5201 20.9255C16.5214 20.937 16.5223 20.946 16.5233 20.9518V21.4134C16.5233 21.4434 16.5173 21.5933 16.4455 21.7372C16.3736 21.8751 16.2299 22.0309 15.9245 22.0309C15.7388 22.0309 15.613 21.959 15.5232 21.8811V22.6544C15.5232 22.6604 15.5172 22.6724 15.5053 22.6724H15.2118C15.2058 22.6724 15.1938 22.6664 15.1938 22.6544V20.3762C15.1938 20.3702 15.1998 20.3582 15.2118 20.3582H15.4813C15.4873 20.3582 15.4993 20.3642 15.4993 20.3762V20.4901C15.5831 20.4062 15.7208 20.3223 15.9185 20.3223ZM15.847 21.7372C16.1284 21.7372 16.1763 21.4974 16.1763 21.4254V20.9338C16.1763 20.8679 16.1344 20.6221 15.847 20.6221C15.5655 20.6221 15.5176 20.8619 15.5176 20.9338V21.4254C15.5176 21.4914 15.5595 21.7372 15.847 21.7372Z" fill="#F7552F"/>
<path fill-rule="evenodd" clip-rule="evenodd" d="M12.1156 20.6202C12.0377 20.7641 12.0317 20.914 12.0317 20.9439V21.4056C12.0317 21.4356 12.0317 21.5854 12.1156 21.7293C12.1934 21.8672 12.3611 22.0231 12.6965 22.0231C13.0378 22.0231 13.1995 21.8672 13.2774 21.7293C13.3552 21.5854 13.3612 21.4356 13.3612 21.4056V20.9439C13.3612 20.914 13.3612 20.7641 13.2774 20.6202C13.1995 20.4823 13.0318 20.3264 12.6965 20.3264C12.3611 20.3264 12.1934 20.4823 12.1156 20.6202ZM12.6966 21.7294C12.4151 21.7294 12.3672 21.4896 12.3672 21.4176V20.926C12.3672 20.8601 12.4091 20.6143 12.6966 20.6143C12.984 20.6143 13.0319 20.8541 13.0319 20.926V21.4176C13.0319 21.4836 12.984 21.7294 12.6966 21.7294Z" fill="#935227"/>
<path d="M14.9246 20.3754C14.9246 20.3634 14.9186 20.3574 14.9066 20.3574H14.6131C14.6012 20.3574 14.5952 20.3694 14.5952 20.3754V21.4186C14.5952 21.4905 14.5473 21.7304 14.2658 21.7304C13.9784 21.7304 13.9304 21.4845 13.9304 21.4186V20.3754C13.9304 20.3634 13.9185 20.3574 13.9125 20.3574H13.619C13.6071 20.3574 13.6011 20.3694 13.6011 20.3754V21.4066C13.6011 21.4366 13.6011 21.5865 13.6789 21.7304C13.7508 21.8682 13.8945 22.0241 14.1999 22.0241C14.3017 22.0241 14.3856 22.0061 14.4515 21.9702C14.5173 21.9402 14.5772 21.8982 14.6191 21.8563V21.9702C14.6191 21.9822 14.6311 21.9882 14.6371 21.9882H14.9066C14.9186 21.9882 14.9246 21.9762 14.9246 21.9702V20.3754Z" fill="#935227"/>
<path fill-rule="evenodd" clip-rule="evenodd" d="M17.6196 20.3693C17.9131 20.4892 17.979 20.795 17.979 20.9269C17.979 20.9299 17.979 20.9314 17.9782 20.9321C17.9775 20.9329 17.976 20.9329 17.973 20.9329V21.9701C17.973 21.9761 17.967 21.988 17.955 21.988H17.6975C17.6915 21.988 17.6795 21.9821 17.6795 21.9701V21.8921C17.5897 21.9581 17.4699 22.024 17.2903 22.024C16.9848 22.024 16.8411 21.8801 16.7693 21.7482C16.6974 21.6163 16.6914 21.4725 16.6914 21.4425C16.6914 21.4185 16.6974 21.2746 16.7693 21.1367C16.8411 21.0108 16.9848 20.8609 17.2903 20.8609C17.4639 20.8669 17.5837 20.9269 17.6675 20.9868V20.9389C17.6675 20.9374 17.6676 20.9353 17.6677 20.9327C17.669 20.8925 17.6745 20.7239 17.5059 20.6451C17.3262 20.5612 17.0328 20.6571 16.919 20.717C16.916 20.717 16.9145 20.7185 16.913 20.72C16.9115 20.7215 16.91 20.723 16.907 20.723C16.895 20.729 16.889 20.723 16.883 20.711L16.7992 20.4712C16.7932 20.4592 16.7992 20.4473 16.8112 20.4413L16.8351 20.4293C16.9549 20.3813 17.3322 20.2494 17.6196 20.3693ZM17.3442 21.7421C17.6197 21.7421 17.6676 21.5142 17.6676 21.4483V21.4243C17.6676 21.3584 17.6197 21.1305 17.3442 21.1305C17.0687 21.1305 17.0208 21.3584 17.0208 21.4243V21.4483C17.0208 21.5142 17.0687 21.7421 17.3442 21.7421Z" fill="#FFC400"/>
<path fill-rule="evenodd" clip-rule="evenodd" d="M20.9367 20.4763C21.0085 20.3984 21.1163 20.3264 21.29 20.3324C21.302 20.3324 21.3139 20.3444 21.3139 20.3624V20.5962C21.3139 20.6022 21.302 20.6142 21.29 20.6142C21.1882 20.6082 21.1163 20.6382 21.0744 20.6681C21.1283 20.7821 21.1283 20.89 21.1283 20.914V20.9439C21.1283 20.9739 21.1283 21.1178 21.0445 21.2557C20.9666 21.3876 20.7989 21.5375 20.4636 21.5375H20.4276C20.4269 21.5375 20.4261 21.5375 20.4251 21.5375C20.3866 21.5373 20.1633 21.5364 20.1282 21.7353H20.7929C21.0325 21.7353 21.2241 21.8672 21.272 22.095C21.308 22.2629 21.278 22.4727 21.1103 22.6286C21.0924 22.6466 21.0744 22.6646 21.0504 22.6766C21.0265 22.6886 20.9606 22.7305 20.9606 22.7305C20.9486 22.7365 20.9367 22.7365 20.9307 22.7245L20.7989 22.4907C20.7929 22.4787 20.7929 22.4667 20.8049 22.4608L20.8169 22.4548C20.9726 22.3708 21.0025 22.2509 20.9846 22.161C20.9666 22.089 20.9067 22.0111 20.7929 22.0111H19.8288C19.8228 22.0111 19.8108 21.9991 19.8108 21.9871V21.8612C19.8108 21.6274 19.9246 21.4955 20.0503 21.4236C19.9725 21.3696 19.9186 21.3096 19.8827 21.2497C19.8048 21.1118 19.7988 20.9679 19.7988 20.9379V20.92C19.7988 20.89 19.7988 20.7461 19.8827 20.6082C19.9605 20.4763 20.1282 20.3264 20.4636 20.3264C20.6911 20.3264 20.8408 20.3924 20.9367 20.4763ZM20.4635 21.2318C20.745 21.2258 20.7929 20.998 20.7929 20.932V20.914C20.7929 20.8481 20.7509 20.6143 20.4635 20.6143C20.182 20.6203 20.1341 20.8481 20.1341 20.914V20.932C20.1341 20.998 20.176 21.2318 20.4635 21.2318Z" fill="#31B4DD"/>
<path d="M11.9241 21.6766L11.6666 21.5447C11.6546 21.5387 11.6426 21.5447 11.6367 21.5567V21.5626C11.5947 21.6466 11.5109 21.7365 11.3372 21.7425C11.0498 21.7425 11.0079 21.4967 11.0079 21.4307V20.9391C11.0079 20.8672 11.0558 20.6274 11.3372 20.6274C11.5109 20.6274 11.6007 20.7233 11.6367 20.8072C11.6426 20.8132 11.6486 20.8252 11.6606 20.8252C11.6666 20.8252 11.6666 20.8252 11.6726 20.8252L11.9241 20.6933C11.9361 20.6873 11.9361 20.6753 11.9301 20.6633C11.9241 20.6514 11.9181 20.6454 11.9181 20.6334C11.8403 20.4955 11.6786 20.3396 11.3372 20.3396C11.0019 20.3396 10.8342 20.4955 10.7563 20.6334C10.6725 20.7593 10.6665 20.9152 10.6665 20.9451V21.4068C10.6665 21.4367 10.6725 21.5866 10.7503 21.7305C10.8282 21.8684 10.9899 22.0243 11.3312 22.0243H11.3372C11.6726 22.0243 11.8403 21.8684 11.9181 21.7305L11.9361 21.7005C11.9361 21.6945 11.9301 21.6826 11.9241 21.6766Z" fill="#935227"/>
<path d="M19.4937 20.6151C19.4218 20.4772 19.2721 20.3213 18.9727 20.3213C18.775 20.3213 18.6433 20.4052 18.5535 20.4892V20.3752C18.5535 20.3633 18.5415 20.3573 18.5355 20.3573H18.266C18.254 20.3573 18.248 20.3693 18.248 20.3752V21.976C18.248 21.988 18.26 21.994 18.266 21.994H18.5595C18.5714 21.994 18.5774 21.982 18.5774 21.976V20.9148C18.5834 20.8309 18.6433 20.6211 18.9068 20.6151C19.1942 20.6151 19.2422 20.8609 19.2422 20.9268V21.976C19.2422 21.988 19.2541 21.994 19.2601 21.994H19.5536C19.5655 21.994 19.5715 21.982 19.5715 21.976V20.9448C19.5715 20.9148 19.5715 20.7589 19.4937 20.6151Z" fill="#88CC2F"/>
<path d="M7.66851 19.0369H4.88867V21.9998H8.8537C9.07396 21.9998 9.21722 21.768 9.11871 21.571L7.93353 19.2007C7.88334 19.1003 7.78074 19.0369 7.66851 19.0369Z" fill="#00A7F6"/>
<path d="M24.3315 19.0369H27.1113V21.9998H23.1463C22.926 21.9998 22.7828 21.768 22.8813 21.571L24.0665 19.2007C24.1167 19.1003 24.2193 19.0369 24.3315 19.0369Z" fill="#00A7F6"/>
<path d="M23.1758 11.6301H8.82366C8.6877 11.6301 8.56919 11.7227 8.53621 11.8546L7.20288 17.1879C7.15613 17.3749 7.29757 17.5561 7.49033 17.5561H24.5091C24.7019 17.5561 24.8433 17.3749 24.7966 17.1879L23.4632 11.8546C23.4303 11.7227 23.3118 11.6301 23.1758 11.6301Z" fill="#004262"/>
<path d="M8.59229 17.5561L14.0091 11.6301H21.1849L15.9997 17.5561H8.59229Z" fill="url(#paint0_linear_454_105626)" fill-opacity="0.9"/>
<defs>
<linearGradient id="paint0_linear_454_105626" x1="15.0075" y1="13.6347" x2="16.2628" y2="18.3367" gradientUnits="userSpaceOnUse">
<stop stop-color="white" stop-opacity="0.6"/>
<stop offset="1" stop-color="white" stop-opacity="0"/>
</linearGradient>
</defs>
</svg>
