<svg width="18" height="18" viewBox="0 0 18 18" fill="none" xmlns="http://www.w3.org/2000/svg">
<path d="M1 6.5625C1 6.25184 1.25184 6 1.5625 6H9V12H1.5625C1.25184 12 1 11.7482 1 11.4375V6.5625Z" fill="#DEBF99"/>
<path fill-rule="evenodd" clip-rule="evenodd" d="M4 6H6V7.73117C6 7.86358 5.87046 7.95721 5.74473 7.91568L5.06095 7.68983C5.02137 7.67675 4.97863 7.67675 4.93905 7.68983L4.25527 7.91568C4.12954 7.95721 4 7.86358 4 7.73117V6Z" fill="#A08469"/>
<path d="M6 10.8057C6 10.913 6.087 11 6.19432 11H7.80568C7.913 11 8 10.913 8 10.8057V10.1943C8 10.087 7.913 10 7.80568 10H6.19432C6.087 10 6 10.087 6 10.1943V10.8057Z" fill="#A08469"/>
<path d="M9 6H16.4375C16.7482 6 17 6.25184 17 6.5625V11.4375C17 11.7482 16.7482 12 16.4375 12H9V6Z" fill="#DEBF99"/>
<path fill-rule="evenodd" clip-rule="evenodd" d="M12 6H14V7.73117C14 7.86358 13.8705 7.95721 13.7447 7.91568L13.0609 7.68983C13.0214 7.67675 12.9786 7.67675 12.9391 7.68983L12.2553 7.91568C12.1295 7.95721 12 7.86358 12 7.73117V6Z" fill="#A08469"/>
<path d="M14 10.8057C14 10.913 14.087 11 14.1943 11H15.8057C15.913 11 16 10.913 16 10.8057V10.1943C16 10.087 15.913 10 15.8057 10H14.1943C14.087 10 14 10.087 14 10.1943V10.8057Z" fill="#A08469"/>
<path d="M1 0.5625C1 0.25184 1.25184 0 1.5625 0H9V6H1.5625C1.25184 6 1 5.74816 1 5.4375V0.5625Z" fill="#DEBF99"/>
<path fill-rule="evenodd" clip-rule="evenodd" d="M4 0H6V1.73117C6 1.86358 5.87046 1.95721 5.74473 1.91568L5.06095 1.68983C5.02137 1.67675 4.97863 1.67675 4.93905 1.68983L4.25527 1.91568C4.12954 1.95721 4 1.86358 4 1.73117V0Z" fill="#A08469"/>
<path d="M6 4.80568C6 4.913 6.087 5 6.19432 5H7.80568C7.913 5 8 4.913 8 4.80568V4.19432C8 4.087 7.913 4 7.80568 4H6.19432C6.087 4 6 4.087 6 4.19432V4.80568Z" fill="#A08469"/>
<path d="M9 0H16.4375C16.7482 0 17 0.25184 17 0.5625V5.4375C17 5.74816 16.7482 6 16.4375 6H9V0Z" fill="#DEBF99"/>
<path fill-rule="evenodd" clip-rule="evenodd" d="M12 0H14V1.73117C14 1.86358 13.8705 1.95721 13.7447 1.91568L13.0609 1.68983C13.0214 1.67675 12.9786 1.67675 12.9391 1.68983L12.2553 1.91568C12.1295 1.95721 12 1.86358 12 1.73117V0Z" fill="#A08469"/>
<path d="M14 4.80568C14 4.913 14.087 5 14.1943 5H15.8057C15.913 5 16 4.913 16 4.80568V4.19432C16 4.087 15.913 4 15.8057 4H14.1943C14.087 4 14 4.087 14 4.19432V4.80568Z" fill="#A08469"/>
<rect y="12" width="18" height="5" fill="#6085FF"/>
<rect y="13" width="18" height="3" fill="#2267FF"/>
<rect x="2" y="13" width="6" height="3" fill="#0038E4"/>
<rect x="10" y="13" width="6" height="3" fill="#0038E4"/>
<path d="M12 6C9.3 6 9 2.5 9 0V6H12Z" fill="#C0A281"/>
<path d="M12 12C9.3 12 9 8.5 9 6V12H12Z" fill="#C0A281"/>
</svg>
