<svg width="50" height="25" viewBox="0 0 50 25" fill="none" xmlns="http://www.w3.org/2000/svg">
<rect x="1" y="1" width="48" height="23" rx="8" fill="white"/>
<rect x="1" y="1" width="48" height="23" rx="8" stroke="#2267FF"/>
<path d="M24.232 16.956H15.124V16.26H19.168V15.432H15.736V14.796H19.168V13.992H16.204V10.368H19.168V9.636H15.352V8.952H19.168V8.244C18.16 8.304 17.116 8.34 16.096 8.352L15.808 7.656C18.376 7.656 20.908 7.536 22.732 7.056L23.236 7.74C22.204 7.932 21.124 8.088 20.02 8.184V8.952H24.028V9.636H20.02V10.368H23.152V13.992H20.02V14.796H23.608V15.432H20.02V16.26H24.232V16.956ZM20.02 12.48V13.344H22.336V12.48H20.02ZM22.336 11.04H20.02V11.856H22.336V11.04ZM17.032 12.48V13.344H19.168V12.48H17.032ZM17.032 11.04V11.856H19.168V11.04H17.032ZM34.1228 14.748L34.7948 15.156C34.6268 16.08 34.3028 17.016 33.7748 17.016C33.2588 17.016 32.9948 16.632 32.7308 16.032C32.2748 15 32.0108 12.444 31.9388 9.996H29.1668V9.264H31.9268V7.104H32.6948V9.264H34.6748V9.996H32.7188C32.7788 12.336 32.9828 14.52 33.3908 15.468C33.4868 15.804 33.5948 16.104 33.7508 16.104C33.9668 16.104 34.0628 15.372 34.1228 14.748ZM28.6508 17.136H27.8708V16.68H26.5388V17.208H25.7588V13.644H28.6508V17.136ZM28.9268 16.62L28.7828 15.852C29.1428 15.792 29.5868 15.708 30.0428 15.636V12.54H29.0468V11.808H31.7708V12.54H30.8108V15.48C31.3028 15.384 31.7588 15.276 32.1428 15.192L32.1668 15.888C31.3148 16.14 29.8748 16.416 28.9268 16.62ZM28.9508 9.756H25.4108V9.048H28.9508V9.756ZM26.5388 14.328V15.996H27.8708V14.328H26.5388ZM28.6628 12.792H25.7708V12.084H28.6628V12.792ZM28.6628 8.244H25.7708V7.548H28.6628V8.244ZM28.6628 11.256H25.7708V10.572H28.6628V11.256ZM34.5188 8.64L33.9548 9.132C33.6428 8.676 33.3548 8.292 32.9708 7.896L33.5108 7.428C33.8228 7.74 34.2788 8.268 34.5188 8.64Z" fill="#2267FF"/>
</svg>
