<svg width="354" height="90" viewBox="0 0 354 90" fill="none" xmlns="http://www.w3.org/2000/svg">
<rect x="1" y="1.13477" width="352" height="87" rx="43.5" stroke="#2267FF" stroke-width="2"/>
<path d="M71.655 55.4538V27.3278H88.916V31.3048H76.698V39.7098H86.21V43.6048H76.698V55.4538H71.655ZM93.4657 55.4538V25.4828H98.2217V55.4538H93.4657ZM113.18 55.8228C106.169 55.8228 102.725 51.8458 102.725 45.1628V44.5888C102.725 37.4958 107.03 34.0108 112.401 34.0108C118.633 34.0108 121.339 37.4958 121.339 44.2198V46.1878H107.563C107.85 50.5748 110.105 52.1328 114.123 52.1328C116.829 52.1328 118.797 51.5178 120.642 50.5748V53.8548C119.207 54.7978 116.747 55.8228 113.18 55.8228ZM112.319 37.4958C110.146 37.4958 107.891 38.6438 107.563 42.9488H116.542C116.542 38.9718 115.066 37.4958 112.319 37.4958ZM123.127 55.4538L130.015 44.6298L123.496 34.3388H128.949L133.418 41.6368L137.477 34.3388H142.356L136.124 44.5888L142.93 55.4538H137.395L132.762 47.7868L128.047 55.4538H123.127ZM162.013 59.5948H158.446V57.9548H149.221V59.9228H145.695V32.4528H149.836V29.2958H144.875V25.5238H162.464V29.2958H157.872V32.4528H162.013V59.5948ZM174.231 49.0578L178.126 50.2468C177.962 53.1168 177.511 55.9868 176.855 57.2578C176.117 58.6928 175.174 59.3078 170.213 59.3078C163.981 59.3078 163.366 58.2008 163.366 55.6178V37.4958H172.386V29.4188H163.53V25.5238H176.486V41.3498H167.343V54.1828C167.343 55.2488 168.245 55.3718 169.721 55.3718H170.664C172.55 55.3308 173.206 55.1668 173.616 54.3878C173.944 53.5268 174.19 51.8458 174.231 49.0578ZM157.298 45.2448C154.961 45.2448 154.387 44.6298 154.387 43.3588V35.8558H153.198C153.075 41.8418 152.419 44.4248 150.738 46.9258L149.221 45.1218V48.2788H158.446V45.2448H157.298ZM149.221 51.5998V54.3058H158.446V51.5998H149.221ZM157.134 41.3498C157.134 41.8008 157.257 41.8828 157.913 41.8828H158.446V35.8558H157.134V41.3498ZM149.221 43.5638C150 41.9238 150.492 40.3248 150.574 35.8558H149.221V43.5638ZM153.116 29.2958V32.4528H154.551V29.2958H153.116ZM194.658 26.5078L197.733 28.1478V25.4008H205.892C207.491 29.0908 209.705 31.3868 213.6 33.6008L211.14 37.0448C209.787 36.1838 208.639 35.2408 207.655 34.2568V36.3888H202.489C202.448 37.5778 202.366 38.7258 202.243 39.7508H211.632V43.3178H203.883C205.728 46.6388 208.516 48.7708 212.657 50.3698L210.402 53.8548C205.892 51.8458 202.858 48.9758 200.931 45.4088C199.332 49.5088 196.503 51.9688 192.28 54.1828L189.902 50.9848C194.371 48.8938 196.503 46.5978 197.528 43.3178H190.312V39.7508H198.184C198.266 38.7258 198.307 37.6188 198.348 36.3888H194.207V34.2158C193.182 35.3638 192.075 36.4298 190.886 37.4138L188.18 34.5438C190.968 32.5348 193.756 28.5578 194.658 26.5078ZM213.723 55.0028L212.739 58.8568C209.418 58.9388 205.974 59.1028 202.694 59.1028H201.587C197.856 59.1028 194.371 58.8568 191.747 58.0778C189.615 57.5038 188.262 56.2738 187.278 54.9208C185.72 56.5198 184.08 58.0368 182.235 59.5538L180.185 55.6998C181.784 54.4288 183.26 53.4448 184.695 52.2148V46.1058H180.8V42.2928H188.713V51.2718C189.574 52.9118 190.558 54.0598 192.485 54.6338C194.904 55.3718 198.266 55.4948 201.956 55.4948C205.605 55.4538 209.623 55.2078 213.723 55.0028ZM203.309 28.8858H197.733C197.077 30.1568 196.257 31.5098 195.232 32.8218H206.22C204.949 31.4688 204.006 30.1158 203.309 28.8858ZM188.877 37.0448L186.212 40.3248C184.162 38.3978 182.194 36.8398 180.554 35.7328L182.809 32.6988C185.105 34.1338 186.95 35.4868 188.877 37.0448ZM189.861 28.9678L187.278 32.1658C185.433 30.3208 183.342 28.6808 181.62 27.5738L184.039 24.6628C186.212 26.1388 188.098 27.3278 189.861 28.9678ZM229.805 55.6998L226.648 58.2008C225.295 56.3968 223.286 54.4698 221.564 53.1168L223.532 51.5998H216.439V48.4018H236.816V46.4338C230.625 46.7208 224.311 47.0078 217.874 47.1718L217.423 43.8918C222.22 43.8918 226.484 43.8508 230.297 43.7278V41.8828H220.129V30.8128H230.297V29.3778H217.136V26.2618H230.297V24.0888H234.438V26.2618H247.722V29.3778H234.438V30.8128H244.565V41.8828H243.212C244.565 43.1128 246.041 44.5478 247.312 46.0648L244.442 48.3198C243.868 47.5408 243.294 46.7618 242.638 46.0648L240.957 46.1878V48.4018H248.419V51.5998H240.957V55.1258C240.957 58.2418 239.481 59.2668 236.488 59.2668C234.971 59.2668 234.028 59.2258 232.47 58.9798L231.568 55.1668C233.167 55.4948 233.905 55.5768 235.381 55.5768C236.406 55.5768 236.816 55.3718 236.816 54.4698V51.5998H225.459C226.935 52.7478 228.616 54.2238 229.805 55.6998ZM234.438 37.5778V39.2588H240.383V37.5778H234.438ZM224.393 37.5778V39.2588H230.297V37.5778H224.393ZM240.383 33.7238H234.438V35.2408H240.383V33.7238ZM224.393 33.7238V35.2408H230.297V33.7238H224.393ZM239.768 43.3178L238.989 42.6208L240.055 41.8828H234.438V43.6048C236.283 43.5228 238.087 43.4408 239.768 43.3178ZM271.388 58.8978H267.206V47.9098H260.072C259.949 48.7298 259.867 49.5908 259.744 50.3288C259.211 53.7728 258.186 56.8478 256.095 59.8818L252.651 57.3398C254.455 54.5108 255.234 52.3378 255.644 49.6318C256.136 46.7618 256.136 43.4408 256.136 38.5208V26.6308H283.155V55.2078C283.155 58.2008 281.966 59.2668 278.973 59.2668C278.03 59.2668 276.103 59.1848 274.914 59.0618L273.93 54.9618C275.365 55.2488 276.472 55.2898 277.292 55.2898C278.358 55.2898 278.973 55.1258 278.973 54.1828V47.9098H271.388V58.8978ZM271.388 39.2178V44.2198H278.973V39.2178H271.388ZM278.973 30.4438H271.388V35.4458H278.973V30.4438ZM260.318 39.2178C260.318 40.9398 260.277 42.6208 260.236 44.2198H267.206V39.2178H260.318ZM260.318 30.4438V35.4458H267.206V30.4438H260.318Z" fill="#2267FF"/>
</svg>
