<svg width="12" height="12" viewBox="0 0 12 12" fill="none" xmlns="http://www.w3.org/2000/svg">
<path fill-rule="evenodd" clip-rule="evenodd" d="M1.5 7L1.18793 6.10914C1.07966 5.72466 1 5.3645 1 5C1 4.51332 1.05787 4.08195 1.1736 3.70587C1.29465 3.31253 1.64293 3.03631 2.04771 3.00332L2.12936 3H9.87064C10.3096 3 10.6973 3.2863 10.8264 3.70587C10.9421 4.08195 11 4.51332 11 5C11 5.3645 10.9215 5.73711 10.8121 6.10914C10.7026 6.48117 10.5 7 10.5 7H1.5ZM2.35349 6.00025H9.64651C9.94235 5.36725 10.0125 4.74478 9.85779 4.13132L9.82119 4H2.17881L2.14221 4.13132C1.99852 4.70096 2.04877 5.27837 2.29298 5.86354L2.35349 6.00025Z" fill="#00B578"/>
<path fill-rule="evenodd" clip-rule="evenodd" d="M2.5 6.5V10H9.5V6.5H10.5V10C10.5 10.5523 10.0523 11 9.5 11H2.5C1.94772 11 1.5 10.5523 1.5 10V6.5H2.5ZM8.5 8V9H6.5V8H8.5Z" fill="#00B578"/>
<path fill-rule="evenodd" clip-rule="evenodd" d="M4 2.75C4 1.7835 4.7835 1 5.75 1H6.25C7.2165 1 8 1.7835 8 2.75C8 2.83488 7.99396 2.91835 7.98228 3H7C7 2.44772 6.55228 2 6 2C5.44772 2 5 2.44772 5 3H4.01772C4.00604 2.91835 4 2.83488 4 2.75ZM5 3H7C7 3.55228 6.55228 4 6 4C5.44772 4 5 3.55228 5 3Z" fill="#00B578"/>
</svg>
