<svg width="24" height="24" viewBox="0 0 24 24" fill="none" xmlns="http://www.w3.org/2000/svg">
<path d="M2 8C2 7.44772 2.44772 7 3 7H21C21.5523 7 22 7.44772 22 8V10C22 10.5523 21.5523 11 21 11H3C2.44772 11 2 10.5523 2 10V8Z" fill="white"/>
<path d="M2 14C2 13.4477 2.44772 13 3 13H21C21.5523 13 22 13.4477 22 14V16C22 16.5523 21.5523 17 21 17H3C2.44772 17 2 16.5523 2 16V14Z" fill="white"/>
<path fill-rule="evenodd" clip-rule="evenodd" d="M7 21.9999L12 18.9999L17 21.9999H14.0392V23.9999H9.96074V21.9999H7Z" fill="white"/>
<path fill-rule="evenodd" clip-rule="evenodd" d="M17 1.99991L12 4.99991L7 1.99991L9.9608 1.99991L9.9608 -9.15527e-05L14.0393 -9.11962e-05V1.99991L17 1.99991Z" fill="white"/>
</svg>
