<svg width="24" height="24" viewBox="0 0 24 24" fill="none" xmlns="http://www.w3.org/2000/svg">
<path fill-rule="evenodd" clip-rule="evenodd" d="M12 1C14.6018 0.999954 17.082 2.073 18.8049 3.94401C20.4752 5.75796 21.2326 8.11489 20.9376 10.5807C20.7622 12.0466 20.1946 13.4596 19.2504 14.7803C18.6127 15.6723 17.8583 16.418 17.1287 17.1391C16.7962 17.4677 16.4522 17.8078 16.1316 18.1507C14.9667 19.3966 14.1288 20.4567 13.4945 21.4866L13.4866 21.4992L12.8061 22.5651C12.6337 22.8351 12.3292 22.9996 12.0011 23H12.0001C11.6725 23 11.368 22.8362 11.1952 22.5669C11.1311 22.4669 10.5864 21.618 10.5055 21.4866C9.87123 20.4567 9.03323 19.3966 7.8684 18.1507C7.54781 17.8078 7.20396 17.4679 6.87143 17.1392C6.14186 16.4181 5.38734 15.6723 4.74961 14.7803C3.80542 13.4596 3.23775 12.0466 3.0624 10.5807C2.76743 8.11489 3.52481 5.75796 5.19511 3.94401C6.91785 2.07314 9.3984 1 12 1ZM15.7071 8.20711C16.0976 7.81658 16.0976 7.18342 15.7071 6.79289C15.3166 6.40237 14.6834 6.40237 14.2929 6.79289L11 10.0858L9.70711 8.79289C9.31658 8.40237 8.68342 8.40237 8.29289 8.79289C7.90237 9.18342 7.90237 9.81658 8.29289 10.2071L10.2929 12.2071C10.6834 12.5976 11.3166 12.5976 11.7071 12.2071L15.7071 8.20711Z" fill="#212B36"/>
</svg>
