<svg width="12" height="12" viewBox="0 0 12 12" fill="none" xmlns="http://www.w3.org/2000/svg">
<path d="M10.7141 1.28781C10.9558 1.52956 10.9731 1.91079 10.7659 2.17247L10.7141 2.23062L2.2288 10.7159C1.96845 10.9762 1.54634 10.9762 1.28599 10.7159C1.04424 10.4741 1.02697 10.0929 1.23419 9.83124L1.28599 9.77309L9.77127 1.28781C10.0316 1.02746 10.4537 1.02746 10.7141 1.28781Z" fill="#68390E"/>
<path d="M1.28586 1.28641C1.52761 1.04465 1.90884 1.02739 2.17052 1.2346L2.22867 1.28641L10.7139 9.77169C10.9743 10.032 10.9743 10.4541 10.7139 10.7145C10.4722 10.9563 10.091 10.9735 9.82929 10.7663L9.77114 10.7145L1.28586 2.22922C1.02551 1.96887 1.02551 1.54676 1.28586 1.28641Z" fill="#68390E"/>
</svg>
