<svg width="181" height="47" viewBox="0 0 181 47" fill="none" xmlns="http://www.w3.org/2000/svg">
<g clip-path="url(#clip0_17_10293)">
<path d="M12.5451 46.66V37.638H22.0091V35.896H18.4731C19.3051 32.074 19.3051 29.37 19.3051 26.926V24.794H3.5751V26.536H17.2511V26.926C17.2511 27.862 17.2511 28.798 17.1991 29.812L2.8991 30.358L3.1851 32.152L17.0691 31.476C16.9492 32.9652 16.7145 34.4429 16.3671 35.896H0.923096V37.638H10.4131V46.66H12.5451ZM42.9131 37.638V31.138H46.3711V29.37H42.9131V23.364H40.7811V37.638H42.9131ZM39.2471 35.09L39.0911 33.504C37.9607 33.668 36.8246 33.7894 35.6851 33.868V27.082H37.9991V25.366H25.5451V27.082H27.8331V34.18C27.1615 34.1957 26.4898 34.2041 25.8181 34.205L24.8951 34.206L25.1291 35.974C29.0811 35.974 34.5411 35.896 39.2471 35.09ZM29.9131 34.154V27.082H33.6311V33.998C32.3831 34.076 31.1351 34.128 29.9131 34.154ZM35.4771 46.634C40.2091 46.634 43.1471 45.074 43.1471 42.37C43.1471 39.666 40.2091 38.132 35.4771 38.132C30.7191 38.132 27.8071 39.666 27.8071 42.37C27.8071 45.074 30.7191 46.634 35.4771 46.634ZM35.4771 44.944C32.0191 44.944 29.9131 44.008 29.9131 42.37C29.9131 40.758 32.0191 39.822 35.4771 39.822C38.9611 39.822 41.0411 40.758 41.0411 42.37C41.0411 44.008 38.9611 44.944 35.4771 44.944ZM59.2671 33.426C64.2591 33.426 67.4571 31.71 67.4571 28.798C67.4571 25.886 64.2591 24.144 59.2671 24.144C54.2751 24.144 51.0771 25.886 51.0771 28.798C51.0771 31.71 54.2751 33.426 59.2671 33.426ZM59.2671 31.71C55.6011 31.71 53.2611 30.644 53.2611 28.798C53.2611 26.952 55.6011 25.86 59.2671 25.86C62.9331 25.86 65.2731 26.952 65.2731 28.798C65.2731 30.644 62.9331 31.71 59.2671 31.71ZM69.7971 37.326V35.61H48.7111V37.326H69.7971ZM67.4831 46.14V44.398H53.5731V39.38H51.4411V46.14H67.4831Z" fill="#222222"/>
<path d="M99.9831 44.346V41.538H90.8311V37.976H98.0851V35.22H84.2011V32.542H97.5391V24.56H80.7691V27.29H94.1591V29.864H80.7951V37.976H87.3991V41.538H78.2991V44.346H99.9831ZM122.785 39.016V23.026H119.535V39.016H122.785ZM103.675 38.652C107.367 37.014 109.707 34.96 111.085 32.36H114.595V36.884H117.793V23.416H114.595V29.63H112.177C112.541 28.174 112.723 26.588 112.723 24.846H103.311V27.576H109.317C109.26 28.1916 109.146 28.8008 108.979 29.396L102.323 29.734L102.765 32.464L107.809 31.892C106.665 33.608 104.845 35.038 102.037 36.208L103.675 38.652ZM122.525 46.894L123.825 44.216C118.651 43.514 116.155 40.758 116.155 38.158V37.742H112.723V38.158C112.723 40.758 110.227 43.514 105.027 44.216L106.353 46.894C110.175 46.322 112.957 44.632 114.439 42.344C115.895 44.632 118.677 46.322 122.525 46.894ZM146.679 46.946V23H143.429V32.152H141.427V23.39H138.229V45.906H141.427V34.908H143.429V46.946H146.679ZM136.253 41.304V25.132H133.107V30.54H130.039V25.132H126.815V41.304H136.253ZM133.107 38.574H130.039V33.218H133.107V38.574ZM169.273 32.932L170.521 30.254C165.113 29.604 162.591 26.952 162.591 24.17V23.468H159.081V24.17C159.081 26.874 156.507 29.604 151.151 30.254L152.399 32.932C156.403 32.334 159.315 30.644 160.823 28.304C162.331 30.67 165.243 32.334 169.273 32.932ZM171.691 37.17V34.44H162.565V31.502H159.133V34.44H150.059V37.17H171.691ZM160.823 46.972C166.023 46.972 169.143 45.464 169.143 42.734C169.143 40.004 166.023 38.47 160.823 38.47C155.623 38.47 152.529 40.004 152.529 42.734C152.529 45.464 155.623 46.972 160.823 46.972ZM160.823 44.424C157.599 44.424 155.987 43.904 155.987 42.734C155.987 41.538 157.599 41.044 160.823 41.044C164.047 41.044 165.659 41.538 165.659 42.734C165.659 43.904 164.047 44.424 160.823 44.424ZM178.919 38.184L179.465 28.59L179.595 24.976H175.747L175.877 28.59L176.423 38.184H178.919ZM177.671 45.1C179.023 45.1 180.063 44.008 180.063 42.604C180.063 41.2 179.023 40.108 177.671 40.108C176.319 40.108 175.305 41.2 175.305 42.604C175.305 44.008 176.319 45.1 177.671 45.1Z" fill="#2267FF"/>
<path d="M90.5001 5C91.8808 5 93.0001 3.88071 93.0001 2.5C93.0001 1.11929 91.8808 0 90.5001 0C89.1194 0 88.0001 1.11929 88.0001 2.5C88.0001 3.88071 89.1194 5 90.5001 5Z" fill="#2267FF"/>
<path d="M111.5 5C112.881 5 114 3.88071 114 2.5C114 1.11929 112.881 0 111.5 0C110.119 0 109 1.11929 109 2.5C109 3.88071 110.119 5 111.5 5Z" fill="#2267FF"/>
</g>
<defs>
<clipPath id="clip0_17_10293">
<rect width="179.14" height="46.972" fill="white" transform="translate(0.923096)"/>
</clipPath>
</defs>
</svg>
