<svg width="24" height="25" viewBox="0 0 24 25" fill="none" xmlns="http://www.w3.org/2000/svg">
    <path d="M9 12.5C9 10.8431 10.3431 9.5 12 9.5C13.6569 9.5 15 10.8431 15 12.5C15 14.1569 13.6569 15.5 12 15.5C10.3431 15.5 9 14.1569 9 12.5Z" fill="#2962FF"/>
    <path fill-rule="evenodd" clip-rule="evenodd" d="M16.1013 3.60135L15 2.5H9L7 4.5H4C2.89543 4.5 2 5.39543 2 6.5V19.5C2 20.6046 2.89543 21.5 4 21.5H20C21.1046 21.5 22 20.6046 22 19.5V7.96487C21.4117 8.30521 20.7286 8.5 20 8.5C17.7909 8.5 16 6.70914 16 4.5C16 4.19101 16.035 3.89021 16.1013 3.60135ZM17 12.5C17 9.73858 14.7614 7.5 12 7.5C9.23858 7.5 7 9.73858 7 12.5C7 15.2614 9.23858 17.5 12 17.5C14.7614 17.5 17 15.2614 17 12.5Z" fill="#2962FF"/>
    <path d="M20 7.5C19.7167 7.5 19.4792 7.40417 19.2875 7.2125C19.0958 7.02083 19 6.78333 19 6.5V5.5H18C17.7167 5.5 17.4792 5.40417 17.2875 5.2125C17.0958 5.02083 17 4.78333 17 4.5C17 4.21667 17.0958 3.97917 17.2875 3.7875C17.4792 3.59583 17.7167 3.5 18 3.5H19V2.5C19 2.21667 19.0958 1.97917 19.2875 1.7875C19.4792 1.59583 19.7167 1.5 20 1.5C20.2833 1.5 20.5208 1.59583 20.7125 1.7875C20.9042 1.97917 21 2.21667 21 2.5V3.5H22C22.2833 3.5 22.5208 3.59583 22.7125 3.7875C22.9042 3.97917 23 4.21667 23 4.5C23 4.78333 22.9042 5.02083 22.7125 5.2125C22.5208 5.40417 22.2833 5.5 22 5.5H21V6.5C21 6.78333 20.9042 7.02083 20.7125 7.2125C20.5208 7.40417 20.2833 7.5 20 7.5Z" fill="#2962FF"/>
</svg>
