<?xml version="1.0" encoding="UTF-8"?>
<svg width="17px" height="16px" viewBox="0 0 17 16" version="1.1" xmlns="http://www.w3.org/2000/svg" xmlns:xlink="http://www.w3.org/1999/xlink">
    <title>1CE244E2-3599-41C0-82A9-5D7083B0A6BD</title>
    <g id="[App,Web][FDA]-네트워크-오류-시-사용자-안내-가이드-변경" stroke="none" stroke-width="1" fill="none" fill-rule="evenodd">
        <g id="Error.list-Copy" transform="translate(-43.000000, -275.000000)" fill="#2267FF" fill-rule="nonzero">
            <g id="Card" transform="translate(12.000000, 161.000000)">
                <g id="Reason" transform="translate(16.000000, 74.000000)">
                    <g id="Component/Button/4.Text/3.Medium/3.Icon+Text_1.Normal" transform="translate(7.973770, 32.000000)">
                        <g id="Element/Icon/2.Outline/copy_number_new" transform="translate(7.894822, 8.000000)">
                            <g id="Outline" transform="translate(7.894822, 8.000000) scale(-1, 1) translate(-7.894822, -8.000000) translate(1.973706, 1.333333)">
                                <path d="M10.425214,0 C11.1587299,0 11.7667244,0.531487889 11.8357151,1.20540064 L11.8422334,1.33333333 L11.8422334,9.33333333 C11.8422334,10.0235294 11.2773869,10.5956171 10.5611764,10.6605333 L10.425214,10.6666667 L8.552,10.666 L8.55272412,12.6754315 C8.55272412,13.0387806 8.25817143,13.3333333 7.89482227,13.3333333 L2.63160742,13.3333333 L2.61646877,13.3193689 C2.52284459,13.2973665 2.43208677,13.2487863 2.35389796,13.1695558 L0.161624267,10.9480759 C0.0836079169,10.8690202 0.0357056212,10.7772841 0.0139249389,10.6826347 L0,10.6673349 L0,3.33333333 C0,3.23333333 0.0220206819,3.13829201 0.0613909921,3.05294265 C0.0752153212,3.02381539 0.0904200922,2.99643906 0.107404119,2.97032635 L0.161880434,2.896569 C0.262592307,2.77936389 0.402847492,2.69784623 0.561020741,2.67392938 L0.657901856,2.66666667 L2.62284261,2.66666667 L2.631,2.667 L2.63160742,1.33333333 C2.63160742,0.643137255 3.1964539,0.0710495963 3.91266447,0.00613338761 L4.0486268,0 L10.425214,0 Z M1.315,3.99966667 L1.315,9.99966667 L2.74144086,10 C3.04413069,10 3.28950928,10.2486476 3.28950928,10.55537 L3.289,11.9996667 L7.236,11.9996667 L7.236,10.666 L5.46564619,10.6666667 L5.4575505,10.6593961 C5.29627034,10.6859729 5.12179374,10.6409932 4.98550538,10.5028892 L2.79323169,8.28140921 C2.71466203,8.20179282 2.66663509,8.10931559 2.64507288,8.01395381 L2.63160742,8 L2.631,3.999 L2.62284261,4 L1.315,3.99966667 Z M10.5264297,1.33333333 L3.94741113,1.33333333 L3.94660742,7.333 L5.37304828,7.33333333 C5.67573811,7.33333333 5.9211167,7.58198095 5.9211167,7.88870333 L5.92060742,9.333 L10.5264297,9.33333333 L10.5264297,1.33333333 Z M8.54395931,5.33333333 C8.91214915,5.33333333 9.21062598,5.63181017 9.21062598,6 C9.21062598,6.36818983 8.91214915,6.66666667 8.54395931,6.66666667 L5.92988151,6.66666667 C5.56169168,6.66666667 5.26321485,6.36818983 5.26321485,6 C5.26321485,5.63181017 5.56169168,5.33333333 5.92988151,5.33333333 L8.54395931,5.33333333 Z M8.54395931,2.66666667 C8.91214915,2.66666667 9.21062598,2.9651435 9.21062598,3.33333333 C9.21062598,3.70152317 8.91214915,4 8.54395931,4 L5.92988151,4 C5.56169168,4 5.26321485,3.70152317 5.26321485,3.33333333 C5.26321485,2.9651435 5.56169168,2.66666667 5.92988151,2.66666667 L8.54395931,2.66666667 Z" id="Combined-Shape"></path>
                            </g>
                        </g>
                    </g>
                </g>
            </g>
        </g>
    </g>
</svg>