<svg xmlns="http://www.w3.org/2000/svg" width="154" height="154" viewBox="0 0 154 154">
    <g fill="none" fill-rule="evenodd">
        <path fill="#ECCE7B" d="M68 19l-.045 77.373 36.307 18.43V37.605z"/>
        <path fill="#E7CA79" d="M104.034 37.873v86.999l35.962-18.338V19.75z"/>
        <path fill="#F7DB83" d="M68 19l36.378 18.998L140 19.75 103.514 1.078 68 19z"/>
        <path fill="#F1DEB0" d="M82 26v13.769l7.347 3.77V29.6z"/>
        <path fill="#FFF1CF" d="M82 26.684l7.516 3.831 35.379-18.755-7.27-3.76L82 26.684z"/>
        <g>
            <path fill="#ECCE7B" d="M2 69l-.045 36.373 36.307 18.43V86.605z"/>
            <path fill="#E7CA79" d="M38.034 86.873v36.999l36.962-18.338V68.75z"/>
            <path fill="#F7DB83" d="M2 69l36.378 17.998 36.408-18.13-36.272-18.79L2 69z"/>
            <path fill="#F1DEB0" d="M16 75v13.769l7.347 3.77V78.6z"/>
            <path fill="#FFF1CF" d="M16 75.684l7.516 3.831L59.895 60.76 52.625 57 16 75.684z"/>
        </g>
        <g>
            <path fill="#ECCE7B" d="M54 96l-.045 36.373 36.307 18.43v-37.197z"/>
            <path fill="#E7CA79" d="M90.034 113.873v36.999l61.962-31.338V82.75z"/>
            <path fill="#F7DB83" d="M54 96l36.378 17.998L152 82.75l-36.486-18.672L54 96z"/>
            <path fill="#F1DEB0" d="M68 102v13.769l7.347 3.77V105.6z"/>
            <path fill="#FFF1CF" d="M68 102.684l7.516 3.831 61.379-31.755-7.27-3.76L68 102.684z"/>
        </g>
    </g>
</svg>
