<svg width="28" height="28" viewBox="0 0 28 28" xmlns="http://www.w3.org/2000/svg">
    <defs>
        <filter color-interpolation-filters="auto" id="a">
            <feColorMatrix in="SourceGraphic" values="0 0 0 0 1.000000 0 0 0 0 1.000000 0 0 0 0 1.000000 0 0 0 1.000000 0"/>
        </filter>
    </defs>
    <g transform="translate(-16 -16)" filter="url(#a)" fill="none" fill-rule="evenodd">
        <g transform="translate(16 16)" fill="#000">
            <path d="M17.667 5.833a1 1 0 0 1 1 1V20a1 1 0 0 1-1 1H1a1 1 0 0 1-1-1V6.833a1 1 0 0 1 1-1h16.667zm-10 9.334H4a.5.5 0 0 0-.5.5v.166a.5.5 0 0 0 .5.5h3.667a.5.5 0 0 0 .5-.5v-.166a.5.5 0 0 0-.5-.5zM10 12.833H4a.5.5 0 0 0-.5.5v.167a.5.5 0 0 0 .5.5h6a.5.5 0 0 0 .5-.5v-.167a.5.5 0 0 0-.5-.5zm0-2.333H4a.5.5 0 0 0-.5.5v.167a.5.5 0 0 0 .5.5h6a.5.5 0 0 0 .5-.5V11a.5.5 0 0 0-.5-.5zM20.833 5.833H27a1 1 0 0 1 1 1v2.5h-8.167v-2.5a1 1 0 0 1 1-1zM28 10.5v14.167a1 1 0 0 1-1 1h-6.167a1 1 0 0 1-1-1V10.5H28zm-2.833 12.833h-2.5a.5.5 0 0 0-.5.5V24a.5.5 0 0 0 .5.5h2.5a.5.5 0 0 0 .5-.5v-.167a.5.5 0 0 0-.5-.5z"/>
            <rect x="3.5" y="24.5" width="11.667" height="1.167" rx=".5"/>
            <path d="M7 22.167h4.667v3.5H7z"/>
        </g>
    </g>
</svg>
