<?xml version="1.0" encoding="UTF-8"?>
<svg width="16px" height="16px" viewBox="0 0 16 16" version="1.1" xmlns="http://www.w3.org/2000/svg" xmlns:xlink="http://www.w3.org/1999/xlink">
    <title>00C48B64-E730-48C5-9EEC-AE91C90672A4</title>
    <g id="[App,Web][FDA]-네트워크-오류-시-사용자-안내-가이드-변경" stroke="none" stroke-width="1" fill="none" fill-rule="evenodd">
        <g id="Error.list-Copy" transform="translate(-250.000000, -311.000000)" fill="#68390E" fill-rule="nonzero">
            <g id="Component/Tooltip/1.Yellow/1.Small/2.Bottom/3.Text+Icon" transform="translate(28.000000, 295.000000)">
                <g id="Element/Icon/2.Outline/Close" transform="translate(222.000000, 16.000000)">
                    <g id="Outline" transform="translate(3.333333, 3.333333)">
                        <path d="M4.66666667,-2 C5.00855723,-2 5.29033811,-1.74263987 5.32884818,-1.41108075 L5.33333333,-1.33333333 L5.33333333,10.6666667 C5.33333333,11.0348565 5.0348565,11.3333333 4.66666667,11.3333333 C4.32477611,11.3333333 4.04299523,11.0759732 4.00448515,10.7444141 L4,10.6666667 L4,-1.33333333 C4,-1.70152317 4.29847683,-2 4.66666667,-2 Z" id="Path" transform="translate(4.666667, 4.666667) rotate(-315.000000) translate(-4.666667, -4.666667) "></path>
                        <path d="M4.66666667,-2 C5.00855723,-2 5.29033811,-1.74263987 5.32884818,-1.41108075 L5.33333333,-1.33333333 L5.33333333,10.6666667 C5.33333333,11.0348565 5.0348565,11.3333333 4.66666667,11.3333333 C4.32477611,11.3333333 4.04299523,11.0759732 4.00448515,10.7444141 L4,10.6666667 L4,-1.33333333 C4,-1.70152317 4.29847683,-2 4.66666667,-2 Z" id="Path" transform="translate(4.666667, 4.666667) rotate(-405.000000) translate(-4.666667, -4.666667) "></path>
                    </g>
                </g>
            </g>
        </g>
    </g>
</svg>