<svg xmlns="http://www.w3.org/2000/svg" width="24" height="24" viewBox="0 0 24 24">
    <defs>
        <filter id="ztg8hndtwa">
            <feColorMatrix in="SourceGraphic" values="0 0 0 0 1.000000 0 0 0 0 1.000000 0 0 0 0 1.000000 0 0 0 1.000000 0"/>
        </filter>
    </defs>
    <g fill="none" fill-rule="evenodd">
        <g>
            <g>
                <g filter="url(#ztg8hndtwa)" transform="translate(-491 -163) translate(171 153) translate(224 10)">
                    <g>
                        <g fill="#000">
                            <path d="M10 0c5.523 0 10 4.477 10 10s-4.477 10-10 10S0 15.523 0 10 4.477 0 10 0zm0 2c-4.418 0-8 3.582-8 8s3.582 8 8 8 8-3.582 8-8-3.582-8-8-8zm.253 12.405c.69 0 1.25.581 1.25 1.298 0 .716-.56 1.297-1.25 1.297-.691 0-1.251-.58-1.251-1.297s.56-1.298 1.25-1.298zM10.52 4c.794.02 1.378.125 1.81.369C13.535 5.05 14 5.928 14 7.052c0 1.347-.655 2.356-1.981 2.979-.575.302-.834.656-.873 1.153l-.005.14v1.11c0 .572-.448 1.037-1.001 1.037-.513 0-.936-.4-.994-.917l-.007-.12v-1.11c0-1.386.7-2.473 2.014-3.164.664-.313.845-.592.845-1.108 0-.39-.088-.556-.625-.86-.046-.026-.165-.055-.343-.078l-.24-.024-.294-.014c-.974 0-1.378.36-1.503 1.32-.074.567-.578.966-1.126.889-.548-.077-.932-.6-.858-1.168C7.27 5.12 8.53 4 10.521 4z" transform="translate(96) translate(2 2)"/>
                        </g>
                    </g>
                </g>
            </g>
        </g>
    </g>
</svg>
