<svg width="28" height="28" viewBox="0 0 28 28" fill="none" xmlns="http://www.w3.org/2000/svg">
<circle cx="14" cy="14" r="13.5" fill="white" stroke="#DDDDDD"/>
<mask id="mask0_1045_301230" style="mask-type:alpha" maskUnits="userSpaceOnUse" x="5" y="5" width="18" height="18">
<rect x="5.25" y="5.25" width="17.5" height="17.5" fill="#D9D9D9"/>
</mask>
<g mask="url(#mask0_1045_301230)">
<path d="M10.3525 18.375C9.13726 18.375 8.10428 17.9497 7.25358 17.099C6.40289 16.2483 5.97754 15.2153 5.97754 14C5.97754 12.7847 6.40289 11.7517 7.25358 10.901C8.10428 10.0503 9.13726 9.625 10.3525 9.625C11.1546 9.625 11.8899 9.82552 12.5583 10.2266C13.2267 10.6276 13.7553 11.1562 14.1442 11.8125H22.0192V16.1875H20.5609V18.375H16.1859V16.1875H14.1442C13.7553 16.8438 13.2267 17.3724 12.5583 17.7734C11.8899 18.1745 11.1546 18.375 10.3525 18.375ZM10.3525 16.9167C11.1546 16.9167 11.7987 16.6707 12.2848 16.1788C12.7709 15.6863 13.0626 15.2031 13.1598 14.7292H17.6442V16.9167H19.1025V14.7292H20.5609V13.2708H13.1598C13.0626 12.7969 12.7709 12.3137 12.2848 11.8213C11.7987 11.3293 11.1546 11.0833 10.3525 11.0833C9.55046 11.0833 8.86382 11.3689 8.29264 11.9401C7.72146 12.5113 7.43587 13.1979 7.43587 14C7.43587 14.8021 7.72146 15.4887 8.29264 16.0599C8.86382 16.6311 9.55046 16.9167 10.3525 16.9167ZM10.3525 15.4583C10.7536 15.4583 11.0968 15.3154 11.3821 15.0296C11.668 14.7442 11.8109 14.401 11.8109 14C11.8109 13.599 11.668 13.2555 11.3821 12.9697C11.0968 12.6843 10.7536 12.5417 10.3525 12.5417C9.9515 12.5417 9.6083 12.6843 9.32296 12.9697C9.03712 13.2555 8.89421 13.599 8.89421 14C8.89421 14.401 9.03712 14.7442 9.32296 15.0296C9.6083 15.3154 9.9515 15.4583 10.3525 15.4583Z" fill="#263238"/>
</g>
</svg>
