<svg width="9" height="9" viewBox="0 0 9 9" fill="none" xmlns="http://www.w3.org/2000/svg">
<path fill-rule="evenodd" clip-rule="evenodd" d="M7.82965 0.183584C7.50969 -0.0600991 7.06797 -0.0604449 6.74664 0.178101L6.64432 0.266459L4.09246 2.81779L1.5406 0.266459C1.21662 -0.0575176 0.710788 -0.087175 0.35528 0.183584L0.2623 0.26488C-0.0902565 0.617436 -0.0851205 1.19418 0.263879 1.54318L2.81521 4.09504L0.263879 6.6469C-0.0560372 6.96682 -0.0870126 7.4781 0.181605 7.83265L0.2623 7.9252C0.58773 8.25063 1.09369 8.27509 1.44798 8.00468L1.5406 7.92362L4.09246 5.37229L6.64432 7.92362C6.99775 8.27705 7.56761 8.28022 7.92262 7.9252C8.27518 7.57265 8.27005 6.9959 7.92105 6.6469L5.36971 4.09504L7.92105 1.54318C8.24096 1.22326 8.27194 0.711979 8.00332 0.357428L7.92262 0.26488L7.82965 0.183584Z" fill="white"/>
</svg>
