<svg width="16" height="16" viewBox="0 0 16 16" fill="none" xmlns="http://www.w3.org/2000/svg">
<path d="M13.9999 1.33301C14.3418 1.33301 14.6236 1.59037 14.6621 1.92193L14.6666 1.99967V5.99967C14.6666 6.34157 14.4092 6.62335 14.0777 6.66186L13.9999 6.66634H9.99992C9.63173 6.66634 9.33325 6.36786 9.33325 5.99967C9.33325 5.65778 9.59061 5.376 9.92217 5.33749L9.99992 5.33301L12.8663 5.33303C11.9048 3.63428 10.0837 2.54513 8.06215 2.54513C5.02157 2.54513 2.55669 4.98721 2.55669 7.99967C2.55669 11.0121 5.02157 13.4542 8.06215 13.4542C10.6886 13.4542 12.935 11.6179 13.4555 9.10093C13.5233 8.77302 13.8466 8.56166 14.1775 8.62885C14.5085 8.69603 14.7218 9.01632 14.654 9.34422C14.0174 12.4225 11.2724 14.6663 8.06215 14.6663C4.34588 14.6663 1.33325 11.6816 1.33325 7.99967C1.33325 4.31778 4.34588 1.33301 8.06215 1.33301C10.1606 1.33301 12.0827 2.29359 13.334 3.85513L13.3333 1.99967C13.3333 1.65778 13.5906 1.376 13.9222 1.33749L13.9999 1.33301Z" fill="#2267FF"/>
</svg>
