<svg width="24" height="24" viewBox="0 0 24 24" fill="none" xmlns="http://www.w3.org/2000/svg">
<path fill-rule="evenodd" clip-rule="evenodd" d="M23 12C23 18.0751 18.0751 23 12 23C5.92487 23 1 18.0751 1 12C1 5.92487 5.92487 1 12 1C18.0751 1 23 5.92487 23 12ZM21 12C21 16.9706 16.9706 21 12 21C7.02944 21 3 16.9706 3 12C3 7.02944 7.02944 3 12 3C16.9706 3 21 7.02944 21 12ZM12.5212 6C13.3145 6.02033 13.8994 6.12505 14.3307 6.36899C15.5354 7.05023 16 7.92779 16 9.05233C16 10.3994 15.3451 11.4078 14.0189 12.0307C13.4445 12.3331 13.1853 12.6871 13.146 13.1844L13.1407 13.3237V14.4331C13.1407 15.0063 12.6927 15.471 12.14 15.471C11.6268 15.471 11.2038 15.0703 11.146 14.5541L11.1392 14.4331V13.3237C11.1392 11.9383 11.8384 10.8505 13.1526 10.1598C13.817 9.84729 13.9985 9.56781 13.9985 9.05233C13.9985 8.66243 13.9101 8.49557 13.3726 8.19156C13.327 8.16576 13.2084 8.13669 13.0304 8.1138L12.7893 8.08991L12.4965 8.07558C11.5222 8.07558 11.1176 8.43526 10.9926 9.39516C10.9186 9.96325 10.4147 10.3616 9.86694 10.2849C9.31921 10.2081 8.93515 9.68543 9.00912 9.11734C9.2693 7.11908 10.5285 5.99968 12.5212 6ZM13.5035 17.7026C13.5035 18.4191 12.9434 19 12.2526 19C11.5617 19 11.0016 18.4191 11.0016 17.7026C11.0016 16.986 11.5617 16.4051 12.2526 16.4051C12.9434 16.4051 13.5035 16.986 13.5035 17.7026Z" fill="white"/>
</svg>
