<svg width="24" height="24" viewBox="0 0 24 24" fill="none" xmlns="http://www.w3.org/2000/svg">
<path fill-rule="evenodd" clip-rule="evenodd" d="M15.6352 12.0564L15.4777 12.2768V18.5208C15.4777 18.8136 15.3307 19.084 15.0912 19.2439L14.9971 19.2985L9.78053 21.9071C9.20244 22.1962 8.52227 21.7757 8.52227 21.1294V12.2786L2.16348 3.37491C1.77202 2.82681 2.12648 2.07563 2.77201 2.00533L2.87096 2H12.8762C12.4684 2.52165 12.1385 3.10716 11.904 3.73903H4.56027L10.0992 11.494C10.1835 11.612 10.2365 11.7487 10.2544 11.8914L10.2611 11.9994V19.7216L13.7389 17.9826V11.9994C13.7389 11.8545 13.7751 11.7124 13.8435 11.5858L13.9008 11.494L14.1068 11.2056C14.572 11.554 15.0853 11.8416 15.6352 12.0564Z" fill="white"/>
<path fill-rule="evenodd" clip-rule="evenodd" d="M18 11C20.7614 11 23 8.76142 23 6C23 3.23858 20.7614 1 18 1C15.2386 1 13 3.23858 13 6C13 8.76142 15.2386 11 18 11Z" fill="#E7223C"/>
<path fill-rule="evenodd" clip-rule="evenodd" d="M21.0762 4.51987C21.3413 4.83807 21.2983 5.311 20.9801 5.57617L17.9801 8.07617C17.6821 8.3245 17.244 8.30462 16.9697 8.03033L15.4697 6.53033C15.1768 6.23744 15.1768 5.76257 15.4697 5.46967C15.7626 5.17678 16.2374 5.17678 16.5303 5.46967L17.546 6.48537L20.0199 4.42384C20.3381 4.15866 20.811 4.20166 21.0762 4.51987Z" fill="white"/>
</svg>
