<svg xmlns="http://www.w3.org/2000/svg" width="20" height="20" viewBox="0 0 20 20">
    <g fill="none" fill-rule="evenodd">
        <path fill="none" d="M0 20h20V0H0z"/>
        <path fill="#E7223D" d="M10 20C4.477 20 0 15.523 0 10S4.477 0 10 0s10 4.477 10 10-4.477 10-10 10zm.9-7.75L11.275 4h-2.55l.375 8.25h1.8zm-.828 1.5c-.335 0-.605.107-.812.32-.207.215-.31.484-.31.809 0 .324.103.592.31.804.207.211.477.317.812.317.339 0 .611-.106.818-.317.207-.212.31-.48.31-.804 0-.33-.103-.6-.31-.812-.207-.211-.48-.317-.818-.317z"/>
    </g>
</svg>
