<svg xmlns="http://www.w3.org/2000/svg" width="24" height="24" viewBox="0 0 24 24">
    <g fill="none" fill-rule="evenodd">
        <path d="M0 0H24V24H0z"/>
        <g fill="#2267FF" fill-rule="nonzero">
            <path d="M10 20C4.49 20 0 15.51 0 10S4.49 0 10 0s10 4.04 10 9c0 3.31-2.69 6-6 6h-1.77c-.28 0-.5.22-.5.5 0 .12.05.23.13.33.41.47.64 1.06.64 1.67 0 1.38-1.12 2.5-2.5 2.5zm0-18c-4.41 0-8 3.59-8 8s3.59 8 8 8c.28 0 .5-.22.5-.5 0-.16-.08-.28-.14-.35-.41-.46-.63-1.05-.63-1.65 0-1.38 1.12-2.5 2.5-2.5H14c2.21 0 4-1.79 4-4 0-3.86-3.59-7-8-7z" transform="translate(2 2)"/>
            <path d="M4.5 8C5.328 8 6 8.672 6 9.5S5.328 11 4.5 11 3 10.328 3 9.5 3.672 8 4.5 8zm11 0c.828 0 1.5.672 1.5 1.5s-.672 1.5-1.5 1.5-1.5-.672-1.5-1.5.672-1.5 1.5-1.5zm-8-4C8.328 4 9 4.672 9 5.5S8.328 7 7.5 7 6 6.328 6 5.5 6.672 4 7.5 4zm5 0c.828 0 1.5.672 1.5 1.5S13.328 7 12.5 7 11 6.328 11 5.5 11.672 4 12.5 4z" transform="translate(2 2)"/>
        </g>
    </g>
</svg>
