<svg width="52" height="52" xmlns="http://www.w3.org/2000/svg">
    <g fill="none" fill-rule="evenodd">
        <path d="M-234-462h5114v3395H-234z" fill="#242B35"/>
        <path fill="#FFF" d="M-154-28h360v640h-360z"/>
        <path d="M30.681 21.01s-17.04-1.974-20.333 1.35c-3.31 3.311-6.15 9.907-5.647 10.419.51.506.961.017 1.432-.47.464-.462 4.773-3.714 5.743-3.678.975.041 7.967 3.264 7.967 3.264s3.059 6.865 3.092 7.84c.04.975-3.266 5.224-3.743 5.696-.464.479-.927.97-.414 1.47.501.503 7.113-2.31 10.406-5.629 3.302-3.302 1.497-20.261 1.497-20.261" fill="#459DBF"/>
        <path d="M36.006 20.486a4.422 4.422 0 0 1-4.417-4.411 4.423 4.423 0 0 1 4.417-4.411 4.419 4.419 0 0 1 4.417 4.41 4.418 4.418 0 0 1-4.417 4.412M25.44 14.137c-7.173 7.172-11.723 14.875-14.298 20.519l6.253 6.24c5.648-2.575 13.416-7.158 20.6-14.32C50.04 14.556 51.186.93 51.186.93s-13.7 1.187-25.744 13.208" fill="#5ECCE5"/>
        <path d="M12.147 43.111c-1.358.715-4.175 2.084-4.88 1.36-.736-.713.64-3.527 1.353-4.885.237-.408.074-.692-.353-.548-.855.295-2.33.987-3.884 2.55-3.727 3.711-3.926 7.759-2.967 8.727.972.955 5.016.755 8.736-2.96 1.554-1.563 2.244-3.032 2.543-3.89.144-.422-.147-.583-.548-.354" fill="#F90"/>
        <path d="m10.705 40.702-.47-.47c-.448-.465 6.25-7.613 7.636-8.999 1.386-1.382 5.071-5.092 5.99-4.154.933.919-2.77 4.607-4.155 5.993-1.389 1.384-8.534 8.087-9.001 7.63" fill="#459DBF"/>
    </g>
</svg>
