<svg width="18" height="18" viewBox="0 0 18 18" fill="none" xmlns="http://www.w3.org/2000/svg">
<path fill-rule="evenodd" clip-rule="evenodd" d="M3.375 7.5V12H2.25C1.83579 12 1.5 12.3358 1.5 12.75C1.5 13.1642 1.83579 13.5 2.25 13.5L15.75 13.5C16.1642 13.5 16.5 13.1642 16.5 12.75C16.5 12.3358 16.1642 12 15.75 12H14.625V7.5C14.625 4.46098 12.0394 1.87354 8.99902 1.87354C5.9604 1.87354 3.375 4.46117 3.375 7.5ZM8.99902 3.37354C6.7896 3.37354 4.875 5.28883 4.875 7.5V12H13.125V7.5C13.125 5.28902 11.2106 3.37354 8.99902 3.37354Z" fill="#2267FF"/>
<path d="M6.75 14.25C6.33579 14.25 6 14.5858 6 15C6 15.4142 6.33579 15.75 6.75 15.75H11.25C11.6642 15.75 12 15.4142 12 15C12 14.5858 11.6642 14.25 11.25 14.25H6.75Z" fill="#2267FF"/>
</svg>
