<svg width="220" height="200" viewBox="0 0 220 200" fill="none" xmlns="http://www.w3.org/2000/svg">
<g clip-path="url(#clip0_791_166498)">
<path d="M168.05 99.0114C145.311 91.9536 120.977 91.8878 98.2003 98.8226L88.9832 68.5583C117.809 59.7665 148.611 59.8401 177.394 68.7697L168.05 99.0114Z" fill="#8EE0B1"/>
<path d="M146.416 78.5401C145.653 84.8781 139.73 89.3986 133.159 89.3949C126.589 89.3912 120.68 84.8126 119.957 78.4657C119.234 72.1188 125.153 66.2709 133.215 66.3033C141.278 66.3358 147.179 72.2154 146.416 78.5401Z" fill="#14AD6B"/>
<path d="M166.206 95.416C144.605 89.2509 121.719 89.183 100.081 95.2199L93.1404 70.374C119.367 63.0464 147.11 63.1196 173.297 70.5856L166.206 95.416Z" stroke="#14AD6B" stroke-width="1.81565" stroke-miterlimit="10"/>
<path d="M134.796 85.9707L134.611 86.0099L134.588 88.0371C134.225 88.0299 133.862 88.0228 133.499 88.0288C133.097 88.0367 132.709 87.8876 132.416 87.6134C132.123 87.3392 131.948 86.9614 131.929 86.5605L131.93 86.0189L131.725 85.9856C130.584 85.8339 129.527 85.2994 128.728 84.4693C127.929 83.6392 127.436 82.5627 127.328 81.4158L127.315 81.1913C127.963 81.1659 128.596 81.1536 129.257 81.1282C129.587 81.1105 129.916 81.1942 130.197 81.3681C130.479 81.5421 130.701 81.798 130.834 82.1015C131.031 82.5725 131.366 82.9732 131.794 83.2518C132.222 83.5303 132.724 83.6738 133.235 83.6637C133.541 83.6815 133.847 83.6389 134.137 83.5382C134.427 83.4375 134.693 83.2808 134.923 83.077C135.152 82.8732 135.338 82.6261 135.472 82.3501C135.605 82.0742 135.683 81.7747 135.701 81.4686C135.743 79.7782 134.08 79.1285 131.671 78.471C128.344 77.6337 127.575 75.6846 127.458 74.2449C127.369 72.0393 128.917 70.2323 131.553 69.6223L131.771 69.5766L131.754 67.6946L133.075 67.6967C133.509 67.6574 133.941 67.791 134.277 68.0685C134.612 68.346 134.825 68.7451 134.869 69.1786C134.868 69.3107 134.861 69.4492 134.868 69.5879L135.073 69.6346C137.548 70.1865 138.972 71.8528 138.929 74.0186L138.922 74.2365C138.314 74.2091 137.674 74.1619 137.073 74.1675C136.748 74.171 136.429 74.0842 136.151 73.9171C135.872 73.75 135.646 73.5089 135.496 73.2207C135.292 72.8155 134.979 72.4755 134.592 72.2392C134.205 72.0028 133.759 71.8795 133.306 71.8835C133.018 71.8616 132.729 71.8975 132.456 71.9888C132.182 72.0802 131.929 72.2254 131.712 72.4157C131.496 72.606 131.319 72.8376 131.193 73.0971C131.067 73.3566 130.994 73.6387 130.978 73.9268C131.002 75.4852 132.553 75.8905 134.837 76.5808C137.649 77.4964 139.158 79.2883 139.056 81.3682C138.933 82.4906 138.452 83.5438 137.685 84.3725C136.918 85.2012 135.906 85.7615 134.796 85.9707Z" fill="#8EE0B1"/>
<path d="M175.674 181.309C154.677 174.792 121.303 174.905 100.271 181.309L91.7593 153.362C118.377 145.244 138.192 145.117 164.771 153.362L175.674 181.309Z" fill="#8EE0B1"/>
<path d="M71.2413 140.146C54.4805 118.888 31.7214 103.155 5.91341 94.9835L16.7684 60.6894C49.4405 71.0162 78.2553 90.9232 99.4744 117.828L71.2413 140.146Z" fill="#8EE0B1"/>
<path d="M64.1547 107.032C59.3581 112.479 50.8961 112.9 44.7421 108.665C38.5881 104.43 35.9999 96.3337 39.4101 89.921C42.8203 83.5082 52.1328 81.8407 59.6666 87.0637C67.2004 92.2868 68.9427 101.596 64.1547 107.032Z" fill="#14AD6B"/>
<path d="M71.8296 135.59C55.5595 115.901 34.1588 101.098 9.99612 92.8193L19.4944 65.0683C48.7882 75.0933 74.7364 93.0295 94.466 116.891L71.8296 135.59Z" stroke="#14AD6B" stroke-width="1.81565" stroke-miterlimit="10"/>
<path d="M48.481 106.51L48.2825 106.428L46.9553 108.313C46.6196 108.072 46.284 107.831 45.9398 107.603C45.5587 107.352 45.2907 106.962 45.1927 106.516C45.0947 106.071 45.1744 105.604 45.415 105.217L45.7645 104.71L45.5943 104.547C44.6219 103.669 43.9761 102.488 43.7622 101.195C43.5484 99.9032 43.7793 98.5767 44.4171 97.4327L44.5497 97.2141C45.1725 97.6071 45.7744 98.0038 46.4095 98.4054C46.7307 98.6017 46.9843 98.8915 47.1363 99.236C47.2884 99.5804 47.3315 99.9632 47.2601 100.333C47.142 100.901 47.1974 101.492 47.4192 102.029C47.6409 102.566 48.0189 103.024 48.5039 103.343C48.7792 103.557 49.0939 103.714 49.43 103.807C49.7662 103.899 50.1173 103.924 50.4632 103.88C50.8091 103.837 51.1431 103.726 51.446 103.553C51.7489 103.38 52.0149 103.15 52.2287 102.875C53.357 101.318 52.2171 99.6381 50.3832 97.4704C47.8052 94.5434 48.3395 92.2215 49.1575 90.7974C50.4946 88.6733 53.1088 87.9771 55.9713 89.103L56.205 89.2006L57.4013 87.4263L58.6375 88.2788C59.0694 88.5215 59.388 88.9247 59.524 89.4011C59.66 89.8775 59.6025 90.3885 59.3638 90.8227C59.2786 90.9463 59.1829 91.0716 59.0996 91.2057L59.2614 91.3813C61.2253 93.4927 61.4862 95.9709 60.051 97.9726L59.9041 98.1722C59.3525 97.7554 58.7829 97.2987 58.2162 96.917C57.9098 96.7111 57.6664 96.4242 57.5132 96.0883C57.3601 95.7524 57.3031 95.3806 57.3485 95.0142C57.4186 94.5033 57.3442 93.9832 57.1337 93.5124C56.9232 93.0416 56.585 92.6391 56.1575 92.3507C55.9021 92.1449 55.6081 91.9924 55.2928 91.9017C54.9776 91.8111 54.6474 91.7844 54.3217 91.8231C53.9959 91.8619 53.6812 91.9651 53.396 92.1271C53.1107 92.289 52.8608 92.5064 52.6607 92.7663C51.6794 94.242 52.8718 95.6207 54.567 97.7383C56.6117 100.407 56.8721 103.058 55.4367 104.941C54.5986 105.914 53.4701 106.591 52.2177 106.874C50.9654 107.156 49.6554 107.029 48.481 106.51Z" fill="#8EE0B1"/>
<g style="mix-blend-mode:multiply" opacity="0.6">
<path d="M107.724 91.0587L106.374 87.4587L103.674 64.5087C123.251 57.1708 160.573 64.6293 161.274 64.5087C150.024 72.6087 130.224 84.3087 107.724 91.0587Z" fill="url(#paint0_linear_791_166498)" fill-opacity="0.8"/>
</g>
<ellipse cx="64.0903" cy="10.3238" rx="8.18491" ry="6.06466" transform="rotate(-49.7701 64.0903 10.3238)" fill="#FFDE82"/>
<ellipse cx="192.744" cy="111.42" rx="6.66123" ry="4.93568" transform="rotate(-49.7701 192.744 111.42)" fill="#FFDE82"/>
<ellipse cx="89.5267" cy="34.5468" rx="8.56147" ry="6.96856" transform="rotate(4.9522 89.5267 34.5468)" fill="#F8CD63"/>
<ellipse cx="52.6783" cy="148.159" rx="7.57467" ry="6.96855" transform="rotate(81.7072 52.6783 148.159)" fill="#FFDE82"/>
<ellipse cx="210.175" cy="95.1396" rx="8.56147" ry="6.96856" transform="rotate(4.9522 210.175 95.1396)" fill="#DD9711"/>
<ellipse cx="40.5977" cy="175.126" rx="6.82075" ry="6.82075" fill="#DD9711"/>
<ellipse cx="33.0947" cy="179.901" rx="6.82075" ry="6.82075" fill="#FFDE82"/>
<g style="mix-blend-mode:multiply">
<path d="M122.124 177.008C121.707 177.188 114.474 160.808 111.324 150.008L111.365 149.996C112.499 149.638 121.51 144.778 131.574 144.158C143.308 143.436 156.255 147.703 159.924 151.808C157.091 152.493 141.924 168.458 122.124 177.008Z" fill="url(#paint1_linear_791_166498)" fill-opacity="0.5"/>
</g>
<path d="M92.1823 55.634C117.727 46.6729 139.991 30.2463 156.09 8.48285L185.01 29.8726C164.646 57.4301 136.47 78.2318 104.139 89.579L92.1823 55.634Z" fill="#8EE0B1"/>
<path d="M125.805 59.6695C122.208 53.3655 124.554 45.2245 130.556 40.7764C136.558 36.3284 145.055 36.5056 150.016 41.8111C154.976 47.1166 153.533 56.4666 146.149 61.8994C138.766 67.3323 129.394 65.9614 125.805 59.6695Z" fill="#14AD6B"/>
<path d="M96.3012 57.6679C120.202 48.6621 141.146 33.2186 156.813 13.0466L179.984 31.0311C161.001 55.4908 135.619 74.2199 106.649 85.145L96.3012 57.6679Z" stroke="#14AD6B" stroke-width="1.81565" stroke-miterlimit="10"/>
<path d="M131.382 45.0117L131.524 44.8506L130.171 42.9839C130.508 42.7444 130.844 42.505 131.172 42.2534C131.533 41.9743 131.989 41.8472 132.442 41.899C132.895 41.9509 133.311 42.1775 133.6 42.5309L133.966 43.026L134.175 42.9177C135.321 42.2825 136.648 42.0547 137.939 42.2715C139.231 42.4883 140.411 43.1369 141.286 44.1112L141.45 44.3076C140.877 44.7692 140.306 45.2099 139.72 45.6805C139.43 45.9207 139.074 46.0666 138.699 46.0987C138.324 46.1308 137.948 46.0475 137.621 45.86C137.121 45.5639 136.544 45.4247 135.965 45.4604C135.385 45.4962 134.83 45.7052 134.37 46.0604C134.079 46.2515 133.828 46.4981 133.631 46.7862C133.435 47.0744 133.298 47.3983 133.227 47.7396C133.156 48.0809 133.152 48.4329 133.217 48.7754C133.282 49.1179 133.414 49.4443 133.605 49.7358C134.712 51.308 136.671 50.7745 139.316 49.7426C142.921 48.2532 144.944 49.5116 146.026 50.7472C147.601 52.7009 147.412 55.3996 145.419 57.7422L145.251 57.9317L146.541 59.6388L145.334 60.5316C144.964 60.8615 144.48 61.0321 143.985 61.0063C143.49 60.9805 143.025 60.7603 142.692 60.3937C142.603 60.273 142.515 60.1419 142.415 60.0196L142.197 60.1157C139.563 61.2888 137.134 60.7319 135.706 58.7251L135.564 58.5214C136.138 58.1348 136.754 57.7441 137.299 57.3318C137.593 57.1087 137.944 56.9715 138.311 56.9356C138.679 56.8996 139.049 56.9663 139.381 57.1281C139.841 57.36 140.357 57.4583 140.871 57.4119C141.385 57.3654 141.875 57.1761 142.286 56.8652C142.564 56.6903 142.804 56.4617 142.992 56.1928C143.179 55.924 143.312 55.6203 143.381 55.2997C143.45 54.979 143.454 54.6478 143.394 54.3254C143.333 54.0031 143.208 53.6961 143.027 53.4225C141.95 52.0158 140.259 52.6966 137.706 53.6135C134.518 54.6822 131.926 54.0687 130.61 52.1003C129.962 50.9921 129.687 49.7049 129.826 48.4286C129.965 47.1523 130.51 45.9545 131.382 45.0117Z" fill="#8EE0B1"/>
<path d="M112.465 146.279C132.795 137.938 150.15 123.684 162.283 105.363L186.629 121.483C171.283 144.681 149.319 162.731 123.588 173.292L112.465 146.279Z" fill="#8EE0B1"/>
<path d="M139.891 148.133C136.709 143.174 138.268 136.476 142.946 132.617C147.623 128.758 154.52 128.544 158.764 132.636C163.009 136.727 162.234 144.368 156.477 149.083C150.72 153.798 143.065 153.082 139.891 148.133Z" fill="#14AD6B"/>
<path d="M115.89 147.754C134.885 139.446 151.212 126.045 163.062 109.032L182.603 122.634C168.246 143.262 148.46 159.515 125.436 169.592L115.89 147.754Z" stroke="#14AD6B" stroke-width="1.81565" stroke-miterlimit="10"/>
<path d="M143.793 136.016L143.902 135.879L142.727 134.423C142.99 134.215 143.252 134.007 143.507 133.789C143.788 133.547 144.152 133.425 144.522 133.448C144.892 133.471 145.238 133.637 145.487 133.911L145.805 134.297L145.97 134.201C146.872 133.638 147.938 133.397 148.994 133.518C150.05 133.64 151.034 134.116 151.785 134.869L151.926 135.021C151.48 135.419 151.036 135.801 150.581 136.207C150.356 136.414 150.074 136.547 149.771 136.589C149.468 136.631 149.16 136.579 148.887 136.441C148.47 136.222 147.996 136.133 147.528 136.187C147.059 136.24 146.618 136.433 146.26 136.74C146.032 136.907 145.839 137.118 145.692 137.36C145.545 137.602 145.447 137.87 145.404 138.15C145.361 138.429 145.373 138.715 145.44 138.99C145.507 139.265 145.628 139.524 145.795 139.752C146.759 140.98 148.324 140.465 150.425 139.517C153.284 138.157 154.977 139.092 155.906 140.048C157.266 141.565 157.226 143.761 155.709 145.744L155.581 145.905L156.699 147.234L155.758 148.009C155.472 148.292 155.086 148.451 154.684 148.451C154.282 148.45 153.896 148.292 153.61 148.009C153.533 147.914 153.457 147.812 153.37 147.717L153.197 147.804C151.111 148.866 149.119 148.517 147.877 146.95L147.754 146.791C148.202 146.454 148.686 146.111 149.11 145.754C149.339 145.56 149.617 145.434 149.913 145.39C150.21 145.345 150.513 145.384 150.788 145.501C151.172 145.669 151.594 145.727 152.009 145.668C152.423 145.609 152.812 145.435 153.133 145.165C153.35 145.012 153.535 144.816 153.676 144.59C153.817 144.365 153.912 144.113 153.954 143.85C153.997 143.587 153.986 143.319 153.923 143.06C153.861 142.801 153.747 142.557 153.588 142.343C152.655 141.248 151.313 141.871 149.283 142.722C146.744 143.723 144.616 143.335 143.467 141.795C142.895 140.924 142.618 139.892 142.676 138.851C142.735 137.811 143.127 136.817 143.793 136.016Z" fill="#8EE0B1"/>
</g>
<defs>
<linearGradient id="paint0_linear_791_166498" x1="126.59" y1="69.0189" x2="127.75" y2="92.3901" gradientUnits="userSpaceOnUse">
<stop/>
<stop offset="1" stop-color="#292929"/>
</linearGradient>
<linearGradient id="paint1_linear_791_166498" x1="126.243" y1="160.726" x2="127.816" y2="174.28" gradientUnits="userSpaceOnUse">
<stop/>
<stop offset="1" stop-color="#383838"/>
</linearGradient>
<clipPath id="clip0_791_166498">
<rect width="220" height="200" fill="white"/>
</clipPath>
</defs>
</svg>
