<svg xmlns="http://www.w3.org/2000/svg" width="14" height="14" viewBox="0 0 14 14">
    <defs>
        <filter id="6szeei7xta">
            <feColorMatrix in="SourceGraphic" values="0 0 0 0 0.400000 0 0 0 0 0.400000 0 0 0 0 0.400000 0 0 0 1.000000 0"/>
        </filter>
    </defs>
    <g fill="none" fill-rule="evenodd">
        <g>
            <g>
                <g filter="url(#6szeei7xta)" transform="translate(-27 -43) translate(0 24) translate(16 8)">
                    <g>
                        <g fill="#000" fill-rule="nonzero">
                            <path d="M5.25-.583C2.028-.583-.583 2.028-.583 5.25s2.611 5.833 5.833 5.833 5.833-2.611 5.833-5.833S8.472-.583 5.25-.583zm0 1.166c2.577 0 4.667 2.09 4.667 4.667S7.827 9.917 5.25 9.917.583 7.827.583 5.25 2.673.583 5.25.583z" transform="translate(11 11) translate(1.167 1.167)"/>
                            <path d="M10.208 8.167c.3 0 .546.225.58.515l.004.068v2.917c0 .322-.262.583-.584.583-.299 0-.545-.225-.58-.515l-.003-.068V8.75c0-.322.261-.583.583-.583z" transform="translate(11 11) translate(1.167 1.167) rotate(-45 10.208 10.208)"/>
                        </g>
                    </g>
                </g>
            </g>
        </g>
    </g>
</svg>
