<?xml version="1.0" encoding="UTF-8"?>
<svg xmlns="http://www.w3.org/2000/svg" xmlns:xlink="http://www.w3.org/1999/xlink" width="20" height="20" viewBox="0 0 20 20" version="1.1">
<defs>
<clipPath id="clip1">
  <path d="M 2 3 L 17 3 L 17 18 L 2 18 Z M 2 3 "/>
</clipPath>
<clipPath id="clip2">
  <path d="M 9.5 18 C 5.359375 18 2 14.640625 2 10.5 C 2 6.359375 5.359375 3 9.5 3 C 13.640625 3 17 6.359375 17 10.5 C 17 14.640625 13.640625 18 9.5 18 Z M 9.5 16.5 C 12.8125 16.5 15.5 13.8125 15.5 10.5 C 15.5 7.1875 12.8125 4.5 9.5 4.5 C 6.1875 4.5 3.5 7.1875 3.5 10.5 C 3.5 13.8125 6.1875 16.5 9.5 16.5 Z M 8.699219 7 L 10.199219 7 L 10.199219 8 L 8.699219 8 Z M 8.699219 9 L 10.199219 9 L 10.199219 14 L 8.699219 14 Z M 8.699219 9 "/>
</clipPath>
</defs>
<g id="surface1">
<g clip-path="url(#clip1)" clip-rule="nonzero">
<g clip-path="url(#clip2)" clip-rule="evenodd">
<rect x="0" y="0" width="20" height="20" style="fill:rgb(20.391846%,41.567993%,100%);fill-opacity:1;stroke:none;"/>
</g>
</g>
</g>
</svg>
