<svg width="446" height="89" viewBox="0 0 446 89" fill="none" xmlns="http://www.w3.org/2000/svg">
<rect x="1" y="1" width="444" height="87" rx="43.5" stroke="#2267FF" stroke-width="2"/>
<path d="M71.7502 55.319V27.193H89.0112V31.17H76.7932V39.575H86.3052V43.47H76.7932V55.319H71.7502ZM102.294 55.688C95.8569 55.688 92.2899 51.793 92.2899 45.192V44.536C92.2899 37.771 96.3899 33.835 102.335 33.835C108.649 33.835 112.298 37.689 112.298 44.413V44.987C112.298 51.793 108.198 55.688 102.294 55.688ZM102.376 52.121C105.533 52.121 107.378 49.948 107.378 45.397V44.372C107.378 38.878 105.123 37.402 102.253 37.402C99.0139 37.402 97.1279 39.657 97.1279 44.208V45.192C97.1279 50.645 99.4239 52.121 102.376 52.121ZM116.662 55.319V34.204H121.213V36.664H121.377C122.525 35.147 124.698 34.04 126.912 34.04C127.486 34.04 128.019 34.081 128.224 34.163V38.345C127.691 38.263 126.994 38.222 126.502 38.222C124.616 38.222 122.73 38.755 121.377 39.616V55.319H116.662ZM143.42 55.319V27.193H160.681V31.17H148.463V39.575H157.975V43.47H148.463V55.319H143.42ZM165.231 55.319V25.348H169.987V55.319H165.231ZM184.945 55.688C177.934 55.688 174.49 51.711 174.49 45.028V44.454C174.49 37.361 178.795 33.876 184.166 33.876C190.398 33.876 193.104 37.361 193.104 44.085V46.053H179.328C179.615 50.44 181.87 51.998 185.888 51.998C188.594 51.998 190.562 51.383 192.407 50.44V53.72C190.972 54.663 188.512 55.688 184.945 55.688ZM184.084 37.361C181.911 37.361 179.656 38.509 179.328 42.814H188.307C188.307 38.837 186.831 37.361 184.084 37.361ZM194.892 55.319L201.78 44.495L195.261 34.204H200.714L205.183 41.502L209.242 34.204H214.121L207.889 44.454L214.695 55.319H209.16L204.527 47.652L199.812 55.319H194.892ZM229.624 55.319V27.193H238.849C247.459 27.193 252.297 31.334 252.297 40.518V41.338C252.297 50.358 247.91 55.319 238.89 55.319H229.624ZM234.667 51.342H238.931C244.425 51.342 246.967 48.636 246.967 41.83V40.477C246.967 33.384 243.892 31.17 238.562 31.17H234.667V51.342ZM266.224 55.688C259.213 55.688 255.769 51.711 255.769 45.028V44.454C255.769 37.361 260.074 33.876 265.445 33.876C271.677 33.876 274.383 37.361 274.383 44.085V46.053H260.607C260.894 50.44 263.149 51.998 267.167 51.998C269.873 51.998 271.841 51.383 273.686 50.44V53.72C272.251 54.663 269.791 55.688 266.224 55.688ZM265.363 37.361C263.19 37.361 260.935 38.509 260.607 42.814H269.586C269.586 38.837 268.11 37.361 265.363 37.361ZM278.822 55.319V25.348H283.578V55.319H278.822ZM289.352 55.319V34.204H294.108V55.319H289.352ZM289.352 30.719V26.414H294.149V30.719H289.352ZM305.54 55.319L297.873 34.204H302.916L308.041 49.62H308.246L313.412 34.204H317.963L310.337 55.319H305.54ZM330.887 55.688C323.876 55.688 320.432 51.711 320.432 45.028V44.454C320.432 37.361 324.737 33.876 330.108 33.876C336.34 33.876 339.046 37.361 339.046 44.085V46.053H325.27C325.557 50.44 327.812 51.998 331.83 51.998C334.536 51.998 336.504 51.383 338.349 50.44V53.72C336.914 54.663 334.454 55.688 330.887 55.688ZM330.026 37.361C327.853 37.361 325.598 38.509 325.27 42.814H334.249C334.249 38.837 332.773 37.361 330.026 37.361ZM343.403 55.319V34.204H347.954V36.664H348.118C349.266 35.147 351.439 34.04 353.653 34.04C354.227 34.04 354.76 34.081 354.965 34.163V38.345C354.432 38.263 353.735 38.222 353.243 38.222C351.357 38.222 349.471 38.755 348.118 39.616V55.319H343.403ZM361.277 61.387C360.211 61.387 358.817 61.1 358.202 60.69V57.533C358.735 57.656 359.514 57.738 360.252 57.738C362.179 57.738 363.45 57.246 364.188 55.237L364.762 53.761L356.808 34.204H361.81L367.14 47.898H367.304L372.224 34.204H376.775L368.616 55.893C367.222 59.911 365.172 61.387 361.277 61.387Z" fill="#2267FF"/>
</svg>
