<svg width="44" height="19" viewBox="0 0 44 19" fill="none" xmlns="http://www.w3.org/2000/svg">
<rect x="1" y="1" width="42" height="17" rx="8.5" stroke="#E7223C"/>
<path d="M9.63 12.67C7.892 12.67 6.902 11.812 6.902 9.975V5.146H7.782V9.931C7.782 11.493 8.442 11.977 9.663 11.977C10.884 11.977 11.478 11.504 11.478 9.92V5.146H12.292V9.964C12.292 11.845 11.39 12.67 9.63 12.67ZM13.9895 12.538V7.082H14.7925V7.698H14.8475C15.1555 7.346 15.7495 7.027 16.3655 7.027C16.4865 7.027 16.6405 7.038 16.6955 7.049V7.808C16.5525 7.786 16.3875 7.775 16.2995 7.775C15.7495 7.775 15.2215 7.973 14.8365 8.248V12.538H13.9895ZM19.6953 14.155C18.0343 14.155 17.2533 13.671 17.2533 12.879C17.2533 12.296 17.7263 11.955 18.2873 11.768V11.713C17.9793 11.625 17.7373 11.394 17.7373 11.031C17.7373 10.69 17.9353 10.437 18.3533 10.129C17.9353 9.854 17.6713 9.414 17.6713 8.765V8.743C17.6713 7.61 18.5293 6.983 19.7283 6.983C20.0033 6.983 20.2563 7.016 20.4983 7.071H22.3463V7.72H21.3673C21.6203 7.962 21.7633 8.292 21.7633 8.721V8.732C21.7633 9.898 20.8613 10.481 19.7173 10.481C19.3763 10.481 19.0683 10.426 18.7823 10.327C18.6393 10.459 18.5293 10.591 18.5293 10.767C18.5293 11.064 18.7053 11.174 19.0683 11.174H20.5753C21.5653 11.174 22.3023 11.471 22.3023 12.483C22.3023 13.418 21.5543 14.155 19.6953 14.155ZM19.6733 13.495C20.9603 13.495 21.4223 13.165 21.4223 12.593C21.4223 12.087 21.1583 11.922 20.4433 11.922H18.8703C18.4523 12.065 18.1333 12.307 18.1333 12.769C18.1333 13.253 18.5953 13.495 19.6733 13.495ZM19.7173 9.821C20.4763 9.821 20.9163 9.469 20.9163 8.765V8.71C20.9163 7.962 20.4543 7.621 19.7173 7.621C18.9693 7.621 18.5073 8.017 18.5073 8.699V8.754C18.5073 9.469 18.9913 9.821 19.7173 9.821ZM25.6007 12.637C23.8847 12.637 23.0157 11.592 23.0157 9.887V9.733C23.0157 7.83 24.1377 6.983 25.3917 6.983C26.8877 6.983 27.5917 7.852 27.5917 9.546V10.019H23.8737C23.9177 11.383 24.5667 11.911 25.7327 11.911C26.4587 11.911 26.9427 11.735 27.4377 11.504V12.131C27.1077 12.362 26.4807 12.637 25.6007 12.637ZM25.3697 7.665C24.6877 7.665 23.9617 8.061 23.8737 9.348H26.7117C26.7117 8.16 26.2607 7.665 25.3697 7.665ZM28.8567 12.538V7.082H29.6597V7.555H29.7037C30.2097 7.225 30.9137 6.983 31.5847 6.983C32.6517 6.983 33.1687 7.412 33.1687 8.468V12.538H32.3327V8.644C32.3327 7.984 32.1017 7.709 31.2327 7.709C30.7157 7.709 30.1437 7.896 29.6927 8.105V12.538H28.8567ZM36.4812 12.604C35.6232 12.604 35.0622 12.23 35.0622 11.306V7.786H34.2812V7.093H35.0622V5.795H35.8982V7.093H37.2952V7.786H35.8982V11.174C35.8982 11.702 36.0742 11.911 36.7012 11.911C36.9322 11.911 37.1852 11.878 37.4052 11.812V12.384C37.1852 12.483 36.9542 12.604 36.4812 12.604Z" fill="#E7223C"/>
</svg>
