<svg width="189" height="70" viewBox="0 0 189 70" fill="none" xmlns="http://www.w3.org/2000/svg">
<path d="M8.10982 9.436C9.65249 9.436 10.9178 9.63533 11.9058 10.034C12.9112 10.4153 13.6565 10.996 14.1418 11.776C14.6272 12.556 14.8698 13.5353 14.8698 14.714C14.8698 15.702 14.6878 16.5253 14.3238 17.184C13.9598 17.8427 13.4918 18.3713 12.9198 18.77C12.3652 19.1513 11.7758 19.4547 11.1518 19.68L16.2478 28H13.5178L9.01982 20.33H5.32782V28H2.98782V9.436H8.10982ZM7.97982 11.464H5.32782V18.354H8.10982C9.11515 18.354 9.93849 18.224 10.5798 17.964C11.2212 17.6867 11.6892 17.288 11.9838 16.768C12.2958 16.248 12.4518 15.598 12.4518 14.818C12.4518 14.0033 12.2872 13.3533 11.9578 12.868C11.6458 12.3827 11.1605 12.0273 10.5018 11.802C9.84315 11.5767 9.00249 11.464 7.97982 11.464ZM30.9656 21.006C30.9656 22.1673 30.8096 23.1987 30.4976 24.1C30.203 24.984 29.7696 25.738 29.1976 26.362C28.643 26.986 27.9583 27.4627 27.1436 27.792C26.3463 28.104 25.4536 28.26 24.4656 28.26C23.547 28.26 22.6976 28.104 21.9176 27.792C21.1376 27.4627 20.4616 26.986 19.8896 26.362C19.3176 25.738 18.867 24.984 18.5376 24.1C18.2256 23.1987 18.0696 22.1673 18.0696 21.006C18.0696 19.4633 18.3296 18.1633 18.8496 17.106C19.3696 16.0313 20.115 15.2167 21.0856 14.662C22.0563 14.09 23.209 13.804 24.5436 13.804C25.809 13.804 26.9183 14.09 27.8716 14.662C28.8423 15.2167 29.5963 16.0313 30.1336 17.106C30.6883 18.1633 30.9656 19.4633 30.9656 21.006ZM20.4356 21.006C20.4356 22.098 20.5743 23.0513 20.8516 23.866C21.1463 24.6633 21.597 25.2787 22.2036 25.712C22.8103 26.1453 23.5816 26.362 24.5176 26.362C25.4536 26.362 26.225 26.1453 26.8316 25.712C27.4383 25.2787 27.8803 24.6633 28.1576 23.866C28.4523 23.0513 28.5996 22.098 28.5996 21.006C28.5996 19.8967 28.4523 18.952 28.1576 18.172C27.863 17.392 27.4123 16.794 26.8056 16.378C26.2163 15.9447 25.445 15.728 24.4916 15.728C23.0703 15.728 22.039 16.196 21.3976 17.132C20.7563 18.068 20.4356 19.3593 20.4356 21.006ZM40.1818 28.26C38.9512 28.26 37.8505 28.0087 36.8798 27.506C35.9265 27.0033 35.1725 26.2233 34.6178 25.166C34.0805 24.1087 33.8118 22.7567 33.8118 21.11C33.8118 19.394 34.0978 17.9987 34.6698 16.924C35.2418 15.8493 36.0132 15.0607 36.9838 14.558C37.9718 14.0553 39.0898 13.804 40.3378 13.804C41.0485 13.804 41.7332 13.882 42.3918 14.038C43.0505 14.1767 43.5878 14.35 44.0038 14.558L43.3018 16.456C42.8858 16.3 42.4005 16.1527 41.8458 16.014C41.2912 15.8753 40.7712 15.806 40.2858 15.806C39.3498 15.806 38.5785 16.0053 37.9718 16.404C37.3652 16.8027 36.9145 17.392 36.6198 18.172C36.3252 18.952 36.1778 19.9227 36.1778 21.084C36.1778 22.1933 36.3252 23.138 36.6198 23.918C36.9145 24.698 37.3565 25.2873 37.9458 25.686C38.5352 26.0847 39.2718 26.284 40.1558 26.284C40.9185 26.284 41.5858 26.206 42.1578 26.05C42.7472 25.894 43.2845 25.7033 43.7698 25.478V27.506C43.3018 27.7487 42.7818 27.9307 42.2098 28.052C41.6552 28.1907 40.9792 28.26 40.1818 28.26ZM49.346 18.562C49.346 18.8393 49.3287 19.2033 49.294 19.654C49.2767 20.1047 49.2594 20.4947 49.242 20.824H49.346C49.45 20.6853 49.606 20.486 49.814 20.226C50.022 19.966 50.23 19.706 50.438 19.446C50.6634 19.1687 50.854 18.9433 51.01 18.77L55.456 14.064H58.134L52.492 20.018L58.524 28H55.768L50.932 21.5L49.346 22.878V28H47.084V8.24H49.346V18.562ZM66.3547 13.804C67.5507 13.804 68.5734 14.064 69.4227 14.584C70.2894 15.104 70.948 15.8407 71.3987 16.794C71.8667 17.73 72.1007 18.8307 72.1007 20.096V21.474H62.5587C62.5934 23.0513 62.992 24.256 63.7547 25.088C64.5347 25.9027 65.618 26.31 67.0047 26.31C67.8887 26.31 68.6687 26.232 69.3447 26.076C70.038 25.9027 70.7487 25.66 71.4767 25.348V27.35C70.766 27.662 70.064 27.8873 69.3707 28.026C68.6774 28.182 67.854 28.26 66.9007 28.26C65.5834 28.26 64.4134 27.9913 63.3907 27.454C62.3854 26.9167 61.5967 26.1193 61.0247 25.062C60.47 23.9873 60.1927 22.6787 60.1927 21.136C60.1927 19.6107 60.444 18.302 60.9467 17.21C61.4667 16.118 62.186 15.2773 63.1047 14.688C64.0407 14.0987 65.124 13.804 66.3547 13.804ZM66.3287 15.676C65.2367 15.676 64.37 16.0313 63.7287 16.742C63.1047 17.4353 62.732 18.406 62.6107 19.654H69.7087C69.7087 18.8567 69.5874 18.1633 69.3447 17.574C69.102 16.9847 68.7294 16.5253 68.2267 16.196C67.7414 15.8493 67.1087 15.676 66.3287 15.676ZM80.3025 26.388C80.6491 26.388 81.0045 26.362 81.3685 26.31C81.7325 26.2407 82.0271 26.1713 82.2525 26.102V27.844C82.0098 27.9653 81.6631 28.0607 81.2125 28.13C80.7618 28.2167 80.3285 28.26 79.9125 28.26C79.1845 28.26 78.5085 28.1387 77.8845 27.896C77.2778 27.636 76.7838 27.194 76.4025 26.57C76.0211 25.946 75.8305 25.0707 75.8305 23.944V15.832H73.8545V14.74L75.8565 13.83L76.7665 10.866H78.1185V14.064H82.1485V15.832H78.1185V23.892C78.1185 24.7413 78.3178 25.374 78.7165 25.79C79.1325 26.1887 79.6611 26.388 80.3025 26.388ZM106.981 18.536C106.981 20.616 106.591 22.358 105.811 23.762C105.048 25.166 103.948 26.2233 102.509 26.934C101.07 27.6447 99.3282 28 97.2829 28H92.1089V9.436H97.8289C99.7009 9.436 101.322 9.78267 102.691 10.476C104.06 11.1693 105.118 12.192 105.863 13.544C106.608 14.8787 106.981 16.5427 106.981 18.536ZM104.511 18.614C104.511 16.9673 104.234 15.6153 103.679 14.558C103.142 13.5007 102.344 12.7207 101.287 12.218C100.247 11.698 98.9816 11.438 97.4909 11.438H94.4489V25.998H96.9709C99.4842 25.998 101.365 25.3827 102.613 24.152C103.878 22.904 104.511 21.058 104.511 18.614ZM116.171 13.804C117.367 13.804 118.39 14.064 119.239 14.584C120.106 15.104 120.764 15.8407 121.215 16.794C121.683 17.73 121.917 18.8307 121.917 20.096V21.474H112.375C112.41 23.0513 112.808 24.256 113.571 25.088C114.351 25.9027 115.434 26.31 116.821 26.31C117.705 26.31 118.485 26.232 119.161 26.076C119.854 25.9027 120.565 25.66 121.293 25.348V27.35C120.582 27.662 119.88 27.8873 119.187 28.026C118.494 28.182 117.67 28.26 116.717 28.26C115.4 28.26 114.23 27.9913 113.207 27.454C112.202 26.9167 111.413 26.1193 110.841 25.062C110.286 23.9873 110.009 22.6787 110.009 21.136C110.009 19.6107 110.26 18.302 110.763 17.21C111.283 16.118 112.002 15.2773 112.921 14.688C113.857 14.0987 114.94 13.804 116.171 13.804ZM116.145 15.676C115.053 15.676 114.186 16.0313 113.545 16.742C112.921 17.4353 112.548 18.406 112.427 19.654H119.525C119.525 18.8567 119.404 18.1633 119.161 17.574C118.918 16.9847 118.546 16.5253 118.043 16.196C117.558 15.8493 116.925 15.676 116.145 15.676ZM127.753 28H125.465V8.24H127.753V28ZM134.456 14.064V28H132.168V14.064H134.456ZM133.338 8.838C133.685 8.838 133.988 8.95933 134.248 9.202C134.525 9.42733 134.664 9.79133 134.664 10.294C134.664 10.7793 134.525 11.1433 134.248 11.386C133.988 11.6287 133.685 11.75 133.338 11.75C132.957 11.75 132.636 11.6287 132.376 11.386C132.116 11.1433 131.986 10.7793 131.986 10.294C131.986 9.79133 132.116 9.42733 132.376 9.202C132.636 8.95933 132.957 8.838 133.338 8.838ZM141.939 28L136.661 14.064H139.105L142.069 22.28C142.208 22.6613 142.355 23.086 142.511 23.554C142.667 24.022 142.806 24.4727 142.927 24.906C143.048 25.322 143.135 25.6773 143.187 25.972H143.291C143.36 25.6773 143.456 25.3133 143.577 24.88C143.716 24.4467 143.863 23.996 144.019 23.528C144.192 23.06 144.34 22.644 144.461 22.28L147.425 14.064H149.869L144.565 28H141.939ZM157.456 13.804C158.652 13.804 159.675 14.064 160.524 14.584C161.391 15.104 162.05 15.8407 162.5 16.794C162.968 17.73 163.202 18.8307 163.202 20.096V21.474H153.66C153.695 23.0513 154.094 24.256 154.856 25.088C155.636 25.9027 156.72 26.31 158.106 26.31C158.99 26.31 159.77 26.232 160.446 26.076C161.14 25.9027 161.85 25.66 162.578 25.348V27.35C161.868 27.662 161.166 27.8873 160.472 28.026C159.779 28.182 158.956 28.26 158.002 28.26C156.685 28.26 155.515 27.9913 154.492 27.454C153.487 26.9167 152.698 26.1193 152.126 25.062C151.572 23.9873 151.294 22.6787 151.294 21.136C151.294 19.6107 151.546 18.302 152.048 17.21C152.568 16.118 153.288 15.2773 154.206 14.688C155.142 14.0987 156.226 13.804 157.456 13.804ZM157.43 15.676C156.338 15.676 155.472 16.0313 154.83 16.742C154.206 17.4353 153.834 18.406 153.712 19.654H160.81C160.81 18.8567 160.689 18.1633 160.446 17.574C160.204 16.9847 159.831 16.5253 159.328 16.196C158.843 15.8493 158.21 15.676 157.43 15.676ZM173.25 13.804C173.51 13.804 173.787 13.8213 174.082 13.856C174.394 13.8733 174.663 13.908 174.888 13.96L174.602 16.066C174.377 16.014 174.125 15.9707 173.848 15.936C173.588 15.9013 173.337 15.884 173.094 15.884C172.557 15.884 172.045 15.9967 171.56 16.222C171.075 16.4473 170.641 16.768 170.26 17.184C169.879 17.5827 169.575 18.068 169.35 18.64C169.142 19.212 169.038 19.8533 169.038 20.564V28H166.75V14.064H168.622L168.882 16.612H168.986C169.281 16.092 169.636 15.624 170.052 15.208C170.468 14.7747 170.945 14.4367 171.482 14.194C172.019 13.934 172.609 13.804 173.25 13.804ZM175.306 14.064H177.75L180.766 21.994C180.94 22.462 181.096 22.9127 181.234 23.346C181.39 23.7793 181.529 24.204 181.65 24.62C181.772 25.0187 181.867 25.4087 181.936 25.79H182.04C182.144 25.3567 182.309 24.7933 182.534 24.1C182.76 23.3893 182.994 22.6787 183.236 21.968L186.07 14.064H188.54L182.534 29.924C182.205 30.7907 181.815 31.5447 181.364 32.186C180.931 32.8447 180.394 33.3473 179.752 33.694C179.128 34.058 178.366 34.24 177.464 34.24C177.048 34.24 176.684 34.214 176.372 34.162C176.06 34.1273 175.792 34.084 175.566 34.032V32.212C175.757 32.2467 175.982 32.2813 176.242 32.316C176.52 32.3507 176.806 32.368 177.1 32.368C177.638 32.368 178.097 32.264 178.478 32.056C178.877 31.8653 179.215 31.5793 179.492 31.198C179.77 30.834 180.004 30.4007 180.194 29.898L180.922 28.052L175.306 14.064ZM20.5839 55.122C20.4799 54.758 20.3759 54.4027 20.2719 54.056C20.1679 53.692 20.0726 53.354 19.9859 53.042C19.9166 52.7127 19.8473 52.4093 19.7779 52.132C19.7086 51.8547 19.6566 51.6207 19.6219 51.43H19.5179C19.4833 51.6207 19.4313 51.8547 19.3619 52.132C19.3099 52.4093 19.2406 52.7127 19.1539 53.042C19.0846 53.3713 18.9979 53.718 18.8939 54.082C18.8073 54.4287 18.7033 54.784 18.5819 55.148L16.0859 62.974H13.4859L9.66393 49.038H12.0299L13.9539 56.474C14.0926 56.9767 14.2226 57.488 14.3439 58.008C14.4653 58.5107 14.5693 58.996 14.6559 59.464C14.7599 59.9147 14.8293 60.3047 14.8639 60.634H14.9679C15.0199 60.426 15.0806 60.166 15.1499 59.854C15.2193 59.542 15.2886 59.2127 15.3579 58.866C15.4446 58.5193 15.5313 58.1727 15.6179 57.826C15.7219 57.4793 15.8173 57.1673 15.9039 56.89L18.3739 49.038H20.8699L23.2619 56.89C23.3833 57.2887 23.5046 57.7133 23.6259 58.164C23.7646 58.6147 23.8859 59.0567 23.9899 59.49C24.0939 59.906 24.1633 60.2787 24.1979 60.608H24.3019C24.3366 60.3133 24.3973 59.9493 24.4839 59.516C24.5879 59.0653 24.7006 58.58 24.8219 58.06C24.9606 57.5227 25.0993 56.994 25.2379 56.474L27.1879 49.038H29.5279L25.6539 62.974H22.9759L20.5839 55.122ZM34.3154 49.064V63H32.0274V49.064H34.3154ZM33.1974 43.838C33.544 43.838 33.8474 43.9593 34.1074 44.202C34.3847 44.4273 34.5234 44.7913 34.5234 45.294C34.5234 45.7793 34.3847 46.1433 34.1074 46.386C33.8474 46.6287 33.544 46.75 33.1974 46.75C32.816 46.75 32.4954 46.6287 32.2354 46.386C31.9754 46.1433 31.8454 45.7793 31.8454 45.294C31.8454 44.7913 31.9754 44.4273 32.2354 44.202C32.4954 43.9593 32.816 43.838 33.1974 43.838ZM43.3845 61.388C43.7312 61.388 44.0865 61.362 44.4505 61.31C44.8145 61.2407 45.1092 61.1713 45.3345 61.102V62.844C45.0918 62.9653 44.7452 63.0607 44.2945 63.13C43.8438 63.2167 43.4105 63.26 42.9945 63.26C42.2665 63.26 41.5905 63.1387 40.9665 62.896C40.3598 62.636 39.8658 62.194 39.4845 61.57C39.1032 60.946 38.9125 60.0707 38.9125 58.944V50.832H36.9365V49.74L38.9385 48.83L39.8485 45.866H41.2005V49.064H45.2305V50.832H41.2005V58.892C41.2005 59.7413 41.3998 60.374 41.7985 60.79C42.2145 61.1887 42.7432 61.388 43.3845 61.388ZM50.413 49.038C50.413 49.3673 50.3957 49.7053 50.361 50.052C50.3437 50.3987 50.3177 50.7107 50.283 50.988H50.439C50.7337 50.5027 51.1064 50.104 51.557 49.792C52.0077 49.48 52.5104 49.246 53.065 49.09C53.6197 48.9167 54.1917 48.83 54.781 48.83C55.9077 48.83 56.8437 49.012 57.589 49.376C58.3517 49.7227 58.9237 50.2687 59.305 51.014C59.6864 51.7593 59.877 52.73 59.877 53.926V63H57.615V54.082C57.615 52.9553 57.3637 52.1147 56.861 51.56C56.3584 51.0053 55.5697 50.728 54.495 50.728C53.455 50.728 52.6404 50.9273 52.051 51.326C51.4617 51.7073 51.037 52.2793 50.777 53.042C50.5344 53.7873 50.413 54.706 50.413 55.798V63H48.125V43.24H50.413V49.038ZM79.2192 46.23C78.2312 46.23 77.3385 46.4033 76.5412 46.75C75.7439 47.0793 75.0679 47.5733 74.5132 48.232C73.9585 48.8733 73.5339 49.662 73.2392 50.598C72.9445 51.5167 72.7972 52.5567 72.7972 53.718C72.7972 55.2433 73.0312 56.5693 73.4992 57.696C73.9845 58.8227 74.6952 59.6893 75.6312 60.296C76.5845 60.9027 77.7719 61.206 79.1932 61.206C80.0079 61.206 80.7792 61.1367 81.5072 60.998C82.2352 60.8593 82.9459 60.686 83.6392 60.478V62.506C82.9459 62.766 82.2265 62.9567 81.4812 63.078C80.7532 63.1993 79.8779 63.26 78.8552 63.26C76.9659 63.26 75.3885 62.87 74.1232 62.09C72.8579 61.31 71.9045 60.2007 71.2632 58.762C70.6392 57.3233 70.3272 55.6333 70.3272 53.692C70.3272 52.288 70.5179 51.0053 70.8992 49.844C71.2979 48.6827 71.8699 47.6773 72.6152 46.828C73.3779 45.9787 74.3139 45.3287 75.4232 44.878C76.5325 44.41 77.8065 44.176 79.2452 44.176C80.1985 44.176 81.1172 44.2713 82.0012 44.462C82.8852 44.6527 83.6739 44.9213 84.3672 45.268L83.4312 47.244C82.8592 46.984 82.2179 46.75 81.5072 46.542C80.8139 46.334 80.0512 46.23 79.2192 46.23ZM99.4949 56.006C99.4949 57.1673 99.3389 58.1987 99.0269 59.1C98.7323 59.984 98.2989 60.738 97.7269 61.362C97.1723 61.986 96.4876 62.4627 95.6729 62.792C94.8756 63.104 93.9829 63.26 92.9949 63.26C92.0763 63.26 91.2269 63.104 90.4469 62.792C89.6669 62.4627 88.9909 61.986 88.4189 61.362C87.8469 60.738 87.3963 59.984 87.0669 59.1C86.7549 58.1987 86.5989 57.1673 86.5989 56.006C86.5989 54.4633 86.8589 53.1633 87.3789 52.106C87.8989 51.0313 88.6443 50.2167 89.6149 49.662C90.5856 49.09 91.7383 48.804 93.0729 48.804C94.3383 48.804 95.4476 49.09 96.4009 49.662C97.3716 50.2167 98.1256 51.0313 98.6629 52.106C99.2176 53.1633 99.4949 54.4633 99.4949 56.006ZM88.9649 56.006C88.9649 57.098 89.1036 58.0513 89.3809 58.866C89.6756 59.6633 90.1263 60.2787 90.7329 60.712C91.3396 61.1453 92.1109 61.362 93.0469 61.362C93.9829 61.362 94.7543 61.1453 95.3609 60.712C95.9676 60.2787 96.4096 59.6633 96.6869 58.866C96.9816 58.0513 97.1289 57.098 97.1289 56.006C97.1289 54.8967 96.9816 53.952 96.6869 53.172C96.3923 52.392 95.9416 51.794 95.3349 51.378C94.7456 50.9447 93.9743 50.728 93.0209 50.728C91.5996 50.728 90.5683 51.196 89.9269 52.132C89.2856 53.068 88.9649 54.3593 88.9649 56.006ZM114.769 49.064V63H112.897L112.559 61.154H112.455C112.16 61.6393 111.779 62.038 111.311 62.35C110.843 62.662 110.332 62.8873 109.777 63.026C109.222 63.182 108.642 63.26 108.035 63.26C106.926 63.26 105.99 63.0867 105.227 62.74C104.482 62.376 103.918 61.8213 103.537 61.076C103.156 60.3307 102.965 59.3687 102.965 58.19V49.064H105.279V58.034C105.279 59.1433 105.53 59.9753 106.033 60.53C106.536 61.0847 107.316 61.362 108.373 61.362C109.413 61.362 110.228 61.1713 110.817 60.79C111.424 60.3913 111.848 59.8193 112.091 59.074C112.351 58.3113 112.481 57.3927 112.481 56.318V49.064H114.769ZM125.823 48.804C127.539 48.804 128.917 49.402 129.957 50.598C131.015 51.794 131.543 53.5967 131.543 56.006C131.543 57.5833 131.301 58.918 130.815 60.01C130.347 61.0847 129.68 61.8993 128.813 62.454C127.964 62.9913 126.959 63.26 125.797 63.26C125.087 63.26 124.454 63.1647 123.899 62.974C123.345 62.7833 122.868 62.5407 122.469 62.246C122.088 61.934 121.759 61.596 121.481 61.232H121.325C121.36 61.5267 121.395 61.8993 121.429 62.35C121.464 62.8007 121.481 63.1907 121.481 63.52V69.24H119.193V49.064H121.065L121.377 50.962H121.481C121.759 50.5633 122.088 50.1993 122.469 49.87C122.868 49.5407 123.336 49.2807 123.873 49.09C124.428 48.8993 125.078 48.804 125.823 48.804ZM125.407 50.728C124.471 50.728 123.717 50.91 123.145 51.274C122.573 51.6207 122.157 52.1493 121.897 52.86C121.637 53.5707 121.499 54.472 121.481 55.564V56.006C121.481 57.15 121.603 58.1207 121.845 58.918C122.088 59.7153 122.495 60.322 123.067 60.738C123.657 61.154 124.454 61.362 125.459 61.362C126.309 61.362 127.002 61.128 127.539 60.66C128.094 60.192 128.501 59.5593 128.761 58.762C129.039 57.9473 129.177 57.02 129.177 55.98C129.177 54.3853 128.865 53.1113 128.241 52.158C127.635 51.2047 126.69 50.728 125.407 50.728ZM140.467 48.83C142.166 48.83 143.423 49.2027 144.237 49.948C145.052 50.6933 145.459 51.8807 145.459 53.51V63H143.795L143.353 61.024H143.249C142.851 61.5267 142.435 61.9513 142.001 62.298C141.585 62.6273 141.1 62.87 140.545 63.026C140.008 63.182 139.349 63.26 138.569 63.26C137.737 63.26 136.983 63.1127 136.307 62.818C135.649 62.5233 135.129 62.0727 134.747 61.466C134.366 60.842 134.175 60.062 134.175 59.126C134.175 57.7393 134.721 56.6733 135.813 55.928C136.905 55.1653 138.587 54.7493 140.857 54.68L143.223 54.602V53.77C143.223 52.6087 142.972 51.8027 142.469 51.352C141.967 50.9013 141.256 50.676 140.337 50.676C139.609 50.676 138.916 50.7887 138.257 51.014C137.599 51.222 136.983 51.4647 136.411 51.742L135.709 50.026C136.316 49.6967 137.035 49.4193 137.867 49.194C138.699 48.9513 139.566 48.83 140.467 48.83ZM141.143 56.266C139.41 56.3353 138.205 56.6127 137.529 57.098C136.871 57.5833 136.541 58.268 136.541 59.152C136.541 59.932 136.775 60.504 137.243 60.868C137.729 61.232 138.344 61.414 139.089 61.414C140.268 61.414 141.247 61.0933 142.027 60.452C142.807 59.7933 143.197 58.788 143.197 57.436V56.188L141.143 56.266ZM156.472 48.804C158.136 48.804 159.392 49.2113 160.242 50.026C161.091 50.8233 161.516 52.1233 161.516 53.926V63H159.254V54.082C159.254 52.9553 159.002 52.1147 158.5 51.56C157.997 51.0053 157.208 50.728 156.134 50.728C154.591 50.728 153.525 51.1613 152.936 52.028C152.346 52.8947 152.052 54.1427 152.052 55.772V63H149.764V49.064H151.61L151.948 50.962H152.078C152.39 50.4767 152.771 50.078 153.222 49.766C153.69 49.4367 154.201 49.194 154.756 49.038C155.31 48.882 155.882 48.804 156.472 48.804ZM170.776 48.804C171.695 48.804 172.518 48.9773 173.246 49.324C173.991 49.6707 174.624 50.1993 175.144 50.91H175.274L175.586 49.064H177.406V63.234C177.406 64.5513 177.181 65.652 176.73 66.536C176.279 67.4373 175.595 68.1133 174.676 68.564C173.757 69.0147 172.587 69.24 171.166 69.24C170.161 69.24 169.233 69.162 168.384 69.006C167.552 68.8673 166.807 68.6507 166.148 68.356V66.25C166.599 66.4753 167.093 66.666 167.63 66.822C168.167 66.9953 168.748 67.1253 169.372 67.212C169.996 67.2987 170.637 67.342 171.296 67.342C172.492 67.342 173.428 66.9867 174.104 66.276C174.797 65.5827 175.144 64.6293 175.144 63.416V62.87C175.144 62.662 175.153 62.3673 175.17 61.986C175.187 61.5873 175.205 61.31 175.222 61.154H175.118C174.633 61.8647 174.026 62.3933 173.298 62.74C172.587 63.0867 171.755 63.26 170.802 63.26C168.999 63.26 167.587 62.6273 166.564 61.362C165.559 60.0967 165.056 58.3287 165.056 56.058C165.056 54.5673 165.281 53.2847 165.732 52.21C166.2 51.118 166.859 50.2773 167.708 49.688C168.557 49.0987 169.58 48.804 170.776 48.804ZM171.088 50.728C170.308 50.728 169.641 50.936 169.086 51.352C168.549 51.768 168.133 52.3747 167.838 53.172C167.561 53.9693 167.422 54.94 167.422 56.084C167.422 57.8 167.734 59.1173 168.358 60.036C168.999 60.9373 169.927 61.388 171.14 61.388C171.851 61.388 172.457 61.3013 172.96 61.128C173.463 60.9373 173.879 60.6513 174.208 60.27C174.537 59.8713 174.78 59.3687 174.936 58.762C175.092 58.1553 175.17 57.436 175.17 56.604V56.058C175.17 54.7927 175.023 53.77 174.728 52.99C174.451 52.21 174.009 51.638 173.402 51.274C172.795 50.91 172.024 50.728 171.088 50.728Z" fill="#222222"/>
</svg>
