<svg width="32" height="19" viewBox="0 0 32 19" fill="none" xmlns="http://www.w3.org/2000/svg">
<rect x="1" y="1" width="30" height="17" rx="8.5" stroke="#E7223C"/>
<path d="M14.426 11.174H13.15V4.068H14.426V11.174ZM14.646 13.605H7.98V10.569H9.289V12.582H14.646V13.605ZM11.478 4.816C11.456 7.643 9.432 9.458 7.045 10.063L6.418 9.04C8.057 8.754 9.773 7.599 10.081 5.883H6.913V4.816H11.478ZM23.5476 13.748H16.9586V9.678H18.2346V10.778H22.2716V9.656H23.5476V13.748ZM23.5696 4.431C23.5696 5.685 23.4486 6.928 23.2616 7.874H24.6806V8.908H15.8256V7.874H22.0406C22.1836 7.214 22.2936 6.048 22.2826 5.443H16.9806V4.431H23.5696ZM22.2716 12.736V11.746H18.2346V12.736H22.2716Z" fill="#E7223C"/>
</svg>
