<svg width="165" height="150" viewBox="0 0 165 150" fill="none" xmlns="http://www.w3.org/2000/svg">
<g clip-path="url(#clip0_17_13571)">
<rect x="3.22485" y="1.5" width="155.959" height="113.631" fill="#DCC6A6"/>
<path fill-rule="evenodd" clip-rule="evenodd" d="M121.57 11.1855C123.149 11.1855 123.892 11.9945 124.264 12.7101C124.575 13.336 124.647 14.0056 124.681 14.3158C124.687 14.3757 124.692 14.4222 124.697 14.4524V16.8482C124.697 17.0037 124.666 17.7816 124.295 18.5283C123.923 19.2439 123.18 20.0528 121.601 20.0528C120.641 20.0528 119.991 19.6795 119.527 19.275V23.2886C119.527 23.3197 119.496 23.382 119.434 23.382H117.917C117.886 23.382 117.824 23.3509 117.824 23.2886V11.4656C117.824 11.4345 117.855 11.3722 117.917 11.3722H119.31C119.341 11.3722 119.403 11.4033 119.403 11.4656V12.0567C119.836 11.6211 120.549 11.1855 121.57 11.1855ZM121.196 18.5283C122.651 18.5283 122.899 17.2838 122.899 16.9104V14.3591C122.899 14.0169 122.682 12.7412 121.196 12.7412C119.741 12.7412 119.493 13.9857 119.493 14.3591V16.9104C119.493 17.2526 119.71 18.5283 121.196 18.5283Z" fill="#222222"/>
<path fill-rule="evenodd" clip-rule="evenodd" d="M101.905 12.7394C101.503 13.4861 101.472 14.2639 101.472 14.4195V16.8152C101.472 16.9708 101.472 17.7486 101.905 18.4954C102.308 19.211 103.175 20.0199 104.909 20.0199C106.673 20.0199 107.509 19.211 107.912 18.4954C108.314 17.7486 108.345 16.9708 108.345 16.8152V14.4195C108.345 14.2639 108.345 13.4861 107.912 12.7394C107.509 12.0238 106.642 11.2148 104.909 11.2148C103.175 11.2148 102.308 12.0238 101.905 12.7394ZM104.906 18.4946C103.451 18.4946 103.203 17.2501 103.203 16.8767V14.3254C103.203 13.9832 103.42 12.7075 104.906 12.7075C106.392 12.7075 106.64 13.9521 106.64 14.3254V16.8767C106.64 17.2189 106.392 18.4946 104.906 18.4946Z" fill="#222222"/>
<path d="M116.428 11.4654C116.428 11.4032 116.397 11.3721 116.335 11.3721H114.818C114.756 11.3721 114.725 11.4343 114.725 11.4654V16.8791C114.725 17.2525 114.478 18.497 113.022 18.497C111.536 18.497 111.289 17.2214 111.289 16.8791V11.4654C111.289 11.4032 111.227 11.3721 111.196 11.3721H109.679C109.617 11.3721 109.586 11.4343 109.586 11.4654V16.8169C109.586 16.9725 109.586 17.7503 109.988 18.497C110.36 19.2126 111.103 20.0216 112.682 20.0216C113.208 20.0216 113.642 19.9282 113.982 19.7416C114.323 19.586 114.632 19.3682 114.849 19.1504V19.7416C114.849 19.8038 114.911 19.8349 114.942 19.8349H116.335C116.397 19.8349 116.428 19.7727 116.428 19.7416V11.4654Z" fill="#222222"/>
<path fill-rule="evenodd" clip-rule="evenodd" d="M130.36 11.434C131.877 12.0562 132.218 13.643 132.218 14.3275C132.218 14.3431 132.218 14.3509 132.214 14.3548C132.21 14.3586 132.202 14.3586 132.187 14.3586V19.7412C132.187 19.7723 132.156 19.8346 132.094 19.8346H130.763C130.732 19.8346 130.67 19.8034 130.67 19.7412V19.3368C130.205 19.679 129.586 20.0212 128.657 20.0212C127.078 20.0212 126.335 19.2745 125.964 18.59C125.592 17.9055 125.561 17.1588 125.561 17.0033C125.561 16.8788 125.592 16.1321 125.964 15.4165C126.335 14.7631 127.078 13.9853 128.657 13.9853C129.555 14.0164 130.175 14.3275 130.608 14.6386V14.3897C130.608 14.3821 130.608 14.3713 130.609 14.3576C130.616 14.1489 130.644 13.274 129.772 12.8652C128.843 12.4296 127.326 12.9274 126.738 13.2385C126.722 13.2385 126.715 13.2463 126.707 13.2541C126.699 13.2619 126.691 13.2697 126.676 13.2697C126.614 13.3008 126.583 13.2697 126.552 13.2074L126.119 11.9629C126.088 11.9007 126.119 11.8384 126.181 11.8073L126.304 11.7451C126.924 11.4962 128.874 10.8117 130.36 11.434ZM128.933 18.5588C130.357 18.5588 130.605 17.3765 130.605 17.0343V16.9098C130.605 16.5676 130.357 15.3853 128.933 15.3853C127.509 15.3853 127.261 16.5676 127.261 16.9098V17.0343C127.261 17.3765 127.509 18.5588 128.933 18.5588Z" fill="#222222"/>
<path fill-rule="evenodd" clip-rule="evenodd" d="M147.517 11.9927C147.888 11.5882 148.446 11.2148 149.343 11.246C149.405 11.246 149.467 11.3082 149.467 11.4015V12.6149C149.467 12.6461 149.405 12.7083 149.343 12.7083C148.817 12.6772 148.446 12.8327 148.229 12.9883C148.507 13.5795 148.507 14.1395 148.507 14.2639V14.4195C148.507 14.5751 148.507 15.3218 148.074 16.0374C147.671 16.7219 146.805 17.4997 145.071 17.4997H144.885C144.881 17.4997 144.877 17.4997 144.872 17.4997C144.673 17.4989 143.518 17.4941 143.337 18.5265H146.774C148.012 18.5265 149.003 19.211 149.251 20.3933C149.436 21.2644 149.281 22.3534 148.415 23.1624C148.322 23.2557 148.229 23.349 148.105 23.4113C147.981 23.4735 147.641 23.6913 147.641 23.6913C147.579 23.7224 147.517 23.7224 147.486 23.6602L146.805 22.4468C146.774 22.3845 146.774 22.3223 146.836 22.2912L146.897 22.2601C147.702 21.8245 147.857 21.2022 147.764 20.7355C147.671 20.3622 147.362 19.9577 146.774 19.9577H141.789C141.758 19.9577 141.696 19.8955 141.696 19.8332V19.1799C141.696 17.9664 142.284 17.2819 142.934 16.9086C142.532 16.6286 142.253 16.3174 142.067 16.0063C141.665 15.2907 141.634 14.544 141.634 14.3884V14.2951C141.634 14.1395 141.634 13.3928 142.067 12.6772C142.47 11.9927 143.337 11.2148 145.071 11.2148C146.247 11.2148 147.021 11.5571 147.517 11.9927ZM145.068 15.9122C146.524 15.8811 146.771 14.6988 146.771 14.3565V14.2632C146.771 13.9209 146.554 12.7075 145.068 12.7075C143.613 12.7386 143.365 13.9209 143.365 14.2632V14.3565C143.365 14.6988 143.582 15.9122 145.068 15.9122Z" fill="#222222"/>
<path d="M100.916 18.2176L99.5848 17.5331C99.5229 17.502 99.461 17.5331 99.43 17.5953V17.6264C99.2133 18.062 98.7799 18.5287 97.882 18.5598C96.3958 18.5598 96.1791 17.2842 96.1791 16.9419V14.3906C96.1791 14.0173 96.4268 12.7727 97.882 12.7727C98.7799 12.7727 99.2443 13.2705 99.43 13.7061C99.461 13.7372 99.492 13.7995 99.5539 13.7995C99.5848 13.7995 99.5848 13.7995 99.6158 13.7995L100.916 13.115C100.978 13.0839 100.978 13.0216 100.947 12.9594C100.916 12.8972 100.885 12.8661 100.885 12.8038C100.483 12.0882 99.6468 11.2793 97.882 11.2793C96.1481 11.2793 95.2812 12.0882 94.8787 12.8038C94.4453 13.4572 94.4143 14.2662 94.4143 14.4217V16.8175C94.4143 16.973 94.4453 17.7509 94.8478 18.4976C95.2503 19.2132 96.0862 20.0221 97.851 20.0221H97.882C99.6158 20.0221 100.483 19.2132 100.885 18.4976L100.978 18.342C100.978 18.3109 100.947 18.2487 100.916 18.2176Z" fill="#222222"/>
<path d="M140.048 12.7101C139.677 11.9945 138.903 11.1855 137.355 11.1855C136.333 11.1855 135.652 11.6211 135.187 12.0567V11.4656C135.187 11.4033 135.126 11.3722 135.095 11.3722H133.701C133.639 11.3722 133.608 11.4345 133.608 11.4656V19.7728C133.608 19.835 133.67 19.8662 133.701 19.8662H135.218C135.28 19.8662 135.311 19.8039 135.311 19.7728V14.2658C135.342 13.8302 135.652 12.7412 137.014 12.7101C138.5 12.7101 138.748 13.9857 138.748 14.328V19.7728C138.748 19.835 138.81 19.8662 138.841 19.8662H140.358C140.42 19.8662 140.451 19.8039 140.451 19.7728V14.4213C140.451 14.2658 140.451 13.4568 140.048 12.7101Z" fill="#222222"/>
<rect x="3.22485" y="57.1787" width="155.959" height="2.27262" fill="#BFA183"/>
<rect x="3.22485" y="57.1787" width="155.959" height="2.27262" fill="#BFA183"/>
<rect x="3.22485" y="48.373" width="155.959" height="20.1695" fill="#BFA183" fill-opacity="0.3"/>
<rect x="10.7782" y="21.6021" width="38.125" height="16.625" rx="8.3125" transform="rotate(-14.5551 10.7782 21.6021)" stroke="#695543" stroke-width="1.525"/>
<path d="M27.897 20.1593L28.6635 23.1115L30.1632 22.7221L30.4606 23.8675L28.9609 24.2569L29.8684 27.7522L28.475 28.114L26.5036 20.5211L27.897 20.1593ZM30.7971 30.3093L23.7238 32.1458L22.8622 28.8276L24.232 28.472L24.8084 30.692L30.5119 29.2111L30.7971 30.3093ZM26.4788 26.9307L21.4956 28.2245L20.1313 22.9698L21.4892 22.6172L21.9185 24.2703L24.1621 23.6878L23.7267 22.011L25.1083 21.6523L26.4788 26.9307ZM24.8243 26.2384L24.4349 24.7388L22.1913 25.3213L22.5807 26.821L24.8243 26.2384ZM40.8681 27.8708L33.7831 29.7104L32.8817 26.2388L35.7039 25.506L35.5046 24.7384L31.4779 25.7839L31.1897 24.6739L40.6955 22.2058L40.9837 23.3158L36.898 24.3766L37.0973 25.1442L39.9667 24.3992L40.8681 27.8708ZM39.5288 21.7903L31.9478 23.7586L31.6657 22.6723L33.1182 22.2951C32.9159 21.8561 32.6962 21.4468 32.5027 20.9928C32.9274 20.8321 33.3577 20.6448 33.7793 20.4723C33.9881 20.9853 34.2144 21.4685 34.4053 21.961L36.519 21.4121L36.3802 19.8096C36.8443 19.7521 37.3083 19.6947 37.7693 19.6254L37.8179 21.0749L39.2468 20.7039L39.5288 21.7903ZM38.7947 18.8172L31.1546 20.8009L30.8726 19.7145L38.5126 17.7308L38.7947 18.8172ZM39.2312 27.1489L38.8847 25.8145L34.5274 26.9459L34.8738 28.2802L39.2312 27.1489Z" fill="#695543"/>
</g>
<path fill-rule="evenodd" clip-rule="evenodd" d="M149.625 107.487H84.8125V41.9121H149.625V107.487Z" fill="white"/>
<path fill-rule="evenodd" clip-rule="evenodd" d="M97.0287 101.179H90.9204V74.71H97.0287V101.179ZM101.103 101.179H99.0667V74.71H101.103V101.179ZM143.859 101.179H141.824H141.823H135.716V74.71H141.823H141.824H143.859V101.179ZM131.643 101.179H133.679V74.71H131.643V101.179ZM125.533 101.179H123.497V74.71H125.533V101.179ZM127.571 101.179H129.607V74.71H127.571V101.179ZM109.245 101.179H107.209V74.71H109.245V101.179ZM103.137 101.179H105.173V74.71H103.137V101.179ZM121.461 101.179H115.353H115.353H113.317V74.71H115.353H115.353H121.461V101.179Z" fill="#363636"/>
<path opacity="0.8" d="M164.875 87.6621L164.875 98.3371L70.3251 98.3371L70.3251 87.6621L164.875 87.6621Z" fill="url(#paint0_linear_17_13571)"/>
<path d="M119.25 109.239C118.646 108.335 117.316 108.335 116.713 109.239L103.169 129.539C102.493 130.553 103.22 131.911 104.438 131.911H108.895C109.737 131.911 110.42 132.593 110.42 133.436V147.75C110.42 148.593 111.102 149.275 111.945 149.275H124.018C124.86 149.275 125.543 148.593 125.543 147.75V133.436C125.543 132.593 126.226 131.911 127.068 131.911H131.524C132.742 131.911 133.469 130.553 132.793 129.539L119.25 109.239Z" fill="#E7223C"/>
<defs>
<linearGradient id="paint0_linear_17_13571" x1="111.101" y1="88.6907" x2="111.101" y2="92.7418" gradientUnits="userSpaceOnUse">
<stop stop-color="#FF0000"/>
<stop offset="1" stop-color="#FF0000" stop-opacity="0.01"/>
<stop offset="1" stop-color="white" stop-opacity="0"/>
</linearGradient>
<clipPath id="clip0_17_13571">
<rect x="3.22485" y="1.5" width="155.959" height="113.631" rx="2.94635" fill="white"/>
</clipPath>
</defs>
</svg>
