<svg width="50" height="25" viewBox="0 0 50 25" fill="none" xmlns="http://www.w3.org/2000/svg">
<rect x="1" y="1" width="48" height="23" rx="8" fill="white"/>
<rect x="1" y="1" width="48" height="23" rx="8" stroke="#2267FF"/>
<path d="M18.3 17.34H17.4V11.82H16.104V16.812H15.228V7.104H16.104V11.064H17.4V6.852H18.3V17.34ZM14.736 14.136L14.16 14.808C13.416 14.292 12.384 13.032 12.084 11.928C11.868 13.092 10.92 14.328 9.9 15.06L9.288 14.412C10.524 13.62 11.628 11.964 11.628 9.936V8.868H9.54V8.112H14.544V8.868H12.528V9.9C12.528 11.976 13.632 13.452 14.736 14.136ZM28.4788 17.34H27.5548V6.852H28.4788V17.34ZM26.2228 14.124L25.6468 14.82C24.6988 14.172 23.4628 12.876 23.0548 11.616C22.6708 12.924 21.5908 14.208 20.3788 15.072L19.7788 14.388C21.3148 13.428 22.5748 11.52 22.5748 9.66V7.764H23.4988V9.624C23.4988 11.544 24.7708 13.26 26.2228 14.124ZM39.6896 16.008H30.2216V15.24H34.4816V12.672H31.3616V7.74H38.5616V8.496H32.2856V11.916H38.6216V12.672H35.3936V15.24H39.6896V16.008Z" fill="#2267FF"/>
</svg>
