<svg width="360" height="89" viewBox="0 0 360 89" fill="none" xmlns="http://www.w3.org/2000/svg">
<rect x="1" y="1" width="358" height="87" rx="43.5" stroke="#2267FF" stroke-width="2"/>
<path d="M102.426 43.552H69.4209V39.698H102.426V43.552ZM99.3509 60.075H73.4799V51.096H93.4879V49.374H73.3979V45.602H98.2439V54.458H78.2769V56.139H99.3509V60.075ZM99.0229 37.976H72.7009V34.204H77.7849L77.0469 29.981L81.7209 29.325L82.2949 34.204H89.4699L90.2489 29.325L94.8819 29.981L93.9389 34.204H99.0229V37.976ZM99.1049 28.3H72.5779V24.528H99.1049V28.3ZM135.974 46.217H131.382V23.708H135.974V46.217ZM124.576 37.279H121.173V33.466H124.576V24.405H129.045V46.012H124.576V37.279ZM121.911 40.518L122.403 44.167C119.205 44.905 113.055 45.233 108.873 45.233H106.454V33.671H115.105V30.186H106.29V26.373H119.902V37.361H111.21V41.461C114.285 41.461 119.41 41.133 121.911 40.518ZM110.185 47.939H135.974V60.28H131.177V51.752H110.185V47.939ZM173.375 55.483H140.37V51.67H173.375V55.483ZM172.678 40.518L170.259 44.249C165.257 43.101 158.943 39.288 156.852 34.491C154.966 39.411 148.447 43.306 143.404 44.413L141.149 40.518C147.135 39.657 154.392 34.819 154.392 28.341V25.922H159.394V28.341C159.394 34.778 167.102 39.575 172.678 40.518ZM217.693 60.239H213.101V41.83H210.149V58.558H205.639V24.364H210.149V38.017H213.101V23.708H217.693V60.239ZM202.072 50.768H187.476V27.48H192.232V35.885H197.316V27.439H202.072V50.768ZM197.316 46.996V39.575H192.232V46.996H197.316ZM251.323 53.392C251.323 57.574 246.69 60.157 238.613 60.157C230.536 60.157 225.862 57.574 225.862 53.392C225.862 49.21 230.536 46.586 238.572 46.586C246.69 46.586 251.323 49.21 251.323 53.392ZM238.613 30.842C236.768 35.024 230.823 37.935 225.534 38.632L223.525 34.901C229.634 34.286 236.153 30.965 236.153 25.471V24.405H241.114V25.471C241.114 30.965 248.535 34.655 253.783 34.901L251.733 38.673C246.854 37.976 240.458 35.024 238.613 30.842ZM255.095 44.905H222.09V41.092H236.194V36.377H240.991V41.092H255.095V44.905ZM246.403 53.392C246.403 51.547 243.328 50.399 238.572 50.399C233.857 50.399 230.823 51.547 230.823 53.392C230.823 55.278 233.857 56.385 238.572 56.385C243.328 56.385 246.403 55.278 246.403 53.392ZM261.295 31.58C261.295 27.521 265.887 24.528 274.046 24.528C282.287 24.528 286.838 27.521 286.838 31.58C286.838 33.835 285.403 35.762 282.697 37.033V41.338H290.569V45.151H257.564V41.338H265.272V36.91C262.689 35.639 261.295 33.753 261.295 31.58ZM286.797 53.433C286.797 57.656 282.164 60.28 274.087 60.28C266.01 60.28 261.377 57.656 261.377 53.433C261.377 49.292 266.01 46.668 274.046 46.668C282.164 46.668 286.797 49.292 286.797 53.433ZM266.256 31.58C266.256 33.507 269.126 34.901 274.046 34.901C278.884 34.901 281.918 33.507 281.918 31.58C281.918 29.571 279.048 28.177 274.046 28.177C269.126 28.177 266.256 29.571 266.256 31.58ZM281.877 53.474C281.877 51.588 278.802 50.481 274.046 50.481C269.331 50.481 266.297 51.588 266.297 53.474C266.297 55.36 269.331 56.467 274.046 56.467C278.802 56.467 281.877 55.36 281.877 53.474ZM274.087 38.591C272.652 38.591 271.299 38.468 270.069 38.304V41.338H277.9V38.345C276.711 38.509 275.44 38.591 274.087 38.591Z" fill="#2267FF"/>
</svg>
