<svg width="165" height="151" viewBox="0 0 165 151" fill="none" xmlns="http://www.w3.org/2000/svg">
<g clip-path="url(#clip0_17_13572)">
<rect x="3.22485" y="1.63477" width="155.959" height="113.631" fill="#DCC6A6"/>
<path fill-rule="evenodd" clip-rule="evenodd" d="M121.57 11.3203C123.149 11.3203 123.892 12.1293 124.264 12.8449C124.575 13.4708 124.647 14.1404 124.681 14.4506C124.687 14.5105 124.692 14.557 124.697 14.5872V16.9829C124.697 17.1385 124.666 17.9163 124.295 18.6631C123.923 19.3787 123.18 20.1876 121.601 20.1876C120.641 20.1876 119.991 19.8142 119.527 19.4098V23.4234C119.527 23.4545 119.496 23.5167 119.434 23.5167H117.917C117.886 23.5167 117.824 23.4856 117.824 23.4234V11.6003C117.824 11.5692 117.855 11.507 117.917 11.507H119.31C119.341 11.507 119.403 11.5381 119.403 11.6003V12.1915C119.836 11.7559 120.549 11.3203 121.57 11.3203ZM121.196 18.6631C122.651 18.6631 122.899 17.4185 122.899 17.0452V14.4939C122.899 14.1516 122.682 12.876 121.196 12.876C119.741 12.876 119.493 14.1205 119.493 14.4939V17.0452C119.493 17.3874 119.71 18.6631 121.196 18.6631Z" fill="#222222"/>
<path fill-rule="evenodd" clip-rule="evenodd" d="M101.905 12.8742C101.503 13.6209 101.472 14.3987 101.472 14.5543V16.95C101.472 17.1056 101.472 17.8834 101.905 18.6301C102.308 19.3457 103.175 20.1547 104.909 20.1547C106.673 20.1547 107.509 19.3457 107.912 18.6301C108.314 17.8834 108.345 17.1056 108.345 16.95V14.5543C108.345 14.3987 108.345 13.6209 107.912 12.8742C107.509 12.1586 106.642 11.3496 104.909 11.3496C103.175 11.3496 102.308 12.1586 101.905 12.8742ZM104.906 18.6289C103.451 18.6289 103.203 17.3843 103.203 17.011V14.4597C103.203 14.1174 103.42 12.8418 104.906 12.8418C106.392 12.8418 106.64 14.0863 106.64 14.4597V17.011C106.64 17.3532 106.392 18.6289 104.906 18.6289Z" fill="#222222"/>
<path d="M116.428 11.6002C116.428 11.5379 116.397 11.5068 116.335 11.5068H114.818C114.756 11.5068 114.725 11.5691 114.725 11.6002V17.0139C114.725 17.3873 114.478 18.6318 113.022 18.6318C111.536 18.6318 111.289 17.3561 111.289 17.0139V11.6002C111.289 11.5379 111.227 11.5068 111.196 11.5068H109.679C109.617 11.5068 109.586 11.5691 109.586 11.6002V16.9517C109.586 17.1072 109.586 17.8851 109.988 18.6318C110.36 19.3474 111.103 20.1563 112.682 20.1563C113.208 20.1563 113.642 20.063 113.982 19.8763C114.323 19.7207 114.632 19.503 114.849 19.2852V19.8763C114.849 19.9385 114.911 19.9697 114.942 19.9697H116.335C116.397 19.9697 116.428 19.9074 116.428 19.8763V11.6002Z" fill="#222222"/>
<path fill-rule="evenodd" clip-rule="evenodd" d="M130.36 11.5687C131.877 12.191 132.218 13.7778 132.218 14.4623C132.218 14.4779 132.218 14.4856 132.214 14.4895C132.21 14.4934 132.202 14.4934 132.187 14.4934V19.876C132.187 19.9071 132.156 19.9693 132.094 19.9693H130.763C130.732 19.9693 130.67 19.9382 130.67 19.876V19.4715C130.205 19.8138 129.586 20.156 128.657 20.156C127.078 20.156 126.335 19.4093 125.964 18.7248C125.592 18.0403 125.561 17.2936 125.561 17.138C125.561 17.0136 125.592 16.2668 125.964 15.5512C126.335 14.8979 127.078 14.12 128.657 14.12C129.555 14.1511 130.175 14.4623 130.608 14.7734V14.5245C130.608 14.5169 130.608 14.5061 130.609 14.4924C130.616 14.2837 130.644 13.4088 129.772 12.9999C128.843 12.5644 127.326 13.0622 126.738 13.3733C126.722 13.3733 126.715 13.3811 126.707 13.3889C126.699 13.3966 126.691 13.4044 126.676 13.4044C126.614 13.4355 126.583 13.4044 126.552 13.3422L126.119 12.0977C126.088 12.0354 126.119 11.9732 126.181 11.9421L126.304 11.8799C126.924 11.631 128.874 10.9465 130.36 11.5687ZM128.933 18.6931C130.357 18.6931 130.605 17.5108 130.605 17.1685V17.0441C130.605 16.7018 130.357 15.5195 128.933 15.5195C127.509 15.5195 127.261 16.7018 127.261 17.0441V17.1685C127.261 17.5108 127.509 18.6931 128.933 18.6931Z" fill="#222222"/>
<path fill-rule="evenodd" clip-rule="evenodd" d="M147.517 12.1274C147.888 11.723 148.446 11.3496 149.343 11.3807C149.405 11.3807 149.467 11.4429 149.467 11.5363V12.7497C149.467 12.7808 149.405 12.843 149.343 12.843C148.817 12.8119 148.446 12.9675 148.229 13.1231C148.507 13.7142 148.507 14.2743 148.507 14.3987V14.5543C148.507 14.7098 148.507 15.4566 148.074 16.1722C147.671 16.8567 146.805 17.6345 145.071 17.6345H144.885C144.881 17.6345 144.877 17.6345 144.872 17.6345C144.673 17.6336 143.518 17.6288 143.337 18.6612H146.774C148.012 18.6612 149.003 19.3457 149.251 20.528C149.436 21.3992 149.281 22.4882 148.415 23.2971C148.322 23.3905 148.229 23.4838 148.105 23.546C147.981 23.6083 147.641 23.826 147.641 23.826C147.579 23.8572 147.517 23.8572 147.486 23.7949L146.805 22.5815C146.774 22.5193 146.774 22.4571 146.836 22.4259L146.897 22.3948C147.702 21.9592 147.857 21.337 147.764 20.8703C147.671 20.4969 147.362 20.0925 146.774 20.0925H141.789C141.758 20.0925 141.696 20.0302 141.696 19.968V19.3146C141.696 18.1012 142.284 17.4167 142.934 17.0433C142.532 16.7633 142.253 16.4522 142.067 16.1411C141.665 15.4255 141.634 14.6787 141.634 14.5232V14.4298C141.634 14.2743 141.634 13.5275 142.067 12.8119C142.47 12.1274 143.337 11.3496 145.071 11.3496C146.247 11.3496 147.021 11.6919 147.517 12.1274ZM145.068 16.0465C146.524 16.0154 146.771 14.833 146.771 14.4908V14.3975C146.771 14.0552 146.554 12.8418 145.068 12.8418C143.613 12.8729 143.365 14.0552 143.365 14.3975V14.4908C143.365 14.833 143.582 16.0465 145.068 16.0465Z" fill="#222222"/>
<path d="M100.916 18.3523L99.5848 17.6678C99.5229 17.6367 99.461 17.6678 99.43 17.7301V17.7612C99.2133 18.1968 98.7799 18.6635 97.882 18.6946C96.3958 18.6946 96.1791 17.4189 96.1791 17.0767V14.5254C96.1791 14.152 96.4268 12.9075 97.882 12.9075C98.7799 12.9075 99.2443 13.4053 99.43 13.8409C99.461 13.872 99.492 13.9342 99.5539 13.9342C99.5848 13.9342 99.5848 13.9342 99.6158 13.9342L100.916 13.2497C100.978 13.2186 100.978 13.1564 100.947 13.0942C100.916 13.032 100.885 13.0008 100.885 12.9386C100.483 12.223 99.6468 11.4141 97.882 11.4141C96.1481 11.4141 95.2812 12.223 94.8787 12.9386C94.4453 13.592 94.4143 14.4009 94.4143 14.5565V16.9522C94.4143 17.1078 94.4453 17.8856 94.8478 18.6323C95.2503 19.348 96.0862 20.1569 97.851 20.1569H97.882C99.6158 20.1569 100.483 19.348 100.885 18.6323L100.978 18.4768C100.978 18.4457 100.947 18.3834 100.916 18.3523Z" fill="#222222"/>
<path d="M140.048 12.8449C139.677 12.1293 138.903 11.3203 137.355 11.3203C136.333 11.3203 135.652 11.7559 135.187 12.1915V11.6003C135.187 11.5381 135.126 11.507 135.095 11.507H133.701C133.639 11.507 133.608 11.5692 133.608 11.6003V19.9076C133.608 19.9698 133.67 20.0009 133.701 20.0009H135.218C135.28 20.0009 135.311 19.9387 135.311 19.9076V14.4005C135.342 13.9649 135.652 12.876 137.014 12.8449C138.5 12.8449 138.748 14.1205 138.748 14.4628V19.9076C138.748 19.9698 138.81 20.0009 138.841 20.0009H140.358C140.42 20.0009 140.451 19.9387 140.451 19.9076V14.5561C140.451 14.4005 140.451 13.5916 140.048 12.8449Z" fill="#222222"/>
<rect x="3.22485" y="57.3135" width="155.959" height="2.27262" fill="#BFA183"/>
<rect x="3.22485" y="57.3135" width="155.959" height="2.27262" fill="#BFA183"/>
<rect x="3.22485" y="48.5078" width="155.959" height="20.1695" fill="#BFA183" fill-opacity="0.3"/>
<rect x="4.31735" y="23.4146" width="51.475" height="16.625" rx="8.3125" transform="rotate(-14.5551 4.31735 23.4146)" stroke="#695543" stroke-width="1.525"/>
<path d="M12.4695 34.0187L10.3663 25.9181L13.0822 25.2129C14.9479 24.7285 16.1098 25.2713 16.5207 26.8537C16.815 27.9873 16.4164 28.7336 15.5991 29.3239L15.6145 29.383L18.5509 32.4397L16.9686 32.8506L14.3126 30.0487L13.0727 30.3706L13.922 33.6416L12.4695 34.0187ZM12.8121 29.3669L13.9221 29.0787C14.973 28.8059 15.2786 28.2349 15.0333 27.2903C14.7941 26.3692 14.2473 26.1078 13.2082 26.3777L12.11 26.6628L12.8121 29.3669ZM22.3234 31.5736C20.3042 32.0979 19.0149 31.2101 18.5151 29.2853L18.4722 29.12C17.9418 27.0771 18.921 25.7514 20.468 25.3498C22.2628 24.8838 23.3028 25.6851 23.8056 27.6217L23.9528 28.1885L19.9852 29.2187C20.3959 30.4607 21.1618 30.7408 22.3191 30.4404C23.0984 30.238 23.6193 29.9137 24.0801 29.5042L24.3254 30.4488C23.9826 30.8277 23.3508 31.3069 22.3234 31.5736ZM20.7049 26.3597C20.0791 26.5221 19.5155 27.0214 19.7429 28.2858L22.329 27.6144C22.0316 26.469 21.4961 26.1542 20.7049 26.3597ZM28.0547 30.0477C27.0037 30.3206 26.2203 30.0703 25.9229 28.9249L25.0092 25.4059L24.159 25.6267L23.8831 24.5639L24.7333 24.3432L24.3623 22.9143L25.6967 22.5679L26.0676 23.9967L27.5201 23.6196L27.796 24.6824L26.3436 25.0595L27.2082 28.3895C27.34 28.8972 27.578 29.0371 28.2157 28.8715C28.4518 28.8102 28.6906 28.7104 28.8878 28.5962L29.1239 29.5054C28.9184 29.6848 28.6215 29.9006 28.0547 30.0477ZM32.2435 28.998C31.0627 29.3046 30.2512 28.8976 29.9415 27.705L28.7948 23.2886L30.1528 22.936L31.232 27.0926C31.4037 27.7539 31.7104 27.9642 32.4662 27.7679C32.9975 27.63 33.3854 27.3276 33.7291 27.0493L32.5027 22.3259L33.8607 21.9733L35.4397 28.0547L34.2588 28.3613L34.0028 27.8605L33.9437 27.8759C33.531 28.3738 33.0111 28.7987 32.2435 28.998ZM37.0284 27.6421L35.4495 21.5608L36.7602 21.2205L36.9442 21.929L36.9914 21.9167C37.2086 21.3939 37.7517 20.9126 38.3893 20.7471C38.5546 20.7041 38.7112 20.6761 38.7764 20.6844L39.0891 21.8888C38.9295 21.9051 38.7257 21.9454 38.584 21.9822C38.0408 22.1232 37.5374 22.4178 37.2121 22.7669L38.3864 27.2896L37.0284 27.6421ZM41.4797 26.4864L39.9007 20.4051L41.2114 20.0647L41.3525 20.6079L41.3997 20.5957C41.8212 20.0829 42.4946 19.6181 43.2267 19.428C44.3957 19.1245 45.1206 19.4405 45.4333 20.6449L46.6046 25.1558L45.2348 25.5114L44.1463 21.3194C43.9869 20.7054 43.7218 20.5095 42.8952 20.7241C42.4229 20.8468 41.9313 21.1383 41.6113 21.4104L42.8377 26.1338L41.4797 26.4864ZM49.8691 24.409C49.078 24.6144 48.3327 24.6567 47.7544 24.5169L47.4968 23.525C48.0567 23.5939 48.5514 23.6545 49.4016 23.4338C50.2518 23.213 50.5325 22.8376 50.416 22.3889C50.3026 21.952 50.0112 21.8008 49.3131 21.8308L48.7126 21.848C47.7307 21.9013 46.994 21.5884 46.7119 20.502C46.4207 19.3802 46.954 18.4729 48.4891 18.0743C49.3157 17.8597 49.8751 17.8783 50.3226 17.9512L50.5893 18.9785C50.1952 18.917 49.5588 18.8932 48.8739 19.071C48.1654 19.2549 47.8488 19.5892 47.9715 20.0616C48.0818 20.4867 48.3579 20.5789 48.9733 20.5703L49.5856 20.55C50.8488 20.5119 51.432 20.8647 51.7048 21.9156C52.0329 23.1791 51.357 24.0227 49.8691 24.409Z" fill="#695543"/>
</g>
<path fill-rule="evenodd" clip-rule="evenodd" d="M149.625 107.622H84.8125V42.0469H149.625V107.622Z" fill="white"/>
<path fill-rule="evenodd" clip-rule="evenodd" d="M97.0287 101.314H90.9204V74.8447H97.0287V101.314ZM101.103 101.314H99.0667V74.8447H101.103V101.314ZM143.859 101.314H141.824H141.823H135.716V74.8447H141.823H141.824H143.859V101.314ZM131.643 101.314H133.679V74.8447H131.643V101.314ZM125.533 101.314H123.497V74.8447H125.533V101.314ZM127.571 101.314H129.607V74.8447H127.571V101.314ZM109.245 101.314H107.209V74.8447H109.245V101.314ZM103.137 101.314H105.173V74.8447H103.137V101.314ZM121.461 101.314H115.353H115.353H113.317V74.8447H115.353H115.353H121.461V101.314Z" fill="#363636"/>
<path opacity="0.8" d="M164.875 87.7969L164.875 98.4719L70.3251 98.4719L70.3251 87.7969L164.875 87.7969Z" fill="url(#paint0_linear_17_13572)"/>
<path d="M119.25 109.374C118.646 108.469 117.316 108.469 116.713 109.374L103.169 129.674C102.493 130.687 103.22 132.045 104.438 132.045H108.895C109.737 132.045 110.42 132.728 110.42 133.57V147.885C110.42 148.727 111.102 149.41 111.945 149.41H124.018C124.86 149.41 125.543 148.727 125.543 147.885V133.57C125.543 132.728 126.226 132.045 127.068 132.045H131.524C132.742 132.045 133.469 130.687 132.793 129.674L119.25 109.374Z" fill="#E7223C"/>
<defs>
<linearGradient id="paint0_linear_17_13572" x1="111.101" y1="88.8254" x2="111.101" y2="92.8765" gradientUnits="userSpaceOnUse">
<stop stop-color="#FF0000"/>
<stop offset="1" stop-color="#FF0000" stop-opacity="0.01"/>
<stop offset="1" stop-color="white" stop-opacity="0"/>
</linearGradient>
<clipPath id="clip0_17_13572">
<rect x="3.22485" y="1.63477" width="155.959" height="113.631" rx="2.94635" fill="white"/>
</clipPath>
</defs>
</svg>
